%TF.GenerationSoftware,KiCad,Pcbnew,(6.0.7)*%
%TF.CreationDate,2022-08-30T14:04:15+02:00*%
%TF.ProjectId,LibreCAL,4c696272-6543-4414-9c2e-6b696361645f,rev?*%
%TF.SameCoordinates,Original*%
%TF.FileFunction,Legend,Bot*%
%TF.FilePolarity,Positive*%
%FSLAX46Y46*%
G04 Gerber Fmt 4.6, Leading zero omitted, Abs format (unit mm)*
G04 Created by KiCad (PCBNEW (6.0.7)) date 2022-08-30 14:04:15*
%MOMM*%
%LPD*%
G01*
G04 APERTURE LIST*
%ADD10C,0.150000*%
%ADD11C,0.120000*%
G04 APERTURE END LIST*
D10*
X111142857Y-90452380D02*
X111142857Y-89452380D01*
X110761904Y-89452380D01*
X110666666Y-89500000D01*
X110619047Y-89547619D01*
X110571428Y-89642857D01*
X110571428Y-89785714D01*
X110619047Y-89880952D01*
X110666666Y-89928571D01*
X110761904Y-89976190D01*
X111142857Y-89976190D01*
X109952380Y-89452380D02*
X109761904Y-89452380D01*
X109666666Y-89500000D01*
X109571428Y-89595238D01*
X109523809Y-89785714D01*
X109523809Y-90119047D01*
X109571428Y-90309523D01*
X109666666Y-90404761D01*
X109761904Y-90452380D01*
X109952380Y-90452380D01*
X110047619Y-90404761D01*
X110142857Y-90309523D01*
X110190476Y-90119047D01*
X110190476Y-89785714D01*
X110142857Y-89595238D01*
X110047619Y-89500000D01*
X109952380Y-89452380D01*
X108523809Y-90452380D02*
X108857142Y-89976190D01*
X109095238Y-90452380D02*
X109095238Y-89452380D01*
X108714285Y-89452380D01*
X108619047Y-89500000D01*
X108571428Y-89547619D01*
X108523809Y-89642857D01*
X108523809Y-89785714D01*
X108571428Y-89880952D01*
X108619047Y-89928571D01*
X108714285Y-89976190D01*
X109095238Y-89976190D01*
X108238095Y-89452380D02*
X107666666Y-89452380D01*
X107952380Y-90452380D02*
X107952380Y-89452380D01*
X106904761Y-89785714D02*
X106904761Y-90452380D01*
X107142857Y-89404761D02*
X107380952Y-90119047D01*
X106761904Y-90119047D01*
X148292857Y-90452380D02*
X148292857Y-89452380D01*
X147911904Y-89452380D01*
X147816666Y-89500000D01*
X147769047Y-89547619D01*
X147721428Y-89642857D01*
X147721428Y-89785714D01*
X147769047Y-89880952D01*
X147816666Y-89928571D01*
X147911904Y-89976190D01*
X148292857Y-89976190D01*
X147102380Y-89452380D02*
X146911904Y-89452380D01*
X146816666Y-89500000D01*
X146721428Y-89595238D01*
X146673809Y-89785714D01*
X146673809Y-90119047D01*
X146721428Y-90309523D01*
X146816666Y-90404761D01*
X146911904Y-90452380D01*
X147102380Y-90452380D01*
X147197619Y-90404761D01*
X147292857Y-90309523D01*
X147340476Y-90119047D01*
X147340476Y-89785714D01*
X147292857Y-89595238D01*
X147197619Y-89500000D01*
X147102380Y-89452380D01*
X145673809Y-90452380D02*
X146007142Y-89976190D01*
X146245238Y-90452380D02*
X146245238Y-89452380D01*
X145864285Y-89452380D01*
X145769047Y-89500000D01*
X145721428Y-89547619D01*
X145673809Y-89642857D01*
X145673809Y-89785714D01*
X145721428Y-89880952D01*
X145769047Y-89928571D01*
X145864285Y-89976190D01*
X146245238Y-89976190D01*
X145388095Y-89452380D02*
X144816666Y-89452380D01*
X145102380Y-90452380D02*
X145102380Y-89452380D01*
X144578571Y-89452380D02*
X143959523Y-89452380D01*
X144292857Y-89833333D01*
X144150000Y-89833333D01*
X144054761Y-89880952D01*
X144007142Y-89928571D01*
X143959523Y-90023809D01*
X143959523Y-90261904D01*
X144007142Y-90357142D01*
X144054761Y-90404761D01*
X144150000Y-90452380D01*
X144435714Y-90452380D01*
X144530952Y-90404761D01*
X144578571Y-90357142D01*
X111142857Y-75452380D02*
X111142857Y-74452380D01*
X110761904Y-74452380D01*
X110666666Y-74500000D01*
X110619047Y-74547619D01*
X110571428Y-74642857D01*
X110571428Y-74785714D01*
X110619047Y-74880952D01*
X110666666Y-74928571D01*
X110761904Y-74976190D01*
X111142857Y-74976190D01*
X109952380Y-74452380D02*
X109761904Y-74452380D01*
X109666666Y-74500000D01*
X109571428Y-74595238D01*
X109523809Y-74785714D01*
X109523809Y-75119047D01*
X109571428Y-75309523D01*
X109666666Y-75404761D01*
X109761904Y-75452380D01*
X109952380Y-75452380D01*
X110047619Y-75404761D01*
X110142857Y-75309523D01*
X110190476Y-75119047D01*
X110190476Y-74785714D01*
X110142857Y-74595238D01*
X110047619Y-74500000D01*
X109952380Y-74452380D01*
X108523809Y-75452380D02*
X108857142Y-74976190D01*
X109095238Y-75452380D02*
X109095238Y-74452380D01*
X108714285Y-74452380D01*
X108619047Y-74500000D01*
X108571428Y-74547619D01*
X108523809Y-74642857D01*
X108523809Y-74785714D01*
X108571428Y-74880952D01*
X108619047Y-74928571D01*
X108714285Y-74976190D01*
X109095238Y-74976190D01*
X108238095Y-74452380D02*
X107666666Y-74452380D01*
X107952380Y-75452380D02*
X107952380Y-74452380D01*
X107380952Y-74547619D02*
X107333333Y-74500000D01*
X107238095Y-74452380D01*
X107000000Y-74452380D01*
X106904761Y-74500000D01*
X106857142Y-74547619D01*
X106809523Y-74642857D01*
X106809523Y-74738095D01*
X106857142Y-74880952D01*
X107428571Y-75452380D01*
X106809523Y-75452380D01*
X148342857Y-75452380D02*
X148342857Y-74452380D01*
X147961904Y-74452380D01*
X147866666Y-74500000D01*
X147819047Y-74547619D01*
X147771428Y-74642857D01*
X147771428Y-74785714D01*
X147819047Y-74880952D01*
X147866666Y-74928571D01*
X147961904Y-74976190D01*
X148342857Y-74976190D01*
X147152380Y-74452380D02*
X146961904Y-74452380D01*
X146866666Y-74500000D01*
X146771428Y-74595238D01*
X146723809Y-74785714D01*
X146723809Y-75119047D01*
X146771428Y-75309523D01*
X146866666Y-75404761D01*
X146961904Y-75452380D01*
X147152380Y-75452380D01*
X147247619Y-75404761D01*
X147342857Y-75309523D01*
X147390476Y-75119047D01*
X147390476Y-74785714D01*
X147342857Y-74595238D01*
X147247619Y-74500000D01*
X147152380Y-74452380D01*
X145723809Y-75452380D02*
X146057142Y-74976190D01*
X146295238Y-75452380D02*
X146295238Y-74452380D01*
X145914285Y-74452380D01*
X145819047Y-74500000D01*
X145771428Y-74547619D01*
X145723809Y-74642857D01*
X145723809Y-74785714D01*
X145771428Y-74880952D01*
X145819047Y-74928571D01*
X145914285Y-74976190D01*
X146295238Y-74976190D01*
X145438095Y-74452380D02*
X144866666Y-74452380D01*
X145152380Y-75452380D02*
X145152380Y-74452380D01*
X144009523Y-75452380D02*
X144580952Y-75452380D01*
X144295238Y-75452380D02*
X144295238Y-74452380D01*
X144390476Y-74595238D01*
X144485714Y-74690476D01*
X144580952Y-74738095D01*
X141452380Y-116657142D02*
X140452380Y-116657142D01*
X140452380Y-117038095D01*
X140500000Y-117133333D01*
X140547619Y-117180952D01*
X140642857Y-117228571D01*
X140785714Y-117228571D01*
X140880952Y-117180952D01*
X140928571Y-117133333D01*
X140976190Y-117038095D01*
X140976190Y-116657142D01*
X140452380Y-117847619D02*
X140452380Y-118038095D01*
X140500000Y-118133333D01*
X140595238Y-118228571D01*
X140785714Y-118276190D01*
X141119047Y-118276190D01*
X141309523Y-118228571D01*
X141404761Y-118133333D01*
X141452380Y-118038095D01*
X141452380Y-117847619D01*
X141404761Y-117752380D01*
X141309523Y-117657142D01*
X141119047Y-117609523D01*
X140785714Y-117609523D01*
X140595238Y-117657142D01*
X140500000Y-117752380D01*
X140452380Y-117847619D01*
X141452380Y-119276190D02*
X140976190Y-118942857D01*
X141452380Y-118704761D02*
X140452380Y-118704761D01*
X140452380Y-119085714D01*
X140500000Y-119180952D01*
X140547619Y-119228571D01*
X140642857Y-119276190D01*
X140785714Y-119276190D01*
X140880952Y-119228571D01*
X140928571Y-119180952D01*
X140976190Y-119085714D01*
X140976190Y-118704761D01*
X140452380Y-119561904D02*
X140452380Y-120133333D01*
X141452380Y-119847619D02*
X140452380Y-119847619D01*
X141452380Y-120990476D02*
X141452380Y-120419047D01*
X141452380Y-120704761D02*
X140452380Y-120704761D01*
X140595238Y-120609523D01*
X140690476Y-120514285D01*
X140738095Y-120419047D01*
X146666666Y-122752380D02*
X146666666Y-121752380D01*
X146285714Y-121752380D01*
X146190476Y-121800000D01*
X146142857Y-121847619D01*
X146095238Y-121942857D01*
X146095238Y-122085714D01*
X146142857Y-122180952D01*
X146190476Y-122228571D01*
X146285714Y-122276190D01*
X146666666Y-122276190D01*
X145476190Y-121752380D02*
X145285714Y-121752380D01*
X145190476Y-121800000D01*
X145095238Y-121895238D01*
X145047619Y-122085714D01*
X145047619Y-122419047D01*
X145095238Y-122609523D01*
X145190476Y-122704761D01*
X145285714Y-122752380D01*
X145476190Y-122752380D01*
X145571428Y-122704761D01*
X145666666Y-122609523D01*
X145714285Y-122419047D01*
X145714285Y-122085714D01*
X145666666Y-121895238D01*
X145571428Y-121800000D01*
X145476190Y-121752380D01*
X144047619Y-122752380D02*
X144380952Y-122276190D01*
X144619047Y-122752380D02*
X144619047Y-121752380D01*
X144238095Y-121752380D01*
X144142857Y-121800000D01*
X144095238Y-121847619D01*
X144047619Y-121942857D01*
X144047619Y-122085714D01*
X144095238Y-122180952D01*
X144142857Y-122228571D01*
X144238095Y-122276190D01*
X144619047Y-122276190D01*
X143761904Y-121752380D02*
X143190476Y-121752380D01*
X143476190Y-122752380D02*
X143476190Y-121752380D01*
X132852380Y-116757142D02*
X131852380Y-116757142D01*
X131852380Y-117138095D01*
X131900000Y-117233333D01*
X131947619Y-117280952D01*
X132042857Y-117328571D01*
X132185714Y-117328571D01*
X132280952Y-117280952D01*
X132328571Y-117233333D01*
X132376190Y-117138095D01*
X132376190Y-116757142D01*
X131852380Y-117947619D02*
X131852380Y-118138095D01*
X131900000Y-118233333D01*
X131995238Y-118328571D01*
X132185714Y-118376190D01*
X132519047Y-118376190D01*
X132709523Y-118328571D01*
X132804761Y-118233333D01*
X132852380Y-118138095D01*
X132852380Y-117947619D01*
X132804761Y-117852380D01*
X132709523Y-117757142D01*
X132519047Y-117709523D01*
X132185714Y-117709523D01*
X131995238Y-117757142D01*
X131900000Y-117852380D01*
X131852380Y-117947619D01*
X132852380Y-119376190D02*
X132376190Y-119042857D01*
X132852380Y-118804761D02*
X131852380Y-118804761D01*
X131852380Y-119185714D01*
X131900000Y-119280952D01*
X131947619Y-119328571D01*
X132042857Y-119376190D01*
X132185714Y-119376190D01*
X132280952Y-119328571D01*
X132328571Y-119280952D01*
X132376190Y-119185714D01*
X132376190Y-118804761D01*
X131852380Y-119661904D02*
X131852380Y-120233333D01*
X132852380Y-119947619D02*
X131852380Y-119947619D01*
X132185714Y-120995238D02*
X132852380Y-120995238D01*
X131804761Y-120757142D02*
X132519047Y-120519047D01*
X132519047Y-121138095D01*
X104452380Y-116619047D02*
X104452380Y-117190476D01*
X105452380Y-116904761D02*
X104452380Y-116904761D01*
X105452380Y-117523809D02*
X104452380Y-117523809D01*
X104928571Y-117523809D02*
X104928571Y-118095238D01*
X105452380Y-118095238D02*
X104452380Y-118095238D01*
X105452380Y-119142857D02*
X104976190Y-118809523D01*
X105452380Y-118571428D02*
X104452380Y-118571428D01*
X104452380Y-118952380D01*
X104500000Y-119047619D01*
X104547619Y-119095238D01*
X104642857Y-119142857D01*
X104785714Y-119142857D01*
X104880952Y-119095238D01*
X104928571Y-119047619D01*
X104976190Y-118952380D01*
X104976190Y-118571428D01*
X104452380Y-119761904D02*
X104452380Y-119952380D01*
X104500000Y-120047619D01*
X104595238Y-120142857D01*
X104785714Y-120190476D01*
X105119047Y-120190476D01*
X105309523Y-120142857D01*
X105404761Y-120047619D01*
X105452380Y-119952380D01*
X105452380Y-119761904D01*
X105404761Y-119666666D01*
X105309523Y-119571428D01*
X105119047Y-119523809D01*
X104785714Y-119523809D01*
X104595238Y-119571428D01*
X104500000Y-119666666D01*
X104452380Y-119761904D01*
X104452380Y-120619047D02*
X105261904Y-120619047D01*
X105357142Y-120666666D01*
X105404761Y-120714285D01*
X105452380Y-120809523D01*
X105452380Y-121000000D01*
X105404761Y-121095238D01*
X105357142Y-121142857D01*
X105261904Y-121190476D01*
X104452380Y-121190476D01*
X104500000Y-122190476D02*
X104452380Y-122095238D01*
X104452380Y-121952380D01*
X104500000Y-121809523D01*
X104595238Y-121714285D01*
X104690476Y-121666666D01*
X104880952Y-121619047D01*
X105023809Y-121619047D01*
X105214285Y-121666666D01*
X105309523Y-121714285D01*
X105404761Y-121809523D01*
X105452380Y-121952380D01*
X105452380Y-122047619D01*
X105404761Y-122190476D01*
X105357142Y-122238095D01*
X105023809Y-122238095D01*
X105023809Y-122047619D01*
X105452380Y-122666666D02*
X104452380Y-122666666D01*
X104928571Y-122666666D02*
X104928571Y-123238095D01*
X105452380Y-123238095D02*
X104452380Y-123238095D01*
X143452380Y-116723809D02*
X144452380Y-116961904D01*
X143738095Y-117152380D01*
X144452380Y-117342857D01*
X143452380Y-117580952D01*
X144166666Y-117914285D02*
X144166666Y-118390476D01*
X144452380Y-117819047D02*
X143452380Y-118152380D01*
X144452380Y-118485714D01*
X144452380Y-118819047D02*
X143452380Y-118819047D01*
X143452380Y-119152380D02*
X143452380Y-119723809D01*
X144452380Y-119438095D02*
X143452380Y-119438095D01*
X111904761Y-116685714D02*
X111952380Y-116828571D01*
X111952380Y-117066666D01*
X111904761Y-117161904D01*
X111857142Y-117209523D01*
X111761904Y-117257142D01*
X111666666Y-117257142D01*
X111571428Y-117209523D01*
X111523809Y-117161904D01*
X111476190Y-117066666D01*
X111428571Y-116876190D01*
X111380952Y-116780952D01*
X111333333Y-116733333D01*
X111238095Y-116685714D01*
X111142857Y-116685714D01*
X111047619Y-116733333D01*
X111000000Y-116780952D01*
X110952380Y-116876190D01*
X110952380Y-117114285D01*
X111000000Y-117257142D01*
X111952380Y-117685714D02*
X110952380Y-117685714D01*
X111428571Y-117685714D02*
X111428571Y-118257142D01*
X111952380Y-118257142D02*
X110952380Y-118257142D01*
X110952380Y-118923809D02*
X110952380Y-119114285D01*
X111000000Y-119209523D01*
X111095238Y-119304761D01*
X111285714Y-119352380D01*
X111619047Y-119352380D01*
X111809523Y-119304761D01*
X111904761Y-119209523D01*
X111952380Y-119114285D01*
X111952380Y-118923809D01*
X111904761Y-118828571D01*
X111809523Y-118733333D01*
X111619047Y-118685714D01*
X111285714Y-118685714D01*
X111095238Y-118733333D01*
X111000000Y-118828571D01*
X110952380Y-118923809D01*
X111952380Y-120352380D02*
X111476190Y-120019047D01*
X111952380Y-119780952D02*
X110952380Y-119780952D01*
X110952380Y-120161904D01*
X111000000Y-120257142D01*
X111047619Y-120304761D01*
X111142857Y-120352380D01*
X111285714Y-120352380D01*
X111380952Y-120304761D01*
X111428571Y-120257142D01*
X111476190Y-120161904D01*
X111476190Y-119780952D01*
X110952380Y-120638095D02*
X110952380Y-121209523D01*
X111952380Y-120923809D02*
X110952380Y-120923809D01*
X138452380Y-116657142D02*
X137452380Y-116657142D01*
X137452380Y-117038095D01*
X137500000Y-117133333D01*
X137547619Y-117180952D01*
X137642857Y-117228571D01*
X137785714Y-117228571D01*
X137880952Y-117180952D01*
X137928571Y-117133333D01*
X137976190Y-117038095D01*
X137976190Y-116657142D01*
X137452380Y-117847619D02*
X137452380Y-118038095D01*
X137500000Y-118133333D01*
X137595238Y-118228571D01*
X137785714Y-118276190D01*
X138119047Y-118276190D01*
X138309523Y-118228571D01*
X138404761Y-118133333D01*
X138452380Y-118038095D01*
X138452380Y-117847619D01*
X138404761Y-117752380D01*
X138309523Y-117657142D01*
X138119047Y-117609523D01*
X137785714Y-117609523D01*
X137595238Y-117657142D01*
X137500000Y-117752380D01*
X137452380Y-117847619D01*
X138452380Y-119276190D02*
X137976190Y-118942857D01*
X138452380Y-118704761D02*
X137452380Y-118704761D01*
X137452380Y-119085714D01*
X137500000Y-119180952D01*
X137547619Y-119228571D01*
X137642857Y-119276190D01*
X137785714Y-119276190D01*
X137880952Y-119228571D01*
X137928571Y-119180952D01*
X137976190Y-119085714D01*
X137976190Y-118704761D01*
X137452380Y-119561904D02*
X137452380Y-120133333D01*
X138452380Y-119847619D02*
X137452380Y-119847619D01*
X137547619Y-120419047D02*
X137500000Y-120466666D01*
X137452380Y-120561904D01*
X137452380Y-120800000D01*
X137500000Y-120895238D01*
X137547619Y-120942857D01*
X137642857Y-120990476D01*
X137738095Y-120990476D01*
X137880952Y-120942857D01*
X138452380Y-120371428D01*
X138452380Y-120990476D01*
X108452380Y-117157142D02*
X108452380Y-116680952D01*
X107452380Y-116680952D01*
X107452380Y-117680952D02*
X107452380Y-117871428D01*
X107500000Y-117966666D01*
X107595238Y-118061904D01*
X107785714Y-118109523D01*
X108119047Y-118109523D01*
X108309523Y-118061904D01*
X108404761Y-117966666D01*
X108452380Y-117871428D01*
X108452380Y-117680952D01*
X108404761Y-117585714D01*
X108309523Y-117490476D01*
X108119047Y-117442857D01*
X107785714Y-117442857D01*
X107595238Y-117490476D01*
X107500000Y-117585714D01*
X107452380Y-117680952D01*
X108166666Y-118490476D02*
X108166666Y-118966666D01*
X108452380Y-118395238D02*
X107452380Y-118728571D01*
X108452380Y-119061904D01*
X108452380Y-119395238D02*
X107452380Y-119395238D01*
X107452380Y-119633333D01*
X107500000Y-119776190D01*
X107595238Y-119871428D01*
X107690476Y-119919047D01*
X107880952Y-119966666D01*
X108023809Y-119966666D01*
X108214285Y-119919047D01*
X108309523Y-119871428D01*
X108404761Y-119776190D01*
X108452380Y-119633333D01*
X108452380Y-119395238D01*
X114052380Y-116928571D02*
X114052380Y-117119047D01*
X114100000Y-117214285D01*
X114195238Y-117309523D01*
X114385714Y-117357142D01*
X114719047Y-117357142D01*
X114909523Y-117309523D01*
X115004761Y-117214285D01*
X115052380Y-117119047D01*
X115052380Y-116928571D01*
X115004761Y-116833333D01*
X114909523Y-116738095D01*
X114719047Y-116690476D01*
X114385714Y-116690476D01*
X114195238Y-116738095D01*
X114100000Y-116833333D01*
X114052380Y-116928571D01*
X115052380Y-117785714D02*
X114052380Y-117785714D01*
X114052380Y-118166666D01*
X114100000Y-118261904D01*
X114147619Y-118309523D01*
X114242857Y-118357142D01*
X114385714Y-118357142D01*
X114480952Y-118309523D01*
X114528571Y-118261904D01*
X114576190Y-118166666D01*
X114576190Y-117785714D01*
X114528571Y-118785714D02*
X114528571Y-119119047D01*
X115052380Y-119261904D02*
X115052380Y-118785714D01*
X114052380Y-118785714D01*
X114052380Y-119261904D01*
X115052380Y-119690476D02*
X114052380Y-119690476D01*
X115052380Y-120261904D01*
X114052380Y-120261904D01*
X150552380Y-116790476D02*
X149552380Y-116790476D01*
X149552380Y-117171428D01*
X149600000Y-117266666D01*
X149647619Y-117314285D01*
X149742857Y-117361904D01*
X149885714Y-117361904D01*
X149980952Y-117314285D01*
X150028571Y-117266666D01*
X150076190Y-117171428D01*
X150076190Y-116790476D01*
X149552380Y-117980952D02*
X149552380Y-118171428D01*
X149600000Y-118266666D01*
X149695238Y-118361904D01*
X149885714Y-118409523D01*
X150219047Y-118409523D01*
X150409523Y-118361904D01*
X150504761Y-118266666D01*
X150552380Y-118171428D01*
X150552380Y-117980952D01*
X150504761Y-117885714D01*
X150409523Y-117790476D01*
X150219047Y-117742857D01*
X149885714Y-117742857D01*
X149695238Y-117790476D01*
X149600000Y-117885714D01*
X149552380Y-117980952D01*
X149552380Y-118742857D02*
X150552380Y-118980952D01*
X149838095Y-119171428D01*
X150552380Y-119361904D01*
X149552380Y-119600000D01*
X150028571Y-119980952D02*
X150028571Y-120314285D01*
X150552380Y-120457142D02*
X150552380Y-119980952D01*
X149552380Y-119980952D01*
X149552380Y-120457142D01*
X150552380Y-121457142D02*
X150076190Y-121123809D01*
X150552380Y-120885714D02*
X149552380Y-120885714D01*
X149552380Y-121266666D01*
X149600000Y-121361904D01*
X149647619Y-121409523D01*
X149742857Y-121457142D01*
X149885714Y-121457142D01*
X149980952Y-121409523D01*
X150028571Y-121361904D01*
X150076190Y-121266666D01*
X150076190Y-120885714D01*
X147452380Y-117300000D02*
X146976190Y-116966666D01*
X147452380Y-116728571D02*
X146452380Y-116728571D01*
X146452380Y-117109523D01*
X146500000Y-117204761D01*
X146547619Y-117252380D01*
X146642857Y-117300000D01*
X146785714Y-117300000D01*
X146880952Y-117252380D01*
X146928571Y-117204761D01*
X146976190Y-117109523D01*
X146976190Y-116728571D01*
X146928571Y-117728571D02*
X146928571Y-118061904D01*
X147452380Y-118204761D02*
X147452380Y-117728571D01*
X146452380Y-117728571D01*
X146452380Y-118204761D01*
X147166666Y-118585714D02*
X147166666Y-119061904D01*
X147452380Y-118490476D02*
X146452380Y-118823809D01*
X147452380Y-119157142D01*
X147452380Y-119490476D02*
X146452380Y-119490476D01*
X146452380Y-119728571D01*
X146500000Y-119871428D01*
X146595238Y-119966666D01*
X146690476Y-120014285D01*
X146880952Y-120061904D01*
X147023809Y-120061904D01*
X147214285Y-120014285D01*
X147309523Y-119966666D01*
X147404761Y-119871428D01*
X147452380Y-119728571D01*
X147452380Y-119490476D01*
X146976190Y-120680952D02*
X147452380Y-120680952D01*
X146452380Y-120347619D02*
X146976190Y-120680952D01*
X146452380Y-121014285D01*
X139690476Y-122228571D02*
X139547619Y-122276190D01*
X139500000Y-122323809D01*
X139452380Y-122419047D01*
X139452380Y-122561904D01*
X139500000Y-122657142D01*
X139547619Y-122704761D01*
X139642857Y-122752380D01*
X140023809Y-122752380D01*
X140023809Y-121752380D01*
X139690476Y-121752380D01*
X139595238Y-121800000D01*
X139547619Y-121847619D01*
X139500000Y-121942857D01*
X139500000Y-122038095D01*
X139547619Y-122133333D01*
X139595238Y-122180952D01*
X139690476Y-122228571D01*
X140023809Y-122228571D01*
X138833333Y-121752380D02*
X138642857Y-121752380D01*
X138547619Y-121800000D01*
X138452380Y-121895238D01*
X138404761Y-122085714D01*
X138404761Y-122419047D01*
X138452380Y-122609523D01*
X138547619Y-122704761D01*
X138642857Y-122752380D01*
X138833333Y-122752380D01*
X138928571Y-122704761D01*
X139023809Y-122609523D01*
X139071428Y-122419047D01*
X139071428Y-122085714D01*
X139023809Y-121895238D01*
X138928571Y-121800000D01*
X138833333Y-121752380D01*
X137785714Y-121752380D02*
X137595238Y-121752380D01*
X137500000Y-121800000D01*
X137404761Y-121895238D01*
X137357142Y-122085714D01*
X137357142Y-122419047D01*
X137404761Y-122609523D01*
X137500000Y-122704761D01*
X137595238Y-122752380D01*
X137785714Y-122752380D01*
X137880952Y-122704761D01*
X137976190Y-122609523D01*
X138023809Y-122419047D01*
X138023809Y-122085714D01*
X137976190Y-121895238D01*
X137880952Y-121800000D01*
X137785714Y-121752380D01*
X137071428Y-121752380D02*
X136500000Y-121752380D01*
X136785714Y-122752380D02*
X136785714Y-121752380D01*
X136214285Y-122704761D02*
X136071428Y-122752380D01*
X135833333Y-122752380D01*
X135738095Y-122704761D01*
X135690476Y-122657142D01*
X135642857Y-122561904D01*
X135642857Y-122466666D01*
X135690476Y-122371428D01*
X135738095Y-122323809D01*
X135833333Y-122276190D01*
X136023809Y-122228571D01*
X136119047Y-122180952D01*
X136166666Y-122133333D01*
X136214285Y-122038095D01*
X136214285Y-121942857D01*
X136166666Y-121847619D01*
X136119047Y-121800000D01*
X136023809Y-121752380D01*
X135785714Y-121752380D01*
X135642857Y-121800000D01*
X135214285Y-122228571D02*
X134880952Y-122228571D01*
X134738095Y-122752380D02*
X135214285Y-122752380D01*
X135214285Y-121752380D01*
X134738095Y-121752380D01*
X133833333Y-122752380D02*
X134309523Y-122752380D01*
X134309523Y-121752380D01*
X113071428Y-122128571D02*
X113404761Y-122128571D01*
X113404761Y-122652380D02*
X113404761Y-121652380D01*
X112928571Y-121652380D01*
X112547619Y-121652380D02*
X112547619Y-122461904D01*
X112500000Y-122557142D01*
X112452380Y-122604761D01*
X112357142Y-122652380D01*
X112166666Y-122652380D01*
X112071428Y-122604761D01*
X112023809Y-122557142D01*
X111976190Y-122461904D01*
X111976190Y-121652380D01*
X111500000Y-122652380D02*
X111500000Y-121652380D01*
X110928571Y-122652380D01*
X110928571Y-121652380D01*
X109880952Y-122557142D02*
X109928571Y-122604761D01*
X110071428Y-122652380D01*
X110166666Y-122652380D01*
X110309523Y-122604761D01*
X110404761Y-122509523D01*
X110452380Y-122414285D01*
X110500000Y-122223809D01*
X110500000Y-122080952D01*
X110452380Y-121890476D01*
X110404761Y-121795238D01*
X110309523Y-121700000D01*
X110166666Y-121652380D01*
X110071428Y-121652380D01*
X109928571Y-121700000D01*
X109880952Y-121747619D01*
X109595238Y-121652380D02*
X109023809Y-121652380D01*
X109309523Y-122652380D02*
X109309523Y-121652380D01*
X108690476Y-122652380D02*
X108690476Y-121652380D01*
X108023809Y-121652380D02*
X107833333Y-121652380D01*
X107738095Y-121700000D01*
X107642857Y-121795238D01*
X107595238Y-121985714D01*
X107595238Y-122319047D01*
X107642857Y-122509523D01*
X107738095Y-122604761D01*
X107833333Y-122652380D01*
X108023809Y-122652380D01*
X108119047Y-122604761D01*
X108214285Y-122509523D01*
X108261904Y-122319047D01*
X108261904Y-121985714D01*
X108214285Y-121795238D01*
X108119047Y-121700000D01*
X108023809Y-121652380D01*
X107166666Y-122652380D02*
X107166666Y-121652380D01*
X106595238Y-122652380D01*
X106595238Y-121652380D01*
X135252380Y-116657142D02*
X134252380Y-116657142D01*
X134252380Y-117038095D01*
X134300000Y-117133333D01*
X134347619Y-117180952D01*
X134442857Y-117228571D01*
X134585714Y-117228571D01*
X134680952Y-117180952D01*
X134728571Y-117133333D01*
X134776190Y-117038095D01*
X134776190Y-116657142D01*
X134252380Y-117847619D02*
X134252380Y-118038095D01*
X134300000Y-118133333D01*
X134395238Y-118228571D01*
X134585714Y-118276190D01*
X134919047Y-118276190D01*
X135109523Y-118228571D01*
X135204761Y-118133333D01*
X135252380Y-118038095D01*
X135252380Y-117847619D01*
X135204761Y-117752380D01*
X135109523Y-117657142D01*
X134919047Y-117609523D01*
X134585714Y-117609523D01*
X134395238Y-117657142D01*
X134300000Y-117752380D01*
X134252380Y-117847619D01*
X135252380Y-119276190D02*
X134776190Y-118942857D01*
X135252380Y-118704761D02*
X134252380Y-118704761D01*
X134252380Y-119085714D01*
X134300000Y-119180952D01*
X134347619Y-119228571D01*
X134442857Y-119276190D01*
X134585714Y-119276190D01*
X134680952Y-119228571D01*
X134728571Y-119180952D01*
X134776190Y-119085714D01*
X134776190Y-118704761D01*
X134252380Y-119561904D02*
X134252380Y-120133333D01*
X135252380Y-119847619D02*
X134252380Y-119847619D01*
X134252380Y-120371428D02*
X134252380Y-120990476D01*
X134633333Y-120657142D01*
X134633333Y-120800000D01*
X134680952Y-120895238D01*
X134728571Y-120942857D01*
X134823809Y-120990476D01*
X135061904Y-120990476D01*
X135157142Y-120942857D01*
X135204761Y-120895238D01*
X135252380Y-120800000D01*
X135252380Y-120514285D01*
X135204761Y-120419047D01*
X135157142Y-120371428D01*
D11*
%TO.C,R9*%
X125790000Y-79777064D02*
X125790000Y-75422936D01*
X129210000Y-79777064D02*
X129210000Y-75422936D01*
%TO.C,R22*%
X141380000Y-115346359D02*
X141380000Y-115653641D01*
X140620000Y-115346359D02*
X140620000Y-115653641D01*
%TO.C,D1*%
X150735000Y-112200000D02*
X150735000Y-114485000D01*
X150735000Y-114485000D02*
X149265000Y-114485000D01*
X149265000Y-114485000D02*
X149265000Y-112200000D01*
%TO.C,D8*%
X138735000Y-114485000D02*
X137265000Y-114485000D01*
X138735000Y-112200000D02*
X138735000Y-114485000D01*
X137265000Y-114485000D02*
X137265000Y-112200000D01*
%TO.C,R18*%
X111380000Y-115346359D02*
X111380000Y-115653641D01*
X110620000Y-115346359D02*
X110620000Y-115653641D01*
%TO.C,R24*%
X135380000Y-115346359D02*
X135380000Y-115653641D01*
X134620000Y-115346359D02*
X134620000Y-115653641D01*
%TO.C,SW1*%
X134000000Y-132500000D02*
X140000000Y-132500000D01*
X134000000Y-126500000D02*
X134000000Y-132500000D01*
X134000000Y-126500000D02*
X140000000Y-126500000D01*
X140000000Y-132500000D02*
X140000000Y-126500000D01*
X138802776Y-129500000D02*
G75*
G03*
X138802776Y-129500000I-1802776J0D01*
G01*
%TO.C,D10*%
X131265000Y-114485000D02*
X131265000Y-112200000D01*
X132735000Y-112200000D02*
X132735000Y-114485000D01*
X132735000Y-114485000D02*
X131265000Y-114485000D01*
%TO.C,D11*%
X135735000Y-112200000D02*
X135735000Y-114485000D01*
X134265000Y-114485000D02*
X134265000Y-112200000D01*
X135735000Y-114485000D02*
X134265000Y-114485000D01*
%TO.C,R23*%
X130353641Y-111620000D02*
X130046359Y-111620000D01*
X130353641Y-112380000D02*
X130046359Y-112380000D01*
%TO.C,D9*%
X141735000Y-114485000D02*
X140265000Y-114485000D01*
X141735000Y-112200000D02*
X141735000Y-114485000D01*
X140265000Y-114485000D02*
X140265000Y-112200000D01*
%TO.C,D5*%
X111735000Y-112200000D02*
X111735000Y-114485000D01*
X110265000Y-114485000D02*
X110265000Y-112200000D01*
X111735000Y-114485000D02*
X110265000Y-114485000D01*
%TO.C,R15*%
X147380000Y-115346359D02*
X147380000Y-115653641D01*
X146620000Y-115346359D02*
X146620000Y-115653641D01*
%TO.C,R19*%
X108380000Y-115346359D02*
X108380000Y-115653641D01*
X107620000Y-115346359D02*
X107620000Y-115653641D01*
%TO.C,R16*%
X143620000Y-115346359D02*
X143620000Y-115653641D01*
X144380000Y-115346359D02*
X144380000Y-115653641D01*
%TO.C,R21*%
X138380000Y-115346359D02*
X138380000Y-115653641D01*
X137620000Y-115346359D02*
X137620000Y-115653641D01*
%TO.C,J6*%
X125405000Y-114670000D02*
X125405000Y-114035000D01*
X124770000Y-114670000D02*
X125405000Y-114670000D01*
%TO.C,R20*%
X105380000Y-115346359D02*
X105380000Y-115653641D01*
X104620000Y-115346359D02*
X104620000Y-115653641D01*
%TO.C,SW3*%
X113000000Y-132500000D02*
X107000000Y-132500000D01*
X107000000Y-126500000D02*
X107000000Y-132500000D01*
X113000000Y-126500000D02*
X107000000Y-126500000D01*
X113000000Y-132500000D02*
X113000000Y-126500000D01*
X111802776Y-129500000D02*
G75*
G03*
X111802776Y-129500000I-1802776J0D01*
G01*
%TO.C,R17*%
X113620000Y-115346359D02*
X113620000Y-115653641D01*
X114380000Y-115346359D02*
X114380000Y-115653641D01*
%TO.C,R14*%
X150380000Y-115346359D02*
X150380000Y-115653641D01*
X149620000Y-115346359D02*
X149620000Y-115653641D01*
%TO.C,D6*%
X107265000Y-114485000D02*
X107265000Y-112200000D01*
X108735000Y-112200000D02*
X108735000Y-114485000D01*
X108735000Y-114485000D02*
X107265000Y-114485000D01*
%TO.C,R8*%
X125790000Y-93577064D02*
X125790000Y-89222936D01*
X129210000Y-93577064D02*
X129210000Y-89222936D01*
%TO.C,D3*%
X144735000Y-112200000D02*
X144735000Y-114485000D01*
X144735000Y-114485000D02*
X143265000Y-114485000D01*
X143265000Y-114485000D02*
X143265000Y-112200000D01*
%TO.C,D2*%
X147735000Y-114485000D02*
X146265000Y-114485000D01*
X147735000Y-112200000D02*
X147735000Y-114485000D01*
X146265000Y-114485000D02*
X146265000Y-112200000D01*
%TO.C,TH1*%
X122120000Y-84653641D02*
X122120000Y-84346359D01*
X122880000Y-84653641D02*
X122880000Y-84346359D01*
%TO.C,SW2*%
X148000000Y-132500000D02*
X148000000Y-126500000D01*
X148000000Y-126500000D02*
X142000000Y-126500000D01*
X148000000Y-132500000D02*
X142000000Y-132500000D01*
X142000000Y-126500000D02*
X142000000Y-132500000D01*
X146802776Y-129500000D02*
G75*
G03*
X146802776Y-129500000I-1802776J0D01*
G01*
%TO.C,D7*%
X105735000Y-114485000D02*
X104265000Y-114485000D01*
X104265000Y-114485000D02*
X104265000Y-112200000D01*
X105735000Y-112200000D02*
X105735000Y-114485000D01*
%TO.C,D4*%
X114735000Y-112200000D02*
X114735000Y-114485000D01*
X113265000Y-114485000D02*
X113265000Y-112200000D01*
X114735000Y-114485000D02*
X113265000Y-114485000D01*
%TD*%
M02*
