G04 #@! TF.GenerationSoftware,KiCad,Pcbnew,7.0.8-7.0.8~ubuntu22.04.1*
G04 #@! TF.CreationDate,2023-11-30T18:16:29+01:00*
G04 #@! TF.ProjectId,LibreCAL,4c696272-6543-4414-9c2e-6b696361645f,B*
G04 #@! TF.SameCoordinates,Original*
G04 #@! TF.FileFunction,Copper,L2,Inr*
G04 #@! TF.FilePolarity,Positive*
%FSLAX46Y46*%
G04 Gerber Fmt 4.6, Leading zero omitted, Abs format (unit mm)*
G04 Created by KiCad (PCBNEW 7.0.8-7.0.8~ubuntu22.04.1) date 2023-11-30 18:16:29*
%MOMM*%
%LPD*%
G01*
G04 APERTURE LIST*
G04 #@! TA.AperFunction,ComponentPad*
%ADD10C,3.600000*%
G04 #@! TD*
G04 #@! TA.AperFunction,ComponentPad*
%ADD11O,1.000000X2.100000*%
G04 #@! TD*
G04 #@! TA.AperFunction,ComponentPad*
%ADD12O,1.000000X1.600000*%
G04 #@! TD*
G04 #@! TA.AperFunction,ComponentPad*
%ADD13C,1.400000*%
G04 #@! TD*
G04 #@! TA.AperFunction,ViaPad*
%ADD14C,0.500000*%
G04 #@! TD*
G04 APERTURE END LIST*
D10*
G04 #@! TO.N,GND*
G04 #@! TO.C,H2*
X152000000Y-69000000D03*
G04 #@! TD*
D11*
G04 #@! TO.N,GND*
G04 #@! TO.C,J5*
X123180000Y-132370000D03*
D12*
X123180000Y-136550000D03*
D11*
X131820000Y-132370000D03*
D12*
X131820000Y-136550000D03*
G04 #@! TD*
D10*
G04 #@! TO.N,GND*
G04 #@! TO.C,H5*
X152000000Y-100000000D03*
G04 #@! TD*
G04 #@! TO.N,GND*
G04 #@! TO.C,H3*
X103000000Y-69000000D03*
G04 #@! TD*
D13*
G04 #@! TO.N,GND*
G04 #@! TO.C,J1*
X153250000Y-78220000D03*
X151040000Y-78220000D03*
X153250000Y-75780000D03*
X151040000Y-75780000D03*
G04 #@! TD*
G04 #@! TO.N,GND*
G04 #@! TO.C,J2*
X101750000Y-75780000D03*
X103960000Y-75780000D03*
X101750000Y-78220000D03*
X103960000Y-78220000D03*
G04 #@! TD*
D10*
G04 #@! TO.N,GND*
G04 #@! TO.C,H4*
X103000000Y-136500000D03*
G04 #@! TD*
G04 #@! TO.N,GND*
G04 #@! TO.C,H6*
X103000000Y-100000000D03*
G04 #@! TD*
D13*
G04 #@! TO.N,GND*
G04 #@! TO.C,J3*
X153250000Y-93220000D03*
X151040000Y-93220000D03*
X153250000Y-90780000D03*
X151040000Y-90780000D03*
G04 #@! TD*
D10*
G04 #@! TO.N,GND*
G04 #@! TO.C,H1*
X152000000Y-136500000D03*
G04 #@! TD*
D13*
G04 #@! TO.N,GND*
G04 #@! TO.C,J4*
X101750000Y-90780000D03*
X103960000Y-90780000D03*
X101750000Y-93220000D03*
X103960000Y-93220000D03*
G04 #@! TD*
D14*
G04 #@! TO.N,+3V3*
X131300000Y-123100000D03*
X139100000Y-107400000D03*
X142400000Y-121300000D03*
X114900000Y-134400000D03*
X133600000Y-133400000D03*
X114900000Y-135800000D03*
X106500000Y-112200000D03*
X145587500Y-112212500D03*
X126300000Y-119800000D03*
X128400000Y-123200000D03*
X125500000Y-114700000D03*
X131300000Y-119600000D03*
X128800000Y-118000000D03*
X114900000Y-135100000D03*
X123000000Y-125710500D03*
X137099500Y-116200000D03*
X139587500Y-112212500D03*
G04 #@! TO.N,GND*
X119000000Y-68000000D03*
X102900000Y-92800000D03*
X113000000Y-137500000D03*
X137000000Y-74000000D03*
X127500000Y-121900000D03*
X101000000Y-107500000D03*
X101000000Y-111500000D03*
X108750000Y-105000000D03*
X126000000Y-109500000D03*
X141000000Y-91200000D03*
X136800000Y-133400000D03*
X143000000Y-109500000D03*
X145000000Y-100500000D03*
X149000000Y-137500000D03*
X114000000Y-102500000D03*
X154000000Y-82500000D03*
X101000000Y-83500000D03*
X147000000Y-109500000D03*
X138400000Y-118800000D03*
X120000000Y-138500000D03*
X144000000Y-110500000D03*
X122000000Y-79800000D03*
X122000000Y-101500000D03*
X152100000Y-76200000D03*
X109000000Y-101500000D03*
X136700000Y-104400000D03*
X123000000Y-67000000D03*
X130000000Y-68000000D03*
X135000000Y-109500000D03*
X121000000Y-96800000D03*
X153000000Y-85500000D03*
X147000000Y-76200000D03*
X116000000Y-109500000D03*
X130000000Y-108500000D03*
X123000000Y-109500000D03*
X127000000Y-110500000D03*
X135000000Y-108500000D03*
X132000000Y-138500000D03*
X146250000Y-105000000D03*
X104000000Y-108500000D03*
X130000000Y-95500000D03*
X146000000Y-138500000D03*
X115000000Y-68000000D03*
X133950000Y-91200000D03*
X135000000Y-86400000D03*
X119750000Y-95550000D03*
X141500000Y-104800000D03*
X117000000Y-77800000D03*
X154000000Y-115500000D03*
X118000000Y-102500000D03*
X113250000Y-105000000D03*
X138000000Y-68000000D03*
X141000000Y-108500000D03*
X147000000Y-67000000D03*
X134000000Y-95000000D03*
X117000000Y-68000000D03*
X123300000Y-89800000D03*
X154000000Y-84500000D03*
X127000000Y-97000000D03*
X123000000Y-79800000D03*
X126000000Y-67000000D03*
X124000000Y-109500000D03*
X133700000Y-74000000D03*
X110000000Y-77800000D03*
X102000000Y-112500000D03*
X134000000Y-102500000D03*
X138000000Y-67000000D03*
X128900000Y-87000000D03*
X118000000Y-68000000D03*
X151000000Y-110500000D03*
X100600000Y-76200000D03*
X152997770Y-120404284D03*
X107000000Y-110500000D03*
X102000000Y-132500000D03*
X129000000Y-108500000D03*
X119500000Y-88000000D03*
X102000000Y-126500000D03*
X102000000Y-106500000D03*
X131000000Y-97000000D03*
X139000000Y-91200000D03*
X126000000Y-72000000D03*
X126300000Y-126800000D03*
X124000000Y-102500000D03*
X153000000Y-88500000D03*
X107000000Y-68000000D03*
X149000000Y-67000000D03*
X101000000Y-128500000D03*
X153997770Y-123404284D03*
X128000000Y-101500000D03*
X140000000Y-108500000D03*
X137000000Y-137500000D03*
X146000000Y-102500000D03*
X149000000Y-91200000D03*
X144000000Y-137500000D03*
X102000000Y-95500000D03*
X122000000Y-81400000D03*
X149000000Y-109500000D03*
X122900000Y-88000000D03*
X120000000Y-77800000D03*
X127000000Y-101500000D03*
X143000000Y-138500000D03*
X100600000Y-92800000D03*
X114000000Y-108500000D03*
X122000000Y-68000000D03*
X145000000Y-110500000D03*
X144000000Y-77800000D03*
X116100000Y-89300000D03*
X119000000Y-110500000D03*
X102000000Y-81500000D03*
X125000000Y-101500000D03*
X121700000Y-119200000D03*
X116000000Y-138500000D03*
X134000000Y-109500000D03*
X113000000Y-109500000D03*
X154000000Y-103500000D03*
X134000000Y-82000000D03*
X109000000Y-76200000D03*
X143000000Y-137500000D03*
X144000000Y-91200000D03*
X134000000Y-84000000D03*
X133700000Y-95500000D03*
X135500000Y-83000000D03*
X131150000Y-89200000D03*
X112000000Y-67000000D03*
X127000000Y-73500000D03*
X118600000Y-106900000D03*
X115000000Y-109500000D03*
X139300000Y-132500000D03*
X141000000Y-76200000D03*
X145000000Y-138500000D03*
X113000000Y-68000000D03*
X119600000Y-91300000D03*
X130700000Y-103600000D03*
X128000000Y-102500000D03*
X125000000Y-83100000D03*
X122000000Y-109500000D03*
X154400000Y-91200000D03*
X134000000Y-138500000D03*
X101000000Y-126500000D03*
X120600000Y-106900000D03*
X107000000Y-137500000D03*
X108000000Y-138500000D03*
X124200000Y-130400000D03*
X131000000Y-101500000D03*
X124000000Y-110500000D03*
X114000000Y-77800000D03*
X101000000Y-115500000D03*
X131000000Y-137500000D03*
X130000000Y-138500000D03*
X136000000Y-109500000D03*
X116000000Y-67000000D03*
X125300000Y-126800000D03*
X153000000Y-95500000D03*
X113000000Y-91200000D03*
X152997770Y-121404284D03*
X142000000Y-110500000D03*
X112000000Y-76200000D03*
X142000000Y-92800000D03*
X130000000Y-97000000D03*
X130100000Y-120600000D03*
X153000000Y-84500000D03*
X124700000Y-80600000D03*
X107000000Y-108500000D03*
X116000000Y-110500000D03*
X124700000Y-93700000D03*
X147000000Y-77800000D03*
X128000000Y-97000000D03*
X101000000Y-130500000D03*
X147000000Y-108500000D03*
X119000000Y-101500000D03*
X114000000Y-137500000D03*
X102000000Y-131500000D03*
X115000000Y-110500000D03*
X138700000Y-80400000D03*
X154000000Y-97500000D03*
X129000000Y-137500000D03*
X146000000Y-100500000D03*
X145000000Y-91200000D03*
X119000000Y-109500000D03*
X132000000Y-67000000D03*
X123300000Y-129700000D03*
X102000000Y-121500000D03*
X119000000Y-102500000D03*
X134000000Y-80000000D03*
X130000000Y-83100000D03*
X144000000Y-92800000D03*
X101000000Y-80500000D03*
X122400000Y-119200000D03*
X120000000Y-67000000D03*
X124000000Y-67000000D03*
X102000000Y-123500000D03*
X129000000Y-73500000D03*
X141600000Y-127200000D03*
X116000000Y-137500000D03*
X123600000Y-130900000D03*
X101000000Y-73500000D03*
X138100000Y-95600000D03*
X116000000Y-92800000D03*
X102000000Y-97500000D03*
X102000000Y-73500000D03*
X148000000Y-91200000D03*
X125700000Y-85200000D03*
X120000000Y-101500000D03*
X120000000Y-137500000D03*
X153000000Y-81500000D03*
X134000000Y-83000000D03*
X117000000Y-102500000D03*
X138000000Y-92800000D03*
X101000000Y-121500000D03*
X153000000Y-108500000D03*
X101000000Y-97500000D03*
X146000000Y-68000000D03*
X146000000Y-101500000D03*
X118900000Y-92000000D03*
X102000000Y-129500000D03*
X137400000Y-118800000D03*
X140000000Y-110500000D03*
X122000000Y-102500000D03*
X153997770Y-122404284D03*
X153000000Y-109500000D03*
X133050000Y-80050000D03*
X118500000Y-82600000D03*
X130800000Y-130400000D03*
X136500000Y-86400000D03*
X144000000Y-108500000D03*
X113000000Y-102500000D03*
X153997770Y-116404284D03*
X146000000Y-91200000D03*
X101000000Y-117500000D03*
X137300000Y-79800000D03*
X113000000Y-138500000D03*
X136000000Y-102500000D03*
X128000000Y-138500000D03*
X133000000Y-72000000D03*
X153000000Y-82500000D03*
X101000000Y-101500000D03*
X148000000Y-67000000D03*
X122000000Y-108500000D03*
X136500000Y-87400000D03*
X108000000Y-102500000D03*
X108000000Y-110500000D03*
X123200000Y-123400000D03*
X111000000Y-101500000D03*
X139100000Y-94000000D03*
X129000000Y-97000000D03*
X116000000Y-101500000D03*
X124700000Y-88400000D03*
X125000000Y-67000000D03*
X130000000Y-109500000D03*
X153000000Y-130500000D03*
X133000000Y-110500000D03*
X149000000Y-110500000D03*
X140000000Y-137500000D03*
X138000000Y-110500000D03*
X108000000Y-101500000D03*
X135000000Y-138500000D03*
X150000000Y-110500000D03*
X146000000Y-109500000D03*
X136050000Y-91200000D03*
X106000000Y-110500000D03*
X104000000Y-109500000D03*
X147000000Y-92800000D03*
X143000000Y-77800000D03*
X143000000Y-92800000D03*
X116000000Y-91200000D03*
X122000000Y-73500000D03*
X121000000Y-79400000D03*
X134000000Y-137500000D03*
X154000000Y-106500000D03*
X135500000Y-95000000D03*
X133000000Y-137500000D03*
X115000000Y-138500000D03*
X133400000Y-113700000D03*
X111000000Y-102500000D03*
X101000000Y-88500000D03*
X153000000Y-113500000D03*
X145000000Y-67000000D03*
X118950000Y-75700000D03*
X121050000Y-76750000D03*
X101000000Y-96500000D03*
X101000000Y-81500000D03*
X132000000Y-109500000D03*
X137000000Y-109500000D03*
X134000000Y-101500000D03*
X122000000Y-72000000D03*
X139000000Y-101500000D03*
X153000000Y-106500000D03*
X124000000Y-89100000D03*
X149000000Y-138500000D03*
X150000000Y-76200000D03*
X142000000Y-77800000D03*
X142000000Y-91200000D03*
X137000000Y-108500000D03*
X154000000Y-81500000D03*
X129000000Y-67000000D03*
X101000000Y-129500000D03*
X131250000Y-79650000D03*
X154000000Y-99500000D03*
X136000000Y-137500000D03*
X124000000Y-95500000D03*
X111750000Y-105000000D03*
X121250000Y-72000000D03*
X117000000Y-137500000D03*
X124300000Y-126800000D03*
X102000000Y-84500000D03*
X127500000Y-85600000D03*
X102000000Y-96500000D03*
X143000000Y-110500000D03*
X142800000Y-126600000D03*
X110000000Y-68000000D03*
X125000000Y-97000000D03*
X140000000Y-92800000D03*
X143000000Y-100500000D03*
X124000000Y-73500000D03*
X127000000Y-95500000D03*
X102000000Y-107500000D03*
X128800000Y-126800000D03*
X109000000Y-77800000D03*
X132350000Y-80750000D03*
X119200000Y-96300000D03*
X147000000Y-100500000D03*
X139000000Y-77800000D03*
X105000000Y-109500000D03*
X147000000Y-138500000D03*
X111000000Y-68000000D03*
X121050000Y-92000000D03*
X110000000Y-67000000D03*
X122000000Y-110500000D03*
X137000000Y-74750000D03*
X133900000Y-89500000D03*
X110000000Y-102500000D03*
X118950000Y-77800000D03*
X154000000Y-109500000D03*
X121000000Y-138500000D03*
X135500000Y-81000000D03*
X125000000Y-108500000D03*
X129900000Y-126900000D03*
X120000000Y-81600000D03*
X138000000Y-108500000D03*
X101000000Y-109500000D03*
X153000000Y-83500000D03*
X111000000Y-108500000D03*
X143000000Y-91200000D03*
X101000000Y-113500000D03*
X149000000Y-92800000D03*
X138000000Y-102500000D03*
X115000000Y-76200000D03*
X114000000Y-91200000D03*
X140000000Y-100500000D03*
X102000000Y-108500000D03*
X135000000Y-92250000D03*
X102000000Y-113500000D03*
X132000000Y-73500000D03*
X131000000Y-95500000D03*
X118950000Y-76750000D03*
X112000000Y-92800000D03*
X153997770Y-120404284D03*
X140000000Y-138500000D03*
X115000000Y-102500000D03*
X139100000Y-78700000D03*
X136500000Y-85400000D03*
X125000000Y-73500000D03*
X145000000Y-76200000D03*
X117000000Y-110500000D03*
X133000000Y-68000000D03*
X139100000Y-105300000D03*
X105000000Y-110500000D03*
X124000000Y-101500000D03*
X140000000Y-109500000D03*
X153000000Y-105500000D03*
X118500000Y-83600000D03*
X130300000Y-80600000D03*
X150800000Y-105000000D03*
X114000000Y-110500000D03*
X136700000Y-72700000D03*
X110000000Y-92800000D03*
X107800000Y-132500000D03*
X113000000Y-110500000D03*
X137200000Y-73300000D03*
X101000000Y-116500000D03*
X133000000Y-102500000D03*
X153997770Y-119404284D03*
X111000000Y-76200000D03*
X137000000Y-102500000D03*
X153000000Y-87500000D03*
X124000000Y-108500000D03*
X118950000Y-90700000D03*
X111000000Y-67000000D03*
X125700000Y-83800000D03*
X148000000Y-76200000D03*
X124300000Y-82400000D03*
X144000000Y-109500000D03*
X101000000Y-98500000D03*
X119000000Y-108500000D03*
X109000000Y-91200000D03*
X153000000Y-131500000D03*
X138000000Y-77800000D03*
X121000000Y-68000000D03*
X111000000Y-91200000D03*
X129300000Y-83800000D03*
X130300000Y-75400000D03*
X154000000Y-133500000D03*
X149250000Y-105000000D03*
X142000000Y-100500000D03*
X145000000Y-68000000D03*
X133400000Y-112800000D03*
X146000000Y-108500000D03*
X148000000Y-137500000D03*
X149000000Y-76200000D03*
X153000000Y-127500000D03*
X114000000Y-92800000D03*
X149000000Y-102500000D03*
X136050000Y-92250000D03*
X120000000Y-83400000D03*
X100600000Y-91200000D03*
X131400000Y-81700000D03*
X136500000Y-88400000D03*
X113000000Y-92800000D03*
X119000000Y-67000000D03*
X154000000Y-87500000D03*
X118500000Y-81600000D03*
X109000000Y-137500000D03*
X144000000Y-76200000D03*
X154000000Y-108500000D03*
X115000000Y-77800000D03*
X135200000Y-119600000D03*
X123000000Y-110500000D03*
X131950000Y-78950000D03*
X116000000Y-108500000D03*
X101000000Y-72500000D03*
X105000000Y-91200000D03*
X129600000Y-87700000D03*
X153997770Y-121404284D03*
X132000000Y-102500000D03*
X150000000Y-108500000D03*
X101000000Y-104500000D03*
X141500000Y-106200000D03*
X142900000Y-132500000D03*
X127000000Y-138500000D03*
X118000000Y-94250000D03*
X130500000Y-88600000D03*
X105000000Y-76200000D03*
X139000000Y-102500000D03*
X113000000Y-101500000D03*
X101000000Y-84500000D03*
X141000000Y-67000000D03*
X107000000Y-91200000D03*
X135500000Y-95700000D03*
X148000000Y-92800000D03*
X140000000Y-101500000D03*
X105000000Y-92800000D03*
X130900000Y-74800000D03*
X120000000Y-109500000D03*
X110000000Y-91200000D03*
X152100000Y-92800000D03*
X122000000Y-137500000D03*
X154000000Y-85500000D03*
X139000000Y-68000000D03*
X121000000Y-110500000D03*
X133000000Y-67000000D03*
X147000000Y-91200000D03*
X125000000Y-137500000D03*
X154000000Y-128500000D03*
X136000000Y-68000000D03*
X141000000Y-77800000D03*
X136100000Y-84500000D03*
X116000000Y-77800000D03*
X134300000Y-84900000D03*
X111000000Y-100500000D03*
X154000000Y-113500000D03*
X149000000Y-101500000D03*
X145000000Y-101500000D03*
X154000000Y-96500000D03*
X154000000Y-98500000D03*
X128800000Y-119300000D03*
X141000000Y-102500000D03*
X154000000Y-126500000D03*
X107000000Y-67000000D03*
X105750000Y-105000000D03*
X135000000Y-85600000D03*
X105000000Y-108500000D03*
X101000000Y-119500000D03*
X145000000Y-108500000D03*
X152997770Y-116404284D03*
X134000000Y-108500000D03*
X121000000Y-108500000D03*
X102000000Y-125500000D03*
X147000000Y-101500000D03*
X133000000Y-95500000D03*
X124100000Y-94200000D03*
X106000000Y-102500000D03*
X125000000Y-110500000D03*
X101000000Y-103500000D03*
X131900000Y-129700000D03*
X139000000Y-108500000D03*
X119600000Y-106900000D03*
X141000000Y-138500000D03*
X128000000Y-67000000D03*
X153000000Y-129500000D03*
X128800000Y-121900000D03*
X130000000Y-101500000D03*
X130100000Y-119300000D03*
X111000000Y-137500000D03*
X120000000Y-82600000D03*
X154000000Y-100500000D03*
X154000000Y-131500000D03*
X128900000Y-82000000D03*
X138000000Y-138500000D03*
X108000000Y-68000000D03*
X138000000Y-101500000D03*
X124000000Y-137500000D03*
X144000000Y-101500000D03*
X101000000Y-127500000D03*
X130700000Y-82400000D03*
X108000000Y-109500000D03*
X113000000Y-100500000D03*
X121000000Y-137500000D03*
X132000000Y-108500000D03*
X135500000Y-82000000D03*
X129000000Y-102500000D03*
X125400000Y-81300000D03*
X143000000Y-67000000D03*
X134600000Y-72800000D03*
X152100000Y-91200000D03*
X153000000Y-125500000D03*
X109000000Y-110500000D03*
X102000000Y-109500000D03*
X136000000Y-110500000D03*
X126800000Y-82700000D03*
X152997770Y-118404284D03*
X106000000Y-137500000D03*
X143000000Y-102500000D03*
X121000000Y-88000000D03*
X109000000Y-67000000D03*
X150000000Y-92800000D03*
X140000000Y-68000000D03*
X154000000Y-114500000D03*
X130000000Y-67000000D03*
X148000000Y-68000000D03*
X107000000Y-76200000D03*
X131900000Y-74800000D03*
X112000000Y-110500000D03*
X143000000Y-76200000D03*
X139000000Y-109500000D03*
X120700000Y-84100000D03*
X145000000Y-109500000D03*
X126100000Y-87000000D03*
X132000000Y-101500000D03*
X102000000Y-80500000D03*
X120000000Y-68000000D03*
X137500000Y-95400000D03*
X117800000Y-95700000D03*
X115900000Y-75100000D03*
X109000000Y-102500000D03*
X154000000Y-110500000D03*
X102000000Y-117500000D03*
X118000000Y-67000000D03*
X116400000Y-106800000D03*
X102900000Y-91200000D03*
X106000000Y-91200000D03*
X140000000Y-76200000D03*
X141000000Y-92800000D03*
X153000000Y-133500000D03*
X139000000Y-67000000D03*
X102000000Y-88500000D03*
X151000000Y-109500000D03*
X121000000Y-85000000D03*
X120500000Y-72200000D03*
X138900000Y-94800000D03*
X113000000Y-76200000D03*
X118000000Y-138500000D03*
X121000000Y-89000000D03*
X121000000Y-74000000D03*
X131000000Y-73500000D03*
X126800000Y-86300000D03*
X153997770Y-117404284D03*
X107000000Y-77800000D03*
X149000000Y-108500000D03*
X109000000Y-68000000D03*
X129000000Y-138500000D03*
X102000000Y-72500000D03*
X108000000Y-76200000D03*
X150000000Y-91200000D03*
X137000000Y-138500000D03*
X107000000Y-109500000D03*
X129000000Y-101500000D03*
X133000000Y-108500000D03*
X117000000Y-109500000D03*
X152000000Y-108500000D03*
X135000000Y-110500000D03*
X128000000Y-68000000D03*
X144000000Y-102500000D03*
X118000000Y-137500000D03*
X125000000Y-72000000D03*
X117000000Y-92800000D03*
X124000000Y-72000000D03*
X123700000Y-81800000D03*
X130000000Y-102500000D03*
X154000000Y-72500000D03*
X154000000Y-111500000D03*
X152997770Y-117404284D03*
X153000000Y-132500000D03*
X106000000Y-92800000D03*
X123000000Y-68000000D03*
X131000000Y-102500000D03*
X133000000Y-89200000D03*
X115000000Y-67000000D03*
X130700000Y-86600000D03*
X149000000Y-68000000D03*
X143600000Y-121100000D03*
X132000000Y-68000000D03*
X101000000Y-114500000D03*
X126000000Y-110500000D03*
X124000000Y-138500000D03*
X129000000Y-95500000D03*
X118000000Y-108500000D03*
X119500000Y-87000000D03*
X153000000Y-115500000D03*
X117700000Y-89300000D03*
X111000000Y-77800000D03*
X153000000Y-111500000D03*
X118000000Y-110500000D03*
X144000000Y-67000000D03*
X131000000Y-109500000D03*
X121000000Y-102500000D03*
X116300000Y-88700000D03*
X134000000Y-72200000D03*
X114000000Y-68000000D03*
X102000000Y-83500000D03*
X106000000Y-109500000D03*
X122800000Y-114600000D03*
X145000000Y-92800000D03*
X123000000Y-97000000D03*
X141000000Y-137500000D03*
X135200000Y-123400000D03*
X115400000Y-106200000D03*
X102000000Y-114500000D03*
X118300000Y-96300000D03*
X127500000Y-120600000D03*
X136800000Y-132400000D03*
X132000000Y-89200000D03*
X101000000Y-105500000D03*
X126000000Y-102500000D03*
X148000000Y-109500000D03*
X129700000Y-128500000D03*
X133900000Y-77000000D03*
X154000000Y-130500000D03*
X101000000Y-125500000D03*
X103000000Y-109500000D03*
X117000000Y-101500000D03*
X128800000Y-120600000D03*
X114000000Y-76200000D03*
X149000000Y-77800000D03*
X135300000Y-103600000D03*
X121600000Y-130200000D03*
X129000000Y-110500000D03*
X127000000Y-108500000D03*
X102000000Y-130500000D03*
X138000000Y-124900000D03*
X136500000Y-89500000D03*
X127000000Y-67000000D03*
X121050000Y-77800000D03*
X128000000Y-95500000D03*
X114000000Y-109500000D03*
X132000000Y-97000000D03*
X154000000Y-86500000D03*
X138000000Y-91200000D03*
X123000000Y-73500000D03*
X143000000Y-101500000D03*
X105000000Y-101500000D03*
X120000000Y-76750000D03*
X116900000Y-88500000D03*
X143250000Y-105000000D03*
X120600000Y-104800000D03*
X127000000Y-72000000D03*
X101000000Y-95500000D03*
X133950000Y-92250000D03*
X101000000Y-131500000D03*
X141000000Y-100500000D03*
X110000000Y-138500000D03*
X129000000Y-109500000D03*
X131000000Y-72000000D03*
X101000000Y-132500000D03*
X154000000Y-132500000D03*
X126000000Y-95500000D03*
X117000000Y-138500000D03*
X121300000Y-73500000D03*
X153000000Y-128500000D03*
X133000000Y-87600000D03*
X130000000Y-110500000D03*
X135250000Y-73450000D03*
X119500000Y-89000000D03*
X127400000Y-113700000D03*
X134000000Y-81000000D03*
X123000000Y-138500000D03*
X130000000Y-137500000D03*
X122000000Y-95500000D03*
X102000000Y-118500000D03*
X104000000Y-110500000D03*
X122000000Y-67000000D03*
X135000000Y-88400000D03*
X144000000Y-68000000D03*
X101000000Y-102500000D03*
X153000000Y-86500000D03*
X136000000Y-108500000D03*
X135000000Y-137500000D03*
X119000000Y-137500000D03*
X102000000Y-85500000D03*
X125000000Y-85900000D03*
X130000000Y-72000000D03*
X118000000Y-95000000D03*
X138000000Y-109500000D03*
X153000000Y-112500000D03*
X113000000Y-77800000D03*
X125000000Y-102500000D03*
X128200000Y-86300000D03*
X137000000Y-110500000D03*
X153000000Y-72500000D03*
X101000000Y-86500000D03*
X107000000Y-138500000D03*
X101000000Y-87500000D03*
X103000000Y-108500000D03*
X123000000Y-81400000D03*
X153000000Y-104500000D03*
X135000000Y-91200000D03*
X153000000Y-97500000D03*
X129500000Y-115200000D03*
X112000000Y-91200000D03*
X131000000Y-108500000D03*
X154000000Y-80500000D03*
X102000000Y-116500000D03*
X121300000Y-95000000D03*
X142000000Y-138500000D03*
X133000000Y-138500000D03*
X133000000Y-101500000D03*
X144000000Y-138500000D03*
X111000000Y-92800000D03*
X146000000Y-76200000D03*
X117500000Y-73600000D03*
X116000000Y-102500000D03*
X154000000Y-104500000D03*
X154000000Y-83500000D03*
X107250000Y-105000000D03*
X135000000Y-67000000D03*
X142000000Y-68000000D03*
X128000000Y-73500000D03*
X153997770Y-118404284D03*
X114000000Y-67000000D03*
X132000000Y-72000000D03*
X123000000Y-108500000D03*
X124000000Y-68000000D03*
X154000000Y-112500000D03*
X154000000Y-73500000D03*
X152997770Y-122404284D03*
X102000000Y-86500000D03*
X133750000Y-97000000D03*
X110000000Y-100500000D03*
X134000000Y-87600000D03*
X135000000Y-68000000D03*
X117500000Y-106900000D03*
X119500000Y-74000000D03*
X115000000Y-92800000D03*
X111000000Y-109500000D03*
X127800000Y-128500000D03*
X118000000Y-109500000D03*
X121200000Y-125000000D03*
X115000000Y-100500000D03*
X134000000Y-110500000D03*
X110000000Y-101500000D03*
X126000000Y-101500000D03*
X148000000Y-102500000D03*
X135300000Y-104400000D03*
X102900000Y-76200000D03*
X108000000Y-67000000D03*
X102000000Y-105500000D03*
X146000000Y-110500000D03*
X146000000Y-137500000D03*
X112000000Y-137500000D03*
X128000000Y-109500000D03*
X137000000Y-67000000D03*
X113000000Y-67000000D03*
X148000000Y-110500000D03*
X101000000Y-124500000D03*
X114000000Y-138500000D03*
X123000000Y-125000000D03*
X133000000Y-73500000D03*
X125000000Y-68000000D03*
X134800000Y-78300000D03*
X120200000Y-92850000D03*
X152997770Y-124404284D03*
X118500000Y-79500000D03*
X108000000Y-77800000D03*
X121000000Y-101500000D03*
X148000000Y-77800000D03*
X123000000Y-102500000D03*
X154000000Y-95500000D03*
X116000000Y-76200000D03*
X152000000Y-109500000D03*
X112000000Y-77800000D03*
X153000000Y-102500000D03*
X138700000Y-95400000D03*
X116900000Y-73400000D03*
X143000000Y-68000000D03*
X128000000Y-72000000D03*
X131000000Y-68000000D03*
X128400000Y-113700000D03*
X127500000Y-119300000D03*
X107000000Y-100500000D03*
X110000000Y-108500000D03*
X122000000Y-138500000D03*
X131000000Y-138500000D03*
X109000000Y-92800000D03*
X106000000Y-108500000D03*
X101000000Y-118500000D03*
X126000000Y-73500000D03*
X111000000Y-138500000D03*
X112000000Y-138500000D03*
X134700000Y-76200000D03*
X115800000Y-134000000D03*
X106000000Y-76200000D03*
X142000000Y-108500000D03*
X135800000Y-72700000D03*
X133950000Y-93300000D03*
X154000000Y-88500000D03*
X139000000Y-76200000D03*
X123600000Y-87300000D03*
X147750000Y-105000000D03*
X143700000Y-124800000D03*
X151000000Y-108500000D03*
X125400000Y-87700000D03*
X102000000Y-103500000D03*
X147000000Y-68000000D03*
X104250000Y-105000000D03*
X110000000Y-109500000D03*
X121050000Y-92800000D03*
X101000000Y-122500000D03*
X128200000Y-82700000D03*
X102000000Y-102500000D03*
X120000000Y-108500000D03*
X135500000Y-77600000D03*
X120000000Y-110500000D03*
X130700000Y-104500000D03*
X101000000Y-133500000D03*
X148000000Y-108500000D03*
X101000000Y-120500000D03*
X135000000Y-87400000D03*
X135000000Y-101500000D03*
X133950000Y-76200000D03*
X101000000Y-82500000D03*
X139000000Y-110500000D03*
X154000000Y-102500000D03*
X153000000Y-103500000D03*
X100600000Y-77800000D03*
X154400000Y-76200000D03*
X117700000Y-74200000D03*
X106000000Y-100500000D03*
X137000000Y-68000000D03*
X152997770Y-123404284D03*
X121000000Y-86000000D03*
X153000000Y-107500000D03*
X151000000Y-102500000D03*
X114700000Y-103900000D03*
X127000000Y-68000000D03*
X118900000Y-84500000D03*
X115900000Y-90300000D03*
X101000000Y-123500000D03*
X140000000Y-77800000D03*
X129600000Y-81300000D03*
X102000000Y-128500000D03*
X129300000Y-85200000D03*
X139000000Y-138500000D03*
X154000000Y-125500000D03*
X117000000Y-76200000D03*
X102000000Y-115500000D03*
X132000000Y-110500000D03*
X142000000Y-137500000D03*
X127000000Y-102500000D03*
X132000000Y-87600000D03*
X115000000Y-137500000D03*
X154400000Y-92800000D03*
X111000000Y-110500000D03*
X119500000Y-73300000D03*
X128000000Y-137500000D03*
X134000000Y-67000000D03*
X109000000Y-138500000D03*
X127000000Y-109500000D03*
X101000000Y-85500000D03*
X146000000Y-77800000D03*
X126000000Y-137500000D03*
X103000000Y-110500000D03*
X112000000Y-101500000D03*
X122200000Y-88700000D03*
X120000000Y-72700000D03*
X135000000Y-96300000D03*
X101000000Y-106500000D03*
X108000000Y-91200000D03*
X144000000Y-100500000D03*
X153000000Y-114500000D03*
X106000000Y-68000000D03*
X123000000Y-101500000D03*
X101000000Y-99500000D03*
X124000000Y-97000000D03*
X134000000Y-68000000D03*
X126000000Y-68000000D03*
X124300000Y-86600000D03*
X154000000Y-127500000D03*
X102000000Y-111500000D03*
X107000000Y-102500000D03*
X122000000Y-97000000D03*
X108000000Y-108500000D03*
X148000000Y-101500000D03*
X141000000Y-101500000D03*
X115000000Y-108500000D03*
X112000000Y-100500000D03*
X121000000Y-119200000D03*
X117000000Y-91200000D03*
X138100000Y-80600000D03*
X150000000Y-101500000D03*
X138000000Y-137500000D03*
X135000000Y-93300000D03*
X120000000Y-80600000D03*
X126000000Y-97000000D03*
X113000000Y-108500000D03*
X153997770Y-124404284D03*
X121000000Y-87000000D03*
X112000000Y-68000000D03*
X105000000Y-77800000D03*
X108000000Y-92800000D03*
X147000000Y-110500000D03*
X145000000Y-137500000D03*
X153000000Y-96500000D03*
X110250000Y-105000000D03*
X139000000Y-92800000D03*
X116100000Y-74200000D03*
X154000000Y-129500000D03*
X106000000Y-138500000D03*
X136050000Y-78300000D03*
X118500000Y-80600000D03*
X136050000Y-93300000D03*
X152000000Y-102500000D03*
X101000000Y-112500000D03*
X106000000Y-77800000D03*
X103000000Y-102500000D03*
X152000000Y-110500000D03*
X138900000Y-79800000D03*
X106000000Y-67000000D03*
X120200000Y-90700000D03*
X149000000Y-100500000D03*
X153000000Y-73500000D03*
X135500000Y-83900000D03*
X127000000Y-137500000D03*
X109000000Y-108500000D03*
X107800000Y-126500000D03*
X141000000Y-110500000D03*
X102000000Y-122500000D03*
X110000000Y-137500000D03*
X105000000Y-100500000D03*
X154000000Y-107500000D03*
X123000000Y-95500000D03*
X136000000Y-67000000D03*
X127500000Y-83400000D03*
X116000000Y-68000000D03*
X140000000Y-91200000D03*
X141000000Y-109500000D03*
X115000000Y-101500000D03*
X142000000Y-102500000D03*
X129000000Y-68000000D03*
X135000000Y-102500000D03*
X117000000Y-67000000D03*
X102000000Y-127500000D03*
X102000000Y-87500000D03*
X150000000Y-100500000D03*
X102000000Y-82500000D03*
X137500000Y-80400000D03*
X104000000Y-102500000D03*
X114000000Y-100500000D03*
X115000000Y-91200000D03*
X112000000Y-109500000D03*
X146000000Y-67000000D03*
X131000000Y-67000000D03*
X131400000Y-130800000D03*
X120400000Y-96200000D03*
X109000000Y-100500000D03*
X148000000Y-100500000D03*
X130000000Y-73500000D03*
X126000000Y-138500000D03*
X101000000Y-108500000D03*
X144750000Y-105000000D03*
X137000000Y-101500000D03*
X126400000Y-84500000D03*
X108000000Y-100500000D03*
X102000000Y-119500000D03*
X112000000Y-108500000D03*
X101000000Y-100500000D03*
X102900000Y-77800000D03*
X152100000Y-77800000D03*
X114000000Y-101500000D03*
X147000000Y-102500000D03*
X120000000Y-102500000D03*
X142000000Y-76200000D03*
X123000000Y-72000000D03*
X110000000Y-110500000D03*
X116300000Y-73600000D03*
X153000000Y-80500000D03*
X119000000Y-138500000D03*
X119500000Y-86000000D03*
X121000000Y-81400000D03*
X128000000Y-110500000D03*
X130000000Y-85900000D03*
X116800000Y-134000000D03*
X153000000Y-126500000D03*
X142000000Y-67000000D03*
X135500000Y-80000000D03*
X124000000Y-79900000D03*
X108000000Y-137500000D03*
X120000000Y-75700000D03*
X154000000Y-105500000D03*
X105000000Y-102500000D03*
X107000000Y-101500000D03*
X118000000Y-101500000D03*
X152997770Y-119404284D03*
X139000000Y-137500000D03*
X134500000Y-96800000D03*
X145000000Y-77800000D03*
X112000000Y-102500000D03*
X145000000Y-102500000D03*
X109000000Y-109500000D03*
X150000000Y-102500000D03*
X121000000Y-67000000D03*
X119500000Y-85100000D03*
X102000000Y-120500000D03*
X128600000Y-84500000D03*
X125000000Y-95500000D03*
X150000000Y-109500000D03*
X121050000Y-75700000D03*
X123100000Y-94200000D03*
X121000000Y-109500000D03*
X101000000Y-110500000D03*
X102000000Y-133500000D03*
X137300000Y-94800000D03*
X102000000Y-124500000D03*
X117000000Y-108500000D03*
X110000000Y-76200000D03*
X154000000Y-101500000D03*
X138000000Y-76200000D03*
X106000000Y-101500000D03*
X126000000Y-108500000D03*
X154400000Y-77800000D03*
X148000000Y-138500000D03*
X142000000Y-109500000D03*
X107000000Y-92800000D03*
X131000000Y-110500000D03*
X130100000Y-121900000D03*
X133000000Y-97000000D03*
X136000000Y-138500000D03*
X125000000Y-109500000D03*
X150000000Y-77800000D03*
X141000000Y-68000000D03*
X129000000Y-72000000D03*
X153000000Y-110500000D03*
X146000000Y-92800000D03*
X143000000Y-108500000D03*
X133000000Y-109500000D03*
X102000000Y-110500000D03*
X132000000Y-95500000D03*
X147000000Y-137500000D03*
X136100000Y-77000000D03*
X128000000Y-108500000D03*
X125000000Y-138500000D03*
X140000000Y-67000000D03*
X136000000Y-101500000D03*
X140000000Y-102500000D03*
X102000000Y-104500000D03*
X117500000Y-88700000D03*
X142000000Y-101500000D03*
X126100000Y-82000000D03*
X114700000Y-105100000D03*
G04 #@! TO.N,+5V*
X127200000Y-112200000D03*
X127900000Y-112200000D03*
X128600000Y-112200000D03*
X129500000Y-107300000D03*
X127500000Y-107300000D03*
X128500000Y-107300000D03*
G04 #@! TO.N,Net-(U1-VDD)*
X129650000Y-89350000D03*
X141700000Y-103600000D03*
X143700000Y-99400000D03*
X132600000Y-82500000D03*
G04 #@! TO.N,+1V1*
X128100000Y-118000000D03*
X127500000Y-122700000D03*
G04 #@! TO.N,Net-(U1-V1)*
X123541537Y-76883549D03*
X107300000Y-103700000D03*
G04 #@! TO.N,Net-(U1-V2)*
X105800000Y-103700000D03*
X123230134Y-76257185D03*
G04 #@! TO.N,Net-(U1-V3)*
X104300000Y-103700000D03*
X122805275Y-75701488D03*
G04 #@! TO.N,Net-(U2-V1)*
X147700000Y-103700000D03*
X123541537Y-91883549D03*
G04 #@! TO.N,Net-(U2-V2)*
X149200000Y-103700000D03*
X123230134Y-91257185D03*
G04 #@! TO.N,Net-(U2-V3)*
X122805275Y-90701488D03*
X150800000Y-103700000D03*
G04 #@! TO.N,Net-(U3-V1)*
X131458463Y-77116451D03*
X108800000Y-103700000D03*
G04 #@! TO.N,Net-(U3-V2)*
X131769866Y-77742815D03*
X110300000Y-103700000D03*
G04 #@! TO.N,Net-(U3-V3)*
X132194725Y-78298512D03*
X111800000Y-103700000D03*
G04 #@! TO.N,Net-(U4-V1)*
X146200000Y-103700000D03*
X131458463Y-92116451D03*
G04 #@! TO.N,Net-(U4-V2)*
X131769866Y-92742815D03*
X144700000Y-103700000D03*
G04 #@! TO.N,Net-(U4-V3)*
X143200000Y-103700000D03*
X132194725Y-93298512D03*
G04 #@! TO.N,HEATER*
X118500000Y-112300000D03*
X121100000Y-107400000D03*
X118500000Y-119200000D03*
G04 #@! TO.N,Net-(R8-Pad2)*
X131700000Y-84550000D03*
X130950000Y-84550000D03*
X126900000Y-81700000D03*
X130200000Y-84550000D03*
X127500000Y-81700000D03*
X128150000Y-81700000D03*
G04 #@! TO.N,LED_READY*
X140400000Y-118700000D03*
G04 #@! TO.N,LED_WAIT*
X142300000Y-114400000D03*
G04 #@! TO.N,LED_OPEN*
X126700000Y-120400000D03*
G04 #@! TO.N,LED_SHORT*
X126400000Y-121000000D03*
G04 #@! TO.N,LED_LOAD*
X120700000Y-120800000D03*
G04 #@! TO.N,LED_THROUGH*
X120200000Y-121400000D03*
G04 #@! TO.N,LED_PORT1*
X131300000Y-120300000D03*
G04 #@! TO.N,LED_PORT2*
X126300000Y-119000000D03*
G04 #@! TO.N,LED_PORT3*
X135700000Y-118700000D03*
G04 #@! TO.N,LED_PORT4*
X124400000Y-120400000D03*
G04 #@! TO.N,BUTTON1*
X140996800Y-119496800D03*
G04 #@! TO.N,BUTTON3*
X120200000Y-122200000D03*
G04 #@! TO.N,P1_V1*
X124000000Y-116500000D03*
X110200000Y-107200000D03*
G04 #@! TO.N,P1_V2*
X124700000Y-116100000D03*
X111700000Y-107200000D03*
G04 #@! TO.N,P1_V3*
X130003200Y-116203200D03*
X113200000Y-107200000D03*
G04 #@! TO.N,P3_V1*
X144800000Y-107200000D03*
X132100000Y-116100000D03*
G04 #@! TO.N,P3_V2*
X131300000Y-116100000D03*
X143300000Y-107200000D03*
G04 #@! TO.N,P3_V3*
X141800000Y-107200000D03*
X130800000Y-115600000D03*
G04 #@! TO.N,P2_V1*
X108700000Y-107200000D03*
X120800000Y-116400000D03*
G04 #@! TO.N,P2_V2*
X121700000Y-117200000D03*
X107200000Y-107200000D03*
G04 #@! TO.N,P2_V3*
X105700000Y-107200000D03*
X123700000Y-118700000D03*
G04 #@! TO.N,P4_V1*
X146300000Y-107200000D03*
X135700000Y-116700000D03*
G04 #@! TO.N,P4_V2*
X131300000Y-118700000D03*
X147800000Y-107200000D03*
G04 #@! TO.N,P4_V3*
X149300000Y-107200000D03*
X135700000Y-117700000D03*
G04 #@! TO.N,Net-(J6-SWDIO)*
X127500000Y-118400000D03*
G04 #@! TO.N,Net-(J6-nRESET)*
X126800000Y-118400000D03*
G04 #@! TO.N,Net-(J6-SWCLK)*
X124100000Y-113400000D03*
G04 #@! TO.N,Net-(Q1-D)*
X115500000Y-104200000D03*
X112700000Y-98800000D03*
X113200000Y-99300000D03*
X116300000Y-104200000D03*
G04 #@! TO.N,/PortSwitch/U3_RF2_U2_RF2*
X118750000Y-95500000D03*
X136250000Y-73500000D03*
G04 #@! TO.N,Net-(SW1-A)*
X135900000Y-124900000D03*
G04 #@! TO.N,Net-(U5-~{HOLD}(IO_{3}))*
X133400000Y-129700000D03*
X130500000Y-123100000D03*
G04 #@! TO.N,Net-(C49-Pad3)*
X142400000Y-98700000D03*
X141700000Y-99400000D03*
X137300000Y-103600000D03*
X138900000Y-103600000D03*
G04 #@! TO.N,Net-(R12-Pad2)*
X116500000Y-119200000D03*
X116500000Y-112300000D03*
X115500000Y-107400000D03*
G04 #@! TO.N,Net-(C50-Pad3)*
X113300000Y-103700000D03*
X121700000Y-87500000D03*
G04 #@! TD*
G04 #@! TA.AperFunction,Conductor*
G04 #@! TO.N,GND*
G36*
X154741621Y-66220502D02*
G01*
X154788114Y-66274158D01*
X154799500Y-66326500D01*
X154799500Y-139173500D01*
X154779498Y-139241621D01*
X154725842Y-139288114D01*
X154673500Y-139299500D01*
X100326500Y-139299500D01*
X100258379Y-139279498D01*
X100211886Y-139225842D01*
X100200500Y-139173500D01*
X100200500Y-135800002D01*
X114285016Y-135800002D01*
X114302884Y-135947172D01*
X114355460Y-136085800D01*
X114434457Y-136200246D01*
X114439678Y-136207810D01*
X114550649Y-136306122D01*
X114681924Y-136375020D01*
X114825872Y-136410500D01*
X114825873Y-136410500D01*
X114974127Y-136410500D01*
X114974128Y-136410500D01*
X115118076Y-136375020D01*
X115249351Y-136306122D01*
X115360322Y-136207810D01*
X115444541Y-136085797D01*
X115497114Y-135947175D01*
X115497114Y-135947174D01*
X115497115Y-135947172D01*
X115514984Y-135800002D01*
X115514984Y-135799997D01*
X115497115Y-135652827D01*
X115444540Y-135514201D01*
X115441577Y-135508556D01*
X115427630Y-135438942D01*
X115441577Y-135391444D01*
X115444540Y-135385798D01*
X115444539Y-135385798D01*
X115444541Y-135385797D01*
X115497114Y-135247175D01*
X115497114Y-135247174D01*
X115497115Y-135247172D01*
X115514984Y-135100002D01*
X115514984Y-135099997D01*
X115497115Y-134952827D01*
X115444540Y-134814201D01*
X115441577Y-134808556D01*
X115427630Y-134738942D01*
X115441577Y-134691444D01*
X115444540Y-134685798D01*
X115444539Y-134685798D01*
X115444541Y-134685797D01*
X115497114Y-134547175D01*
X115497114Y-134547174D01*
X115497115Y-134547172D01*
X115514984Y-134400002D01*
X115514984Y-134399997D01*
X115497115Y-134252827D01*
X115444539Y-134114199D01*
X115360323Y-133992192D01*
X115360322Y-133992190D01*
X115249351Y-133893878D01*
X115249350Y-133893877D01*
X115249346Y-133893875D01*
X115118074Y-133824979D01*
X114974129Y-133789500D01*
X114974128Y-133789500D01*
X114825872Y-133789500D01*
X114825870Y-133789500D01*
X114681925Y-133824979D01*
X114550653Y-133893875D01*
X114550649Y-133893877D01*
X114439676Y-133992192D01*
X114355460Y-134114199D01*
X114302884Y-134252827D01*
X114285016Y-134399997D01*
X114285016Y-134400002D01*
X114302884Y-134547172D01*
X114355460Y-134685800D01*
X114358426Y-134691451D01*
X114372368Y-134761066D01*
X114358426Y-134808549D01*
X114355460Y-134814199D01*
X114302884Y-134952827D01*
X114285016Y-135099997D01*
X114285016Y-135100002D01*
X114302884Y-135247172D01*
X114355460Y-135385800D01*
X114358426Y-135391451D01*
X114372368Y-135461066D01*
X114358426Y-135508549D01*
X114355460Y-135514199D01*
X114302884Y-135652827D01*
X114285016Y-135799997D01*
X114285016Y-135800002D01*
X100200500Y-135800002D01*
X100200500Y-132900000D01*
X124029534Y-132900000D01*
X124049312Y-133050234D01*
X124107301Y-133190231D01*
X124107306Y-133190239D01*
X124199548Y-133310451D01*
X124319760Y-133402693D01*
X124319767Y-133402698D01*
X124459764Y-133460687D01*
X124572280Y-133475500D01*
X124572287Y-133475500D01*
X124647713Y-133475500D01*
X124647720Y-133475500D01*
X124760236Y-133460687D01*
X124900233Y-133402698D01*
X125020451Y-133310451D01*
X125112698Y-133190233D01*
X125170687Y-133050236D01*
X125190466Y-132900000D01*
X129809534Y-132900000D01*
X129829312Y-133050234D01*
X129887301Y-133190231D01*
X129887306Y-133190239D01*
X129979548Y-133310451D01*
X130099760Y-133402693D01*
X130099767Y-133402698D01*
X130239764Y-133460687D01*
X130352280Y-133475500D01*
X130352287Y-133475500D01*
X130427713Y-133475500D01*
X130427720Y-133475500D01*
X130540236Y-133460687D01*
X130680233Y-133402698D01*
X130683746Y-133400002D01*
X132985016Y-133400002D01*
X133002884Y-133547172D01*
X133055460Y-133685800D01*
X133134457Y-133800246D01*
X133139678Y-133807810D01*
X133250649Y-133906122D01*
X133381924Y-133975020D01*
X133525872Y-134010500D01*
X133525873Y-134010500D01*
X133674127Y-134010500D01*
X133674128Y-134010500D01*
X133818076Y-133975020D01*
X133949351Y-133906122D01*
X134060322Y-133807810D01*
X134144541Y-133685797D01*
X134197114Y-133547175D01*
X134197114Y-133547174D01*
X134197115Y-133547172D01*
X134214984Y-133400002D01*
X134214984Y-133399997D01*
X134197115Y-133252827D01*
X134144539Y-133114199D01*
X134060323Y-132992192D01*
X134060322Y-132992190D01*
X133949351Y-132893878D01*
X133949350Y-132893877D01*
X133949346Y-132893875D01*
X133818074Y-132824979D01*
X133674129Y-132789500D01*
X133674128Y-132789500D01*
X133525872Y-132789500D01*
X133525870Y-132789500D01*
X133381925Y-132824979D01*
X133250653Y-132893875D01*
X133250649Y-132893877D01*
X133139676Y-132992192D01*
X133055460Y-133114199D01*
X133002884Y-133252827D01*
X132985016Y-133399997D01*
X132985016Y-133400002D01*
X130683746Y-133400002D01*
X130800451Y-133310451D01*
X130892698Y-133190233D01*
X130950687Y-133050236D01*
X130970466Y-132900000D01*
X130950687Y-132749764D01*
X130892698Y-132609767D01*
X130892693Y-132609760D01*
X130800451Y-132489548D01*
X130680239Y-132397306D01*
X130680231Y-132397301D01*
X130540234Y-132339312D01*
X130427722Y-132324500D01*
X130427720Y-132324500D01*
X130352280Y-132324500D01*
X130352277Y-132324500D01*
X130239765Y-132339312D01*
X130099768Y-132397301D01*
X130099760Y-132397306D01*
X129979548Y-132489548D01*
X129887306Y-132609760D01*
X129887301Y-132609768D01*
X129829312Y-132749765D01*
X129809534Y-132899999D01*
X129809534Y-132900000D01*
X125190466Y-132900000D01*
X125170687Y-132749764D01*
X125112698Y-132609767D01*
X125112693Y-132609760D01*
X125020451Y-132489548D01*
X124900239Y-132397306D01*
X124900231Y-132397301D01*
X124760234Y-132339312D01*
X124647722Y-132324500D01*
X124647720Y-132324500D01*
X124572280Y-132324500D01*
X124572277Y-132324500D01*
X124459765Y-132339312D01*
X124319768Y-132397301D01*
X124319760Y-132397306D01*
X124199548Y-132489548D01*
X124107306Y-132609760D01*
X124107301Y-132609768D01*
X124049312Y-132749765D01*
X124029534Y-132899999D01*
X124029534Y-132900000D01*
X100200500Y-132900000D01*
X100200500Y-129700002D01*
X132785016Y-129700002D01*
X132802884Y-129847172D01*
X132855460Y-129985800D01*
X132934457Y-130100246D01*
X132939678Y-130107810D01*
X133050649Y-130206122D01*
X133181924Y-130275020D01*
X133325872Y-130310500D01*
X133325873Y-130310500D01*
X133474127Y-130310500D01*
X133474128Y-130310500D01*
X133618076Y-130275020D01*
X133749351Y-130206122D01*
X133860322Y-130107810D01*
X133944541Y-129985797D01*
X133997114Y-129847175D01*
X133997114Y-129847174D01*
X133997115Y-129847172D01*
X134014984Y-129700002D01*
X134014984Y-129699997D01*
X133997115Y-129552827D01*
X133944539Y-129414199D01*
X133860323Y-129292192D01*
X133860322Y-129292190D01*
X133749351Y-129193878D01*
X133749350Y-129193877D01*
X133749346Y-129193875D01*
X133618074Y-129124979D01*
X133474129Y-129089500D01*
X133474128Y-129089500D01*
X133325872Y-129089500D01*
X133325870Y-129089500D01*
X133181925Y-129124979D01*
X133050653Y-129193875D01*
X133050649Y-129193877D01*
X132939676Y-129292192D01*
X132855460Y-129414199D01*
X132802884Y-129552827D01*
X132785016Y-129699997D01*
X132785016Y-129700002D01*
X100200500Y-129700002D01*
X100200500Y-125710502D01*
X122385016Y-125710502D01*
X122402884Y-125857672D01*
X122455460Y-125996300D01*
X122534457Y-126110746D01*
X122539678Y-126118310D01*
X122650649Y-126216622D01*
X122781924Y-126285520D01*
X122925872Y-126321000D01*
X122925873Y-126321000D01*
X123074127Y-126321000D01*
X123074128Y-126321000D01*
X123218076Y-126285520D01*
X123349351Y-126216622D01*
X123460322Y-126118310D01*
X123544541Y-125996297D01*
X123597114Y-125857675D01*
X123597114Y-125857674D01*
X123597115Y-125857672D01*
X123614984Y-125710502D01*
X123614984Y-125710497D01*
X123597115Y-125563327D01*
X123577080Y-125510500D01*
X123544541Y-125424703D01*
X123544539Y-125424701D01*
X123544539Y-125424699D01*
X123460323Y-125302692D01*
X123460322Y-125302690D01*
X123349351Y-125204378D01*
X123349350Y-125204377D01*
X123349346Y-125204375D01*
X123218074Y-125135479D01*
X123074129Y-125100000D01*
X123074128Y-125100000D01*
X122925872Y-125100000D01*
X122925870Y-125100000D01*
X122781925Y-125135479D01*
X122650653Y-125204375D01*
X122650649Y-125204377D01*
X122539676Y-125302692D01*
X122455460Y-125424699D01*
X122402884Y-125563327D01*
X122385016Y-125710497D01*
X122385016Y-125710502D01*
X100200500Y-125710502D01*
X100200500Y-124900002D01*
X135285016Y-124900002D01*
X135302884Y-125047172D01*
X135355460Y-125185800D01*
X135368284Y-125204378D01*
X135439678Y-125307810D01*
X135550649Y-125406122D01*
X135681924Y-125475020D01*
X135825872Y-125510500D01*
X135825873Y-125510500D01*
X135974127Y-125510500D01*
X135974128Y-125510500D01*
X136118076Y-125475020D01*
X136249351Y-125406122D01*
X136360322Y-125307810D01*
X136444541Y-125185797D01*
X136497114Y-125047175D01*
X136497114Y-125047174D01*
X136497115Y-125047172D01*
X136514984Y-124900002D01*
X136514984Y-124899997D01*
X136497115Y-124752827D01*
X136444539Y-124614199D01*
X136360323Y-124492192D01*
X136360322Y-124492190D01*
X136249351Y-124393878D01*
X136249350Y-124393877D01*
X136249346Y-124393875D01*
X136118074Y-124324979D01*
X135974129Y-124289500D01*
X135974128Y-124289500D01*
X135825872Y-124289500D01*
X135825870Y-124289500D01*
X135681925Y-124324979D01*
X135550653Y-124393875D01*
X135550649Y-124393877D01*
X135439676Y-124492192D01*
X135355460Y-124614199D01*
X135302884Y-124752827D01*
X135285016Y-124899997D01*
X135285016Y-124900002D01*
X100200500Y-124900002D01*
X100200500Y-122200002D01*
X119585016Y-122200002D01*
X119602884Y-122347172D01*
X119655460Y-122485800D01*
X119727198Y-122589729D01*
X119739678Y-122607810D01*
X119850649Y-122706122D01*
X119981924Y-122775020D01*
X120125872Y-122810500D01*
X120125873Y-122810500D01*
X120274127Y-122810500D01*
X120274128Y-122810500D01*
X120418076Y-122775020D01*
X120549351Y-122706122D01*
X120556259Y-122700002D01*
X126885016Y-122700002D01*
X126902884Y-122847172D01*
X126955460Y-122985800D01*
X127001726Y-123052827D01*
X127039678Y-123107810D01*
X127150649Y-123206122D01*
X127281924Y-123275020D01*
X127425872Y-123310500D01*
X127425873Y-123310500D01*
X127574127Y-123310500D01*
X127574128Y-123310500D01*
X127649575Y-123291904D01*
X127662226Y-123288786D01*
X127733155Y-123291904D01*
X127791137Y-123332873D01*
X127810193Y-123366443D01*
X127855460Y-123485800D01*
X127934457Y-123600246D01*
X127939678Y-123607810D01*
X128050649Y-123706122D01*
X128181924Y-123775020D01*
X128325872Y-123810500D01*
X128325873Y-123810500D01*
X128474127Y-123810500D01*
X128474128Y-123810500D01*
X128618076Y-123775020D01*
X128749351Y-123706122D01*
X128860322Y-123607810D01*
X128944541Y-123485797D01*
X128997114Y-123347175D01*
X128997114Y-123347174D01*
X128997115Y-123347172D01*
X129014984Y-123200002D01*
X129014984Y-123199997D01*
X129002843Y-123100002D01*
X129885016Y-123100002D01*
X129902884Y-123247172D01*
X129955460Y-123385800D01*
X130024486Y-123485800D01*
X130039678Y-123507810D01*
X130150649Y-123606122D01*
X130281924Y-123675020D01*
X130425872Y-123710500D01*
X130425873Y-123710500D01*
X130574127Y-123710500D01*
X130574128Y-123710500D01*
X130718076Y-123675020D01*
X130841446Y-123610271D01*
X130911059Y-123596325D01*
X130958554Y-123610271D01*
X131081924Y-123675020D01*
X131225872Y-123710500D01*
X131225873Y-123710500D01*
X131374127Y-123710500D01*
X131374128Y-123710500D01*
X131518076Y-123675020D01*
X131649351Y-123606122D01*
X131760322Y-123507810D01*
X131844541Y-123385797D01*
X131897114Y-123247175D01*
X131897114Y-123247174D01*
X131897115Y-123247172D01*
X131914984Y-123100002D01*
X131914984Y-123099997D01*
X131897115Y-122952827D01*
X131879589Y-122906617D01*
X131844541Y-122814203D01*
X131844539Y-122814201D01*
X131844539Y-122814199D01*
X131769940Y-122706124D01*
X131760322Y-122692190D01*
X131649351Y-122593878D01*
X131649350Y-122593877D01*
X131649346Y-122593875D01*
X131518074Y-122524979D01*
X131374129Y-122489500D01*
X131374128Y-122489500D01*
X131225872Y-122489500D01*
X131225870Y-122489500D01*
X131081925Y-122524979D01*
X130958554Y-122589729D01*
X130888941Y-122603675D01*
X130841446Y-122589729D01*
X130718074Y-122524979D01*
X130574129Y-122489500D01*
X130574128Y-122489500D01*
X130425872Y-122489500D01*
X130425870Y-122489500D01*
X130281925Y-122524979D01*
X130150653Y-122593875D01*
X130150649Y-122593877D01*
X130039676Y-122692192D01*
X129955460Y-122814199D01*
X129902884Y-122952827D01*
X129885016Y-123099997D01*
X129885016Y-123100002D01*
X129002843Y-123100002D01*
X128997115Y-123052827D01*
X128959189Y-122952827D01*
X128944541Y-122914203D01*
X128944539Y-122914201D01*
X128944539Y-122914199D01*
X128875516Y-122814203D01*
X128860322Y-122792190D01*
X128749351Y-122693878D01*
X128749350Y-122693877D01*
X128749346Y-122693875D01*
X128618074Y-122624979D01*
X128474129Y-122589500D01*
X128474128Y-122589500D01*
X128325872Y-122589500D01*
X128325868Y-122589500D01*
X128237771Y-122611214D01*
X128166843Y-122608095D01*
X128108861Y-122567125D01*
X128089806Y-122533556D01*
X128044541Y-122414203D01*
X128044539Y-122414201D01*
X128044539Y-122414199D01*
X127960323Y-122292192D01*
X127960322Y-122292190D01*
X127849351Y-122193878D01*
X127849350Y-122193877D01*
X127849346Y-122193875D01*
X127718074Y-122124979D01*
X127574129Y-122089500D01*
X127574128Y-122089500D01*
X127425872Y-122089500D01*
X127425870Y-122089500D01*
X127281925Y-122124979D01*
X127150653Y-122193875D01*
X127150649Y-122193877D01*
X127039676Y-122292192D01*
X126955460Y-122414199D01*
X126902884Y-122552827D01*
X126885016Y-122699997D01*
X126885016Y-122700002D01*
X120556259Y-122700002D01*
X120660322Y-122607810D01*
X120744541Y-122485797D01*
X120797114Y-122347175D01*
X120797114Y-122347174D01*
X120797115Y-122347172D01*
X120814984Y-122200002D01*
X120814984Y-122199997D01*
X120797115Y-122052827D01*
X120784418Y-122019351D01*
X120744541Y-121914203D01*
X120715115Y-121871573D01*
X120692881Y-121804152D01*
X120710628Y-121735409D01*
X120715099Y-121728449D01*
X120744541Y-121685797D01*
X120797114Y-121547175D01*
X120804447Y-121486779D01*
X120832513Y-121421568D01*
X120891381Y-121381881D01*
X120899377Y-121379629D01*
X120918073Y-121375021D01*
X120918073Y-121375020D01*
X120918076Y-121375020D01*
X121049351Y-121306122D01*
X121160322Y-121207810D01*
X121244541Y-121085797D01*
X121297114Y-120947175D01*
X121297114Y-120947174D01*
X121297115Y-120947172D01*
X121314984Y-120800002D01*
X121314984Y-120799997D01*
X121297115Y-120652827D01*
X121271693Y-120585797D01*
X121244541Y-120514203D01*
X121244539Y-120514201D01*
X121244539Y-120514199D01*
X121165714Y-120400002D01*
X123785016Y-120400002D01*
X123802884Y-120547172D01*
X123855460Y-120685800D01*
X123930059Y-120793875D01*
X123939678Y-120807810D01*
X124050649Y-120906122D01*
X124181924Y-120975020D01*
X124325872Y-121010500D01*
X124325873Y-121010500D01*
X124474127Y-121010500D01*
X124474128Y-121010500D01*
X124618076Y-120975020D01*
X124749351Y-120906122D01*
X124860322Y-120807810D01*
X124944541Y-120685797D01*
X124997114Y-120547175D01*
X124997114Y-120547174D01*
X124997115Y-120547172D01*
X125014984Y-120400002D01*
X125014984Y-120399997D01*
X124997115Y-120252827D01*
X124959189Y-120152827D01*
X124944541Y-120114203D01*
X124944539Y-120114201D01*
X124944539Y-120114199D01*
X124875515Y-120014201D01*
X124860322Y-119992190D01*
X124749351Y-119893878D01*
X124749350Y-119893877D01*
X124749346Y-119893875D01*
X124618074Y-119824979D01*
X124516738Y-119800002D01*
X125685016Y-119800002D01*
X125702884Y-119947172D01*
X125755460Y-120085800D01*
X125834457Y-120200246D01*
X125839678Y-120207810D01*
X125950649Y-120306122D01*
X125984900Y-120324098D01*
X126035922Y-120373465D01*
X126052156Y-120442580D01*
X126028446Y-120509501D01*
X126009900Y-120529977D01*
X125939680Y-120592187D01*
X125939676Y-120592192D01*
X125855460Y-120714199D01*
X125802884Y-120852827D01*
X125785016Y-120999997D01*
X125785016Y-121000002D01*
X125802884Y-121147172D01*
X125855460Y-121285800D01*
X125934285Y-121399997D01*
X125939678Y-121407810D01*
X126050649Y-121506122D01*
X126181924Y-121575020D01*
X126325872Y-121610500D01*
X126325873Y-121610500D01*
X126474127Y-121610500D01*
X126474128Y-121610500D01*
X126618076Y-121575020D01*
X126749351Y-121506122D01*
X126860322Y-121407810D01*
X126934736Y-121300002D01*
X141785016Y-121300002D01*
X141802884Y-121447172D01*
X141855460Y-121585800D01*
X141924485Y-121685799D01*
X141939678Y-121707810D01*
X142050649Y-121806122D01*
X142181924Y-121875020D01*
X142325872Y-121910500D01*
X142325873Y-121910500D01*
X142474127Y-121910500D01*
X142474128Y-121910500D01*
X142618076Y-121875020D01*
X142749351Y-121806122D01*
X142860322Y-121707810D01*
X142944541Y-121585797D01*
X142997114Y-121447175D01*
X142997114Y-121447174D01*
X142997115Y-121447172D01*
X143014984Y-121300002D01*
X143014984Y-121299997D01*
X142997115Y-121152827D01*
X142944539Y-121014199D01*
X142869940Y-120906124D01*
X142860322Y-120892190D01*
X142749351Y-120793878D01*
X142749350Y-120793877D01*
X142749346Y-120793875D01*
X142618074Y-120724979D01*
X142474129Y-120689500D01*
X142474128Y-120689500D01*
X142325872Y-120689500D01*
X142325870Y-120689500D01*
X142181925Y-120724979D01*
X142050653Y-120793875D01*
X142050649Y-120793877D01*
X141939676Y-120892192D01*
X141855460Y-121014199D01*
X141802884Y-121152827D01*
X141785016Y-121299997D01*
X141785016Y-121300002D01*
X126934736Y-121300002D01*
X126944541Y-121285797D01*
X126997114Y-121147175D01*
X126997114Y-121147174D01*
X126997115Y-121147172D01*
X127014984Y-121000003D01*
X127014984Y-120993276D01*
X127034986Y-120925155D01*
X127057427Y-120898966D01*
X127160322Y-120807810D01*
X127244541Y-120685797D01*
X127297114Y-120547175D01*
X127297114Y-120547174D01*
X127297115Y-120547172D01*
X127314984Y-120400002D01*
X127314984Y-120399997D01*
X127302843Y-120300002D01*
X130685016Y-120300002D01*
X130702884Y-120447172D01*
X130755460Y-120585800D01*
X130834457Y-120700246D01*
X130839678Y-120707810D01*
X130950649Y-120806122D01*
X131081924Y-120875020D01*
X131225872Y-120910500D01*
X131225873Y-120910500D01*
X131374127Y-120910500D01*
X131374128Y-120910500D01*
X131518076Y-120875020D01*
X131649351Y-120806122D01*
X131760322Y-120707810D01*
X131844541Y-120585797D01*
X131897114Y-120447175D01*
X131897114Y-120447174D01*
X131897115Y-120447172D01*
X131914984Y-120300002D01*
X131914984Y-120299997D01*
X131897115Y-120152827D01*
X131844540Y-120014201D01*
X131841577Y-120008556D01*
X131827630Y-119938942D01*
X131841577Y-119891444D01*
X131844540Y-119885798D01*
X131844539Y-119885798D01*
X131844541Y-119885797D01*
X131897114Y-119747175D01*
X131897114Y-119747174D01*
X131897115Y-119747172D01*
X131914984Y-119600002D01*
X131914984Y-119599997D01*
X131897115Y-119452827D01*
X131844540Y-119314201D01*
X131817495Y-119275020D01*
X131780603Y-119221573D01*
X131758369Y-119154152D01*
X131776116Y-119085409D01*
X131780587Y-119078449D01*
X131844541Y-118985797D01*
X131897114Y-118847175D01*
X131897114Y-118847174D01*
X131897115Y-118847172D01*
X131914984Y-118700002D01*
X135085016Y-118700002D01*
X135102884Y-118847172D01*
X135155460Y-118985800D01*
X135226689Y-119088992D01*
X135239678Y-119107810D01*
X135350649Y-119206122D01*
X135481924Y-119275020D01*
X135625872Y-119310500D01*
X135625873Y-119310500D01*
X135774127Y-119310500D01*
X135774128Y-119310500D01*
X135918076Y-119275020D01*
X136049351Y-119206122D01*
X136160322Y-119107810D01*
X136244541Y-118985797D01*
X136297114Y-118847175D01*
X136297114Y-118847174D01*
X136297115Y-118847172D01*
X136314984Y-118700002D01*
X139785016Y-118700002D01*
X139802884Y-118847172D01*
X139855460Y-118985800D01*
X139926689Y-119088992D01*
X139939678Y-119107810D01*
X140050649Y-119206122D01*
X140181924Y-119275020D01*
X140293771Y-119302587D01*
X140355125Y-119338310D01*
X140387426Y-119401533D01*
X140388698Y-119440112D01*
X140381816Y-119496795D01*
X140381816Y-119496802D01*
X140399684Y-119643972D01*
X140452260Y-119782600D01*
X140529068Y-119893875D01*
X140536478Y-119904610D01*
X140647449Y-120002922D01*
X140778724Y-120071820D01*
X140922672Y-120107300D01*
X140922673Y-120107300D01*
X141070927Y-120107300D01*
X141070928Y-120107300D01*
X141214876Y-120071820D01*
X141346151Y-120002922D01*
X141457122Y-119904610D01*
X141541341Y-119782597D01*
X141593914Y-119643975D01*
X141593914Y-119643974D01*
X141593915Y-119643972D01*
X141611784Y-119496802D01*
X141611784Y-119496797D01*
X141593915Y-119349627D01*
X141545351Y-119221577D01*
X141541341Y-119211003D01*
X141541339Y-119211001D01*
X141541339Y-119210999D01*
X141457123Y-119088992D01*
X141457122Y-119088990D01*
X141346151Y-118990678D01*
X141346150Y-118990677D01*
X141346146Y-118990675D01*
X141214874Y-118921779D01*
X141103028Y-118894212D01*
X141041674Y-118858488D01*
X141009373Y-118795265D01*
X141008101Y-118756685D01*
X141014984Y-118700001D01*
X141014984Y-118699997D01*
X140997115Y-118552827D01*
X140948628Y-118424980D01*
X140944541Y-118414203D01*
X140944539Y-118414201D01*
X140944539Y-118414199D01*
X140860323Y-118292192D01*
X140860322Y-118292190D01*
X140749351Y-118193878D01*
X140749350Y-118193877D01*
X140749346Y-118193875D01*
X140618074Y-118124979D01*
X140474129Y-118089500D01*
X140474128Y-118089500D01*
X140325872Y-118089500D01*
X140325870Y-118089500D01*
X140181925Y-118124979D01*
X140050653Y-118193875D01*
X140050649Y-118193877D01*
X139960291Y-118273928D01*
X139947660Y-118285119D01*
X139939676Y-118292192D01*
X139855460Y-118414199D01*
X139802884Y-118552827D01*
X139785016Y-118699997D01*
X139785016Y-118700002D01*
X136314984Y-118700002D01*
X136314984Y-118699997D01*
X136297115Y-118552827D01*
X136248628Y-118424980D01*
X136244541Y-118414203D01*
X136244539Y-118414201D01*
X136244539Y-118414199D01*
X136160323Y-118292192D01*
X136160322Y-118292190D01*
X136160318Y-118292186D01*
X136155270Y-118286488D01*
X136156903Y-118285040D01*
X136124994Y-118234176D01*
X136125769Y-118163184D01*
X136156812Y-118114878D01*
X136155270Y-118113512D01*
X136160314Y-118107816D01*
X136160322Y-118107810D01*
X136244541Y-117985797D01*
X136297114Y-117847175D01*
X136297114Y-117847174D01*
X136297115Y-117847172D01*
X136314984Y-117700002D01*
X136314984Y-117699997D01*
X136297115Y-117552827D01*
X136248628Y-117424980D01*
X136244541Y-117414203D01*
X136244539Y-117414201D01*
X136244539Y-117414199D01*
X136160323Y-117292192D01*
X136160322Y-117292190D01*
X136160318Y-117292186D01*
X136155270Y-117286488D01*
X136156903Y-117285040D01*
X136124994Y-117234176D01*
X136125769Y-117163184D01*
X136156812Y-117114878D01*
X136155270Y-117113512D01*
X136160314Y-117107816D01*
X136160322Y-117107810D01*
X136244541Y-116985797D01*
X136297114Y-116847175D01*
X136297114Y-116847174D01*
X136297115Y-116847172D01*
X136314984Y-116700002D01*
X136314984Y-116699997D01*
X136297115Y-116552827D01*
X136264836Y-116467716D01*
X136244541Y-116414203D01*
X136244539Y-116414201D01*
X136244539Y-116414199D01*
X136160323Y-116292192D01*
X136160322Y-116292190D01*
X136056264Y-116200002D01*
X136484516Y-116200002D01*
X136502384Y-116347172D01*
X136554960Y-116485800D01*
X136633957Y-116600246D01*
X136639178Y-116607810D01*
X136750149Y-116706122D01*
X136881424Y-116775020D01*
X137025372Y-116810500D01*
X137025373Y-116810500D01*
X137173627Y-116810500D01*
X137173628Y-116810500D01*
X137317576Y-116775020D01*
X137448851Y-116706122D01*
X137559822Y-116607810D01*
X137644041Y-116485797D01*
X137696614Y-116347175D01*
X137696614Y-116347174D01*
X137696615Y-116347172D01*
X137714484Y-116200002D01*
X137714484Y-116199997D01*
X137696615Y-116052827D01*
X137658689Y-115952827D01*
X137644041Y-115914203D01*
X137644039Y-115914201D01*
X137644039Y-115914199D01*
X137579677Y-115820955D01*
X137559822Y-115792190D01*
X137448851Y-115693878D01*
X137448850Y-115693877D01*
X137448846Y-115693875D01*
X137317574Y-115624979D01*
X137173629Y-115589500D01*
X137173628Y-115589500D01*
X137025372Y-115589500D01*
X137025370Y-115589500D01*
X136881425Y-115624979D01*
X136750153Y-115693875D01*
X136750149Y-115693877D01*
X136659791Y-115773928D01*
X136642215Y-115789500D01*
X136639176Y-115792192D01*
X136554960Y-115914199D01*
X136502384Y-116052827D01*
X136484516Y-116199997D01*
X136484516Y-116200002D01*
X136056264Y-116200002D01*
X136049351Y-116193878D01*
X136049350Y-116193877D01*
X136049346Y-116193875D01*
X135918074Y-116124979D01*
X135774129Y-116089500D01*
X135774128Y-116089500D01*
X135625872Y-116089500D01*
X135625870Y-116089500D01*
X135481925Y-116124979D01*
X135350653Y-116193875D01*
X135350649Y-116193877D01*
X135239676Y-116292192D01*
X135155460Y-116414199D01*
X135102884Y-116552827D01*
X135085016Y-116699997D01*
X135085016Y-116700002D01*
X135102884Y-116847172D01*
X135155460Y-116985800D01*
X135239676Y-117107808D01*
X135244733Y-117113516D01*
X135243101Y-117114961D01*
X135275010Y-117165842D01*
X135274224Y-117236834D01*
X135243192Y-117285119D01*
X135244733Y-117286484D01*
X135239676Y-117292191D01*
X135155460Y-117414199D01*
X135102884Y-117552827D01*
X135085016Y-117699997D01*
X135085016Y-117700002D01*
X135102884Y-117847172D01*
X135155460Y-117985800D01*
X135239676Y-118107808D01*
X135244733Y-118113516D01*
X135243101Y-118114961D01*
X135275010Y-118165842D01*
X135274224Y-118236834D01*
X135243192Y-118285119D01*
X135244733Y-118286484D01*
X135239676Y-118292191D01*
X135155460Y-118414199D01*
X135102884Y-118552827D01*
X135085016Y-118699997D01*
X135085016Y-118700002D01*
X131914984Y-118700002D01*
X131914984Y-118699997D01*
X131897115Y-118552827D01*
X131848628Y-118424980D01*
X131844541Y-118414203D01*
X131844539Y-118414201D01*
X131844539Y-118414199D01*
X131760323Y-118292192D01*
X131760322Y-118292190D01*
X131649351Y-118193878D01*
X131649350Y-118193877D01*
X131649346Y-118193875D01*
X131518074Y-118124979D01*
X131374129Y-118089500D01*
X131374128Y-118089500D01*
X131225872Y-118089500D01*
X131225870Y-118089500D01*
X131081925Y-118124979D01*
X130950653Y-118193875D01*
X130950649Y-118193877D01*
X130860291Y-118273928D01*
X130847660Y-118285119D01*
X130839676Y-118292192D01*
X130755460Y-118414199D01*
X130702884Y-118552827D01*
X130685016Y-118699997D01*
X130685016Y-118700002D01*
X130702884Y-118847172D01*
X130755460Y-118985800D01*
X130819394Y-119078424D01*
X130841630Y-119145849D01*
X130823883Y-119214591D01*
X130819394Y-119221576D01*
X130755460Y-119314199D01*
X130702884Y-119452827D01*
X130685016Y-119599997D01*
X130685016Y-119600002D01*
X130702884Y-119747172D01*
X130755460Y-119885800D01*
X130758426Y-119891451D01*
X130772368Y-119961066D01*
X130758426Y-120008549D01*
X130755460Y-120014199D01*
X130702884Y-120152827D01*
X130685016Y-120299997D01*
X130685016Y-120300002D01*
X127302843Y-120300002D01*
X127297115Y-120252827D01*
X127259189Y-120152827D01*
X127244541Y-120114203D01*
X127244539Y-120114201D01*
X127244539Y-120114199D01*
X127175515Y-120014201D01*
X127160322Y-119992190D01*
X127049351Y-119893878D01*
X127049350Y-119893877D01*
X127049346Y-119893874D01*
X126976567Y-119855677D01*
X126925545Y-119806309D01*
X126910042Y-119759297D01*
X126897115Y-119652827D01*
X126877079Y-119599997D01*
X126844541Y-119514203D01*
X126815115Y-119471573D01*
X126792881Y-119404152D01*
X126810628Y-119335409D01*
X126815099Y-119328449D01*
X126844541Y-119285797D01*
X126897114Y-119147175D01*
X126904447Y-119086779D01*
X126932513Y-119021568D01*
X126991381Y-118981881D01*
X126999377Y-118979629D01*
X127006383Y-118977901D01*
X127018076Y-118975020D01*
X127091446Y-118936512D01*
X127161057Y-118922566D01*
X127208549Y-118936510D01*
X127281924Y-118975020D01*
X127425872Y-119010500D01*
X127425873Y-119010500D01*
X127574127Y-119010500D01*
X127574128Y-119010500D01*
X127718076Y-118975020D01*
X127849351Y-118906122D01*
X127960322Y-118807810D01*
X128034737Y-118700001D01*
X128044540Y-118685799D01*
X128048080Y-118679054D01*
X128050825Y-118680494D01*
X128085140Y-118635200D01*
X128151801Y-118610772D01*
X128160069Y-118610500D01*
X128174127Y-118610500D01*
X128174128Y-118610500D01*
X128318076Y-118575020D01*
X128391448Y-118536511D01*
X128461058Y-118522566D01*
X128508549Y-118536510D01*
X128581924Y-118575020D01*
X128725872Y-118610500D01*
X128725873Y-118610500D01*
X128874127Y-118610500D01*
X128874128Y-118610500D01*
X129018076Y-118575020D01*
X129149351Y-118506122D01*
X129260322Y-118407810D01*
X129344541Y-118285797D01*
X129397114Y-118147175D01*
X129397114Y-118147174D01*
X129397115Y-118147172D01*
X129414984Y-118000002D01*
X129414984Y-117999997D01*
X129397115Y-117852827D01*
X129373098Y-117789500D01*
X129344541Y-117714203D01*
X129344539Y-117714200D01*
X129344539Y-117714199D01*
X129288395Y-117632861D01*
X129260322Y-117592190D01*
X129149351Y-117493878D01*
X129149350Y-117493877D01*
X129149346Y-117493875D01*
X129018074Y-117424979D01*
X128874129Y-117389500D01*
X128874128Y-117389500D01*
X128725872Y-117389500D01*
X128725870Y-117389500D01*
X128581925Y-117424979D01*
X128508554Y-117463487D01*
X128438940Y-117477433D01*
X128391446Y-117463487D01*
X128318074Y-117424979D01*
X128174129Y-117389500D01*
X128174128Y-117389500D01*
X128025872Y-117389500D01*
X128025870Y-117389500D01*
X127881925Y-117424979D01*
X127750653Y-117493875D01*
X127750649Y-117493877D01*
X127639676Y-117592192D01*
X127555459Y-117714200D01*
X127551920Y-117720946D01*
X127549174Y-117719505D01*
X127514860Y-117764800D01*
X127448199Y-117789228D01*
X127439931Y-117789500D01*
X127425870Y-117789500D01*
X127281925Y-117824979D01*
X127208554Y-117863487D01*
X127138940Y-117877433D01*
X127091446Y-117863487D01*
X127018074Y-117824979D01*
X126874129Y-117789500D01*
X126874128Y-117789500D01*
X126725872Y-117789500D01*
X126725870Y-117789500D01*
X126581925Y-117824979D01*
X126450653Y-117893875D01*
X126450649Y-117893877D01*
X126339676Y-117992192D01*
X126255460Y-118114199D01*
X126202885Y-118252827D01*
X126195552Y-118313220D01*
X126167485Y-118378433D01*
X126108616Y-118418119D01*
X126100627Y-118420370D01*
X126081923Y-118424980D01*
X125950653Y-118493875D01*
X125950649Y-118493877D01*
X125860291Y-118573928D01*
X125842715Y-118589500D01*
X125839676Y-118592192D01*
X125755460Y-118714199D01*
X125702884Y-118852827D01*
X125685016Y-118999997D01*
X125685016Y-119000002D01*
X125702884Y-119147172D01*
X125755460Y-119285799D01*
X125755460Y-119285800D01*
X125784882Y-119328426D01*
X125807117Y-119395851D01*
X125789369Y-119464593D01*
X125784882Y-119471574D01*
X125755460Y-119514199D01*
X125755460Y-119514200D01*
X125702884Y-119652827D01*
X125685016Y-119799997D01*
X125685016Y-119800002D01*
X124516738Y-119800002D01*
X124474129Y-119789500D01*
X124474128Y-119789500D01*
X124325872Y-119789500D01*
X124325870Y-119789500D01*
X124181925Y-119824979D01*
X124050653Y-119893875D01*
X124050649Y-119893877D01*
X123939676Y-119992192D01*
X123855460Y-120114199D01*
X123802884Y-120252827D01*
X123785016Y-120399997D01*
X123785016Y-120400002D01*
X121165714Y-120400002D01*
X121165713Y-120400000D01*
X121160322Y-120392190D01*
X121049351Y-120293878D01*
X121049350Y-120293877D01*
X121049346Y-120293875D01*
X120918074Y-120224979D01*
X120774129Y-120189500D01*
X120774128Y-120189500D01*
X120625872Y-120189500D01*
X120625870Y-120189500D01*
X120481925Y-120224979D01*
X120350653Y-120293875D01*
X120350649Y-120293877D01*
X120239676Y-120392192D01*
X120155460Y-120514199D01*
X120102885Y-120652827D01*
X120095552Y-120713220D01*
X120067485Y-120778433D01*
X120008616Y-120818119D01*
X120000627Y-120820370D01*
X119981923Y-120824980D01*
X119850653Y-120893875D01*
X119850649Y-120893877D01*
X119739676Y-120992192D01*
X119655460Y-121114199D01*
X119602884Y-121252827D01*
X119585016Y-121399997D01*
X119585016Y-121400002D01*
X119602884Y-121547172D01*
X119655460Y-121685799D01*
X119655460Y-121685800D01*
X119684882Y-121728426D01*
X119707117Y-121795851D01*
X119689369Y-121864593D01*
X119684882Y-121871574D01*
X119655460Y-121914199D01*
X119655460Y-121914200D01*
X119602884Y-122052827D01*
X119585016Y-122199997D01*
X119585016Y-122200002D01*
X100200500Y-122200002D01*
X100200500Y-119200002D01*
X115885016Y-119200002D01*
X115902884Y-119347172D01*
X115955460Y-119485800D01*
X116034285Y-119599997D01*
X116039678Y-119607810D01*
X116150649Y-119706122D01*
X116281924Y-119775020D01*
X116425872Y-119810500D01*
X116425873Y-119810500D01*
X116574127Y-119810500D01*
X116574128Y-119810500D01*
X116718076Y-119775020D01*
X116849351Y-119706122D01*
X116960322Y-119607810D01*
X117044541Y-119485797D01*
X117097114Y-119347175D01*
X117097114Y-119347174D01*
X117097115Y-119347172D01*
X117114984Y-119200002D01*
X117885016Y-119200002D01*
X117902884Y-119347172D01*
X117955460Y-119485800D01*
X118034285Y-119599997D01*
X118039678Y-119607810D01*
X118150649Y-119706122D01*
X118281924Y-119775020D01*
X118425872Y-119810500D01*
X118425873Y-119810500D01*
X118574127Y-119810500D01*
X118574128Y-119810500D01*
X118718076Y-119775020D01*
X118849351Y-119706122D01*
X118960322Y-119607810D01*
X119044541Y-119485797D01*
X119097114Y-119347175D01*
X119097114Y-119347174D01*
X119097115Y-119347172D01*
X119114984Y-119200002D01*
X119114984Y-119199997D01*
X119097115Y-119052827D01*
X119053002Y-118936513D01*
X119044541Y-118914203D01*
X119044539Y-118914201D01*
X119044539Y-118914199D01*
X118988395Y-118832861D01*
X118960322Y-118792190D01*
X118856264Y-118700002D01*
X123085016Y-118700002D01*
X123102884Y-118847172D01*
X123155460Y-118985800D01*
X123226689Y-119088992D01*
X123239678Y-119107810D01*
X123350649Y-119206122D01*
X123481924Y-119275020D01*
X123625872Y-119310500D01*
X123625873Y-119310500D01*
X123774127Y-119310500D01*
X123774128Y-119310500D01*
X123918076Y-119275020D01*
X124049351Y-119206122D01*
X124160322Y-119107810D01*
X124244541Y-118985797D01*
X124297114Y-118847175D01*
X124297114Y-118847174D01*
X124297115Y-118847172D01*
X124314984Y-118700002D01*
X124314984Y-118699997D01*
X124297115Y-118552827D01*
X124248628Y-118424980D01*
X124244541Y-118414203D01*
X124244539Y-118414201D01*
X124244539Y-118414199D01*
X124160323Y-118292192D01*
X124160322Y-118292190D01*
X124049351Y-118193878D01*
X124049350Y-118193877D01*
X124049346Y-118193875D01*
X123918074Y-118124979D01*
X123774129Y-118089500D01*
X123774128Y-118089500D01*
X123625872Y-118089500D01*
X123625870Y-118089500D01*
X123481925Y-118124979D01*
X123350653Y-118193875D01*
X123350649Y-118193877D01*
X123260291Y-118273928D01*
X123247660Y-118285119D01*
X123239676Y-118292192D01*
X123155460Y-118414199D01*
X123102884Y-118552827D01*
X123085016Y-118699997D01*
X123085016Y-118700002D01*
X118856264Y-118700002D01*
X118849351Y-118693878D01*
X118849350Y-118693877D01*
X118849346Y-118693875D01*
X118718074Y-118624979D01*
X118574129Y-118589500D01*
X118574128Y-118589500D01*
X118425872Y-118589500D01*
X118425870Y-118589500D01*
X118281925Y-118624979D01*
X118150653Y-118693875D01*
X118150649Y-118693877D01*
X118039676Y-118792192D01*
X117955460Y-118914199D01*
X117902884Y-119052827D01*
X117885016Y-119199997D01*
X117885016Y-119200002D01*
X117114984Y-119200002D01*
X117114984Y-119199997D01*
X117097115Y-119052827D01*
X117053002Y-118936513D01*
X117044541Y-118914203D01*
X117044539Y-118914201D01*
X117044539Y-118914199D01*
X116988395Y-118832861D01*
X116960322Y-118792190D01*
X116849351Y-118693878D01*
X116849350Y-118693877D01*
X116849346Y-118693875D01*
X116718074Y-118624979D01*
X116574129Y-118589500D01*
X116574128Y-118589500D01*
X116425872Y-118589500D01*
X116425870Y-118589500D01*
X116281925Y-118624979D01*
X116150653Y-118693875D01*
X116150649Y-118693877D01*
X116039676Y-118792192D01*
X115955460Y-118914199D01*
X115902884Y-119052827D01*
X115885016Y-119199997D01*
X115885016Y-119200002D01*
X100200500Y-119200002D01*
X100200500Y-116400002D01*
X120185016Y-116400002D01*
X120202884Y-116547172D01*
X120255460Y-116685800D01*
X120324484Y-116785798D01*
X120339678Y-116807810D01*
X120450649Y-116906122D01*
X120581924Y-116975020D01*
X120725872Y-117010500D01*
X120725873Y-117010500D01*
X120874127Y-117010500D01*
X120874128Y-117010500D01*
X120925350Y-116997875D01*
X120938001Y-116994757D01*
X121008929Y-116997875D01*
X121066912Y-117038844D01*
X121093541Y-117104658D01*
X121093238Y-117132281D01*
X121085017Y-117199997D01*
X121085016Y-117200003D01*
X121102884Y-117347172D01*
X121155460Y-117485800D01*
X121201726Y-117552827D01*
X121239678Y-117607810D01*
X121350649Y-117706122D01*
X121481924Y-117775020D01*
X121625872Y-117810500D01*
X121625873Y-117810500D01*
X121774127Y-117810500D01*
X121774128Y-117810500D01*
X121918076Y-117775020D01*
X122049351Y-117706122D01*
X122160322Y-117607810D01*
X122244541Y-117485797D01*
X122297114Y-117347175D01*
X122297114Y-117347174D01*
X122297115Y-117347172D01*
X122314984Y-117200002D01*
X122314984Y-117199997D01*
X122297115Y-117052827D01*
X122244539Y-116914199D01*
X122175169Y-116813700D01*
X122160322Y-116792190D01*
X122049351Y-116693878D01*
X122049350Y-116693877D01*
X122049346Y-116693875D01*
X121918074Y-116624979D01*
X121774129Y-116589500D01*
X121774128Y-116589500D01*
X121625872Y-116589500D01*
X121625867Y-116589500D01*
X121561996Y-116605243D01*
X121491068Y-116602124D01*
X121433085Y-116561153D01*
X121408345Y-116500002D01*
X123385016Y-116500002D01*
X123402884Y-116647172D01*
X123455460Y-116785800D01*
X123520118Y-116879473D01*
X123539678Y-116907810D01*
X123650649Y-117006122D01*
X123781924Y-117075020D01*
X123925872Y-117110500D01*
X123925873Y-117110500D01*
X124074127Y-117110500D01*
X124074128Y-117110500D01*
X124218076Y-117075020D01*
X124349351Y-117006122D01*
X124460322Y-116907810D01*
X124544541Y-116785797D01*
X124544542Y-116785793D01*
X124548080Y-116779053D01*
X124550834Y-116780498D01*
X124585089Y-116735237D01*
X124651738Y-116710776D01*
X124660068Y-116710500D01*
X124774127Y-116710500D01*
X124774128Y-116710500D01*
X124918076Y-116675020D01*
X125049351Y-116606122D01*
X125160322Y-116507810D01*
X125244541Y-116385797D01*
X125297114Y-116247175D01*
X125297114Y-116247174D01*
X125297115Y-116247172D01*
X125302454Y-116203202D01*
X129388216Y-116203202D01*
X129406084Y-116350372D01*
X129458660Y-116489000D01*
X129498814Y-116547172D01*
X129542878Y-116611010D01*
X129653849Y-116709322D01*
X129785124Y-116778220D01*
X129929072Y-116813700D01*
X129929073Y-116813700D01*
X130077327Y-116813700D01*
X130077328Y-116813700D01*
X130221276Y-116778220D01*
X130352551Y-116709322D01*
X130463522Y-116611010D01*
X130525659Y-116520987D01*
X130547740Y-116488999D01*
X130547740Y-116488998D01*
X130547739Y-116488998D01*
X130547741Y-116488997D01*
X130561527Y-116452645D01*
X130604384Y-116396044D01*
X130671040Y-116371599D01*
X130740330Y-116387070D01*
X130783035Y-116425749D01*
X130824486Y-116485800D01*
X130839678Y-116507810D01*
X130950649Y-116606122D01*
X131081924Y-116675020D01*
X131225872Y-116710500D01*
X131225873Y-116710500D01*
X131374127Y-116710500D01*
X131374128Y-116710500D01*
X131518076Y-116675020D01*
X131640038Y-116611010D01*
X131641446Y-116610271D01*
X131711059Y-116596325D01*
X131758554Y-116610271D01*
X131759962Y-116611010D01*
X131881924Y-116675020D01*
X132025872Y-116710500D01*
X132025873Y-116710500D01*
X132174127Y-116710500D01*
X132174128Y-116710500D01*
X132318076Y-116675020D01*
X132449351Y-116606122D01*
X132560322Y-116507810D01*
X132644541Y-116385797D01*
X132697114Y-116247175D01*
X132697114Y-116247174D01*
X132697115Y-116247172D01*
X132714984Y-116100002D01*
X132714984Y-116099997D01*
X132697115Y-115952827D01*
X132648628Y-115824980D01*
X132644541Y-115814203D01*
X132644539Y-115814201D01*
X132644539Y-115814199D01*
X132560323Y-115692192D01*
X132560322Y-115692190D01*
X132449351Y-115593878D01*
X132449350Y-115593877D01*
X132449346Y-115593875D01*
X132318074Y-115524979D01*
X132174129Y-115489500D01*
X132174128Y-115489500D01*
X132025872Y-115489500D01*
X132025870Y-115489500D01*
X131881925Y-115524979D01*
X131758554Y-115589729D01*
X131688941Y-115603675D01*
X131641446Y-115589729D01*
X131560220Y-115547099D01*
X131518076Y-115524980D01*
X131518073Y-115524979D01*
X131518071Y-115524978D01*
X131479034Y-115515356D01*
X131417680Y-115479633D01*
X131391377Y-115437699D01*
X131344539Y-115314199D01*
X131269940Y-115206124D01*
X131260322Y-115192190D01*
X131149351Y-115093878D01*
X131149350Y-115093877D01*
X131149346Y-115093875D01*
X131018074Y-115024979D01*
X130874129Y-114989500D01*
X130874128Y-114989500D01*
X130725872Y-114989500D01*
X130725870Y-114989500D01*
X130581925Y-115024979D01*
X130450653Y-115093875D01*
X130450649Y-115093877D01*
X130339676Y-115192192D01*
X130255460Y-115314199D01*
X130202886Y-115452824D01*
X130202886Y-115452825D01*
X130199357Y-115481887D01*
X130171291Y-115547099D01*
X130112423Y-115586787D01*
X130074276Y-115592700D01*
X129929070Y-115592700D01*
X129785125Y-115628179D01*
X129653853Y-115697075D01*
X129653849Y-115697077D01*
X129563491Y-115777128D01*
X129549527Y-115789500D01*
X129542876Y-115795392D01*
X129458660Y-115917399D01*
X129406084Y-116056027D01*
X129388216Y-116203197D01*
X129388216Y-116203202D01*
X125302454Y-116203202D01*
X125314984Y-116100002D01*
X125314984Y-116099997D01*
X125297115Y-115952827D01*
X125248628Y-115824980D01*
X125244541Y-115814203D01*
X125244539Y-115814201D01*
X125244539Y-115814199D01*
X125160323Y-115692192D01*
X125160322Y-115692190D01*
X125049351Y-115593878D01*
X125049350Y-115593877D01*
X125049346Y-115593875D01*
X124918074Y-115524979D01*
X124774129Y-115489500D01*
X124774128Y-115489500D01*
X124625872Y-115489500D01*
X124625870Y-115489500D01*
X124481925Y-115524979D01*
X124350653Y-115593875D01*
X124350649Y-115593877D01*
X124239676Y-115692192D01*
X124155458Y-115814203D01*
X124151915Y-115820955D01*
X124149162Y-115819510D01*
X124114891Y-115864777D01*
X124048236Y-115889226D01*
X124039931Y-115889500D01*
X123925870Y-115889500D01*
X123781925Y-115924979D01*
X123650653Y-115993875D01*
X123650649Y-115993877D01*
X123580497Y-116056027D01*
X123542715Y-116089500D01*
X123539676Y-116092192D01*
X123455460Y-116214199D01*
X123402884Y-116352827D01*
X123385016Y-116499997D01*
X123385016Y-116500002D01*
X121408345Y-116500002D01*
X121406458Y-116495339D01*
X121406762Y-116467716D01*
X121414984Y-116400001D01*
X121414984Y-116399997D01*
X121397115Y-116252827D01*
X121378294Y-116203202D01*
X121344541Y-116114203D01*
X121344539Y-116114201D01*
X121344539Y-116114199D01*
X121260323Y-115992192D01*
X121260322Y-115992190D01*
X121149351Y-115893878D01*
X121149350Y-115893877D01*
X121149346Y-115893875D01*
X121018074Y-115824979D01*
X120874129Y-115789500D01*
X120874128Y-115789500D01*
X120725872Y-115789500D01*
X120725870Y-115789500D01*
X120581925Y-115824979D01*
X120450653Y-115893875D01*
X120450649Y-115893877D01*
X120339676Y-115992192D01*
X120255460Y-116114199D01*
X120202884Y-116252827D01*
X120185016Y-116399997D01*
X120185016Y-116400002D01*
X100200500Y-116400002D01*
X100200500Y-114459660D01*
X120210393Y-114459660D01*
X120240668Y-114631354D01*
X120240669Y-114631356D01*
X120309719Y-114791435D01*
X120309721Y-114791439D01*
X120413831Y-114931282D01*
X120547384Y-115043348D01*
X120547386Y-115043349D01*
X120703185Y-115121594D01*
X120872829Y-115161800D01*
X120872831Y-115161800D01*
X121003439Y-115161800D01*
X121037117Y-115157863D01*
X121133164Y-115146637D01*
X121296993Y-115087008D01*
X121442654Y-114991205D01*
X121562296Y-114864393D01*
X121649467Y-114713407D01*
X121653480Y-114700002D01*
X124885016Y-114700002D01*
X124902884Y-114847172D01*
X124955460Y-114985800D01*
X125030059Y-115093875D01*
X125039678Y-115107810D01*
X125150649Y-115206122D01*
X125281924Y-115275020D01*
X125425872Y-115310500D01*
X125425873Y-115310500D01*
X125574127Y-115310500D01*
X125574128Y-115310500D01*
X125718076Y-115275020D01*
X125849351Y-115206122D01*
X125960322Y-115107810D01*
X126044541Y-114985797D01*
X126097114Y-114847175D01*
X126097114Y-114847174D01*
X126097115Y-114847172D01*
X126114984Y-114700002D01*
X126114984Y-114699997D01*
X126097115Y-114552827D01*
X126044539Y-114414199D01*
X126034740Y-114400002D01*
X141685016Y-114400002D01*
X141702884Y-114547172D01*
X141755460Y-114685800D01*
X141828375Y-114791435D01*
X141839678Y-114807810D01*
X141950649Y-114906122D01*
X142081924Y-114975020D01*
X142225872Y-115010500D01*
X142225873Y-115010500D01*
X142374127Y-115010500D01*
X142374128Y-115010500D01*
X142518076Y-114975020D01*
X142649351Y-114906122D01*
X142760322Y-114807810D01*
X142844541Y-114685797D01*
X142897114Y-114547175D01*
X142897114Y-114547174D01*
X142897115Y-114547172D01*
X142914984Y-114400002D01*
X142914984Y-114399997D01*
X142897115Y-114252827D01*
X142856495Y-114145724D01*
X142844541Y-114114203D01*
X142844539Y-114114201D01*
X142844539Y-114114199D01*
X142760323Y-113992192D01*
X142760322Y-113992190D01*
X142649351Y-113893878D01*
X142649350Y-113893877D01*
X142649346Y-113893875D01*
X142518074Y-113824979D01*
X142374129Y-113789500D01*
X142374128Y-113789500D01*
X142225872Y-113789500D01*
X142225870Y-113789500D01*
X142081925Y-113824979D01*
X141950653Y-113893875D01*
X141950649Y-113893877D01*
X141839676Y-113992192D01*
X141755460Y-114114199D01*
X141702884Y-114252827D01*
X141685016Y-114399997D01*
X141685016Y-114400002D01*
X126034740Y-114400002D01*
X125995013Y-114342448D01*
X125972777Y-114275023D01*
X125990524Y-114206281D01*
X126042619Y-114158045D01*
X126084079Y-114145724D01*
X126213164Y-114130637D01*
X126376993Y-114071008D01*
X126522654Y-113975205D01*
X126642296Y-113848393D01*
X126729467Y-113697407D01*
X126779469Y-113530388D01*
X126789607Y-113356340D01*
X126759332Y-113184646D01*
X126690279Y-113024562D01*
X126680442Y-113011349D01*
X126586168Y-112884717D01*
X126452615Y-112772651D01*
X126374370Y-112733355D01*
X126296815Y-112694406D01*
X126127171Y-112654200D01*
X125996564Y-112654200D01*
X125996561Y-112654200D01*
X125866835Y-112669363D01*
X125703006Y-112728992D01*
X125703003Y-112728993D01*
X125557346Y-112824794D01*
X125437703Y-112951607D01*
X125350535Y-113102587D01*
X125350533Y-113102593D01*
X125300531Y-113269612D01*
X125290393Y-113443660D01*
X125320668Y-113615354D01*
X125320669Y-113615356D01*
X125389719Y-113775435D01*
X125389721Y-113775439D01*
X125479592Y-113896156D01*
X125504227Y-113962742D01*
X125488953Y-114032076D01*
X125438618Y-114082145D01*
X125408679Y-114093737D01*
X125281925Y-114124979D01*
X125150653Y-114193875D01*
X125150649Y-114193877D01*
X125039676Y-114292192D01*
X124955460Y-114414199D01*
X124902884Y-114552827D01*
X124885016Y-114699997D01*
X124885016Y-114700002D01*
X121653480Y-114700002D01*
X121699469Y-114546388D01*
X121709607Y-114372340D01*
X121679332Y-114200646D01*
X121610279Y-114040562D01*
X121603961Y-114032076D01*
X121506168Y-113900717D01*
X121372615Y-113788651D01*
X121294370Y-113749355D01*
X121216815Y-113710406D01*
X121047171Y-113670200D01*
X120916564Y-113670200D01*
X120916561Y-113670200D01*
X120786835Y-113685363D01*
X120623006Y-113744992D01*
X120623003Y-113744993D01*
X120477346Y-113840794D01*
X120357703Y-113967607D01*
X120270535Y-114118587D01*
X120270533Y-114118593D01*
X120220531Y-114285612D01*
X120210393Y-114459660D01*
X100200500Y-114459660D01*
X100200500Y-113400002D01*
X123485016Y-113400002D01*
X123502884Y-113547172D01*
X123555460Y-113685800D01*
X123634457Y-113800246D01*
X123639678Y-113807810D01*
X123750649Y-113906122D01*
X123881924Y-113975020D01*
X124025872Y-114010500D01*
X124025873Y-114010500D01*
X124174127Y-114010500D01*
X124174128Y-114010500D01*
X124318076Y-113975020D01*
X124449351Y-113906122D01*
X124560322Y-113807810D01*
X124644541Y-113685797D01*
X124697114Y-113547175D01*
X124697114Y-113547174D01*
X124697115Y-113547172D01*
X124714984Y-113400002D01*
X124714984Y-113399997D01*
X124697115Y-113252827D01*
X124650456Y-113129800D01*
X124644541Y-113114203D01*
X124644539Y-113114201D01*
X124644539Y-113114199D01*
X124560323Y-112992192D01*
X124560322Y-112992190D01*
X124449351Y-112893878D01*
X124449350Y-112893877D01*
X124449346Y-112893875D01*
X124318074Y-112824979D01*
X124174129Y-112789500D01*
X124174128Y-112789500D01*
X124025872Y-112789500D01*
X124025870Y-112789500D01*
X123881925Y-112824979D01*
X123750653Y-112893875D01*
X123750649Y-112893877D01*
X123639676Y-112992192D01*
X123555460Y-113114199D01*
X123502884Y-113252827D01*
X123485016Y-113399997D01*
X123485016Y-113400002D01*
X100200500Y-113400002D01*
X100200500Y-112200002D01*
X105885016Y-112200002D01*
X105902884Y-112347172D01*
X105955460Y-112485800D01*
X106024486Y-112585800D01*
X106039678Y-112607810D01*
X106150649Y-112706122D01*
X106281924Y-112775020D01*
X106425872Y-112810500D01*
X106425873Y-112810500D01*
X106574127Y-112810500D01*
X106574128Y-112810500D01*
X106718076Y-112775020D01*
X106849351Y-112706122D01*
X106960322Y-112607810D01*
X107044541Y-112485797D01*
X107097114Y-112347175D01*
X107097114Y-112347174D01*
X107097115Y-112347172D01*
X107102842Y-112300002D01*
X115885016Y-112300002D01*
X115902884Y-112447172D01*
X115955460Y-112585800D01*
X116013140Y-112669363D01*
X116039678Y-112707810D01*
X116150649Y-112806122D01*
X116281924Y-112875020D01*
X116425872Y-112910500D01*
X116425873Y-112910500D01*
X116574127Y-112910500D01*
X116574128Y-112910500D01*
X116718076Y-112875020D01*
X116849351Y-112806122D01*
X116960322Y-112707810D01*
X117044541Y-112585797D01*
X117097114Y-112447175D01*
X117097114Y-112447174D01*
X117097115Y-112447172D01*
X117114984Y-112300002D01*
X117885016Y-112300002D01*
X117902884Y-112447172D01*
X117955460Y-112585800D01*
X118013140Y-112669363D01*
X118039678Y-112707810D01*
X118150649Y-112806122D01*
X118281924Y-112875020D01*
X118425872Y-112910500D01*
X118425873Y-112910500D01*
X118574127Y-112910500D01*
X118574128Y-112910500D01*
X118718076Y-112875020D01*
X118849351Y-112806122D01*
X118960322Y-112707810D01*
X119044541Y-112585797D01*
X119097114Y-112447175D01*
X119097114Y-112447174D01*
X119097115Y-112447172D01*
X119099484Y-112427660D01*
X120210393Y-112427660D01*
X120240668Y-112599354D01*
X120240669Y-112599356D01*
X120309719Y-112759435D01*
X120309721Y-112759439D01*
X120413831Y-112899282D01*
X120547384Y-113011348D01*
X120547386Y-113011349D01*
X120703185Y-113089594D01*
X120872829Y-113129800D01*
X120872831Y-113129800D01*
X121003439Y-113129800D01*
X121037117Y-113125863D01*
X121133164Y-113114637D01*
X121296993Y-113055008D01*
X121442654Y-112959205D01*
X121562296Y-112832393D01*
X121649467Y-112681407D01*
X121699469Y-112514388D01*
X121709607Y-112340340D01*
X121684861Y-112200002D01*
X126585016Y-112200002D01*
X126602884Y-112347172D01*
X126655460Y-112485800D01*
X126724486Y-112585800D01*
X126739678Y-112607810D01*
X126850649Y-112706122D01*
X126981924Y-112775020D01*
X127125872Y-112810500D01*
X127125873Y-112810500D01*
X127274127Y-112810500D01*
X127274128Y-112810500D01*
X127418076Y-112775020D01*
X127491448Y-112736511D01*
X127561058Y-112722566D01*
X127608549Y-112736510D01*
X127681924Y-112775020D01*
X127825872Y-112810500D01*
X127825873Y-112810500D01*
X127974127Y-112810500D01*
X127974128Y-112810500D01*
X128118076Y-112775020D01*
X128191448Y-112736511D01*
X128261058Y-112722566D01*
X128308549Y-112736510D01*
X128381924Y-112775020D01*
X128525872Y-112810500D01*
X128525873Y-112810500D01*
X128674127Y-112810500D01*
X128674128Y-112810500D01*
X128818076Y-112775020D01*
X128949351Y-112706122D01*
X129060322Y-112607810D01*
X129144541Y-112485797D01*
X129197114Y-112347175D01*
X129197114Y-112347174D01*
X129197115Y-112347172D01*
X129213466Y-112212502D01*
X138972516Y-112212502D01*
X138990384Y-112359672D01*
X139042960Y-112498300D01*
X139118548Y-112607807D01*
X139127178Y-112620310D01*
X139238149Y-112718622D01*
X139369424Y-112787520D01*
X139513372Y-112823000D01*
X139513373Y-112823000D01*
X139661627Y-112823000D01*
X139661628Y-112823000D01*
X139805576Y-112787520D01*
X139936851Y-112718622D01*
X140047822Y-112620310D01*
X140132041Y-112498297D01*
X140184614Y-112359675D01*
X140184614Y-112359674D01*
X140184615Y-112359672D01*
X140202484Y-112212502D01*
X144972516Y-112212502D01*
X144990384Y-112359672D01*
X145042960Y-112498300D01*
X145118548Y-112607807D01*
X145127178Y-112620310D01*
X145238149Y-112718622D01*
X145369424Y-112787520D01*
X145513372Y-112823000D01*
X145513373Y-112823000D01*
X145661627Y-112823000D01*
X145661628Y-112823000D01*
X145805576Y-112787520D01*
X145936851Y-112718622D01*
X146047822Y-112620310D01*
X146132041Y-112498297D01*
X146184614Y-112359675D01*
X146184614Y-112359674D01*
X146184615Y-112359672D01*
X146202484Y-112212502D01*
X146202484Y-112212497D01*
X146184615Y-112065327D01*
X146163086Y-112008560D01*
X146132041Y-111926703D01*
X146132039Y-111926701D01*
X146132039Y-111926699D01*
X146050655Y-111808795D01*
X146047822Y-111804690D01*
X145936851Y-111706378D01*
X145936850Y-111706377D01*
X145936846Y-111706375D01*
X145805574Y-111637479D01*
X145661629Y-111602000D01*
X145661628Y-111602000D01*
X145513372Y-111602000D01*
X145513370Y-111602000D01*
X145369425Y-111637479D01*
X145238153Y-111706375D01*
X145238149Y-111706377D01*
X145127176Y-111804692D01*
X145042960Y-111926699D01*
X144990384Y-112065327D01*
X144972516Y-112212497D01*
X144972516Y-112212502D01*
X140202484Y-112212502D01*
X140202484Y-112212497D01*
X140184615Y-112065327D01*
X140163086Y-112008560D01*
X140132041Y-111926703D01*
X140132039Y-111926701D01*
X140132039Y-111926699D01*
X140050655Y-111808795D01*
X140047822Y-111804690D01*
X139936851Y-111706378D01*
X139936850Y-111706377D01*
X139936846Y-111706375D01*
X139805574Y-111637479D01*
X139661629Y-111602000D01*
X139661628Y-111602000D01*
X139513372Y-111602000D01*
X139513370Y-111602000D01*
X139369425Y-111637479D01*
X139238153Y-111706375D01*
X139238149Y-111706377D01*
X139127176Y-111804692D01*
X139042960Y-111926699D01*
X138990384Y-112065327D01*
X138972516Y-112212497D01*
X138972516Y-112212502D01*
X129213466Y-112212502D01*
X129214984Y-112200002D01*
X129214984Y-112199997D01*
X129197115Y-112052827D01*
X129179589Y-112006617D01*
X129144541Y-111914203D01*
X129144539Y-111914201D01*
X129144539Y-111914199D01*
X129088395Y-111832861D01*
X129060322Y-111792190D01*
X128949351Y-111693878D01*
X128949350Y-111693877D01*
X128949346Y-111693875D01*
X128818074Y-111624979D01*
X128674129Y-111589500D01*
X128674128Y-111589500D01*
X128525872Y-111589500D01*
X128525870Y-111589500D01*
X128381925Y-111624979D01*
X128308554Y-111663487D01*
X128238940Y-111677433D01*
X128191446Y-111663487D01*
X128118074Y-111624979D01*
X127974129Y-111589500D01*
X127974128Y-111589500D01*
X127825872Y-111589500D01*
X127825870Y-111589500D01*
X127681925Y-111624979D01*
X127608554Y-111663487D01*
X127538940Y-111677433D01*
X127491446Y-111663487D01*
X127418074Y-111624979D01*
X127274129Y-111589500D01*
X127274128Y-111589500D01*
X127125872Y-111589500D01*
X127125870Y-111589500D01*
X126981925Y-111624979D01*
X126850653Y-111693875D01*
X126850649Y-111693877D01*
X126739676Y-111792192D01*
X126655460Y-111914199D01*
X126602884Y-112052827D01*
X126585016Y-112199997D01*
X126585016Y-112200002D01*
X121684861Y-112200002D01*
X121679332Y-112168646D01*
X121610279Y-112008562D01*
X121506168Y-111868717D01*
X121372615Y-111756651D01*
X121294370Y-111717355D01*
X121216815Y-111678406D01*
X121047171Y-111638200D01*
X120916564Y-111638200D01*
X120916561Y-111638200D01*
X120786835Y-111653363D01*
X120623006Y-111712992D01*
X120623003Y-111712993D01*
X120477346Y-111808794D01*
X120357703Y-111935607D01*
X120270535Y-112086587D01*
X120270533Y-112086593D01*
X120220531Y-112253612D01*
X120210393Y-112427660D01*
X119099484Y-112427660D01*
X119114984Y-112300002D01*
X119114984Y-112299997D01*
X119097115Y-112152827D01*
X119059189Y-112052827D01*
X119044541Y-112014203D01*
X119044539Y-112014201D01*
X119044539Y-112014199D01*
X118975516Y-111914203D01*
X118960322Y-111892190D01*
X118849351Y-111793878D01*
X118849350Y-111793877D01*
X118849346Y-111793875D01*
X118718074Y-111724979D01*
X118574129Y-111689500D01*
X118574128Y-111689500D01*
X118425872Y-111689500D01*
X118425870Y-111689500D01*
X118281925Y-111724979D01*
X118150653Y-111793875D01*
X118150649Y-111793877D01*
X118039676Y-111892192D01*
X117955460Y-112014199D01*
X117902884Y-112152827D01*
X117885016Y-112299997D01*
X117885016Y-112300002D01*
X117114984Y-112300002D01*
X117114984Y-112299997D01*
X117097115Y-112152827D01*
X117059189Y-112052827D01*
X117044541Y-112014203D01*
X117044539Y-112014201D01*
X117044539Y-112014199D01*
X116975516Y-111914203D01*
X116960322Y-111892190D01*
X116849351Y-111793878D01*
X116849350Y-111793877D01*
X116849346Y-111793875D01*
X116718074Y-111724979D01*
X116574129Y-111689500D01*
X116574128Y-111689500D01*
X116425872Y-111689500D01*
X116425870Y-111689500D01*
X116281925Y-111724979D01*
X116150653Y-111793875D01*
X116150649Y-111793877D01*
X116039676Y-111892192D01*
X115955460Y-112014199D01*
X115902884Y-112152827D01*
X115885016Y-112299997D01*
X115885016Y-112300002D01*
X107102842Y-112300002D01*
X107114984Y-112200002D01*
X107114984Y-112199997D01*
X107097115Y-112052827D01*
X107079589Y-112006617D01*
X107044541Y-111914203D01*
X107044539Y-111914201D01*
X107044539Y-111914199D01*
X106988395Y-111832861D01*
X106960322Y-111792190D01*
X106849351Y-111693878D01*
X106849350Y-111693877D01*
X106849346Y-111693875D01*
X106718074Y-111624979D01*
X106574129Y-111589500D01*
X106574128Y-111589500D01*
X106425872Y-111589500D01*
X106425870Y-111589500D01*
X106281925Y-111624979D01*
X106150653Y-111693875D01*
X106150649Y-111693877D01*
X106039676Y-111792192D01*
X105955460Y-111914199D01*
X105902884Y-112052827D01*
X105885016Y-112199997D01*
X105885016Y-112200002D01*
X100200500Y-112200002D01*
X100200500Y-107200002D01*
X105085016Y-107200002D01*
X105102884Y-107347172D01*
X105155460Y-107485800D01*
X105224486Y-107585800D01*
X105239678Y-107607810D01*
X105350649Y-107706122D01*
X105481924Y-107775020D01*
X105625872Y-107810500D01*
X105625873Y-107810500D01*
X105774127Y-107810500D01*
X105774128Y-107810500D01*
X105918076Y-107775020D01*
X106049351Y-107706122D01*
X106160322Y-107607810D01*
X106244541Y-107485797D01*
X106297114Y-107347175D01*
X106297114Y-107347174D01*
X106297115Y-107347172D01*
X106314984Y-107200002D01*
X106585016Y-107200002D01*
X106602884Y-107347172D01*
X106655460Y-107485800D01*
X106724486Y-107585800D01*
X106739678Y-107607810D01*
X106850649Y-107706122D01*
X106981924Y-107775020D01*
X107125872Y-107810500D01*
X107125873Y-107810500D01*
X107274127Y-107810500D01*
X107274128Y-107810500D01*
X107418076Y-107775020D01*
X107549351Y-107706122D01*
X107660322Y-107607810D01*
X107744541Y-107485797D01*
X107797114Y-107347175D01*
X107797114Y-107347174D01*
X107797115Y-107347172D01*
X107814984Y-107200002D01*
X108085016Y-107200002D01*
X108102884Y-107347172D01*
X108155460Y-107485800D01*
X108224486Y-107585800D01*
X108239678Y-107607810D01*
X108350649Y-107706122D01*
X108481924Y-107775020D01*
X108625872Y-107810500D01*
X108625873Y-107810500D01*
X108774127Y-107810500D01*
X108774128Y-107810500D01*
X108918076Y-107775020D01*
X109049351Y-107706122D01*
X109160322Y-107607810D01*
X109244541Y-107485797D01*
X109297114Y-107347175D01*
X109297114Y-107347174D01*
X109297115Y-107347172D01*
X109314984Y-107200002D01*
X109585016Y-107200002D01*
X109602884Y-107347172D01*
X109655460Y-107485800D01*
X109724486Y-107585800D01*
X109739678Y-107607810D01*
X109850649Y-107706122D01*
X109981924Y-107775020D01*
X110125872Y-107810500D01*
X110125873Y-107810500D01*
X110274127Y-107810500D01*
X110274128Y-107810500D01*
X110418076Y-107775020D01*
X110549351Y-107706122D01*
X110660322Y-107607810D01*
X110744541Y-107485797D01*
X110797114Y-107347175D01*
X110797114Y-107347174D01*
X110797115Y-107347172D01*
X110814984Y-107200002D01*
X111085016Y-107200002D01*
X111102884Y-107347172D01*
X111155460Y-107485800D01*
X111224486Y-107585800D01*
X111239678Y-107607810D01*
X111350649Y-107706122D01*
X111481924Y-107775020D01*
X111625872Y-107810500D01*
X111625873Y-107810500D01*
X111774127Y-107810500D01*
X111774128Y-107810500D01*
X111918076Y-107775020D01*
X112049351Y-107706122D01*
X112160322Y-107607810D01*
X112244541Y-107485797D01*
X112297114Y-107347175D01*
X112297114Y-107347174D01*
X112297115Y-107347172D01*
X112314984Y-107200002D01*
X112585016Y-107200002D01*
X112602884Y-107347172D01*
X112655460Y-107485800D01*
X112724486Y-107585800D01*
X112739678Y-107607810D01*
X112850649Y-107706122D01*
X112981924Y-107775020D01*
X113125872Y-107810500D01*
X113125873Y-107810500D01*
X113274127Y-107810500D01*
X113274128Y-107810500D01*
X113418076Y-107775020D01*
X113549351Y-107706122D01*
X113660322Y-107607810D01*
X113744541Y-107485797D01*
X113777079Y-107400002D01*
X114885016Y-107400002D01*
X114902884Y-107547172D01*
X114955460Y-107685800D01*
X114997483Y-107746680D01*
X115039678Y-107807810D01*
X115150649Y-107906122D01*
X115281924Y-107975020D01*
X115425872Y-108010500D01*
X115425873Y-108010500D01*
X115574127Y-108010500D01*
X115574128Y-108010500D01*
X115718076Y-107975020D01*
X115849351Y-107906122D01*
X115960322Y-107807810D01*
X116044541Y-107685797D01*
X116097114Y-107547175D01*
X116097114Y-107547174D01*
X116097115Y-107547172D01*
X116114984Y-107400002D01*
X120485016Y-107400002D01*
X120502884Y-107547172D01*
X120555460Y-107685800D01*
X120597483Y-107746680D01*
X120639678Y-107807810D01*
X120750649Y-107906122D01*
X120881924Y-107975020D01*
X121025872Y-108010500D01*
X121025873Y-108010500D01*
X121174127Y-108010500D01*
X121174128Y-108010500D01*
X121318076Y-107975020D01*
X121449351Y-107906122D01*
X121560322Y-107807810D01*
X121644541Y-107685797D01*
X121697114Y-107547175D01*
X121697114Y-107547174D01*
X121697115Y-107547172D01*
X121714984Y-107400002D01*
X121714984Y-107399997D01*
X121702843Y-107300002D01*
X126885016Y-107300002D01*
X126902884Y-107447172D01*
X126955460Y-107585800D01*
X127024486Y-107685800D01*
X127039678Y-107707810D01*
X127150649Y-107806122D01*
X127281924Y-107875020D01*
X127425872Y-107910500D01*
X127425873Y-107910500D01*
X127574127Y-107910500D01*
X127574128Y-107910500D01*
X127718076Y-107875020D01*
X127849351Y-107806122D01*
X127916448Y-107746679D01*
X127980699Y-107716479D01*
X128051079Y-107725810D01*
X128083550Y-107746677D01*
X128150649Y-107806122D01*
X128281924Y-107875020D01*
X128425872Y-107910500D01*
X128425873Y-107910500D01*
X128574127Y-107910500D01*
X128574128Y-107910500D01*
X128718076Y-107875020D01*
X128849351Y-107806122D01*
X128916448Y-107746679D01*
X128980699Y-107716479D01*
X129051079Y-107725810D01*
X129083550Y-107746677D01*
X129150649Y-107806122D01*
X129281924Y-107875020D01*
X129425872Y-107910500D01*
X129425873Y-107910500D01*
X129574127Y-107910500D01*
X129574128Y-107910500D01*
X129718076Y-107875020D01*
X129849351Y-107806122D01*
X129960322Y-107707810D01*
X130044541Y-107585797D01*
X130097114Y-107447175D01*
X130097114Y-107447174D01*
X130097115Y-107447172D01*
X130102842Y-107400002D01*
X138485016Y-107400002D01*
X138502884Y-107547172D01*
X138555460Y-107685800D01*
X138597483Y-107746680D01*
X138639678Y-107807810D01*
X138750649Y-107906122D01*
X138881924Y-107975020D01*
X139025872Y-108010500D01*
X139025873Y-108010500D01*
X139174127Y-108010500D01*
X139174128Y-108010500D01*
X139318076Y-107975020D01*
X139449351Y-107906122D01*
X139560322Y-107807810D01*
X139644541Y-107685797D01*
X139697114Y-107547175D01*
X139697114Y-107547174D01*
X139697115Y-107547172D01*
X139714984Y-107400002D01*
X139714984Y-107399997D01*
X139697115Y-107252827D01*
X139677081Y-107200002D01*
X141185016Y-107200002D01*
X141202884Y-107347172D01*
X141255460Y-107485800D01*
X141324486Y-107585800D01*
X141339678Y-107607810D01*
X141450649Y-107706122D01*
X141581924Y-107775020D01*
X141725872Y-107810500D01*
X141725873Y-107810500D01*
X141874127Y-107810500D01*
X141874128Y-107810500D01*
X142018076Y-107775020D01*
X142149351Y-107706122D01*
X142260322Y-107607810D01*
X142344541Y-107485797D01*
X142397114Y-107347175D01*
X142397114Y-107347174D01*
X142397115Y-107347172D01*
X142414984Y-107200002D01*
X142685016Y-107200002D01*
X142702884Y-107347172D01*
X142755460Y-107485800D01*
X142824486Y-107585800D01*
X142839678Y-107607810D01*
X142950649Y-107706122D01*
X143081924Y-107775020D01*
X143225872Y-107810500D01*
X143225873Y-107810500D01*
X143374127Y-107810500D01*
X143374128Y-107810500D01*
X143518076Y-107775020D01*
X143649351Y-107706122D01*
X143760322Y-107607810D01*
X143844541Y-107485797D01*
X143897114Y-107347175D01*
X143897114Y-107347174D01*
X143897115Y-107347172D01*
X143914984Y-107200002D01*
X144185016Y-107200002D01*
X144202884Y-107347172D01*
X144255460Y-107485800D01*
X144324486Y-107585800D01*
X144339678Y-107607810D01*
X144450649Y-107706122D01*
X144581924Y-107775020D01*
X144725872Y-107810500D01*
X144725873Y-107810500D01*
X144874127Y-107810500D01*
X144874128Y-107810500D01*
X145018076Y-107775020D01*
X145149351Y-107706122D01*
X145260322Y-107607810D01*
X145344541Y-107485797D01*
X145397114Y-107347175D01*
X145397114Y-107347174D01*
X145397115Y-107347172D01*
X145414984Y-107200002D01*
X145685016Y-107200002D01*
X145702884Y-107347172D01*
X145755460Y-107485800D01*
X145824486Y-107585800D01*
X145839678Y-107607810D01*
X145950649Y-107706122D01*
X146081924Y-107775020D01*
X146225872Y-107810500D01*
X146225873Y-107810500D01*
X146374127Y-107810500D01*
X146374128Y-107810500D01*
X146518076Y-107775020D01*
X146649351Y-107706122D01*
X146760322Y-107607810D01*
X146844541Y-107485797D01*
X146897114Y-107347175D01*
X146897114Y-107347174D01*
X146897115Y-107347172D01*
X146914984Y-107200002D01*
X147185016Y-107200002D01*
X147202884Y-107347172D01*
X147255460Y-107485800D01*
X147324486Y-107585800D01*
X147339678Y-107607810D01*
X147450649Y-107706122D01*
X147581924Y-107775020D01*
X147725872Y-107810500D01*
X147725873Y-107810500D01*
X147874127Y-107810500D01*
X147874128Y-107810500D01*
X148018076Y-107775020D01*
X148149351Y-107706122D01*
X148260322Y-107607810D01*
X148344541Y-107485797D01*
X148397114Y-107347175D01*
X148397114Y-107347174D01*
X148397115Y-107347172D01*
X148414984Y-107200002D01*
X148685016Y-107200002D01*
X148702884Y-107347172D01*
X148755460Y-107485800D01*
X148824486Y-107585800D01*
X148839678Y-107607810D01*
X148950649Y-107706122D01*
X149081924Y-107775020D01*
X149225872Y-107810500D01*
X149225873Y-107810500D01*
X149374127Y-107810500D01*
X149374128Y-107810500D01*
X149518076Y-107775020D01*
X149649351Y-107706122D01*
X149760322Y-107607810D01*
X149844541Y-107485797D01*
X149897114Y-107347175D01*
X149897114Y-107347174D01*
X149897115Y-107347172D01*
X149914984Y-107200002D01*
X149914984Y-107199997D01*
X149897115Y-107052827D01*
X149844539Y-106914199D01*
X149782954Y-106824979D01*
X149760322Y-106792190D01*
X149649351Y-106693878D01*
X149649350Y-106693877D01*
X149649346Y-106693875D01*
X149518074Y-106624979D01*
X149374129Y-106589500D01*
X149374128Y-106589500D01*
X149225872Y-106589500D01*
X149225870Y-106589500D01*
X149081925Y-106624979D01*
X148950653Y-106693875D01*
X148950649Y-106693877D01*
X148915543Y-106724979D01*
X148842715Y-106789500D01*
X148839676Y-106792192D01*
X148755460Y-106914199D01*
X148702884Y-107052827D01*
X148685016Y-107199997D01*
X148685016Y-107200002D01*
X148414984Y-107200002D01*
X148414984Y-107199997D01*
X148397115Y-107052827D01*
X148344539Y-106914199D01*
X148282954Y-106824979D01*
X148260322Y-106792190D01*
X148149351Y-106693878D01*
X148149350Y-106693877D01*
X148149346Y-106693875D01*
X148018074Y-106624979D01*
X147874129Y-106589500D01*
X147874128Y-106589500D01*
X147725872Y-106589500D01*
X147725870Y-106589500D01*
X147581925Y-106624979D01*
X147450653Y-106693875D01*
X147450649Y-106693877D01*
X147415543Y-106724979D01*
X147342715Y-106789500D01*
X147339676Y-106792192D01*
X147255460Y-106914199D01*
X147202884Y-107052827D01*
X147185016Y-107199997D01*
X147185016Y-107200002D01*
X146914984Y-107200002D01*
X146914984Y-107199997D01*
X146897115Y-107052827D01*
X146844539Y-106914199D01*
X146782954Y-106824979D01*
X146760322Y-106792190D01*
X146649351Y-106693878D01*
X146649350Y-106693877D01*
X146649346Y-106693875D01*
X146518074Y-106624979D01*
X146374129Y-106589500D01*
X146374128Y-106589500D01*
X146225872Y-106589500D01*
X146225870Y-106589500D01*
X146081925Y-106624979D01*
X145950653Y-106693875D01*
X145950649Y-106693877D01*
X145915543Y-106724979D01*
X145842715Y-106789500D01*
X145839676Y-106792192D01*
X145755460Y-106914199D01*
X145702884Y-107052827D01*
X145685016Y-107199997D01*
X145685016Y-107200002D01*
X145414984Y-107200002D01*
X145414984Y-107199997D01*
X145397115Y-107052827D01*
X145344539Y-106914199D01*
X145282954Y-106824979D01*
X145260322Y-106792190D01*
X145149351Y-106693878D01*
X145149350Y-106693877D01*
X145149346Y-106693875D01*
X145018074Y-106624979D01*
X144874129Y-106589500D01*
X144874128Y-106589500D01*
X144725872Y-106589500D01*
X144725870Y-106589500D01*
X144581925Y-106624979D01*
X144450653Y-106693875D01*
X144450649Y-106693877D01*
X144415543Y-106724979D01*
X144342715Y-106789500D01*
X144339676Y-106792192D01*
X144255460Y-106914199D01*
X144202884Y-107052827D01*
X144185016Y-107199997D01*
X144185016Y-107200002D01*
X143914984Y-107200002D01*
X143914984Y-107199997D01*
X143897115Y-107052827D01*
X143844539Y-106914199D01*
X143782954Y-106824979D01*
X143760322Y-106792190D01*
X143649351Y-106693878D01*
X143649350Y-106693877D01*
X143649346Y-106693875D01*
X143518074Y-106624979D01*
X143374129Y-106589500D01*
X143374128Y-106589500D01*
X143225872Y-106589500D01*
X143225870Y-106589500D01*
X143081925Y-106624979D01*
X142950653Y-106693875D01*
X142950649Y-106693877D01*
X142915543Y-106724979D01*
X142842715Y-106789500D01*
X142839676Y-106792192D01*
X142755460Y-106914199D01*
X142702884Y-107052827D01*
X142685016Y-107199997D01*
X142685016Y-107200002D01*
X142414984Y-107200002D01*
X142414984Y-107199997D01*
X142397115Y-107052827D01*
X142344539Y-106914199D01*
X142282954Y-106824979D01*
X142260322Y-106792190D01*
X142149351Y-106693878D01*
X142149350Y-106693877D01*
X142149346Y-106693875D01*
X142018074Y-106624979D01*
X141874129Y-106589500D01*
X141874128Y-106589500D01*
X141725872Y-106589500D01*
X141725870Y-106589500D01*
X141581925Y-106624979D01*
X141450653Y-106693875D01*
X141450649Y-106693877D01*
X141415543Y-106724979D01*
X141342715Y-106789500D01*
X141339676Y-106792192D01*
X141255460Y-106914199D01*
X141202884Y-107052827D01*
X141185016Y-107199997D01*
X141185016Y-107200002D01*
X139677081Y-107200002D01*
X139659189Y-107152827D01*
X139644541Y-107114203D01*
X139644539Y-107114201D01*
X139644539Y-107114199D01*
X139575516Y-107014203D01*
X139560322Y-106992190D01*
X139449351Y-106893878D01*
X139449350Y-106893877D01*
X139449346Y-106893875D01*
X139318074Y-106824979D01*
X139174129Y-106789500D01*
X139174128Y-106789500D01*
X139025872Y-106789500D01*
X139025870Y-106789500D01*
X138881925Y-106824979D01*
X138750653Y-106893875D01*
X138750649Y-106893877D01*
X138639676Y-106992192D01*
X138555460Y-107114199D01*
X138502884Y-107252827D01*
X138485016Y-107399997D01*
X138485016Y-107400002D01*
X130102842Y-107400002D01*
X130114984Y-107300002D01*
X130114984Y-107299997D01*
X130097115Y-107152827D01*
X130059189Y-107052827D01*
X130044541Y-107014203D01*
X130044539Y-107014201D01*
X130044539Y-107014199D01*
X129975516Y-106914203D01*
X129960322Y-106892190D01*
X129849351Y-106793878D01*
X129849350Y-106793877D01*
X129849346Y-106793875D01*
X129718074Y-106724979D01*
X129574129Y-106689500D01*
X129574128Y-106689500D01*
X129425872Y-106689500D01*
X129425870Y-106689500D01*
X129281925Y-106724979D01*
X129150653Y-106793875D01*
X129150644Y-106793880D01*
X129083553Y-106853319D01*
X129019300Y-106883520D01*
X128948920Y-106874189D01*
X128916447Y-106853319D01*
X128849355Y-106793880D01*
X128849346Y-106793875D01*
X128718074Y-106724979D01*
X128574129Y-106689500D01*
X128574128Y-106689500D01*
X128425872Y-106689500D01*
X128425870Y-106689500D01*
X128281925Y-106724979D01*
X128150653Y-106793875D01*
X128150644Y-106793880D01*
X128083553Y-106853319D01*
X128019300Y-106883520D01*
X127948920Y-106874189D01*
X127916447Y-106853319D01*
X127849355Y-106793880D01*
X127849346Y-106793875D01*
X127718074Y-106724979D01*
X127574129Y-106689500D01*
X127574128Y-106689500D01*
X127425872Y-106689500D01*
X127425870Y-106689500D01*
X127281925Y-106724979D01*
X127150653Y-106793875D01*
X127150649Y-106793877D01*
X127115543Y-106824979D01*
X127049465Y-106883520D01*
X127039676Y-106892192D01*
X126955460Y-107014199D01*
X126902884Y-107152827D01*
X126885016Y-107299997D01*
X126885016Y-107300002D01*
X121702843Y-107300002D01*
X121697115Y-107252827D01*
X121659189Y-107152827D01*
X121644541Y-107114203D01*
X121644539Y-107114201D01*
X121644539Y-107114199D01*
X121575516Y-107014203D01*
X121560322Y-106992190D01*
X121449351Y-106893878D01*
X121449350Y-106893877D01*
X121449346Y-106893875D01*
X121318074Y-106824979D01*
X121174129Y-106789500D01*
X121174128Y-106789500D01*
X121025872Y-106789500D01*
X121025870Y-106789500D01*
X120881925Y-106824979D01*
X120750653Y-106893875D01*
X120750649Y-106893877D01*
X120639676Y-106992192D01*
X120555460Y-107114199D01*
X120502884Y-107252827D01*
X120485016Y-107399997D01*
X120485016Y-107400002D01*
X116114984Y-107400002D01*
X116114984Y-107399997D01*
X116097115Y-107252827D01*
X116059189Y-107152827D01*
X116044541Y-107114203D01*
X116044539Y-107114201D01*
X116044539Y-107114199D01*
X115975516Y-107014203D01*
X115960322Y-106992190D01*
X115849351Y-106893878D01*
X115849350Y-106893877D01*
X115849346Y-106893875D01*
X115718074Y-106824979D01*
X115574129Y-106789500D01*
X115574128Y-106789500D01*
X115425872Y-106789500D01*
X115425870Y-106789500D01*
X115281925Y-106824979D01*
X115150653Y-106893875D01*
X115150649Y-106893877D01*
X115039676Y-106992192D01*
X114955460Y-107114199D01*
X114902884Y-107252827D01*
X114885016Y-107399997D01*
X114885016Y-107400002D01*
X113777079Y-107400002D01*
X113797114Y-107347175D01*
X113797114Y-107347174D01*
X113797115Y-107347172D01*
X113814984Y-107200002D01*
X113814984Y-107199997D01*
X113797115Y-107052827D01*
X113744539Y-106914199D01*
X113682954Y-106824979D01*
X113660322Y-106792190D01*
X113549351Y-106693878D01*
X113549350Y-106693877D01*
X113549346Y-106693875D01*
X113418074Y-106624979D01*
X113274129Y-106589500D01*
X113274128Y-106589500D01*
X113125872Y-106589500D01*
X113125870Y-106589500D01*
X112981925Y-106624979D01*
X112850653Y-106693875D01*
X112850649Y-106693877D01*
X112815543Y-106724979D01*
X112742715Y-106789500D01*
X112739676Y-106792192D01*
X112655460Y-106914199D01*
X112602884Y-107052827D01*
X112585016Y-107199997D01*
X112585016Y-107200002D01*
X112314984Y-107200002D01*
X112314984Y-107199997D01*
X112297115Y-107052827D01*
X112244539Y-106914199D01*
X112182954Y-106824979D01*
X112160322Y-106792190D01*
X112049351Y-106693878D01*
X112049350Y-106693877D01*
X112049346Y-106693875D01*
X111918074Y-106624979D01*
X111774129Y-106589500D01*
X111774128Y-106589500D01*
X111625872Y-106589500D01*
X111625870Y-106589500D01*
X111481925Y-106624979D01*
X111350653Y-106693875D01*
X111350649Y-106693877D01*
X111315543Y-106724979D01*
X111242715Y-106789500D01*
X111239676Y-106792192D01*
X111155460Y-106914199D01*
X111102884Y-107052827D01*
X111085016Y-107199997D01*
X111085016Y-107200002D01*
X110814984Y-107200002D01*
X110814984Y-107199997D01*
X110797115Y-107052827D01*
X110744539Y-106914199D01*
X110682954Y-106824979D01*
X110660322Y-106792190D01*
X110549351Y-106693878D01*
X110549350Y-106693877D01*
X110549346Y-106693875D01*
X110418074Y-106624979D01*
X110274129Y-106589500D01*
X110274128Y-106589500D01*
X110125872Y-106589500D01*
X110125870Y-106589500D01*
X109981925Y-106624979D01*
X109850653Y-106693875D01*
X109850649Y-106693877D01*
X109815543Y-106724979D01*
X109742715Y-106789500D01*
X109739676Y-106792192D01*
X109655460Y-106914199D01*
X109602884Y-107052827D01*
X109585016Y-107199997D01*
X109585016Y-107200002D01*
X109314984Y-107200002D01*
X109314984Y-107199997D01*
X109297115Y-107052827D01*
X109244539Y-106914199D01*
X109182954Y-106824979D01*
X109160322Y-106792190D01*
X109049351Y-106693878D01*
X109049350Y-106693877D01*
X109049346Y-106693875D01*
X108918074Y-106624979D01*
X108774129Y-106589500D01*
X108774128Y-106589500D01*
X108625872Y-106589500D01*
X108625870Y-106589500D01*
X108481925Y-106624979D01*
X108350653Y-106693875D01*
X108350649Y-106693877D01*
X108315543Y-106724979D01*
X108242715Y-106789500D01*
X108239676Y-106792192D01*
X108155460Y-106914199D01*
X108102884Y-107052827D01*
X108085016Y-107199997D01*
X108085016Y-107200002D01*
X107814984Y-107200002D01*
X107814984Y-107199997D01*
X107797115Y-107052827D01*
X107744539Y-106914199D01*
X107682954Y-106824979D01*
X107660322Y-106792190D01*
X107549351Y-106693878D01*
X107549350Y-106693877D01*
X107549346Y-106693875D01*
X107418074Y-106624979D01*
X107274129Y-106589500D01*
X107274128Y-106589500D01*
X107125872Y-106589500D01*
X107125870Y-106589500D01*
X106981925Y-106624979D01*
X106850653Y-106693875D01*
X106850649Y-106693877D01*
X106815543Y-106724979D01*
X106742715Y-106789500D01*
X106739676Y-106792192D01*
X106655460Y-106914199D01*
X106602884Y-107052827D01*
X106585016Y-107199997D01*
X106585016Y-107200002D01*
X106314984Y-107200002D01*
X106314984Y-107199997D01*
X106297115Y-107052827D01*
X106244539Y-106914199D01*
X106182954Y-106824979D01*
X106160322Y-106792190D01*
X106049351Y-106693878D01*
X106049350Y-106693877D01*
X106049346Y-106693875D01*
X105918074Y-106624979D01*
X105774129Y-106589500D01*
X105774128Y-106589500D01*
X105625872Y-106589500D01*
X105625870Y-106589500D01*
X105481925Y-106624979D01*
X105350653Y-106693875D01*
X105350649Y-106693877D01*
X105315543Y-106724979D01*
X105242715Y-106789500D01*
X105239676Y-106792192D01*
X105155460Y-106914199D01*
X105102884Y-107052827D01*
X105085016Y-107199997D01*
X105085016Y-107200002D01*
X100200500Y-107200002D01*
X100200500Y-103700002D01*
X103685016Y-103700002D01*
X103702884Y-103847172D01*
X103755460Y-103985800D01*
X103801726Y-104052827D01*
X103839678Y-104107810D01*
X103950649Y-104206122D01*
X104081924Y-104275020D01*
X104225872Y-104310500D01*
X104225873Y-104310500D01*
X104374127Y-104310500D01*
X104374128Y-104310500D01*
X104518076Y-104275020D01*
X104649351Y-104206122D01*
X104760322Y-104107810D01*
X104844541Y-103985797D01*
X104897114Y-103847175D01*
X104897114Y-103847174D01*
X104897115Y-103847172D01*
X104914984Y-103700002D01*
X105185016Y-103700002D01*
X105202884Y-103847172D01*
X105255460Y-103985800D01*
X105301726Y-104052827D01*
X105339678Y-104107810D01*
X105450649Y-104206122D01*
X105581924Y-104275020D01*
X105725872Y-104310500D01*
X105725873Y-104310500D01*
X105874127Y-104310500D01*
X105874128Y-104310500D01*
X106018076Y-104275020D01*
X106149351Y-104206122D01*
X106260322Y-104107810D01*
X106344541Y-103985797D01*
X106397114Y-103847175D01*
X106397114Y-103847174D01*
X106397115Y-103847172D01*
X106414984Y-103700002D01*
X106685016Y-103700002D01*
X106702884Y-103847172D01*
X106755460Y-103985800D01*
X106801726Y-104052827D01*
X106839678Y-104107810D01*
X106950649Y-104206122D01*
X107081924Y-104275020D01*
X107225872Y-104310500D01*
X107225873Y-104310500D01*
X107374127Y-104310500D01*
X107374128Y-104310500D01*
X107518076Y-104275020D01*
X107649351Y-104206122D01*
X107760322Y-104107810D01*
X107844541Y-103985797D01*
X107897114Y-103847175D01*
X107897114Y-103847174D01*
X107897115Y-103847172D01*
X107914984Y-103700002D01*
X108185016Y-103700002D01*
X108202884Y-103847172D01*
X108255460Y-103985800D01*
X108301726Y-104052827D01*
X108339678Y-104107810D01*
X108450649Y-104206122D01*
X108581924Y-104275020D01*
X108725872Y-104310500D01*
X108725873Y-104310500D01*
X108874127Y-104310500D01*
X108874128Y-104310500D01*
X109018076Y-104275020D01*
X109149351Y-104206122D01*
X109260322Y-104107810D01*
X109344541Y-103985797D01*
X109397114Y-103847175D01*
X109397114Y-103847174D01*
X109397115Y-103847172D01*
X109414984Y-103700002D01*
X109685016Y-103700002D01*
X109702884Y-103847172D01*
X109755460Y-103985800D01*
X109801726Y-104052827D01*
X109839678Y-104107810D01*
X109950649Y-104206122D01*
X110081924Y-104275020D01*
X110225872Y-104310500D01*
X110225873Y-104310500D01*
X110374127Y-104310500D01*
X110374128Y-104310500D01*
X110518076Y-104275020D01*
X110649351Y-104206122D01*
X110760322Y-104107810D01*
X110844541Y-103985797D01*
X110897114Y-103847175D01*
X110897114Y-103847174D01*
X110897115Y-103847172D01*
X110914984Y-103700002D01*
X111185016Y-103700002D01*
X111202884Y-103847172D01*
X111255460Y-103985800D01*
X111301726Y-104052827D01*
X111339678Y-104107810D01*
X111450649Y-104206122D01*
X111581924Y-104275020D01*
X111725872Y-104310500D01*
X111725873Y-104310500D01*
X111874127Y-104310500D01*
X111874128Y-104310500D01*
X112018076Y-104275020D01*
X112149351Y-104206122D01*
X112260322Y-104107810D01*
X112344541Y-103985797D01*
X112397114Y-103847175D01*
X112397114Y-103847174D01*
X112397115Y-103847172D01*
X112414984Y-103700002D01*
X112685016Y-103700002D01*
X112702884Y-103847172D01*
X112755460Y-103985800D01*
X112801726Y-104052827D01*
X112839678Y-104107810D01*
X112950649Y-104206122D01*
X113081924Y-104275020D01*
X113225872Y-104310500D01*
X113225873Y-104310500D01*
X113374127Y-104310500D01*
X113374128Y-104310500D01*
X113518076Y-104275020D01*
X113649351Y-104206122D01*
X113656259Y-104200002D01*
X114885016Y-104200002D01*
X114902884Y-104347172D01*
X114955460Y-104485800D01*
X115034457Y-104600246D01*
X115039678Y-104607810D01*
X115150649Y-104706122D01*
X115281924Y-104775020D01*
X115425872Y-104810500D01*
X115425873Y-104810500D01*
X115574127Y-104810500D01*
X115574128Y-104810500D01*
X115718076Y-104775020D01*
X115841446Y-104710271D01*
X115911059Y-104696325D01*
X115958554Y-104710271D01*
X116081924Y-104775020D01*
X116225872Y-104810500D01*
X116225873Y-104810500D01*
X116374127Y-104810500D01*
X116374128Y-104810500D01*
X116518076Y-104775020D01*
X116649351Y-104706122D01*
X116760322Y-104607810D01*
X116844541Y-104485797D01*
X116897114Y-104347175D01*
X116897114Y-104347174D01*
X116897115Y-104347172D01*
X116914984Y-104200002D01*
X116914984Y-104199997D01*
X116897115Y-104052827D01*
X116844539Y-103914199D01*
X116760323Y-103792192D01*
X116760322Y-103792190D01*
X116649351Y-103693878D01*
X116649350Y-103693877D01*
X116649346Y-103693875D01*
X116518074Y-103624979D01*
X116416738Y-103600002D01*
X136685016Y-103600002D01*
X136702884Y-103747172D01*
X136755460Y-103885800D01*
X136824486Y-103985800D01*
X136839678Y-104007810D01*
X136950649Y-104106122D01*
X137081924Y-104175020D01*
X137225872Y-104210500D01*
X137225873Y-104210500D01*
X137374127Y-104210500D01*
X137374128Y-104210500D01*
X137518076Y-104175020D01*
X137649351Y-104106122D01*
X137760322Y-104007810D01*
X137844541Y-103885797D01*
X137897114Y-103747175D01*
X137897114Y-103747174D01*
X137897115Y-103747172D01*
X137914984Y-103600002D01*
X138285016Y-103600002D01*
X138302884Y-103747172D01*
X138355460Y-103885800D01*
X138424486Y-103985800D01*
X138439678Y-104007810D01*
X138550649Y-104106122D01*
X138681924Y-104175020D01*
X138825872Y-104210500D01*
X138825873Y-104210500D01*
X138974127Y-104210500D01*
X138974128Y-104210500D01*
X139118076Y-104175020D01*
X139249351Y-104106122D01*
X139360322Y-104007810D01*
X139444541Y-103885797D01*
X139497114Y-103747175D01*
X139497114Y-103747174D01*
X139497115Y-103747172D01*
X139514984Y-103600002D01*
X141085016Y-103600002D01*
X141102884Y-103747172D01*
X141155460Y-103885800D01*
X141224486Y-103985800D01*
X141239678Y-104007810D01*
X141350649Y-104106122D01*
X141481924Y-104175020D01*
X141625872Y-104210500D01*
X141625873Y-104210500D01*
X141774127Y-104210500D01*
X141774128Y-104210500D01*
X141918076Y-104175020D01*
X142049351Y-104106122D01*
X142160322Y-104007810D01*
X142244541Y-103885797D01*
X142297114Y-103747175D01*
X142297114Y-103747174D01*
X142297115Y-103747172D01*
X142302842Y-103700002D01*
X142585016Y-103700002D01*
X142602884Y-103847172D01*
X142655460Y-103985800D01*
X142701726Y-104052827D01*
X142739678Y-104107810D01*
X142850649Y-104206122D01*
X142981924Y-104275020D01*
X143125872Y-104310500D01*
X143125873Y-104310500D01*
X143274127Y-104310500D01*
X143274128Y-104310500D01*
X143418076Y-104275020D01*
X143549351Y-104206122D01*
X143660322Y-104107810D01*
X143744541Y-103985797D01*
X143797114Y-103847175D01*
X143797114Y-103847174D01*
X143797115Y-103847172D01*
X143814984Y-103700002D01*
X144085016Y-103700002D01*
X144102884Y-103847172D01*
X144155460Y-103985800D01*
X144201726Y-104052827D01*
X144239678Y-104107810D01*
X144350649Y-104206122D01*
X144481924Y-104275020D01*
X144625872Y-104310500D01*
X144625873Y-104310500D01*
X144774127Y-104310500D01*
X144774128Y-104310500D01*
X144918076Y-104275020D01*
X145049351Y-104206122D01*
X145160322Y-104107810D01*
X145244541Y-103985797D01*
X145297114Y-103847175D01*
X145297114Y-103847174D01*
X145297115Y-103847172D01*
X145314984Y-103700002D01*
X145585016Y-103700002D01*
X145602884Y-103847172D01*
X145655460Y-103985800D01*
X145701726Y-104052827D01*
X145739678Y-104107810D01*
X145850649Y-104206122D01*
X145981924Y-104275020D01*
X146125872Y-104310500D01*
X146125873Y-104310500D01*
X146274127Y-104310500D01*
X146274128Y-104310500D01*
X146418076Y-104275020D01*
X146549351Y-104206122D01*
X146660322Y-104107810D01*
X146744541Y-103985797D01*
X146797114Y-103847175D01*
X146797114Y-103847174D01*
X146797115Y-103847172D01*
X146814984Y-103700002D01*
X147085016Y-103700002D01*
X147102884Y-103847172D01*
X147155460Y-103985800D01*
X147201726Y-104052827D01*
X147239678Y-104107810D01*
X147350649Y-104206122D01*
X147481924Y-104275020D01*
X147625872Y-104310500D01*
X147625873Y-104310500D01*
X147774127Y-104310500D01*
X147774128Y-104310500D01*
X147918076Y-104275020D01*
X148049351Y-104206122D01*
X148160322Y-104107810D01*
X148244541Y-103985797D01*
X148297114Y-103847175D01*
X148297114Y-103847174D01*
X148297115Y-103847172D01*
X148314984Y-103700002D01*
X148585016Y-103700002D01*
X148602884Y-103847172D01*
X148655460Y-103985800D01*
X148701726Y-104052827D01*
X148739678Y-104107810D01*
X148850649Y-104206122D01*
X148981924Y-104275020D01*
X149125872Y-104310500D01*
X149125873Y-104310500D01*
X149274127Y-104310500D01*
X149274128Y-104310500D01*
X149418076Y-104275020D01*
X149549351Y-104206122D01*
X149660322Y-104107810D01*
X149744541Y-103985797D01*
X149797114Y-103847175D01*
X149797114Y-103847174D01*
X149797115Y-103847172D01*
X149814984Y-103700002D01*
X150185016Y-103700002D01*
X150202884Y-103847172D01*
X150255460Y-103985800D01*
X150301726Y-104052827D01*
X150339678Y-104107810D01*
X150450649Y-104206122D01*
X150581924Y-104275020D01*
X150725872Y-104310500D01*
X150725873Y-104310500D01*
X150874127Y-104310500D01*
X150874128Y-104310500D01*
X151018076Y-104275020D01*
X151149351Y-104206122D01*
X151260322Y-104107810D01*
X151344541Y-103985797D01*
X151397114Y-103847175D01*
X151397114Y-103847174D01*
X151397115Y-103847172D01*
X151414984Y-103700002D01*
X151414984Y-103699997D01*
X151397115Y-103552827D01*
X151359189Y-103452827D01*
X151344541Y-103414203D01*
X151344539Y-103414201D01*
X151344539Y-103414199D01*
X151275516Y-103314203D01*
X151260322Y-103292190D01*
X151149351Y-103193878D01*
X151149350Y-103193877D01*
X151149346Y-103193875D01*
X151018074Y-103124979D01*
X150874129Y-103089500D01*
X150874128Y-103089500D01*
X150725872Y-103089500D01*
X150725870Y-103089500D01*
X150581925Y-103124979D01*
X150450653Y-103193875D01*
X150450649Y-103193877D01*
X150339676Y-103292192D01*
X150255460Y-103414199D01*
X150202884Y-103552827D01*
X150185016Y-103699997D01*
X150185016Y-103700002D01*
X149814984Y-103700002D01*
X149814984Y-103699997D01*
X149797115Y-103552827D01*
X149759189Y-103452827D01*
X149744541Y-103414203D01*
X149744539Y-103414201D01*
X149744539Y-103414199D01*
X149675516Y-103314203D01*
X149660322Y-103292190D01*
X149549351Y-103193878D01*
X149549350Y-103193877D01*
X149549346Y-103193875D01*
X149418074Y-103124979D01*
X149274129Y-103089500D01*
X149274128Y-103089500D01*
X149125872Y-103089500D01*
X149125870Y-103089500D01*
X148981925Y-103124979D01*
X148850653Y-103193875D01*
X148850649Y-103193877D01*
X148739676Y-103292192D01*
X148655460Y-103414199D01*
X148602884Y-103552827D01*
X148585016Y-103699997D01*
X148585016Y-103700002D01*
X148314984Y-103700002D01*
X148314984Y-103699997D01*
X148297115Y-103552827D01*
X148259189Y-103452827D01*
X148244541Y-103414203D01*
X148244539Y-103414201D01*
X148244539Y-103414199D01*
X148175516Y-103314203D01*
X148160322Y-103292190D01*
X148049351Y-103193878D01*
X148049350Y-103193877D01*
X148049346Y-103193875D01*
X147918074Y-103124979D01*
X147774129Y-103089500D01*
X147774128Y-103089500D01*
X147625872Y-103089500D01*
X147625870Y-103089500D01*
X147481925Y-103124979D01*
X147350653Y-103193875D01*
X147350649Y-103193877D01*
X147239676Y-103292192D01*
X147155460Y-103414199D01*
X147102884Y-103552827D01*
X147085016Y-103699997D01*
X147085016Y-103700002D01*
X146814984Y-103700002D01*
X146814984Y-103699997D01*
X146797115Y-103552827D01*
X146759189Y-103452827D01*
X146744541Y-103414203D01*
X146744539Y-103414201D01*
X146744539Y-103414199D01*
X146675516Y-103314203D01*
X146660322Y-103292190D01*
X146549351Y-103193878D01*
X146549350Y-103193877D01*
X146549346Y-103193875D01*
X146418074Y-103124979D01*
X146274129Y-103089500D01*
X146274128Y-103089500D01*
X146125872Y-103089500D01*
X146125870Y-103089500D01*
X145981925Y-103124979D01*
X145850653Y-103193875D01*
X145850649Y-103193877D01*
X145739676Y-103292192D01*
X145655460Y-103414199D01*
X145602884Y-103552827D01*
X145585016Y-103699997D01*
X145585016Y-103700002D01*
X145314984Y-103700002D01*
X145314984Y-103699997D01*
X145297115Y-103552827D01*
X145259189Y-103452827D01*
X145244541Y-103414203D01*
X145244539Y-103414201D01*
X145244539Y-103414199D01*
X145175516Y-103314203D01*
X145160322Y-103292190D01*
X145049351Y-103193878D01*
X145049350Y-103193877D01*
X145049346Y-103193875D01*
X144918074Y-103124979D01*
X144774129Y-103089500D01*
X144774128Y-103089500D01*
X144625872Y-103089500D01*
X144625870Y-103089500D01*
X144481925Y-103124979D01*
X144350653Y-103193875D01*
X144350649Y-103193877D01*
X144239676Y-103292192D01*
X144155460Y-103414199D01*
X144102884Y-103552827D01*
X144085016Y-103699997D01*
X144085016Y-103700002D01*
X143814984Y-103700002D01*
X143814984Y-103699997D01*
X143797115Y-103552827D01*
X143759189Y-103452827D01*
X143744541Y-103414203D01*
X143744539Y-103414201D01*
X143744539Y-103414199D01*
X143675516Y-103314203D01*
X143660322Y-103292190D01*
X143549351Y-103193878D01*
X143549350Y-103193877D01*
X143549346Y-103193875D01*
X143418074Y-103124979D01*
X143274129Y-103089500D01*
X143274128Y-103089500D01*
X143125872Y-103089500D01*
X143125870Y-103089500D01*
X142981925Y-103124979D01*
X142850653Y-103193875D01*
X142850649Y-103193877D01*
X142739676Y-103292192D01*
X142655460Y-103414199D01*
X142602884Y-103552827D01*
X142585016Y-103699997D01*
X142585016Y-103700002D01*
X142302842Y-103700002D01*
X142314984Y-103600002D01*
X142314984Y-103599997D01*
X142297115Y-103452827D01*
X142244539Y-103314199D01*
X142160323Y-103192192D01*
X142160322Y-103192190D01*
X142049351Y-103093878D01*
X142049350Y-103093877D01*
X142049346Y-103093875D01*
X141918074Y-103024979D01*
X141774129Y-102989500D01*
X141774128Y-102989500D01*
X141625872Y-102989500D01*
X141625870Y-102989500D01*
X141481925Y-103024979D01*
X141350653Y-103093875D01*
X141350649Y-103093877D01*
X141239676Y-103192192D01*
X141155460Y-103314199D01*
X141102884Y-103452827D01*
X141085016Y-103599997D01*
X141085016Y-103600002D01*
X139514984Y-103600002D01*
X139514984Y-103599997D01*
X139497115Y-103452827D01*
X139444539Y-103314199D01*
X139360323Y-103192192D01*
X139360322Y-103192190D01*
X139249351Y-103093878D01*
X139249350Y-103093877D01*
X139249346Y-103093875D01*
X139118074Y-103024979D01*
X138974129Y-102989500D01*
X138974128Y-102989500D01*
X138825872Y-102989500D01*
X138825870Y-102989500D01*
X138681925Y-103024979D01*
X138550653Y-103093875D01*
X138550649Y-103093877D01*
X138439676Y-103192192D01*
X138355460Y-103314199D01*
X138302884Y-103452827D01*
X138285016Y-103599997D01*
X138285016Y-103600002D01*
X137914984Y-103600002D01*
X137914984Y-103599997D01*
X137897115Y-103452827D01*
X137844539Y-103314199D01*
X137760323Y-103192192D01*
X137760322Y-103192190D01*
X137649351Y-103093878D01*
X137649350Y-103093877D01*
X137649346Y-103093875D01*
X137518074Y-103024979D01*
X137374129Y-102989500D01*
X137374128Y-102989500D01*
X137225872Y-102989500D01*
X137225870Y-102989500D01*
X137081925Y-103024979D01*
X136950653Y-103093875D01*
X136950649Y-103093877D01*
X136839676Y-103192192D01*
X136755460Y-103314199D01*
X136702884Y-103452827D01*
X136685016Y-103599997D01*
X136685016Y-103600002D01*
X116416738Y-103600002D01*
X116374129Y-103589500D01*
X116374128Y-103589500D01*
X116225872Y-103589500D01*
X116225870Y-103589500D01*
X116081925Y-103624979D01*
X115958554Y-103689729D01*
X115888941Y-103703675D01*
X115841446Y-103689729D01*
X115718074Y-103624979D01*
X115574129Y-103589500D01*
X115574128Y-103589500D01*
X115425872Y-103589500D01*
X115425870Y-103589500D01*
X115281925Y-103624979D01*
X115150653Y-103693875D01*
X115150649Y-103693877D01*
X115039676Y-103792192D01*
X114955460Y-103914199D01*
X114902884Y-104052827D01*
X114885016Y-104199997D01*
X114885016Y-104200002D01*
X113656259Y-104200002D01*
X113760322Y-104107810D01*
X113844541Y-103985797D01*
X113897114Y-103847175D01*
X113897114Y-103847174D01*
X113897115Y-103847172D01*
X113914984Y-103700002D01*
X113914984Y-103699997D01*
X113897115Y-103552827D01*
X113859189Y-103452827D01*
X113844541Y-103414203D01*
X113844539Y-103414201D01*
X113844539Y-103414199D01*
X113775516Y-103314203D01*
X113760322Y-103292190D01*
X113649351Y-103193878D01*
X113649350Y-103193877D01*
X113649346Y-103193875D01*
X113518074Y-103124979D01*
X113374129Y-103089500D01*
X113374128Y-103089500D01*
X113225872Y-103089500D01*
X113225870Y-103089500D01*
X113081925Y-103124979D01*
X112950653Y-103193875D01*
X112950649Y-103193877D01*
X112839676Y-103292192D01*
X112755460Y-103414199D01*
X112702884Y-103552827D01*
X112685016Y-103699997D01*
X112685016Y-103700002D01*
X112414984Y-103700002D01*
X112414984Y-103699997D01*
X112397115Y-103552827D01*
X112359189Y-103452827D01*
X112344541Y-103414203D01*
X112344539Y-103414201D01*
X112344539Y-103414199D01*
X112275516Y-103314203D01*
X112260322Y-103292190D01*
X112149351Y-103193878D01*
X112149350Y-103193877D01*
X112149346Y-103193875D01*
X112018074Y-103124979D01*
X111874129Y-103089500D01*
X111874128Y-103089500D01*
X111725872Y-103089500D01*
X111725870Y-103089500D01*
X111581925Y-103124979D01*
X111450653Y-103193875D01*
X111450649Y-103193877D01*
X111339676Y-103292192D01*
X111255460Y-103414199D01*
X111202884Y-103552827D01*
X111185016Y-103699997D01*
X111185016Y-103700002D01*
X110914984Y-103700002D01*
X110914984Y-103699997D01*
X110897115Y-103552827D01*
X110859189Y-103452827D01*
X110844541Y-103414203D01*
X110844539Y-103414201D01*
X110844539Y-103414199D01*
X110775516Y-103314203D01*
X110760322Y-103292190D01*
X110649351Y-103193878D01*
X110649350Y-103193877D01*
X110649346Y-103193875D01*
X110518074Y-103124979D01*
X110374129Y-103089500D01*
X110374128Y-103089500D01*
X110225872Y-103089500D01*
X110225870Y-103089500D01*
X110081925Y-103124979D01*
X109950653Y-103193875D01*
X109950649Y-103193877D01*
X109839676Y-103292192D01*
X109755460Y-103414199D01*
X109702884Y-103552827D01*
X109685016Y-103699997D01*
X109685016Y-103700002D01*
X109414984Y-103700002D01*
X109414984Y-103699997D01*
X109397115Y-103552827D01*
X109359189Y-103452827D01*
X109344541Y-103414203D01*
X109344539Y-103414201D01*
X109344539Y-103414199D01*
X109275516Y-103314203D01*
X109260322Y-103292190D01*
X109149351Y-103193878D01*
X109149350Y-103193877D01*
X109149346Y-103193875D01*
X109018074Y-103124979D01*
X108874129Y-103089500D01*
X108874128Y-103089500D01*
X108725872Y-103089500D01*
X108725870Y-103089500D01*
X108581925Y-103124979D01*
X108450653Y-103193875D01*
X108450649Y-103193877D01*
X108339676Y-103292192D01*
X108255460Y-103414199D01*
X108202884Y-103552827D01*
X108185016Y-103699997D01*
X108185016Y-103700002D01*
X107914984Y-103700002D01*
X107914984Y-103699997D01*
X107897115Y-103552827D01*
X107859189Y-103452827D01*
X107844541Y-103414203D01*
X107844539Y-103414201D01*
X107844539Y-103414199D01*
X107775516Y-103314203D01*
X107760322Y-103292190D01*
X107649351Y-103193878D01*
X107649350Y-103193877D01*
X107649346Y-103193875D01*
X107518074Y-103124979D01*
X107374129Y-103089500D01*
X107374128Y-103089500D01*
X107225872Y-103089500D01*
X107225870Y-103089500D01*
X107081925Y-103124979D01*
X106950653Y-103193875D01*
X106950649Y-103193877D01*
X106839676Y-103292192D01*
X106755460Y-103414199D01*
X106702884Y-103552827D01*
X106685016Y-103699997D01*
X106685016Y-103700002D01*
X106414984Y-103700002D01*
X106414984Y-103699997D01*
X106397115Y-103552827D01*
X106359189Y-103452827D01*
X106344541Y-103414203D01*
X106344539Y-103414201D01*
X106344539Y-103414199D01*
X106275516Y-103314203D01*
X106260322Y-103292190D01*
X106149351Y-103193878D01*
X106149350Y-103193877D01*
X106149346Y-103193875D01*
X106018074Y-103124979D01*
X105874129Y-103089500D01*
X105874128Y-103089500D01*
X105725872Y-103089500D01*
X105725870Y-103089500D01*
X105581925Y-103124979D01*
X105450653Y-103193875D01*
X105450649Y-103193877D01*
X105339676Y-103292192D01*
X105255460Y-103414199D01*
X105202884Y-103552827D01*
X105185016Y-103699997D01*
X105185016Y-103700002D01*
X104914984Y-103700002D01*
X104914984Y-103699997D01*
X104897115Y-103552827D01*
X104859189Y-103452827D01*
X104844541Y-103414203D01*
X104844539Y-103414201D01*
X104844539Y-103414199D01*
X104775516Y-103314203D01*
X104760322Y-103292190D01*
X104649351Y-103193878D01*
X104649350Y-103193877D01*
X104649346Y-103193875D01*
X104518074Y-103124979D01*
X104374129Y-103089500D01*
X104374128Y-103089500D01*
X104225872Y-103089500D01*
X104225870Y-103089500D01*
X104081925Y-103124979D01*
X103950653Y-103193875D01*
X103950649Y-103193877D01*
X103839676Y-103292192D01*
X103755460Y-103414199D01*
X103702884Y-103552827D01*
X103685016Y-103699997D01*
X103685016Y-103700002D01*
X100200500Y-103700002D01*
X100200500Y-98800002D01*
X112085016Y-98800002D01*
X112102884Y-98947172D01*
X112155460Y-99085800D01*
X112226509Y-99188732D01*
X112239678Y-99207810D01*
X112350649Y-99306122D01*
X112481924Y-99375020D01*
X112520963Y-99384642D01*
X112582317Y-99420365D01*
X112608622Y-99462300D01*
X112655460Y-99585800D01*
X112725898Y-99687846D01*
X112739678Y-99707810D01*
X112850649Y-99806122D01*
X112981924Y-99875020D01*
X113125872Y-99910500D01*
X113125873Y-99910500D01*
X113274127Y-99910500D01*
X113274128Y-99910500D01*
X113418076Y-99875020D01*
X113549351Y-99806122D01*
X113660322Y-99707810D01*
X113744541Y-99585797D01*
X113766871Y-99526915D01*
X113809729Y-99470316D01*
X113876385Y-99445872D01*
X113945675Y-99461344D01*
X113968994Y-99477962D01*
X113983100Y-99490663D01*
X113983101Y-99490664D01*
X114254487Y-99687838D01*
X114254499Y-99687846D01*
X114545007Y-99855571D01*
X114545012Y-99855573D01*
X114545015Y-99855575D01*
X114658546Y-99906122D01*
X114851470Y-99992017D01*
X114851472Y-99992017D01*
X114851475Y-99992019D01*
X115170519Y-100095682D01*
X115498651Y-100165428D01*
X115832276Y-100200493D01*
X115832279Y-100200493D01*
X115977417Y-100200493D01*
X138935054Y-100200498D01*
X138935058Y-100200500D01*
X138960117Y-100200500D01*
X139167727Y-100200500D01*
X139167730Y-100200500D01*
X139501355Y-100165435D01*
X139829486Y-100095688D01*
X139829487Y-100095687D01*
X139829490Y-100095687D01*
X140148525Y-99992027D01*
X140148525Y-99992026D01*
X140148530Y-99992025D01*
X140454990Y-99855580D01*
X140745509Y-99687849D01*
X140934112Y-99550820D01*
X141000977Y-99526963D01*
X141070129Y-99543043D01*
X141119609Y-99593956D01*
X141125983Y-99608076D01*
X141155460Y-99685800D01*
X141233937Y-99799493D01*
X141239678Y-99807810D01*
X141350649Y-99906122D01*
X141481924Y-99975020D01*
X141625872Y-100010500D01*
X141625873Y-100010500D01*
X141774127Y-100010500D01*
X141774128Y-100010500D01*
X141918076Y-99975020D01*
X142049351Y-99906122D01*
X142160322Y-99807810D01*
X142244541Y-99685797D01*
X142297114Y-99547175D01*
X142297114Y-99547174D01*
X142297115Y-99547172D01*
X142312397Y-99421313D01*
X142321569Y-99400002D01*
X143085016Y-99400002D01*
X143102884Y-99547172D01*
X143155460Y-99685800D01*
X143233937Y-99799493D01*
X143239678Y-99807810D01*
X143350649Y-99906122D01*
X143481924Y-99975020D01*
X143625872Y-100010500D01*
X143625873Y-100010500D01*
X143774127Y-100010500D01*
X143774128Y-100010500D01*
X143918076Y-99975020D01*
X144049351Y-99906122D01*
X144160322Y-99807810D01*
X144244541Y-99685797D01*
X144297114Y-99547175D01*
X144297114Y-99547174D01*
X144297115Y-99547172D01*
X144314984Y-99400002D01*
X144314984Y-99399997D01*
X144297115Y-99252827D01*
X144247229Y-99121291D01*
X144244541Y-99114203D01*
X144244539Y-99114201D01*
X144244539Y-99114199D01*
X144188395Y-99032861D01*
X144160322Y-98992190D01*
X144049351Y-98893878D01*
X144049350Y-98893877D01*
X144049346Y-98893875D01*
X143918074Y-98824979D01*
X143774129Y-98789500D01*
X143774128Y-98789500D01*
X143625872Y-98789500D01*
X143625870Y-98789500D01*
X143481925Y-98824979D01*
X143350653Y-98893875D01*
X143350649Y-98893877D01*
X143239676Y-98992192D01*
X143239674Y-98992194D01*
X143168735Y-99094966D01*
X143154947Y-99106139D01*
X143154620Y-99116072D01*
X143152771Y-99121291D01*
X143102884Y-99252827D01*
X143085016Y-99399997D01*
X143085016Y-99400002D01*
X142321569Y-99400002D01*
X142340464Y-99356099D01*
X142399332Y-99316413D01*
X142437478Y-99310500D01*
X142474127Y-99310500D01*
X142474128Y-99310500D01*
X142618076Y-99275020D01*
X142749351Y-99206122D01*
X142860322Y-99107810D01*
X142931263Y-99005034D01*
X142945051Y-98993859D01*
X142945379Y-98983926D01*
X142947215Y-98978743D01*
X142997114Y-98847175D01*
X143014984Y-98700000D01*
X143014984Y-98699997D01*
X142997115Y-98552827D01*
X142944539Y-98414199D01*
X142860323Y-98292192D01*
X142860322Y-98292190D01*
X142749351Y-98193878D01*
X142749350Y-98193877D01*
X142749346Y-98193875D01*
X142618074Y-98124979D01*
X142474129Y-98089500D01*
X142474128Y-98089500D01*
X142325872Y-98089500D01*
X142325868Y-98089500D01*
X142203817Y-98119583D01*
X142132889Y-98116464D01*
X142074907Y-98075494D01*
X142048279Y-98009680D01*
X142053830Y-97958310D01*
X142095688Y-97829487D01*
X142165434Y-97501356D01*
X142200500Y-97167731D01*
X142200500Y-97000000D01*
X142200500Y-96960118D01*
X142200500Y-94677410D01*
X142200500Y-94677409D01*
X142200500Y-94594970D01*
X142164024Y-94388101D01*
X142092179Y-94190709D01*
X142079766Y-94169210D01*
X141987151Y-94008793D01*
X141987149Y-94008790D01*
X141852124Y-93847875D01*
X141691209Y-93712850D01*
X141691206Y-93712848D01*
X141509295Y-93607823D01*
X141509287Y-93607819D01*
X141311899Y-93535976D01*
X141311897Y-93535975D01*
X141149313Y-93507308D01*
X141105030Y-93499500D01*
X140894970Y-93499500D01*
X140858495Y-93505931D01*
X140688102Y-93535975D01*
X140688100Y-93535976D01*
X140490712Y-93607819D01*
X140490704Y-93607823D01*
X140308793Y-93712848D01*
X140308790Y-93712850D01*
X140147875Y-93847875D01*
X140012850Y-94008790D01*
X140012848Y-94008793D01*
X139907823Y-94190704D01*
X139907819Y-94190712D01*
X139835976Y-94388100D01*
X139835975Y-94388102D01*
X139799500Y-94594970D01*
X139799500Y-96996906D01*
X139799196Y-97003085D01*
X139785354Y-97143625D01*
X139780535Y-97167852D01*
X139742244Y-97294078D01*
X139732792Y-97316897D01*
X139670610Y-97433232D01*
X139656888Y-97453769D01*
X139573205Y-97555738D01*
X139555738Y-97573205D01*
X139453769Y-97656888D01*
X139433232Y-97670610D01*
X139316897Y-97732792D01*
X139294078Y-97742244D01*
X139167852Y-97780535D01*
X139143625Y-97785354D01*
X139003085Y-97799196D01*
X138996906Y-97799500D01*
X116052266Y-97799500D01*
X116052195Y-97799493D01*
X116039888Y-97799493D01*
X116003099Y-97799493D01*
X115996920Y-97799189D01*
X115856385Y-97785348D01*
X115832160Y-97780530D01*
X115705923Y-97742237D01*
X115683103Y-97732784D01*
X115566773Y-97670605D01*
X115546235Y-97656883D01*
X115512494Y-97629193D01*
X115444264Y-97573198D01*
X115426799Y-97555733D01*
X115382173Y-97501356D01*
X115343115Y-97453763D01*
X115329394Y-97433226D01*
X115267215Y-97316896D01*
X115257762Y-97294076D01*
X115219469Y-97167839D01*
X115214651Y-97143613D01*
X115209812Y-97094481D01*
X115200809Y-97003062D01*
X115200507Y-96996901D01*
X115200507Y-96935281D01*
X115200505Y-96935155D01*
X115200502Y-95500002D01*
X118135016Y-95500002D01*
X118152884Y-95647172D01*
X118205460Y-95785800D01*
X118284457Y-95900246D01*
X118289678Y-95907810D01*
X118400649Y-96006122D01*
X118531924Y-96075020D01*
X118675872Y-96110500D01*
X118675873Y-96110500D01*
X118824127Y-96110500D01*
X118824128Y-96110500D01*
X118968076Y-96075020D01*
X119099351Y-96006122D01*
X119210322Y-95907810D01*
X119294541Y-95785797D01*
X119347114Y-95647175D01*
X119347114Y-95647174D01*
X119347115Y-95647172D01*
X119364984Y-95500002D01*
X119364984Y-95499997D01*
X119347115Y-95352827D01*
X119294539Y-95214199D01*
X119210323Y-95092192D01*
X119210322Y-95092190D01*
X119099351Y-94993878D01*
X119099350Y-94993877D01*
X119099346Y-94993875D01*
X118968074Y-94924979D01*
X118824129Y-94889500D01*
X118824128Y-94889500D01*
X118675872Y-94889500D01*
X118675870Y-94889500D01*
X118531925Y-94924979D01*
X118400653Y-94993875D01*
X118400649Y-94993877D01*
X118289676Y-95092192D01*
X118205460Y-95214199D01*
X118152884Y-95352827D01*
X118135016Y-95499997D01*
X118135016Y-95500002D01*
X115200502Y-95500002D01*
X115200500Y-94677409D01*
X115200500Y-94594970D01*
X115164024Y-94388101D01*
X115092179Y-94190709D01*
X115079766Y-94169210D01*
X114987151Y-94008793D01*
X114987149Y-94008790D01*
X114852124Y-93847875D01*
X114691209Y-93712850D01*
X114691206Y-93712848D01*
X114509295Y-93607823D01*
X114509287Y-93607819D01*
X114311899Y-93535976D01*
X114311897Y-93535975D01*
X114149313Y-93507308D01*
X114105030Y-93499500D01*
X113894970Y-93499500D01*
X113858495Y-93505931D01*
X113688102Y-93535975D01*
X113688100Y-93535976D01*
X113490712Y-93607819D01*
X113490704Y-93607823D01*
X113308793Y-93712848D01*
X113308790Y-93712850D01*
X113147875Y-93847875D01*
X113012850Y-94008790D01*
X113012848Y-94008793D01*
X112907823Y-94190704D01*
X112907819Y-94190712D01*
X112835976Y-94388100D01*
X112835975Y-94388102D01*
X112799500Y-94594970D01*
X112799500Y-94677411D01*
X112799507Y-96960110D01*
X112799507Y-97167728D01*
X112814822Y-97313445D01*
X112834571Y-97501348D01*
X112894240Y-97782073D01*
X112904318Y-97829484D01*
X112972790Y-98040222D01*
X112974817Y-98111190D01*
X112938155Y-98171988D01*
X112874442Y-98203313D01*
X112822804Y-98201497D01*
X112774131Y-98189500D01*
X112774128Y-98189500D01*
X112625872Y-98189500D01*
X112625870Y-98189500D01*
X112481925Y-98224979D01*
X112350653Y-98293875D01*
X112350649Y-98293877D01*
X112239676Y-98392192D01*
X112155460Y-98514199D01*
X112102884Y-98652827D01*
X112085016Y-98799997D01*
X112085016Y-98800002D01*
X100200500Y-98800002D01*
X100200500Y-89405029D01*
X112799500Y-89405029D01*
X112835975Y-89611897D01*
X112835976Y-89611899D01*
X112907819Y-89809287D01*
X112907823Y-89809295D01*
X113012848Y-89991206D01*
X113012850Y-89991209D01*
X113147875Y-90152124D01*
X113308790Y-90287149D01*
X113308793Y-90287151D01*
X113469210Y-90379766D01*
X113490709Y-90392179D01*
X113688101Y-90464024D01*
X113894970Y-90500500D01*
X113894971Y-90500500D01*
X114105029Y-90500500D01*
X114105030Y-90500500D01*
X114311899Y-90464024D01*
X114509291Y-90392179D01*
X114679897Y-90293680D01*
X114691206Y-90287151D01*
X114691209Y-90287149D01*
X114852124Y-90152124D01*
X114987149Y-89991209D01*
X114987151Y-89991206D01*
X115039808Y-89900000D01*
X116450000Y-89900000D01*
X116450000Y-90750000D01*
X117350000Y-90750000D01*
X117350000Y-90701490D01*
X122190291Y-90701490D01*
X122208159Y-90848660D01*
X122260735Y-90987288D01*
X122339732Y-91101734D01*
X122344953Y-91109298D01*
X122455924Y-91207610D01*
X122561002Y-91262759D01*
X122612024Y-91312128D01*
X122627528Y-91359138D01*
X122633019Y-91404357D01*
X122685594Y-91542985D01*
X122769810Y-91664992D01*
X122769809Y-91664992D01*
X122769811Y-91664994D01*
X122769812Y-91664995D01*
X122880783Y-91763307D01*
X122880784Y-91763308D01*
X122885791Y-91767743D01*
X122923516Y-91827887D01*
X122927319Y-91877238D01*
X122926553Y-91883548D01*
X122926553Y-91883552D01*
X122944421Y-92030721D01*
X122996997Y-92169349D01*
X123040419Y-92232256D01*
X123081215Y-92291359D01*
X123192186Y-92389671D01*
X123323461Y-92458569D01*
X123467409Y-92494049D01*
X123467410Y-92494049D01*
X123615664Y-92494049D01*
X123615665Y-92494049D01*
X123759613Y-92458569D01*
X123890888Y-92389671D01*
X124001859Y-92291359D01*
X124086078Y-92169346D01*
X124106138Y-92116453D01*
X130843479Y-92116453D01*
X130861347Y-92263623D01*
X130913923Y-92402251D01*
X130998139Y-92524258D01*
X130998138Y-92524258D01*
X130998140Y-92524260D01*
X130998141Y-92524261D01*
X131109112Y-92622573D01*
X131109113Y-92622574D01*
X131114120Y-92627009D01*
X131151845Y-92687153D01*
X131155648Y-92736504D01*
X131154882Y-92742814D01*
X131154882Y-92742818D01*
X131172750Y-92889987D01*
X131225326Y-93028615D01*
X131304323Y-93143061D01*
X131309544Y-93150625D01*
X131420515Y-93248937D01*
X131525593Y-93304086D01*
X131576615Y-93353455D01*
X131592119Y-93400465D01*
X131597610Y-93445684D01*
X131650185Y-93584312D01*
X131666414Y-93607823D01*
X131734403Y-93706322D01*
X131845374Y-93804634D01*
X131976649Y-93873532D01*
X132120597Y-93909012D01*
X132120598Y-93909012D01*
X132268852Y-93909012D01*
X132268853Y-93909012D01*
X132412801Y-93873532D01*
X132544076Y-93804634D01*
X132655047Y-93706322D01*
X132739266Y-93584309D01*
X132791839Y-93445687D01*
X132791839Y-93445686D01*
X132791840Y-93445684D01*
X132803458Y-93350000D01*
X137650000Y-93350000D01*
X137650000Y-94200000D01*
X138550000Y-94200000D01*
X138550000Y-93350000D01*
X137650000Y-93350000D01*
X132803458Y-93350000D01*
X132809709Y-93298514D01*
X132809709Y-93298509D01*
X132791840Y-93151339D01*
X132739264Y-93012711D01*
X132655048Y-92890704D01*
X132655047Y-92890702D01*
X132544076Y-92792390D01*
X132544075Y-92792389D01*
X132544071Y-92792387D01*
X132438998Y-92737241D01*
X132387975Y-92687873D01*
X132372471Y-92640859D01*
X132366981Y-92595643D01*
X132328451Y-92494049D01*
X132314407Y-92457018D01*
X132314405Y-92457016D01*
X132314405Y-92457014D01*
X132230189Y-92335007D01*
X132230190Y-92335007D01*
X132180922Y-92291359D01*
X132119217Y-92236693D01*
X132119215Y-92236692D01*
X132114208Y-92232256D01*
X132076483Y-92172112D01*
X132072681Y-92122755D01*
X132073447Y-92116451D01*
X132063038Y-92030721D01*
X132055578Y-91969278D01*
X132023065Y-91883551D01*
X132003004Y-91830654D01*
X132003002Y-91830652D01*
X132003002Y-91830650D01*
X131937929Y-91736376D01*
X131918785Y-91708641D01*
X131807814Y-91610329D01*
X131807813Y-91610328D01*
X131807809Y-91610326D01*
X131676537Y-91541430D01*
X131532592Y-91505951D01*
X131532591Y-91505951D01*
X131384335Y-91505951D01*
X131384333Y-91505951D01*
X131240388Y-91541430D01*
X131109116Y-91610326D01*
X131109112Y-91610328D01*
X130998139Y-91708643D01*
X130913923Y-91830650D01*
X130861347Y-91969278D01*
X130843479Y-92116448D01*
X130843479Y-92116453D01*
X124106138Y-92116453D01*
X124138651Y-92030724D01*
X124138651Y-92030723D01*
X124138652Y-92030721D01*
X124156521Y-91883551D01*
X124156521Y-91883546D01*
X124138652Y-91736376D01*
X124111579Y-91664992D01*
X124086078Y-91597752D01*
X124086076Y-91597750D01*
X124086076Y-91597748D01*
X124001860Y-91475741D01*
X124001861Y-91475741D01*
X124001859Y-91475739D01*
X123890888Y-91377427D01*
X123890886Y-91377426D01*
X123885879Y-91372990D01*
X123848154Y-91312846D01*
X123844352Y-91263489D01*
X123845118Y-91257185D01*
X123839012Y-91206902D01*
X123827249Y-91110012D01*
X123774673Y-90971384D01*
X123690457Y-90849377D01*
X123690456Y-90849375D01*
X123579485Y-90751063D01*
X123579484Y-90751062D01*
X123579480Y-90751060D01*
X123474407Y-90695914D01*
X123423384Y-90646546D01*
X123407880Y-90599532D01*
X123402390Y-90554316D01*
X123381980Y-90500500D01*
X123349816Y-90415691D01*
X123349814Y-90415689D01*
X123349814Y-90415687D01*
X123265598Y-90293680D01*
X123265597Y-90293678D01*
X123154626Y-90195366D01*
X123154625Y-90195365D01*
X123154621Y-90195363D01*
X123023349Y-90126467D01*
X122879404Y-90090988D01*
X122879403Y-90090988D01*
X122731147Y-90090988D01*
X122731145Y-90090988D01*
X122587200Y-90126467D01*
X122455928Y-90195363D01*
X122455924Y-90195365D01*
X122365566Y-90275416D01*
X122352321Y-90287151D01*
X122344951Y-90293680D01*
X122260735Y-90415687D01*
X122208159Y-90554315D01*
X122190291Y-90701485D01*
X122190291Y-90701490D01*
X117350000Y-90701490D01*
X117350000Y-89900000D01*
X116450000Y-89900000D01*
X115039808Y-89900000D01*
X115065141Y-89856122D01*
X115092179Y-89809291D01*
X115164024Y-89611899D01*
X115200500Y-89405030D01*
X115200500Y-89350002D01*
X129035016Y-89350002D01*
X129052884Y-89497172D01*
X129105460Y-89635800D01*
X129184457Y-89750246D01*
X129189678Y-89757810D01*
X129300649Y-89856122D01*
X129431924Y-89925020D01*
X129575872Y-89960500D01*
X129575873Y-89960500D01*
X129724127Y-89960500D01*
X129724128Y-89960500D01*
X129868076Y-89925020D01*
X129999351Y-89856122D01*
X130110322Y-89757810D01*
X130194541Y-89635797D01*
X130247114Y-89497175D01*
X130247114Y-89497174D01*
X130247115Y-89497172D01*
X130258303Y-89405029D01*
X139799500Y-89405029D01*
X139835975Y-89611897D01*
X139835976Y-89611899D01*
X139907819Y-89809287D01*
X139907823Y-89809295D01*
X140012848Y-89991206D01*
X140012850Y-89991209D01*
X140147875Y-90152124D01*
X140308790Y-90287149D01*
X140308793Y-90287151D01*
X140469210Y-90379766D01*
X140490709Y-90392179D01*
X140688101Y-90464024D01*
X140894970Y-90500500D01*
X140894971Y-90500500D01*
X141105029Y-90500500D01*
X141105030Y-90500500D01*
X141311899Y-90464024D01*
X141509291Y-90392179D01*
X141679897Y-90293680D01*
X141691206Y-90287151D01*
X141691209Y-90287149D01*
X141852124Y-90152124D01*
X141987149Y-89991209D01*
X141987151Y-89991206D01*
X142065141Y-89856122D01*
X142092179Y-89809291D01*
X142164024Y-89611899D01*
X142200500Y-89405030D01*
X142200500Y-89300000D01*
X142200500Y-89260118D01*
X142200500Y-79677410D01*
X142200500Y-79594970D01*
X142164024Y-79388101D01*
X142092179Y-79190709D01*
X142079766Y-79169210D01*
X141987151Y-79008793D01*
X141987149Y-79008790D01*
X141852124Y-78847875D01*
X141691209Y-78712850D01*
X141691206Y-78712848D01*
X141509295Y-78607823D01*
X141509287Y-78607819D01*
X141311899Y-78535976D01*
X141311897Y-78535975D01*
X141149313Y-78507308D01*
X141105030Y-78499500D01*
X140894970Y-78499500D01*
X140858495Y-78505931D01*
X140688102Y-78535975D01*
X140688100Y-78535976D01*
X140490712Y-78607819D01*
X140490704Y-78607823D01*
X140308793Y-78712848D01*
X140308790Y-78712850D01*
X140147875Y-78847875D01*
X140012850Y-79008790D01*
X140012848Y-79008793D01*
X139907823Y-79190704D01*
X139907819Y-79190712D01*
X139835976Y-79388100D01*
X139835975Y-79388102D01*
X139799500Y-79594970D01*
X139799500Y-89405029D01*
X130258303Y-89405029D01*
X130264984Y-89350002D01*
X130264984Y-89349997D01*
X130247115Y-89202827D01*
X130194539Y-89064199D01*
X130110323Y-88942192D01*
X130110322Y-88942190D01*
X129999351Y-88843878D01*
X129999350Y-88843877D01*
X129999346Y-88843875D01*
X129868074Y-88774979D01*
X129724129Y-88739500D01*
X129724128Y-88739500D01*
X129575872Y-88739500D01*
X129575870Y-88739500D01*
X129431925Y-88774979D01*
X129300653Y-88843875D01*
X129300649Y-88843877D01*
X129189676Y-88942192D01*
X129105460Y-89064199D01*
X129052884Y-89202827D01*
X129035016Y-89349997D01*
X129035016Y-89350002D01*
X115200500Y-89350002D01*
X115200500Y-89300000D01*
X115200500Y-89260118D01*
X115200500Y-87500002D01*
X121085016Y-87500002D01*
X121102884Y-87647172D01*
X121155460Y-87785800D01*
X121234457Y-87900246D01*
X121239678Y-87907810D01*
X121350649Y-88006122D01*
X121481924Y-88075020D01*
X121625872Y-88110500D01*
X121625873Y-88110500D01*
X121774127Y-88110500D01*
X121774128Y-88110500D01*
X121918076Y-88075020D01*
X122049351Y-88006122D01*
X122160322Y-87907810D01*
X122244541Y-87785797D01*
X122297114Y-87647175D01*
X122297114Y-87647174D01*
X122297115Y-87647172D01*
X122314984Y-87500002D01*
X122314984Y-87499997D01*
X122297115Y-87352827D01*
X122244539Y-87214199D01*
X122160323Y-87092192D01*
X122160322Y-87092190D01*
X122049351Y-86993878D01*
X122049350Y-86993877D01*
X122049346Y-86993875D01*
X121918074Y-86924979D01*
X121774129Y-86889500D01*
X121774128Y-86889500D01*
X121625872Y-86889500D01*
X121625870Y-86889500D01*
X121481925Y-86924979D01*
X121350653Y-86993875D01*
X121350649Y-86993877D01*
X121239676Y-87092192D01*
X121155460Y-87214199D01*
X121102884Y-87352827D01*
X121085016Y-87499997D01*
X121085016Y-87500002D01*
X115200500Y-87500002D01*
X115200500Y-84550002D01*
X129585016Y-84550002D01*
X129602884Y-84697172D01*
X129655460Y-84835800D01*
X129734457Y-84950246D01*
X129739678Y-84957810D01*
X129850649Y-85056122D01*
X129981924Y-85125020D01*
X130125872Y-85160500D01*
X130125873Y-85160500D01*
X130274127Y-85160500D01*
X130274128Y-85160500D01*
X130418076Y-85125020D01*
X130516448Y-85073390D01*
X130586058Y-85059445D01*
X130633549Y-85073389D01*
X130731924Y-85125020D01*
X130875872Y-85160500D01*
X130875873Y-85160500D01*
X131024127Y-85160500D01*
X131024128Y-85160500D01*
X131168076Y-85125020D01*
X131266448Y-85073390D01*
X131336058Y-85059445D01*
X131383549Y-85073389D01*
X131481924Y-85125020D01*
X131625872Y-85160500D01*
X131625873Y-85160500D01*
X131774127Y-85160500D01*
X131774128Y-85160500D01*
X131918076Y-85125020D01*
X132049351Y-85056122D01*
X132160322Y-84957810D01*
X132244541Y-84835797D01*
X132297114Y-84697175D01*
X132297114Y-84697174D01*
X132297115Y-84697172D01*
X132314984Y-84550002D01*
X132314984Y-84549997D01*
X132297115Y-84402827D01*
X132244539Y-84264199D01*
X132160323Y-84142192D01*
X132160322Y-84142190D01*
X132049351Y-84043878D01*
X132049350Y-84043877D01*
X132049346Y-84043875D01*
X131918074Y-83974979D01*
X131774129Y-83939500D01*
X131774128Y-83939500D01*
X131625872Y-83939500D01*
X131625870Y-83939500D01*
X131481925Y-83974979D01*
X131383554Y-84026608D01*
X131313941Y-84040554D01*
X131266446Y-84026608D01*
X131168074Y-83974979D01*
X131024129Y-83939500D01*
X131024128Y-83939500D01*
X130875872Y-83939500D01*
X130875870Y-83939500D01*
X130731925Y-83974979D01*
X130633554Y-84026608D01*
X130563941Y-84040554D01*
X130516446Y-84026608D01*
X130418074Y-83974979D01*
X130274129Y-83939500D01*
X130274128Y-83939500D01*
X130125872Y-83939500D01*
X130125870Y-83939500D01*
X129981925Y-83974979D01*
X129850653Y-84043875D01*
X129850649Y-84043877D01*
X129739676Y-84142192D01*
X129655460Y-84264199D01*
X129602884Y-84402827D01*
X129585016Y-84549997D01*
X129585016Y-84550002D01*
X115200500Y-84550002D01*
X115200500Y-82500002D01*
X131985016Y-82500002D01*
X132002884Y-82647172D01*
X132055460Y-82785800D01*
X132134457Y-82900246D01*
X132139678Y-82907810D01*
X132250649Y-83006122D01*
X132381924Y-83075020D01*
X132525872Y-83110500D01*
X132525873Y-83110500D01*
X132674127Y-83110500D01*
X132674128Y-83110500D01*
X132818076Y-83075020D01*
X132949351Y-83006122D01*
X133060322Y-82907810D01*
X133144541Y-82785797D01*
X133197114Y-82647175D01*
X133197114Y-82647174D01*
X133197115Y-82647172D01*
X133214984Y-82500002D01*
X133214984Y-82499997D01*
X133197115Y-82352827D01*
X133167606Y-82275019D01*
X133144541Y-82214203D01*
X133144539Y-82214201D01*
X133144539Y-82214199D01*
X133088395Y-82132861D01*
X133060322Y-82092190D01*
X132949351Y-81993878D01*
X132949350Y-81993877D01*
X132949346Y-81993875D01*
X132818074Y-81924979D01*
X132674129Y-81889500D01*
X132674128Y-81889500D01*
X132525872Y-81889500D01*
X132525870Y-81889500D01*
X132381925Y-81924979D01*
X132250653Y-81993875D01*
X132250649Y-81993877D01*
X132139676Y-82092192D01*
X132055460Y-82214199D01*
X132002884Y-82352827D01*
X131985016Y-82499997D01*
X131985016Y-82500002D01*
X115200500Y-82500002D01*
X115200500Y-81700002D01*
X126285016Y-81700002D01*
X126302884Y-81847172D01*
X126355460Y-81985800D01*
X126428896Y-82092190D01*
X126439678Y-82107810D01*
X126550649Y-82206122D01*
X126681924Y-82275020D01*
X126825872Y-82310500D01*
X126825873Y-82310500D01*
X126974127Y-82310500D01*
X126974128Y-82310500D01*
X127118076Y-82275020D01*
X127141445Y-82262754D01*
X127211057Y-82248808D01*
X127258553Y-82262754D01*
X127281924Y-82275020D01*
X127425872Y-82310500D01*
X127425873Y-82310500D01*
X127574127Y-82310500D01*
X127574128Y-82310500D01*
X127718076Y-82275020D01*
X127766445Y-82249633D01*
X127836058Y-82235687D01*
X127883553Y-82249633D01*
X127931924Y-82275020D01*
X128075872Y-82310500D01*
X128075873Y-82310500D01*
X128224127Y-82310500D01*
X128224128Y-82310500D01*
X128368076Y-82275020D01*
X128499351Y-82206122D01*
X128610322Y-82107810D01*
X128694541Y-81985797D01*
X128747114Y-81847175D01*
X128747114Y-81847174D01*
X128747115Y-81847172D01*
X128764984Y-81700002D01*
X128764984Y-81699997D01*
X128747115Y-81552827D01*
X128694539Y-81414199D01*
X128610323Y-81292192D01*
X128610322Y-81292190D01*
X128499351Y-81193878D01*
X128499350Y-81193877D01*
X128499346Y-81193875D01*
X128368074Y-81124979D01*
X128224129Y-81089500D01*
X128224128Y-81089500D01*
X128075872Y-81089500D01*
X128075870Y-81089500D01*
X127931920Y-81124981D01*
X127883553Y-81150365D01*
X127813940Y-81164311D01*
X127766447Y-81150365D01*
X127718079Y-81124981D01*
X127718076Y-81124980D01*
X127644104Y-81106747D01*
X127574129Y-81089500D01*
X127574128Y-81089500D01*
X127425872Y-81089500D01*
X127425870Y-81089500D01*
X127281921Y-81124980D01*
X127258552Y-81137245D01*
X127188938Y-81151189D01*
X127141448Y-81137245D01*
X127118078Y-81124980D01*
X126974129Y-81089500D01*
X126974128Y-81089500D01*
X126825872Y-81089500D01*
X126825870Y-81089500D01*
X126681925Y-81124979D01*
X126550653Y-81193875D01*
X126550649Y-81193877D01*
X126439676Y-81292192D01*
X126355460Y-81414199D01*
X126302884Y-81552827D01*
X126285016Y-81699997D01*
X126285016Y-81700002D01*
X115200500Y-81700002D01*
X115200500Y-79677410D01*
X115200500Y-79594970D01*
X115164024Y-79388101D01*
X115092179Y-79190709D01*
X115079766Y-79169210D01*
X114987151Y-79008793D01*
X114987149Y-79008790D01*
X114852124Y-78847875D01*
X114691209Y-78712850D01*
X114691206Y-78712848D01*
X114509295Y-78607823D01*
X114509287Y-78607819D01*
X114311899Y-78535976D01*
X114311897Y-78535975D01*
X114149313Y-78507308D01*
X114105030Y-78499500D01*
X113894970Y-78499500D01*
X113858495Y-78505931D01*
X113688102Y-78535975D01*
X113688100Y-78535976D01*
X113490712Y-78607819D01*
X113490704Y-78607823D01*
X113308793Y-78712848D01*
X113308790Y-78712850D01*
X113147875Y-78847875D01*
X113012850Y-79008790D01*
X113012848Y-79008793D01*
X112907823Y-79190704D01*
X112907819Y-79190712D01*
X112835976Y-79388100D01*
X112835975Y-79388102D01*
X112799500Y-79594970D01*
X112799500Y-89405029D01*
X100200500Y-89405029D01*
X100200500Y-75701490D01*
X122190291Y-75701490D01*
X122208159Y-75848660D01*
X122260735Y-75987288D01*
X122339732Y-76101734D01*
X122344953Y-76109298D01*
X122455924Y-76207610D01*
X122561002Y-76262759D01*
X122612024Y-76312128D01*
X122627528Y-76359138D01*
X122633019Y-76404357D01*
X122685594Y-76542985D01*
X122769810Y-76664992D01*
X122769809Y-76664992D01*
X122769811Y-76664994D01*
X122769812Y-76664995D01*
X122880783Y-76763307D01*
X122880784Y-76763308D01*
X122885791Y-76767743D01*
X122923516Y-76827887D01*
X122927319Y-76877238D01*
X122926553Y-76883548D01*
X122926553Y-76883552D01*
X122944421Y-77030721D01*
X122996997Y-77169349D01*
X123040419Y-77232256D01*
X123081215Y-77291359D01*
X123192186Y-77389671D01*
X123323461Y-77458569D01*
X123467409Y-77494049D01*
X123467410Y-77494049D01*
X123615664Y-77494049D01*
X123615665Y-77494049D01*
X123759613Y-77458569D01*
X123890888Y-77389671D01*
X124001859Y-77291359D01*
X124086078Y-77169346D01*
X124106138Y-77116453D01*
X130843479Y-77116453D01*
X130861347Y-77263623D01*
X130913923Y-77402251D01*
X130998139Y-77524258D01*
X130998138Y-77524258D01*
X130998140Y-77524260D01*
X130998141Y-77524261D01*
X131109112Y-77622573D01*
X131109113Y-77622574D01*
X131114120Y-77627009D01*
X131151845Y-77687153D01*
X131155648Y-77736504D01*
X131154882Y-77742814D01*
X131154882Y-77742818D01*
X131172750Y-77889987D01*
X131225326Y-78028615D01*
X131304323Y-78143061D01*
X131309544Y-78150625D01*
X131420515Y-78248937D01*
X131525593Y-78304086D01*
X131576615Y-78353455D01*
X131592119Y-78400465D01*
X131597610Y-78445684D01*
X131650185Y-78584312D01*
X131666414Y-78607823D01*
X131734403Y-78706322D01*
X131845374Y-78804634D01*
X131976649Y-78873532D01*
X132120597Y-78909012D01*
X132120598Y-78909012D01*
X132268852Y-78909012D01*
X132268853Y-78909012D01*
X132412801Y-78873532D01*
X132544076Y-78804634D01*
X132655047Y-78706322D01*
X132739266Y-78584309D01*
X132791839Y-78445687D01*
X132791839Y-78445686D01*
X132791840Y-78445684D01*
X132803458Y-78350000D01*
X137650000Y-78350000D01*
X137650000Y-79200000D01*
X138550000Y-79200000D01*
X138550000Y-78350000D01*
X137650000Y-78350000D01*
X132803458Y-78350000D01*
X132809709Y-78298514D01*
X132809709Y-78298509D01*
X132791840Y-78151339D01*
X132739264Y-78012711D01*
X132655048Y-77890704D01*
X132655047Y-77890702D01*
X132544076Y-77792390D01*
X132544075Y-77792389D01*
X132544071Y-77792387D01*
X132438998Y-77737241D01*
X132387975Y-77687873D01*
X132372471Y-77640859D01*
X132366981Y-77595643D01*
X132328451Y-77494049D01*
X132314407Y-77457018D01*
X132314405Y-77457016D01*
X132314405Y-77457014D01*
X132230189Y-77335007D01*
X132230190Y-77335007D01*
X132180922Y-77291359D01*
X132119217Y-77236693D01*
X132119215Y-77236692D01*
X132114208Y-77232256D01*
X132076483Y-77172112D01*
X132072681Y-77122755D01*
X132073447Y-77116451D01*
X132063038Y-77030721D01*
X132055578Y-76969278D01*
X132023065Y-76883551D01*
X132003004Y-76830654D01*
X132003002Y-76830652D01*
X132003002Y-76830650D01*
X131937929Y-76736376D01*
X131918785Y-76708641D01*
X131807814Y-76610329D01*
X131807813Y-76610328D01*
X131807809Y-76610326D01*
X131676537Y-76541430D01*
X131532592Y-76505951D01*
X131532591Y-76505951D01*
X131384335Y-76505951D01*
X131384333Y-76505951D01*
X131240388Y-76541430D01*
X131109116Y-76610326D01*
X131109112Y-76610328D01*
X130998139Y-76708643D01*
X130913923Y-76830650D01*
X130861347Y-76969278D01*
X130843479Y-77116448D01*
X130843479Y-77116453D01*
X124106138Y-77116453D01*
X124138651Y-77030724D01*
X124138651Y-77030723D01*
X124138652Y-77030721D01*
X124156521Y-76883551D01*
X124156521Y-76883546D01*
X124138652Y-76736376D01*
X124111579Y-76664992D01*
X124086078Y-76597752D01*
X124086076Y-76597750D01*
X124086076Y-76597748D01*
X124001860Y-76475741D01*
X124001861Y-76475741D01*
X124001859Y-76475739D01*
X123890888Y-76377427D01*
X123890886Y-76377426D01*
X123885879Y-76372990D01*
X123848154Y-76312846D01*
X123844352Y-76263489D01*
X123845118Y-76257185D01*
X123839012Y-76206902D01*
X123827249Y-76110012D01*
X123774673Y-75971384D01*
X123690457Y-75849377D01*
X123690456Y-75849375D01*
X123579485Y-75751063D01*
X123579484Y-75751062D01*
X123579480Y-75751060D01*
X123474407Y-75695914D01*
X123423384Y-75646546D01*
X123407880Y-75599532D01*
X123402390Y-75554316D01*
X123381980Y-75500500D01*
X123349816Y-75415691D01*
X123349814Y-75415689D01*
X123349814Y-75415687D01*
X123265598Y-75293680D01*
X123265597Y-75293678D01*
X123154626Y-75195366D01*
X123154625Y-75195365D01*
X123154621Y-75195363D01*
X123023349Y-75126467D01*
X122879404Y-75090988D01*
X122879403Y-75090988D01*
X122731147Y-75090988D01*
X122731145Y-75090988D01*
X122587200Y-75126467D01*
X122455928Y-75195363D01*
X122455924Y-75195365D01*
X122365566Y-75275416D01*
X122352321Y-75287151D01*
X122344951Y-75293680D01*
X122260735Y-75415687D01*
X122208159Y-75554315D01*
X122190291Y-75701485D01*
X122190291Y-75701490D01*
X100200500Y-75701490D01*
X100200500Y-74405029D01*
X112799500Y-74405029D01*
X112835975Y-74611897D01*
X112835976Y-74611899D01*
X112907819Y-74809287D01*
X112907823Y-74809295D01*
X113012848Y-74991206D01*
X113012850Y-74991209D01*
X113147875Y-75152124D01*
X113308790Y-75287149D01*
X113308793Y-75287151D01*
X113469210Y-75379766D01*
X113490709Y-75392179D01*
X113688101Y-75464024D01*
X113894970Y-75500500D01*
X113894971Y-75500500D01*
X114105029Y-75500500D01*
X114105030Y-75500500D01*
X114311899Y-75464024D01*
X114509291Y-75392179D01*
X114679897Y-75293680D01*
X114691206Y-75287151D01*
X114691209Y-75287149D01*
X114852124Y-75152124D01*
X114987149Y-74991209D01*
X114987151Y-74991206D01*
X115043189Y-74894144D01*
X115092179Y-74809291D01*
X115095561Y-74800000D01*
X116450000Y-74800000D01*
X116450000Y-75650000D01*
X117350000Y-75650000D01*
X117350000Y-74800000D01*
X116450000Y-74800000D01*
X115095561Y-74800000D01*
X115164024Y-74611899D01*
X115200500Y-74405030D01*
X115200500Y-74300000D01*
X115200500Y-74260118D01*
X115200500Y-73500002D01*
X135635016Y-73500002D01*
X135652884Y-73647172D01*
X135705460Y-73785800D01*
X135784457Y-73900246D01*
X135789678Y-73907810D01*
X135900649Y-74006122D01*
X136031924Y-74075020D01*
X136175872Y-74110500D01*
X136175873Y-74110500D01*
X136324127Y-74110500D01*
X136324128Y-74110500D01*
X136468076Y-74075020D01*
X136599351Y-74006122D01*
X136710322Y-73907810D01*
X136794541Y-73785797D01*
X136847114Y-73647175D01*
X136847114Y-73647174D01*
X136847115Y-73647172D01*
X136864984Y-73500002D01*
X136864984Y-73499997D01*
X136847115Y-73352827D01*
X136794539Y-73214199D01*
X136710323Y-73092192D01*
X136710322Y-73092190D01*
X136599351Y-72993878D01*
X136599350Y-72993877D01*
X136599346Y-72993875D01*
X136468074Y-72924979D01*
X136324129Y-72889500D01*
X136324128Y-72889500D01*
X136175872Y-72889500D01*
X136175870Y-72889500D01*
X136031925Y-72924979D01*
X135900653Y-72993875D01*
X135900649Y-72993877D01*
X135789676Y-73092192D01*
X135705460Y-73214199D01*
X135652884Y-73352827D01*
X135635016Y-73499997D01*
X135635016Y-73500002D01*
X115200500Y-73500002D01*
X115200500Y-72003093D01*
X115200804Y-71996915D01*
X115203520Y-71969334D01*
X115214646Y-71856368D01*
X115219461Y-71832158D01*
X115257756Y-71705916D01*
X115267207Y-71683102D01*
X115329392Y-71566761D01*
X115343107Y-71546235D01*
X115426801Y-71444253D01*
X115444256Y-71426799D01*
X115546235Y-71343107D01*
X115566761Y-71329392D01*
X115683103Y-71267206D01*
X115705916Y-71257756D01*
X115832158Y-71219461D01*
X115856368Y-71214646D01*
X115957016Y-71204733D01*
X115996916Y-71200804D01*
X116003094Y-71200500D01*
X116039882Y-71200500D01*
X138947734Y-71200500D01*
X138947805Y-71200507D01*
X138960112Y-71200507D01*
X138996901Y-71200507D01*
X139003062Y-71200809D01*
X139143614Y-71214651D01*
X139167839Y-71219469D01*
X139294076Y-71257762D01*
X139316896Y-71267215D01*
X139433226Y-71329394D01*
X139453763Y-71343115D01*
X139555735Y-71426801D01*
X139573200Y-71444266D01*
X139656883Y-71546235D01*
X139670605Y-71566773D01*
X139732784Y-71683103D01*
X139742237Y-71705923D01*
X139780530Y-71832160D01*
X139785348Y-71856385D01*
X139799189Y-71996919D01*
X139799493Y-72003098D01*
X139799500Y-74260118D01*
X139799500Y-74405029D01*
X139835975Y-74611897D01*
X139835976Y-74611899D01*
X139907819Y-74809287D01*
X139907823Y-74809295D01*
X140012848Y-74991206D01*
X140012850Y-74991209D01*
X140147875Y-75152124D01*
X140308790Y-75287149D01*
X140308793Y-75287151D01*
X140469210Y-75379766D01*
X140490709Y-75392179D01*
X140688101Y-75464024D01*
X140894970Y-75500500D01*
X140894971Y-75500500D01*
X141105029Y-75500500D01*
X141105030Y-75500500D01*
X141311899Y-75464024D01*
X141509291Y-75392179D01*
X141679897Y-75293680D01*
X141691206Y-75287151D01*
X141691209Y-75287149D01*
X141852124Y-75152124D01*
X141987149Y-74991209D01*
X141987151Y-74991206D01*
X142043189Y-74894144D01*
X142092179Y-74809291D01*
X142164024Y-74611899D01*
X142200500Y-74405030D01*
X142200500Y-74300000D01*
X142200500Y-74260118D01*
X142200500Y-74235287D01*
X142200498Y-74235161D01*
X142200493Y-71977417D01*
X142200493Y-71977416D01*
X142200493Y-71832277D01*
X142165429Y-71498652D01*
X142095683Y-71170520D01*
X142031585Y-70973245D01*
X141992022Y-70851480D01*
X141992021Y-70851479D01*
X141992014Y-70851464D01*
X141855575Y-70545016D01*
X141855574Y-70545014D01*
X141855571Y-70545008D01*
X141687846Y-70254500D01*
X141687838Y-70254488D01*
X141490668Y-69983107D01*
X141490666Y-69983104D01*
X141490664Y-69983102D01*
X141266196Y-69733804D01*
X141016899Y-69509336D01*
X140973407Y-69477737D01*
X140745512Y-69312161D01*
X140745500Y-69312153D01*
X140454992Y-69144428D01*
X140454979Y-69144422D01*
X140148529Y-69007982D01*
X140148511Y-69007976D01*
X139829485Y-68904319D01*
X139829482Y-68904318D01*
X139829481Y-68904318D01*
X139501349Y-68834572D01*
X139501282Y-68834565D01*
X139167727Y-68799507D01*
X139167724Y-68799507D01*
X139022583Y-68799507D01*
X116039883Y-68799500D01*
X116000001Y-68799500D01*
X115832270Y-68799500D01*
X115832266Y-68799500D01*
X115498642Y-68834565D01*
X115170509Y-68904312D01*
X114851474Y-69007972D01*
X114851473Y-69007973D01*
X114545008Y-69144420D01*
X114545002Y-69144423D01*
X114254494Y-69312149D01*
X114254482Y-69312157D01*
X113983097Y-69509330D01*
X113983096Y-69509331D01*
X113733800Y-69733798D01*
X113509331Y-69983095D01*
X113509330Y-69983095D01*
X113312153Y-70254487D01*
X113312148Y-70254495D01*
X113144423Y-70545001D01*
X113144417Y-70545014D01*
X113007977Y-70851464D01*
X113007971Y-70851482D01*
X112904313Y-71170508D01*
X112834566Y-71498643D01*
X112799500Y-71832265D01*
X112799500Y-74405029D01*
X100200500Y-74405029D01*
X100200500Y-66326500D01*
X100220502Y-66258379D01*
X100274158Y-66211886D01*
X100326500Y-66200500D01*
X154673500Y-66200500D01*
X154741621Y-66220502D01*
G37*
G04 #@! TD.AperFunction*
G04 #@! TD*
M02*
