M48
; DRILL file {KiCad (6.0.7)} date Tue Aug 30 14:04:25 2022
; FORMAT={-:-/ absolute / metric / decimal}
; #@! TF.CreationDate,2022-08-30T14:04:25+02:00
; #@! TF.GenerationSoftware,Kicad,Pcbnew,(6.0.7)
; #@! TF.FileFunction,Plated,1,4,PTH
FMAT,2
METRIC
; #@! TA.AperFunction,Plated,PTH,ViaDrill
T1C0.250
; #@! TA.AperFunction,Plated,PTH,ComponentDrill
T2C0.600
; #@! TA.AperFunction,Plated,PTH,ComponentDrill
T3C1.140
; #@! TA.AperFunction,Plated,PTH,ComponentDrill
T4C3.200
%
G90
G05
T1
X100.6Y-76.2
X100.6Y-77.8
X100.6Y-91.2
X100.6Y-92.8
X101.0Y-72.5
X101.0Y-73.5
X101.0Y-80.5
X101.0Y-81.5
X101.0Y-82.5
X101.0Y-83.5
X101.0Y-84.5
X101.0Y-85.5
X101.0Y-86.5
X101.0Y-87.5
X101.0Y-88.5
X101.0Y-95.5
X101.0Y-96.5
X101.0Y-97.5
X101.0Y-98.5
X101.0Y-99.5
X101.0Y-100.5
X101.0Y-101.5
X101.0Y-102.5
X101.0Y-103.5
X101.0Y-104.5
X101.0Y-105.5
X101.0Y-106.5
X101.0Y-107.5
X101.0Y-108.5
X101.0Y-109.5
X101.0Y-110.5
X101.0Y-111.5
X101.0Y-112.5
X101.0Y-113.5
X101.0Y-114.5
X101.0Y-115.5
X101.0Y-116.5
X101.0Y-117.5
X101.0Y-118.5
X101.0Y-119.5
X101.0Y-120.5
X101.0Y-121.5
X101.0Y-122.5
X101.0Y-123.5
X101.0Y-124.5
X101.0Y-125.5
X101.0Y-126.5
X101.0Y-127.5
X101.0Y-128.5
X101.0Y-129.5
X101.0Y-130.5
X101.0Y-131.5
X101.0Y-132.5
X101.0Y-133.5
X102.0Y-72.5
X102.0Y-73.5
X102.0Y-80.5
X102.0Y-81.5
X102.0Y-82.5
X102.0Y-83.5
X102.0Y-84.5
X102.0Y-85.5
X102.0Y-86.5
X102.0Y-87.5
X102.0Y-88.5
X102.0Y-95.5
X102.0Y-96.5
X102.0Y-97.5
X102.0Y-102.5
X102.0Y-103.5
X102.0Y-104.5
X102.0Y-105.5
X102.0Y-106.5
X102.0Y-107.5
X102.0Y-108.5
X102.0Y-109.5
X102.0Y-110.5
X102.0Y-111.5
X102.0Y-112.5
X102.0Y-113.5
X102.0Y-114.5
X102.0Y-115.5
X102.0Y-116.5
X102.0Y-117.5
X102.0Y-118.5
X102.0Y-119.5
X102.0Y-120.5
X102.0Y-121.5
X102.0Y-122.5
X102.0Y-123.5
X102.0Y-124.5
X102.0Y-125.5
X102.0Y-126.5
X102.0Y-127.5
X102.0Y-128.5
X102.0Y-129.5
X102.0Y-130.5
X102.0Y-131.5
X102.0Y-132.5
X102.0Y-133.5
X102.9Y-76.2
X102.9Y-77.8
X102.9Y-91.2
X102.9Y-92.8
X103.0Y-102.5
X103.0Y-108.5
X103.0Y-109.5
X103.0Y-110.5
X104.0Y-102.5
X104.0Y-108.5
X104.0Y-109.5
X104.0Y-110.5
X104.25Y-105.0
X104.3Y-103.7
X105.0Y-76.2
X105.0Y-77.8
X105.0Y-91.2
X105.0Y-92.8
X105.0Y-100.5
X105.0Y-101.5
X105.0Y-102.5
X105.0Y-108.5
X105.0Y-109.5
X105.0Y-110.5
X105.7Y-107.2
X105.75Y-105.0
X105.8Y-103.7
X106.0Y-67.0
X106.0Y-68.0
X106.0Y-76.2
X106.0Y-77.8
X106.0Y-91.2
X106.0Y-92.8
X106.0Y-100.5
X106.0Y-101.5
X106.0Y-102.5
X106.0Y-108.5
X106.0Y-109.5
X106.0Y-110.5
X106.0Y-137.5
X106.0Y-138.5
X106.5Y-112.2
X107.0Y-67.0
X107.0Y-68.0
X107.0Y-76.2
X107.0Y-77.8
X107.0Y-91.2
X107.0Y-92.8
X107.0Y-100.5
X107.0Y-101.5
X107.0Y-102.5
X107.0Y-108.5
X107.0Y-109.5
X107.0Y-110.5
X107.0Y-137.5
X107.0Y-138.5
X107.2Y-107.2
X107.25Y-105.0
X107.3Y-103.7
X107.8Y-126.5
X107.8Y-132.5
X108.0Y-67.0
X108.0Y-68.0
X108.0Y-76.2
X108.0Y-77.8
X108.0Y-91.2
X108.0Y-92.8
X108.0Y-100.5
X108.0Y-101.5
X108.0Y-102.5
X108.0Y-108.5
X108.0Y-109.5
X108.0Y-110.5
X108.0Y-137.5
X108.0Y-138.5
X108.7Y-107.2
X108.75Y-105.0
X108.8Y-103.7
X109.0Y-67.0
X109.0Y-68.0
X109.0Y-76.2
X109.0Y-77.8
X109.0Y-91.2
X109.0Y-92.8
X109.0Y-100.5
X109.0Y-101.5
X109.0Y-102.5
X109.0Y-108.5
X109.0Y-109.5
X109.0Y-110.5
X109.0Y-137.5
X109.0Y-138.5
X110.0Y-67.0
X110.0Y-68.0
X110.0Y-76.2
X110.0Y-77.8
X110.0Y-91.2
X110.0Y-92.8
X110.0Y-100.5
X110.0Y-101.5
X110.0Y-102.5
X110.0Y-108.5
X110.0Y-109.5
X110.0Y-110.5
X110.0Y-137.5
X110.0Y-138.5
X110.2Y-107.2
X110.25Y-105.0
X110.3Y-103.7
X111.0Y-67.0
X111.0Y-68.0
X111.0Y-76.2
X111.0Y-77.8
X111.0Y-91.2
X111.0Y-92.8
X111.0Y-100.5
X111.0Y-101.5
X111.0Y-102.5
X111.0Y-108.5
X111.0Y-109.5
X111.0Y-110.5
X111.0Y-137.5
X111.0Y-138.5
X111.7Y-107.2
X111.75Y-105.0
X111.8Y-103.7
X112.0Y-67.0
X112.0Y-68.0
X112.0Y-76.2
X112.0Y-77.8
X112.0Y-91.2
X112.0Y-92.8
X112.0Y-100.5
X112.0Y-101.5
X112.0Y-102.5
X112.0Y-108.5
X112.0Y-109.5
X112.0Y-110.5
X112.0Y-137.5
X112.0Y-138.5
X112.7Y-98.8
X113.0Y-67.0
X113.0Y-68.0
X113.0Y-76.2
X113.0Y-77.8
X113.0Y-91.2
X113.0Y-92.8
X113.0Y-100.5
X113.0Y-101.5
X113.0Y-102.5
X113.0Y-108.5
X113.0Y-109.5
X113.0Y-110.5
X113.0Y-137.5
X113.0Y-138.5
X113.2Y-99.3
X113.2Y-107.2
X113.25Y-105.0
X113.3Y-103.7
X114.0Y-67.0
X114.0Y-68.0
X114.0Y-76.2
X114.0Y-77.8
X114.0Y-91.2
X114.0Y-92.8
X114.0Y-100.5
X114.0Y-101.5
X114.0Y-102.5
X114.0Y-108.5
X114.0Y-109.5
X114.0Y-110.5
X114.0Y-137.5
X114.0Y-138.5
X114.7Y-103.9
X114.7Y-105.1
X114.9Y-134.4
X114.9Y-135.1
X114.9Y-135.8
X115.0Y-67.0
X115.0Y-68.0
X115.0Y-76.2
X115.0Y-77.8
X115.0Y-91.2
X115.0Y-92.8
X115.0Y-100.5
X115.0Y-101.5
X115.0Y-102.5
X115.0Y-108.5
X115.0Y-109.5
X115.0Y-110.5
X115.0Y-137.5
X115.0Y-138.5
X115.4Y-106.2
X115.5Y-104.2
X115.5Y-107.4
X115.8Y-134.0
X115.9Y-75.1
X115.9Y-90.3
X116.0Y-67.0
X116.0Y-68.0
X116.0Y-76.2
X116.0Y-77.8
X116.0Y-91.2
X116.0Y-92.8
X116.0Y-101.5
X116.0Y-102.5
X116.0Y-108.5
X116.0Y-109.5
X116.0Y-110.5
X116.0Y-137.5
X116.0Y-138.5
X116.1Y-74.2
X116.1Y-89.3
X116.3Y-73.6
X116.3Y-88.7
X116.3Y-104.2
X116.4Y-106.8
X116.5Y-112.3
X116.5Y-119.2
X116.8Y-134.0
X116.9Y-73.4
X116.9Y-88.5
X117.0Y-67.0
X117.0Y-68.0
X117.0Y-76.2
X117.0Y-77.8
X117.0Y-91.2
X117.0Y-92.8
X117.0Y-101.5
X117.0Y-102.5
X117.0Y-108.5
X117.0Y-109.5
X117.0Y-110.5
X117.0Y-137.5
X117.0Y-138.5
X117.5Y-73.6
X117.5Y-88.7
X117.5Y-106.9
X117.7Y-74.2
X117.7Y-89.3
X117.8Y-95.7
X118.0Y-67.0
X118.0Y-68.0
X118.0Y-94.25
X118.0Y-95.0
X118.0Y-101.5
X118.0Y-102.5
X118.0Y-108.5
X118.0Y-109.5
X118.0Y-110.5
X118.0Y-137.5
X118.0Y-138.5
X118.3Y-96.3
X118.5Y-79.5
X118.5Y-80.6
X118.5Y-81.6
X118.5Y-82.6
X118.5Y-83.6
X118.5Y-112.3
X118.5Y-119.2
X118.6Y-106.9
X118.75Y-95.5
X118.9Y-84.5
X118.9Y-92.0
X118.95Y-75.7
X118.95Y-76.75
X118.95Y-77.8
X118.95Y-90.7
X119.0Y-67.0
X119.0Y-68.0
X119.0Y-101.5
X119.0Y-102.5
X119.0Y-108.5
X119.0Y-109.5
X119.0Y-110.5
X119.0Y-137.5
X119.0Y-138.5
X119.2Y-96.3
X119.5Y-73.3
X119.5Y-74.0
X119.5Y-85.1
X119.5Y-86.0
X119.5Y-87.0
X119.5Y-88.0
X119.5Y-89.0
X119.6Y-91.3
X119.6Y-106.9
X119.75Y-95.55
X120.0Y-67.0
X120.0Y-68.0
X120.0Y-72.7
X120.0Y-75.7
X120.0Y-76.75
X120.0Y-77.8
X120.0Y-80.6
X120.0Y-80.6
X120.0Y-81.6
X120.0Y-82.6
X120.0Y-83.4
X120.0Y-101.5
X120.0Y-102.5
X120.0Y-108.5
X120.0Y-109.5
X120.0Y-110.5
X120.0Y-137.5
X120.0Y-138.5
X120.2Y-90.7
X120.2Y-92.85
X120.2Y-121.4
X120.2Y-122.2
X120.4Y-96.2
X120.5Y-72.2
X120.6Y-104.8
X120.6Y-106.9
X120.7Y-84.1
X120.7Y-120.8
X120.8Y-116.4
X121.0Y-67.0
X121.0Y-68.0
X121.0Y-74.0
X121.0Y-79.4
X121.0Y-81.4
X121.0Y-85.0
X121.0Y-86.0
X121.0Y-87.0
X121.0Y-88.0
X121.0Y-89.0
X121.0Y-96.8
X121.0Y-101.5
X121.0Y-102.5
X121.0Y-108.5
X121.0Y-109.5
X121.0Y-110.5
X121.0Y-119.2
X121.0Y-137.5
X121.0Y-138.5
X121.05Y-75.7
X121.05Y-76.75
X121.05Y-77.8
X121.05Y-92.0
X121.05Y-92.8
X121.1Y-107.4
X121.2Y-125.0
X121.25Y-72.0
X121.3Y-73.5
X121.3Y-95.0
X121.6Y-130.2
X121.7Y-87.5
X121.7Y-117.2
X121.7Y-119.2
X122.0Y-67.0
X122.0Y-68.0
X122.0Y-72.0
X122.0Y-73.5
X122.0Y-79.8
X122.0Y-81.4
X122.0Y-95.5
X122.0Y-97.0
X122.0Y-101.5
X122.0Y-102.5
X122.0Y-108.5
X122.0Y-109.5
X122.0Y-110.5
X122.0Y-137.5
X122.0Y-138.5
X122.2Y-88.7
X122.4Y-119.2
X122.8Y-114.6
X122.805Y-75.701
X122.805Y-90.701
X122.9Y-88.0
X123.0Y-67.0
X123.0Y-68.0
X123.0Y-72.0
X123.0Y-73.5
X123.0Y-79.8
X123.0Y-81.4
X123.0Y-95.5
X123.0Y-97.0
X123.0Y-101.5
X123.0Y-102.5
X123.0Y-108.5
X123.0Y-109.5
X123.0Y-110.5
X123.0Y-125.0
X123.0Y-125.71
X123.0Y-138.5
X123.2Y-123.4
X123.23Y-76.257
X123.23Y-91.257
X123.3Y-89.8
X123.3Y-129.7
X123.542Y-76.884
X123.542Y-91.884
X123.6Y-87.3
X123.7Y-81.8
X123.7Y-118.7
X124.0Y-67.0
X124.0Y-68.0
X124.0Y-72.0
X124.0Y-73.5
X124.0Y-79.9
X124.0Y-89.1
X124.0Y-95.5
X124.0Y-97.0
X124.0Y-101.5
X124.0Y-102.5
X124.0Y-108.5
X124.0Y-109.5
X124.0Y-110.5
X124.0Y-116.5
X124.0Y-137.5
X124.0Y-138.5
X124.1Y-113.4
X124.3Y-82.4
X124.3Y-86.6
X124.3Y-126.8
X124.4Y-120.4
X124.7Y-80.6
X124.7Y-88.4
X124.7Y-116.1
X125.0Y-67.0
X125.0Y-68.0
X125.0Y-72.0
X125.0Y-73.5
X125.0Y-83.1
X125.0Y-85.9
X125.0Y-95.5
X125.0Y-97.0
X125.0Y-101.5
X125.0Y-102.5
X125.0Y-108.5
X125.0Y-109.5
X125.0Y-110.5
X125.0Y-137.5
X125.0Y-138.5
X125.3Y-126.8
X125.4Y-81.3
X125.4Y-87.7
X125.5Y-114.7
X125.7Y-83.8
X125.7Y-85.2
X126.0Y-67.0
X126.0Y-68.0
X126.0Y-72.0
X126.0Y-73.5
X126.0Y-95.5
X126.0Y-97.0
X126.0Y-101.5
X126.0Y-102.5
X126.0Y-108.5
X126.0Y-109.5
X126.0Y-110.5
X126.0Y-137.5
X126.0Y-138.5
X126.1Y-82.0
X126.1Y-87.0
X126.3Y-119.0
X126.3Y-119.8
X126.3Y-126.8
X126.4Y-84.5
X126.4Y-121.0
X126.7Y-120.4
X126.8Y-82.7
X126.8Y-86.3
X126.8Y-118.4
X126.9Y-81.7
X127.0Y-67.0
X127.0Y-68.0
X127.0Y-72.0
X127.0Y-73.5
X127.0Y-95.5
X127.0Y-97.0
X127.0Y-101.5
X127.0Y-102.5
X127.0Y-108.5
X127.0Y-109.5
X127.0Y-110.5
X127.0Y-137.5
X127.0Y-138.5
X127.2Y-112.2
X127.4Y-113.7
X127.5Y-81.7
X127.5Y-83.4
X127.5Y-85.6
X127.5Y-107.3
X127.5Y-118.4
X127.5Y-119.3
X127.5Y-120.6
X127.5Y-121.9
X127.5Y-122.7
X127.9Y-112.2
X128.0Y-67.0
X128.0Y-68.0
X128.0Y-72.0
X128.0Y-73.5
X128.0Y-95.5
X128.0Y-97.0
X128.0Y-101.5
X128.0Y-102.5
X128.0Y-108.5
X128.0Y-109.5
X128.0Y-110.5
X128.0Y-137.5
X128.0Y-138.5
X128.1Y-118.0
X128.15Y-81.7
X128.2Y-82.7
X128.2Y-86.3
X128.4Y-113.7
X128.4Y-123.2
X128.5Y-107.3
X128.6Y-84.5
X128.6Y-112.2
X128.8Y-118.0
X128.8Y-119.3
X128.8Y-120.6
X128.8Y-121.9
X128.8Y-126.8
X128.9Y-82.0
X128.9Y-87.0
X129.0Y-67.0
X129.0Y-68.0
X129.0Y-72.0
X129.0Y-73.5
X129.0Y-95.5
X129.0Y-97.0
X129.0Y-101.5
X129.0Y-102.5
X129.0Y-108.5
X129.0Y-109.5
X129.0Y-110.5
X129.0Y-137.5
X129.0Y-138.5
X129.3Y-83.8
X129.3Y-85.2
X129.5Y-107.3
X129.5Y-115.2
X129.6Y-81.3
X129.6Y-87.7
X129.65Y-89.35
X129.9Y-126.9
X130.0Y-67.0
X130.0Y-68.0
X130.0Y-72.0
X130.0Y-73.5
X130.0Y-83.1
X130.0Y-85.9
X130.0Y-95.5
X130.0Y-97.0
X130.0Y-101.5
X130.0Y-102.5
X130.0Y-108.5
X130.0Y-109.5
X130.0Y-110.5
X130.0Y-137.5
X130.0Y-138.5
X130.003Y-116.203
X130.1Y-119.3
X130.1Y-120.6
X130.1Y-121.9
X130.2Y-84.55
X130.3Y-80.6
X130.5Y-88.6
X130.5Y-123.1
X130.7Y-82.4
X130.7Y-86.6
X130.7Y-103.6
X130.7Y-104.5
X130.8Y-115.6
X130.95Y-84.55
X131.0Y-67.0
X131.0Y-68.0
X131.0Y-72.0
X131.0Y-73.5
X131.0Y-95.5
X131.0Y-97.0
X131.0Y-101.5
X131.0Y-102.5
X131.0Y-108.5
X131.0Y-109.5
X131.0Y-110.5
X131.0Y-137.5
X131.0Y-138.5
X131.15Y-89.2
X131.25Y-79.65
X131.3Y-116.1
X131.3Y-118.7
X131.3Y-119.6
X131.3Y-120.3
X131.3Y-123.1
X131.4Y-81.7
X131.458Y-77.116
X131.458Y-92.116
X131.7Y-84.55
X131.77Y-77.743
X131.77Y-92.743
X131.9Y-129.7
X131.95Y-78.95
X132.0Y-67.0
X132.0Y-68.0
X132.0Y-72.0
X132.0Y-73.5
X132.0Y-87.6
X132.0Y-89.2
X132.0Y-95.5
X132.0Y-97.0
X132.0Y-101.5
X132.0Y-102.5
X132.0Y-108.5
X132.0Y-109.5
X132.0Y-110.5
X132.0Y-138.5
X132.1Y-116.1
X132.195Y-78.299
X132.195Y-93.299
X132.35Y-80.75
X132.6Y-82.5
X133.0Y-67.0
X133.0Y-68.0
X133.0Y-72.0
X133.0Y-73.5
X133.0Y-87.6
X133.0Y-89.2
X133.0Y-95.5
X133.0Y-97.0
X133.0Y-101.5
X133.0Y-102.5
X133.0Y-108.5
X133.0Y-109.5
X133.0Y-110.5
X133.0Y-137.5
X133.0Y-138.5
X133.05Y-80.05
X133.4Y-112.8
X133.4Y-113.7
X133.4Y-129.7
X133.6Y-133.4
X133.7Y-74.0
X133.7Y-95.5
X133.75Y-97.0
X133.9Y-77.0
X133.9Y-89.5
X133.95Y-76.2
X133.95Y-91.2
X133.95Y-92.25
X133.95Y-93.3
X134.0Y-67.0
X134.0Y-68.0
X134.0Y-72.2
X134.0Y-80.0
X134.0Y-81.0
X134.0Y-82.0
X134.0Y-83.0
X134.0Y-84.0
X134.0Y-87.6
X134.0Y-95.0
X134.0Y-101.5
X134.0Y-102.5
X134.0Y-108.5
X134.0Y-109.5
X134.0Y-110.5
X134.0Y-137.5
X134.0Y-138.5
X134.3Y-84.9
X134.5Y-96.8
X134.6Y-72.8
X134.7Y-76.2
X134.8Y-78.3
X135.0Y-67.0
X135.0Y-68.0
X135.0Y-85.6
X135.0Y-86.4
X135.0Y-87.4
X135.0Y-88.4
X135.0Y-91.2
X135.0Y-92.25
X135.0Y-93.3
X135.0Y-96.3
X135.0Y-101.5
X135.0Y-102.5
X135.0Y-108.5
X135.0Y-109.5
X135.0Y-110.5
X135.0Y-137.5
X135.0Y-138.5
X135.2Y-119.6
X135.2Y-123.4
X135.25Y-73.45
X135.3Y-103.6
X135.3Y-104.4
X135.5Y-77.6
X135.5Y-80.0
X135.5Y-81.0
X135.5Y-82.0
X135.5Y-83.0
X135.5Y-83.9
X135.5Y-95.0
X135.5Y-95.7
X135.7Y-116.7
X135.7Y-117.7
X135.7Y-118.7
X135.8Y-72.7
X135.9Y-124.9
X136.0Y-67.0
X136.0Y-68.0
X136.0Y-101.5
X136.0Y-102.5
X136.0Y-108.5
X136.0Y-109.5
X136.0Y-110.5
X136.0Y-137.5
X136.0Y-138.5
X136.05Y-78.3
X136.05Y-91.2
X136.05Y-92.25
X136.05Y-93.3
X136.1Y-77.0
X136.1Y-84.5
X136.25Y-73.5
X136.5Y-85.4
X136.5Y-86.4
X136.5Y-87.4
X136.5Y-88.4
X136.5Y-89.5
X136.7Y-72.7
X136.7Y-104.4
X136.8Y-132.4
X136.8Y-133.4
X137.0Y-67.0
X137.0Y-68.0
X137.0Y-74.0
X137.0Y-74.75
X137.0Y-101.5
X137.0Y-102.5
X137.0Y-108.5
X137.0Y-109.5
X137.0Y-110.5
X137.0Y-137.5
X137.0Y-138.5
X137.1Y-116.2
X137.2Y-73.3
X137.3Y-79.8
X137.3Y-94.8
X137.3Y-103.6
X137.4Y-118.8
X137.5Y-80.4
X137.5Y-95.4
X138.0Y-67.0
X138.0Y-68.0
X138.0Y-76.2
X138.0Y-77.8
X138.0Y-91.2
X138.0Y-92.8
X138.0Y-101.5
X138.0Y-102.5
X138.0Y-108.5
X138.0Y-109.5
X138.0Y-110.5
X138.0Y-124.9
X138.0Y-137.5
X138.0Y-138.5
X138.1Y-80.6
X138.1Y-95.6
X138.4Y-118.8
X138.7Y-80.4
X138.7Y-95.4
X138.9Y-79.8
X138.9Y-94.8
X138.9Y-103.6
X139.0Y-67.0
X139.0Y-68.0
X139.0Y-76.2
X139.0Y-77.8
X139.0Y-91.2
X139.0Y-92.8
X139.0Y-101.5
X139.0Y-102.5
X139.0Y-108.5
X139.0Y-109.5
X139.0Y-110.5
X139.0Y-137.5
X139.0Y-138.5
X139.1Y-78.7
X139.1Y-94.0
X139.1Y-105.3
X139.1Y-107.4
X139.3Y-132.5
X139.588Y-112.212
X140.0Y-67.0
X140.0Y-68.0
X140.0Y-76.2
X140.0Y-77.8
X140.0Y-91.2
X140.0Y-92.8
X140.0Y-100.5
X140.0Y-101.5
X140.0Y-102.5
X140.0Y-108.5
X140.0Y-109.5
X140.0Y-110.5
X140.0Y-137.5
X140.0Y-138.5
X140.4Y-118.7
X140.997Y-119.497
X141.0Y-67.0
X141.0Y-68.0
X141.0Y-76.2
X141.0Y-77.8
X141.0Y-91.2
X141.0Y-92.8
X141.0Y-100.5
X141.0Y-101.5
X141.0Y-102.5
X141.0Y-108.5
X141.0Y-109.5
X141.0Y-110.5
X141.0Y-137.5
X141.0Y-138.5
X141.5Y-104.8
X141.5Y-106.2
X141.6Y-127.2
X141.7Y-99.4
X141.7Y-103.6
X141.8Y-107.2
X142.0Y-67.0
X142.0Y-68.0
X142.0Y-76.2
X142.0Y-77.8
X142.0Y-91.2
X142.0Y-92.8
X142.0Y-100.5
X142.0Y-101.5
X142.0Y-102.5
X142.0Y-108.5
X142.0Y-109.5
X142.0Y-110.5
X142.0Y-137.5
X142.0Y-138.5
X142.4Y-98.7
X142.7Y-114.4
X142.8Y-126.6
X142.9Y-132.5
X143.0Y-67.0
X143.0Y-68.0
X143.0Y-76.2
X143.0Y-77.8
X143.0Y-91.2
X143.0Y-92.8
X143.0Y-100.5
X143.0Y-101.5
X143.0Y-102.5
X143.0Y-108.5
X143.0Y-109.5
X143.0Y-110.5
X143.0Y-137.5
X143.0Y-138.5
X143.2Y-103.7
X143.25Y-105.0
X143.3Y-107.2
X143.6Y-123.5
X143.7Y-99.4
X144.0Y-67.0
X144.0Y-68.0
X144.0Y-76.2
X144.0Y-77.8
X144.0Y-91.2
X144.0Y-92.8
X144.0Y-100.5
X144.0Y-101.5
X144.0Y-102.5
X144.0Y-108.5
X144.0Y-109.5
X144.0Y-110.5
X144.0Y-137.5
X144.0Y-138.5
X144.7Y-103.7
X144.75Y-105.0
X144.8Y-107.2
X145.0Y-67.0
X145.0Y-68.0
X145.0Y-76.2
X145.0Y-77.8
X145.0Y-91.2
X145.0Y-92.8
X145.0Y-100.5
X145.0Y-101.5
X145.0Y-102.5
X145.0Y-108.5
X145.0Y-109.5
X145.0Y-110.5
X145.0Y-137.5
X145.0Y-138.5
X145.588Y-112.212
X146.0Y-67.0
X146.0Y-68.0
X146.0Y-76.2
X146.0Y-77.8
X146.0Y-91.2
X146.0Y-92.8
X146.0Y-100.5
X146.0Y-101.5
X146.0Y-102.5
X146.0Y-108.5
X146.0Y-109.5
X146.0Y-110.5
X146.0Y-137.5
X146.0Y-138.5
X146.2Y-103.7
X146.25Y-105.0
X146.3Y-107.2
X147.0Y-67.0
X147.0Y-68.0
X147.0Y-76.2
X147.0Y-77.8
X147.0Y-91.2
X147.0Y-92.8
X147.0Y-100.5
X147.0Y-101.5
X147.0Y-102.5
X147.0Y-108.5
X147.0Y-109.5
X147.0Y-110.5
X147.0Y-137.5
X147.0Y-138.5
X147.7Y-103.7
X147.75Y-105.0
X147.8Y-107.2
X148.0Y-67.0
X148.0Y-68.0
X148.0Y-76.2
X148.0Y-77.8
X148.0Y-91.2
X148.0Y-92.8
X148.0Y-100.5
X148.0Y-101.5
X148.0Y-102.5
X148.0Y-108.5
X148.0Y-109.5
X148.0Y-110.5
X148.0Y-137.5
X148.0Y-138.5
X149.0Y-67.0
X149.0Y-68.0
X149.0Y-76.2
X149.0Y-77.8
X149.0Y-91.2
X149.0Y-92.8
X149.0Y-100.5
X149.0Y-101.5
X149.0Y-102.5
X149.0Y-108.5
X149.0Y-109.5
X149.0Y-110.5
X149.0Y-137.5
X149.0Y-138.5
X149.2Y-103.7
X149.25Y-105.0
X149.3Y-107.2
X150.0Y-76.2
X150.0Y-77.8
X150.0Y-91.2
X150.0Y-92.8
X150.0Y-100.5
X150.0Y-101.5
X150.0Y-102.5
X150.0Y-108.5
X150.0Y-109.5
X150.0Y-110.5
X150.8Y-103.7
X150.8Y-105.0
X151.0Y-102.5
X151.0Y-108.5
X151.0Y-109.5
X151.0Y-110.5
X152.0Y-102.5
X152.0Y-108.5
X152.0Y-109.5
X152.0Y-110.5
X152.1Y-76.2
X152.1Y-77.8
X152.1Y-91.2
X152.1Y-92.8
X152.998Y-116.404
X152.998Y-117.404
X152.998Y-118.404
X152.998Y-119.404
X152.998Y-120.404
X152.998Y-121.404
X152.998Y-122.404
X152.998Y-123.404
X152.998Y-124.404
X153.0Y-72.5
X153.0Y-73.5
X153.0Y-80.5
X153.0Y-81.5
X153.0Y-82.5
X153.0Y-83.5
X153.0Y-84.5
X153.0Y-85.5
X153.0Y-86.5
X153.0Y-87.5
X153.0Y-88.5
X153.0Y-95.5
X153.0Y-96.5
X153.0Y-97.5
X153.0Y-102.5
X153.0Y-103.5
X153.0Y-104.5
X153.0Y-105.5
X153.0Y-106.5
X153.0Y-107.5
X153.0Y-108.5
X153.0Y-109.5
X153.0Y-110.5
X153.0Y-111.5
X153.0Y-112.5
X153.0Y-113.5
X153.0Y-114.5
X153.0Y-115.5
X153.0Y-125.5
X153.0Y-126.5
X153.0Y-127.5
X153.0Y-128.5
X153.0Y-129.5
X153.0Y-130.5
X153.0Y-131.5
X153.0Y-132.5
X153.0Y-133.5
X153.998Y-116.404
X153.998Y-117.404
X153.998Y-118.404
X153.998Y-119.404
X153.998Y-120.404
X153.998Y-121.404
X153.998Y-122.404
X153.998Y-123.404
X153.998Y-124.404
X154.0Y-72.5
X154.0Y-73.5
X154.0Y-80.5
X154.0Y-81.5
X154.0Y-82.5
X154.0Y-83.5
X154.0Y-84.5
X154.0Y-85.5
X154.0Y-86.5
X154.0Y-87.5
X154.0Y-88.5
X154.0Y-95.5
X154.0Y-96.5
X154.0Y-97.5
X154.0Y-98.5
X154.0Y-99.5
X154.0Y-100.5
X154.0Y-101.5
X154.0Y-102.5
X154.0Y-103.5
X154.0Y-104.5
X154.0Y-105.5
X154.0Y-106.5
X154.0Y-107.5
X154.0Y-108.5
X154.0Y-109.5
X154.0Y-110.5
X154.0Y-111.5
X154.0Y-112.5
X154.0Y-113.5
X154.0Y-114.5
X154.0Y-115.5
X154.0Y-125.5
X154.0Y-126.5
X154.0Y-127.5
X154.0Y-128.5
X154.0Y-129.5
X154.0Y-130.5
X154.0Y-131.5
X154.0Y-132.5
X154.0Y-133.5
X154.4Y-76.2
X154.4Y-77.8
X154.4Y-91.2
X154.4Y-92.8
T3
X101.75Y-75.78
X101.75Y-78.22
X101.75Y-90.78
X101.75Y-93.22
X103.96Y-75.78
X103.96Y-78.22
X103.96Y-90.78
X103.96Y-93.22
X151.04Y-75.78
X151.04Y-78.22
X151.04Y-90.78
X151.04Y-93.22
X153.25Y-75.78
X153.25Y-78.22
X153.25Y-90.78
X153.25Y-93.22
T4
X103.0Y-69.0
X103.0Y-100.0
X103.0Y-136.5
X152.0Y-69.0
X152.0Y-100.0
X152.0Y-136.5
T2
G00X123.18Y-131.82
M15
G01X123.18Y-132.92
M16
G05
G00X123.18Y-136.25
M15
G01X123.18Y-136.85
M16
G05
G00X131.82Y-131.82
M15
G01X131.82Y-132.92
M16
G05
G00X131.82Y-136.25
M15
G01X131.82Y-136.85
M16
G05
T0
M30
