G04 #@! TF.GenerationSoftware,KiCad,Pcbnew,7.0.8-7.0.8~ubuntu22.04.1*
G04 #@! TF.CreationDate,2023-11-30T18:16:29+01:00*
G04 #@! TF.ProjectId,LibreCAL,4c696272-6543-4414-9c2e-6b696361645f,B*
G04 #@! TF.SameCoordinates,Original*
G04 #@! TF.FileFunction,Paste,Top*
G04 #@! TF.FilePolarity,Positive*
%FSLAX46Y46*%
G04 Gerber Fmt 4.6, Leading zero omitted, Abs format (unit mm)*
G04 Created by KiCad (PCBNEW 7.0.8-7.0.8~ubuntu22.04.1) date 2023-11-30 18:16:29*
%MOMM*%
%LPD*%
G01*
G04 APERTURE LIST*
G04 Aperture macros list*
%AMRoundRect*
0 Rectangle with rounded corners*
0 $1 Rounding radius*
0 $2 $3 $4 $5 $6 $7 $8 $9 X,Y pos of 4 corners*
0 Add a 4 corners polygon primitive as box body*
4,1,4,$2,$3,$4,$5,$6,$7,$8,$9,$2,$3,0*
0 Add four circle primitives for the rounded corners*
1,1,$1+$1,$2,$3*
1,1,$1+$1,$4,$5*
1,1,$1+$1,$6,$7*
1,1,$1+$1,$8,$9*
0 Add four rect primitives between the rounded corners*
20,1,$1+$1,$2,$3,$4,$5,0*
20,1,$1+$1,$4,$5,$6,$7,0*
20,1,$1+$1,$6,$7,$8,$9,0*
20,1,$1+$1,$8,$9,$2,$3,0*%
G04 Aperture macros list end*
%ADD10RoundRect,0.135000X0.185000X-0.135000X0.185000X0.135000X-0.185000X0.135000X-0.185000X-0.135000X0*%
%ADD11RoundRect,0.140000X-0.170000X0.140000X-0.170000X-0.140000X0.170000X-0.140000X0.170000X0.140000X0*%
%ADD12RoundRect,0.140000X0.170000X-0.140000X0.170000X0.140000X-0.170000X0.140000X-0.170000X-0.140000X0*%
%ADD13RoundRect,0.090000X-0.210000X0.210000X-0.210000X-0.210000X0.210000X-0.210000X0.210000X0.210000X0*%
%ADD14RoundRect,0.100000X-0.100000X0.100000X-0.100000X-0.100000X0.100000X-0.100000X0.100000X0.100000X0*%
%ADD15RoundRect,0.140000X-0.140000X-0.170000X0.140000X-0.170000X0.140000X0.170000X-0.140000X0.170000X0*%
%ADD16RoundRect,0.090000X0.310000X-0.210000X0.310000X0.210000X-0.310000X0.210000X-0.310000X-0.210000X0*%
%ADD17RoundRect,0.150000X0.150000X-0.150000X0.150000X0.150000X-0.150000X0.150000X-0.150000X-0.150000X0*%
%ADD18R,0.600000X1.450000*%
%ADD19R,0.300000X1.450000*%
%ADD20RoundRect,0.150000X0.825000X0.150000X-0.825000X0.150000X-0.825000X-0.150000X0.825000X-0.150000X0*%
%ADD21RoundRect,0.135000X-0.185000X0.135000X-0.185000X-0.135000X0.185000X-0.135000X0.185000X0.135000X0*%
%ADD22RoundRect,0.250000X-0.295000X0.295000X-0.295000X-0.295000X0.295000X-0.295000X0.295000X0.295000X0*%
%ADD23RoundRect,0.062500X-0.062500X0.350000X-0.062500X-0.350000X0.062500X-0.350000X0.062500X0.350000X0*%
%ADD24RoundRect,0.062500X-0.350000X0.062500X-0.350000X-0.062500X0.350000X-0.062500X0.350000X0.062500X0*%
%ADD25RoundRect,0.140000X0.140000X0.170000X-0.140000X0.170000X-0.140000X-0.170000X0.140000X-0.170000X0*%
%ADD26RoundRect,0.075000X-0.425000X-0.075000X0.425000X-0.075000X0.425000X0.075000X-0.425000X0.075000X0*%
%ADD27R,5.540000X3.555000*%
%ADD28RoundRect,0.075000X0.425000X0.075000X-0.425000X0.075000X-0.425000X-0.075000X0.425000X-0.075000X0*%
%ADD29RoundRect,0.135000X-0.135000X-0.185000X0.135000X-0.185000X0.135000X0.185000X-0.135000X0.185000X0*%
%ADD30RoundRect,0.150000X0.150000X-0.650000X0.150000X0.650000X-0.150000X0.650000X-0.150000X-0.650000X0*%
%ADD31RoundRect,0.147500X-0.172500X0.147500X-0.172500X-0.147500X0.172500X-0.147500X0.172500X0.147500X0*%
%ADD32RoundRect,0.147500X-0.147500X-0.172500X0.147500X-0.172500X0.147500X0.172500X-0.147500X0.172500X0*%
%ADD33RoundRect,0.250000X0.295000X-0.295000X0.295000X0.295000X-0.295000X0.295000X-0.295000X-0.295000X0*%
%ADD34RoundRect,0.062500X0.062500X-0.350000X0.062500X0.350000X-0.062500X0.350000X-0.062500X-0.350000X0*%
%ADD35RoundRect,0.062500X0.350000X-0.062500X0.350000X0.062500X-0.350000X0.062500X-0.350000X-0.062500X0*%
%ADD36RoundRect,0.090000X0.210000X-0.210000X0.210000X0.210000X-0.210000X0.210000X-0.210000X-0.210000X0*%
%ADD37RoundRect,0.100000X0.100000X-0.100000X0.100000X0.100000X-0.100000X0.100000X-0.100000X-0.100000X0*%
%ADD38RoundRect,0.060000X0.130000X-0.060000X0.130000X0.060000X-0.130000X0.060000X-0.130000X-0.060000X0*%
%ADD39RoundRect,0.045000X0.045000X-0.130000X0.045000X0.130000X-0.045000X0.130000X-0.045000X-0.130000X0*%
%ADD40RoundRect,0.135000X0.135000X0.185000X-0.135000X0.185000X-0.135000X-0.185000X0.135000X-0.185000X0*%
%ADD41RoundRect,0.150000X0.587500X0.150000X-0.587500X0.150000X-0.587500X-0.150000X0.587500X-0.150000X0*%
%ADD42RoundRect,0.250000X0.475000X-0.250000X0.475000X0.250000X-0.475000X0.250000X-0.475000X-0.250000X0*%
%ADD43R,1.000000X1.150000*%
%ADD44RoundRect,0.090000X-0.210000X-0.210000X0.210000X-0.210000X0.210000X0.210000X-0.210000X0.210000X0*%
%ADD45RoundRect,0.100000X-0.100000X-0.100000X0.100000X-0.100000X0.100000X0.100000X-0.100000X0.100000X0*%
%ADD46RoundRect,0.147500X0.172500X-0.147500X0.172500X0.147500X-0.172500X0.147500X-0.172500X-0.147500X0*%
%ADD47RoundRect,0.250000X0.315000X0.315000X-0.315000X0.315000X-0.315000X-0.315000X0.315000X-0.315000X0*%
%ADD48RoundRect,0.050000X0.387500X0.050000X-0.387500X0.050000X-0.387500X-0.050000X0.387500X-0.050000X0*%
%ADD49RoundRect,0.050000X0.050000X0.387500X-0.050000X0.387500X-0.050000X-0.387500X0.050000X-0.387500X0*%
%ADD50RoundRect,0.150000X0.512500X0.150000X-0.512500X0.150000X-0.512500X-0.150000X0.512500X-0.150000X0*%
G04 APERTURE END LIST*
D10*
G04 #@! TO.C,R10*
X108000000Y-107210000D03*
X108000000Y-106190000D03*
G04 #@! TD*
D11*
G04 #@! TO.C,C19*
X129400000Y-125320000D03*
X129400000Y-126280000D03*
G04 #@! TD*
D12*
G04 #@! TO.C,C11*
X121600000Y-131980000D03*
X121600000Y-131020000D03*
G04 #@! TD*
D13*
G04 #@! TO.C,C45*
X142500000Y-103700000D03*
D14*
X142900000Y-104500000D03*
X142100000Y-104500000D03*
D13*
X142500000Y-105300000D03*
G04 #@! TD*
D11*
G04 #@! TO.C,C27*
X121200000Y-123220000D03*
X121200000Y-124180000D03*
G04 #@! TD*
D10*
G04 #@! TO.C,R30*
X111000000Y-107210000D03*
X111000000Y-106190000D03*
G04 #@! TD*
D12*
G04 #@! TO.C,C14*
X128400000Y-115480000D03*
X128400000Y-114520000D03*
G04 #@! TD*
D15*
G04 #@! TO.C,C16*
X133420000Y-119600000D03*
X134380000Y-119600000D03*
G04 #@! TD*
G04 #@! TO.C,C10*
X135020000Y-133400000D03*
X135980000Y-133400000D03*
G04 #@! TD*
D11*
G04 #@! TO.C,C3*
X124100000Y-77645000D03*
X124100000Y-78605000D03*
G04 #@! TD*
D16*
G04 #@! TO.C,C33*
X140500000Y-106500000D03*
D17*
X139900000Y-105500000D03*
X141100000Y-105500000D03*
D16*
X140500000Y-104500000D03*
G04 #@! TD*
D13*
G04 #@! TO.C,C44*
X144000000Y-103700000D03*
D14*
X144400000Y-104500000D03*
X143600000Y-104500000D03*
D13*
X144000000Y-105300000D03*
G04 #@! TD*
D12*
G04 #@! TO.C,C17*
X127400000Y-115480000D03*
X127400000Y-114520000D03*
G04 #@! TD*
D13*
G04 #@! TO.C,C39*
X150000000Y-103700000D03*
D14*
X150400000Y-104500000D03*
X149600000Y-104500000D03*
D13*
X150000000Y-105300000D03*
G04 #@! TD*
D18*
G04 #@! TO.C,J5*
X124250000Y-131455000D03*
X125050000Y-131455000D03*
D19*
X126250000Y-131455000D03*
X127250000Y-131455000D03*
X127750000Y-131455000D03*
X128750000Y-131455000D03*
D18*
X129950000Y-131455000D03*
X130750000Y-131455000D03*
X130750000Y-131455000D03*
X129950000Y-131455000D03*
D19*
X129250000Y-131455000D03*
X128250000Y-131455000D03*
X126750000Y-131455000D03*
X125750000Y-131455000D03*
D18*
X125050000Y-131455000D03*
X124250000Y-131455000D03*
G04 #@! TD*
D13*
G04 #@! TO.C,C38*
X148500000Y-103700000D03*
D14*
X148900000Y-104500000D03*
X148100000Y-104500000D03*
D13*
X148500000Y-105300000D03*
G04 #@! TD*
G04 #@! TO.C,C41*
X111000000Y-103700000D03*
D14*
X111400000Y-104500000D03*
X110600000Y-104500000D03*
D13*
X111000000Y-105300000D03*
G04 #@! TD*
D11*
G04 #@! TO.C,C26*
X138400000Y-117020000D03*
X138400000Y-117980000D03*
G04 #@! TD*
D20*
G04 #@! TO.C,U5*
X139975000Y-131005000D03*
X139975000Y-129735000D03*
X139975000Y-128465000D03*
X139975000Y-127195000D03*
X135025000Y-127195000D03*
X135025000Y-128465000D03*
X135025000Y-129735000D03*
X135025000Y-131005000D03*
G04 #@! TD*
D12*
G04 #@! TO.C,C7*
X131900000Y-76355000D03*
X131900000Y-75395000D03*
G04 #@! TD*
D11*
G04 #@! TO.C,C13*
X132600000Y-111820000D03*
X132600000Y-112780000D03*
G04 #@! TD*
D10*
G04 #@! TO.C,R1*
X116900000Y-75210000D03*
X116900000Y-74190000D03*
G04 #@! TD*
D21*
G04 #@! TO.C,R3*
X138100000Y-78790000D03*
X138100000Y-79810000D03*
G04 #@! TD*
D13*
G04 #@! TO.C,C43*
X145500000Y-103700000D03*
D14*
X145900000Y-104500000D03*
X145100000Y-104500000D03*
D13*
X145500000Y-105300000D03*
G04 #@! TD*
D11*
G04 #@! TO.C,C30*
X119600000Y-134820000D03*
X119600000Y-135780000D03*
G04 #@! TD*
D22*
G04 #@! TO.C,U4*
X135675000Y-91575000D03*
X134325000Y-91575000D03*
X135675000Y-92925000D03*
X134325000Y-92925000D03*
D23*
X136250000Y-90287500D03*
X135750000Y-90287500D03*
X135250000Y-90287500D03*
X134750000Y-90287500D03*
X134250000Y-90287500D03*
X133750000Y-90287500D03*
D24*
X133037500Y-91000000D03*
X133037500Y-91500000D03*
X133037500Y-92000000D03*
X133037500Y-92500000D03*
X133037500Y-93000000D03*
X133037500Y-93500000D03*
D23*
X133750000Y-94212500D03*
X134250000Y-94212500D03*
X134750000Y-94212500D03*
X135250000Y-94212500D03*
X135750000Y-94212500D03*
X136250000Y-94212500D03*
D24*
X136962500Y-93500000D03*
X136962500Y-93000000D03*
X136962500Y-92500000D03*
X136962500Y-92000000D03*
X136962500Y-91500000D03*
X136962500Y-91000000D03*
G04 #@! TD*
D13*
G04 #@! TO.C,C34*
X108000000Y-103700000D03*
D14*
X108400000Y-104500000D03*
X107600000Y-104500000D03*
D13*
X108000000Y-105300000D03*
G04 #@! TD*
D25*
G04 #@! TO.C,C20*
X124180000Y-124200000D03*
X123220000Y-124200000D03*
G04 #@! TD*
D15*
G04 #@! TO.C,C9*
X135020000Y-132400000D03*
X135980000Y-132400000D03*
G04 #@! TD*
D13*
G04 #@! TO.C,C36*
X105000000Y-103700000D03*
D14*
X105400000Y-104500000D03*
X104600000Y-104500000D03*
D13*
X105000000Y-105300000D03*
G04 #@! TD*
D10*
G04 #@! TO.C,R11*
X106500000Y-107210000D03*
X106500000Y-106190000D03*
G04 #@! TD*
D11*
G04 #@! TO.C,C25*
X137400000Y-117020000D03*
X137400000Y-117980000D03*
G04 #@! TD*
D10*
G04 #@! TO.C,R25*
X105000000Y-107210000D03*
X105000000Y-106190000D03*
G04 #@! TD*
G04 #@! TO.C,R12*
X122200000Y-126210000D03*
X122200000Y-125190000D03*
G04 #@! TD*
D26*
G04 #@! TO.C,J1*
X154500000Y-77000000D03*
D27*
X152230000Y-74712500D03*
X152230000Y-79287500D03*
G04 #@! TD*
D13*
G04 #@! TO.C,C40*
X109500000Y-103700000D03*
D14*
X109900000Y-104500000D03*
X109100000Y-104500000D03*
D13*
X109500000Y-105300000D03*
G04 #@! TD*
D11*
G04 #@! TO.C,C28*
X121600000Y-134820000D03*
X121600000Y-135780000D03*
G04 #@! TD*
D28*
G04 #@! TO.C,J2*
X100500000Y-77000000D03*
D27*
X102770000Y-79287500D03*
X102770000Y-74712500D03*
G04 #@! TD*
D29*
G04 #@! TO.C,R7*
X133390000Y-124500000D03*
X134410000Y-124500000D03*
G04 #@! TD*
D10*
G04 #@! TO.C,R13*
X122200000Y-124210000D03*
X122200000Y-123190000D03*
G04 #@! TD*
D30*
G04 #@! TO.C,U8*
X139895000Y-123100000D03*
X141165000Y-123100000D03*
X142435000Y-123100000D03*
X143705000Y-123100000D03*
X143705000Y-115900000D03*
X142435000Y-115900000D03*
X141165000Y-115900000D03*
X139895000Y-115900000D03*
G04 #@! TD*
D10*
G04 #@! TO.C,R26*
X147000000Y-107210000D03*
X147000000Y-106190000D03*
G04 #@! TD*
D31*
G04 #@! TO.C,FB1*
X123800000Y-125215000D03*
X123800000Y-126185000D03*
G04 #@! TD*
G04 #@! TO.C,FB2*
X121600000Y-132915000D03*
X121600000Y-133885000D03*
G04 #@! TD*
D11*
G04 #@! TO.C,C22*
X128400000Y-125220000D03*
X128400000Y-126180000D03*
G04 #@! TD*
D10*
G04 #@! TO.C,R27*
X148500000Y-107210000D03*
X148500000Y-106190000D03*
G04 #@! TD*
D13*
G04 #@! TO.C,C37*
X147000000Y-103700000D03*
D14*
X147400000Y-104500000D03*
X146600000Y-104500000D03*
D13*
X147000000Y-105300000D03*
G04 #@! TD*
D32*
G04 #@! TO.C,FB3*
X140015000Y-107400000D03*
X140985000Y-107400000D03*
G04 #@! TD*
D12*
G04 #@! TO.C,C6*
X130900000Y-91330000D03*
X130900000Y-90370000D03*
G04 #@! TD*
D33*
G04 #@! TO.C,U1*
X119325000Y-77425000D03*
X120675000Y-77425000D03*
X119325000Y-76075000D03*
X120675000Y-76075000D03*
D34*
X118750000Y-78712500D03*
X119250000Y-78712500D03*
X119750000Y-78712500D03*
X120250000Y-78712500D03*
X120750000Y-78712500D03*
X121250000Y-78712500D03*
D35*
X121962500Y-78000000D03*
X121962500Y-77500000D03*
X121962500Y-77000000D03*
X121962500Y-76500000D03*
X121962500Y-76000000D03*
X121962500Y-75500000D03*
D34*
X121250000Y-74787500D03*
X120750000Y-74787500D03*
X120250000Y-74787500D03*
X119750000Y-74787500D03*
X119250000Y-74787500D03*
X118750000Y-74787500D03*
D35*
X118037500Y-75500000D03*
X118037500Y-76000000D03*
X118037500Y-76500000D03*
X118037500Y-77000000D03*
X118037500Y-77500000D03*
X118037500Y-78000000D03*
G04 #@! TD*
D12*
G04 #@! TO.C,C12*
X132600000Y-114680000D03*
X132600000Y-113720000D03*
G04 #@! TD*
D36*
G04 #@! TO.C,C50*
X114000000Y-105300000D03*
D37*
X113600000Y-104500000D03*
X114400000Y-104500000D03*
D36*
X114000000Y-103700000D03*
G04 #@! TD*
D11*
G04 #@! TO.C,C29*
X120600000Y-134820000D03*
X120600000Y-135780000D03*
G04 #@! TD*
D38*
G04 #@! TO.C,U9*
X117965000Y-135300000D03*
X118435000Y-135300000D03*
D39*
X117800000Y-135825000D03*
X118200000Y-135825000D03*
X118600000Y-135825000D03*
X118600000Y-134775000D03*
X118200000Y-134775000D03*
X117800000Y-134775000D03*
G04 #@! TD*
D40*
G04 #@! TO.C,R6*
X125110000Y-129700000D03*
X124090000Y-129700000D03*
G04 #@! TD*
D10*
G04 #@! TO.C,R29*
X109500000Y-107210000D03*
X109500000Y-106190000D03*
G04 #@! TD*
D11*
G04 #@! TO.C,C21*
X126800000Y-125220000D03*
X126800000Y-126180000D03*
G04 #@! TD*
D13*
G04 #@! TO.C,C35*
X106500000Y-103700000D03*
D14*
X106900000Y-104500000D03*
X106100000Y-104500000D03*
D13*
X106500000Y-105300000D03*
G04 #@! TD*
D41*
G04 #@! TO.C,Q1*
X117737500Y-105950000D03*
X117737500Y-104050000D03*
X115862500Y-105000000D03*
G04 #@! TD*
D16*
G04 #@! TO.C,C49*
X138100000Y-105600000D03*
D17*
X137500000Y-104600000D03*
X138700000Y-104600000D03*
D16*
X138100000Y-103600000D03*
G04 #@! TD*
D10*
G04 #@! TO.C,R31*
X112500000Y-107210000D03*
X112500000Y-106190000D03*
G04 #@! TD*
D32*
G04 #@! TO.C,FB4*
X140015000Y-103600000D03*
X140985000Y-103600000D03*
G04 #@! TD*
D10*
G04 #@! TO.C,R34*
X142500000Y-107210000D03*
X142500000Y-106190000D03*
G04 #@! TD*
D42*
G04 #@! TO.C,C46*
X132000000Y-105850000D03*
X132000000Y-103950000D03*
G04 #@! TD*
D29*
G04 #@! TO.C,R5*
X130090000Y-129700000D03*
X131110000Y-129700000D03*
G04 #@! TD*
D26*
G04 #@! TO.C,J3*
X154500000Y-92000000D03*
D27*
X152230000Y-89712500D03*
X152230000Y-94287500D03*
G04 #@! TD*
D10*
G04 #@! TO.C,R35*
X121900000Y-107210000D03*
X121900000Y-106190000D03*
G04 #@! TD*
D43*
G04 #@! TO.C,Y1*
X131200000Y-114175000D03*
X131200000Y-112425000D03*
X129800000Y-112425000D03*
X129800000Y-114175000D03*
G04 #@! TD*
D10*
G04 #@! TO.C,R28*
X150000000Y-107210000D03*
X150000000Y-106190000D03*
G04 #@! TD*
D22*
G04 #@! TO.C,U3*
X135675000Y-76575000D03*
X134325000Y-76575000D03*
X135675000Y-77925000D03*
X134325000Y-77925000D03*
D23*
X136250000Y-75287500D03*
X135750000Y-75287500D03*
X135250000Y-75287500D03*
X134750000Y-75287500D03*
X134250000Y-75287500D03*
X133750000Y-75287500D03*
D24*
X133037500Y-76000000D03*
X133037500Y-76500000D03*
X133037500Y-77000000D03*
X133037500Y-77500000D03*
X133037500Y-78000000D03*
X133037500Y-78500000D03*
D23*
X133750000Y-79212500D03*
X134250000Y-79212500D03*
X134750000Y-79212500D03*
X135250000Y-79212500D03*
X135750000Y-79212500D03*
X136250000Y-79212500D03*
D24*
X136962500Y-78500000D03*
X136962500Y-78000000D03*
X136962500Y-77500000D03*
X136962500Y-77000000D03*
X136962500Y-76500000D03*
X136962500Y-76000000D03*
G04 #@! TD*
D11*
G04 #@! TO.C,C1*
X123100000Y-77645000D03*
X123100000Y-78605000D03*
G04 #@! TD*
D44*
G04 #@! TO.C,C48*
X119300000Y-105900000D03*
D45*
X120100000Y-105500000D03*
X120100000Y-106300000D03*
D44*
X120900000Y-105900000D03*
G04 #@! TD*
D15*
G04 #@! TO.C,C15*
X133420000Y-123400000D03*
X134380000Y-123400000D03*
G04 #@! TD*
D10*
G04 #@! TO.C,R32*
X145500000Y-107210000D03*
X145500000Y-106190000D03*
G04 #@! TD*
D42*
G04 #@! TO.C,C47*
X134000000Y-105850000D03*
X134000000Y-103950000D03*
G04 #@! TD*
D11*
G04 #@! TO.C,C23*
X125800000Y-125220000D03*
X125800000Y-126180000D03*
G04 #@! TD*
D12*
G04 #@! TO.C,C31*
X116800000Y-135780000D03*
X116800000Y-134820000D03*
G04 #@! TD*
D11*
G04 #@! TO.C,C24*
X124800000Y-125220000D03*
X124800000Y-126180000D03*
G04 #@! TD*
D21*
G04 #@! TO.C,R36*
X114000000Y-106190000D03*
X114000000Y-107210000D03*
G04 #@! TD*
D46*
G04 #@! TO.C,FB5*
X130400000Y-107285000D03*
X130400000Y-106315000D03*
G04 #@! TD*
D28*
G04 #@! TO.C,J4*
X100500000Y-92000000D03*
D27*
X102770000Y-94287500D03*
X102770000Y-89712500D03*
G04 #@! TD*
D10*
G04 #@! TO.C,R33*
X144000000Y-107210000D03*
X144000000Y-106190000D03*
G04 #@! TD*
D11*
G04 #@! TO.C,C2*
X123100000Y-92670000D03*
X123100000Y-93630000D03*
G04 #@! TD*
D13*
G04 #@! TO.C,C42*
X112500000Y-103700000D03*
D14*
X112900000Y-104500000D03*
X112100000Y-104500000D03*
D13*
X112500000Y-105300000D03*
G04 #@! TD*
D11*
G04 #@! TO.C,C4*
X124100000Y-92670000D03*
X124100000Y-93630000D03*
G04 #@! TD*
D12*
G04 #@! TO.C,C32*
X115800000Y-135780000D03*
X115800000Y-134820000D03*
G04 #@! TD*
D10*
G04 #@! TO.C,R2*
X116900000Y-90310000D03*
X116900000Y-89290000D03*
G04 #@! TD*
D32*
G04 #@! TO.C,FB6*
X135515000Y-105600000D03*
X136485000Y-105600000D03*
G04 #@! TD*
D33*
G04 #@! TO.C,U2*
X119325000Y-92425000D03*
X120675000Y-92425000D03*
X119325000Y-91075000D03*
X120675000Y-91075000D03*
D34*
X118750000Y-93712500D03*
X119250000Y-93712500D03*
X119750000Y-93712500D03*
X120250000Y-93712500D03*
X120750000Y-93712500D03*
X121250000Y-93712500D03*
D35*
X121962500Y-93000000D03*
X121962500Y-92500000D03*
X121962500Y-92000000D03*
X121962500Y-91500000D03*
X121962500Y-91000000D03*
X121962500Y-90500000D03*
D34*
X121250000Y-89787500D03*
X120750000Y-89787500D03*
X120250000Y-89787500D03*
X119750000Y-89787500D03*
X119250000Y-89787500D03*
X118750000Y-89787500D03*
D35*
X118037500Y-90500000D03*
X118037500Y-91000000D03*
X118037500Y-91500000D03*
X118037500Y-92000000D03*
X118037500Y-92500000D03*
X118037500Y-93000000D03*
G04 #@! TD*
D12*
G04 #@! TO.C,C8*
X131900000Y-91330000D03*
X131900000Y-90370000D03*
G04 #@! TD*
G04 #@! TO.C,C5*
X130900000Y-76355000D03*
X130900000Y-75395000D03*
G04 #@! TD*
D47*
G04 #@! TO.C,U7*
X129500000Y-121300000D03*
X129500000Y-119900000D03*
X128100000Y-121300000D03*
X128100000Y-119900000D03*
D48*
X132237500Y-123200000D03*
X132237500Y-122800000D03*
X132237500Y-122400000D03*
X132237500Y-122000000D03*
X132237500Y-121600000D03*
X132237500Y-121200000D03*
X132237500Y-120800000D03*
X132237500Y-120400000D03*
X132237500Y-120000000D03*
X132237500Y-119600000D03*
X132237500Y-119200000D03*
X132237500Y-118800000D03*
X132237500Y-118400000D03*
X132237500Y-118000000D03*
D49*
X131400000Y-117162500D03*
X131000000Y-117162500D03*
X130600000Y-117162500D03*
X130200000Y-117162500D03*
X129800000Y-117162500D03*
X129400000Y-117162500D03*
X129000000Y-117162500D03*
X128600000Y-117162500D03*
X128200000Y-117162500D03*
X127800000Y-117162500D03*
X127400000Y-117162500D03*
X127000000Y-117162500D03*
X126600000Y-117162500D03*
X126200000Y-117162500D03*
D48*
X125362500Y-118000000D03*
X125362500Y-118400000D03*
X125362500Y-118800000D03*
X125362500Y-119200000D03*
X125362500Y-119600000D03*
X125362500Y-120000000D03*
X125362500Y-120400000D03*
X125362500Y-120800000D03*
X125362500Y-121200000D03*
X125362500Y-121600000D03*
X125362500Y-122000000D03*
X125362500Y-122400000D03*
X125362500Y-122800000D03*
X125362500Y-123200000D03*
D49*
X126200000Y-124037500D03*
X126600000Y-124037500D03*
X127000000Y-124037500D03*
X127400000Y-124037500D03*
X127800000Y-124037500D03*
X128200000Y-124037500D03*
X128600000Y-124037500D03*
X129000000Y-124037500D03*
X129400000Y-124037500D03*
X129800000Y-124037500D03*
X130200000Y-124037500D03*
X130600000Y-124037500D03*
X131000000Y-124037500D03*
X131400000Y-124037500D03*
G04 #@! TD*
D50*
G04 #@! TO.C,U6*
X128737500Y-129450000D03*
X128737500Y-128500000D03*
X128737500Y-127550000D03*
X126462500Y-127550000D03*
X126462500Y-128500000D03*
X126462500Y-129450000D03*
G04 #@! TD*
D21*
G04 #@! TO.C,R4*
X138100000Y-93790000D03*
X138100000Y-94810000D03*
G04 #@! TD*
D25*
G04 #@! TO.C,C18*
X124180000Y-119600000D03*
X123220000Y-119600000D03*
G04 #@! TD*
M02*
