M48
; DRILL file {KiCad 7.0.8-7.0.8~ubuntu22.04.1} date Do 30 Nov 2023 18:16:24 CET
; FORMAT={-:-/ absolute / inch / decimal}
; #@! TF.CreationDate,2023-11-30T18:16:24+01:00
; #@! TF.GenerationSoftware,Kicad,Pcbnew,7.0.8-7.0.8~ubuntu22.04.1
; #@! TF.FileFunction,Plated,1,4,PTH
FMAT,2
INCH
; #@! TA.AperFunction,Plated,PTH,ViaDrill
T1C0.0098
; #@! TA.AperFunction,Plated,PTH,ComponentDrill
T2C0.0236
; #@! TA.AperFunction,Plated,PTH,ComponentDrill
T3C0.0449
; #@! TA.AperFunction,Plated,PTH,ComponentDrill
T4C0.1260
%
G90
G05
T1
X3.9606Y-3.0
X3.9606Y-3.063
X3.9606Y-3.5906
X3.9606Y-3.6535
X3.9764Y-2.8543
X3.9764Y-2.8937
X3.9764Y-3.1693
X3.9764Y-3.2087
X3.9764Y-3.248
X3.9764Y-3.2874
X3.9764Y-3.3268
X3.9764Y-3.3661
X3.9764Y-3.4055
X3.9764Y-3.4449
X3.9764Y-3.4843
X3.9764Y-3.7598
X3.9764Y-3.7992
X3.9764Y-3.8386
X3.9764Y-3.878
X3.9764Y-3.9173
X3.9764Y-3.9567
X3.9764Y-3.9961
X3.9764Y-4.0354
X3.9764Y-4.0748
X3.9764Y-4.1142
X3.9764Y-4.1535
X3.9764Y-4.1929
X3.9764Y-4.2323
X3.9764Y-4.2717
X3.9764Y-4.311
X3.9764Y-4.3504
X3.9764Y-4.3898
X3.9764Y-4.4291
X3.9764Y-4.4685
X3.9764Y-4.5079
X3.9764Y-4.5472
X3.9764Y-4.5866
X3.9764Y-4.626
X3.9764Y-4.6654
X3.9764Y-4.7047
X3.9764Y-4.7441
X3.9764Y-4.7835
X3.9764Y-4.8228
X3.9764Y-4.8622
X3.9764Y-4.9016
X3.9764Y-4.9409
X3.9764Y-4.9803
X3.9764Y-5.0197
X3.9764Y-5.0591
X3.9764Y-5.0984
X3.9764Y-5.1378
X3.9764Y-5.1772
X3.9764Y-5.2165
X3.9764Y-5.2559
X4.0157Y-2.8543
X4.0157Y-2.8937
X4.0157Y-3.1693
X4.0157Y-3.2087
X4.0157Y-3.248
X4.0157Y-3.2874
X4.0157Y-3.3268
X4.0157Y-3.3661
X4.0157Y-3.4055
X4.0157Y-3.4449
X4.0157Y-3.4843
X4.0157Y-3.7598
X4.0157Y-3.7992
X4.0157Y-3.8386
X4.0157Y-4.0354
X4.0157Y-4.0748
X4.0157Y-4.1142
X4.0157Y-4.1535
X4.0157Y-4.1929
X4.0157Y-4.2323
X4.0157Y-4.2717
X4.0157Y-4.311
X4.0157Y-4.3504
X4.0157Y-4.3898
X4.0157Y-4.4291
X4.0157Y-4.4685
X4.0157Y-4.5079
X4.0157Y-4.5472
X4.0157Y-4.5866
X4.0157Y-4.626
X4.0157Y-4.6654
X4.0157Y-4.7047
X4.0157Y-4.7441
X4.0157Y-4.7835
X4.0157Y-4.8228
X4.0157Y-4.8622
X4.0157Y-4.9016
X4.0157Y-4.9409
X4.0157Y-4.9803
X4.0157Y-5.0197
X4.0157Y-5.0591
X4.0157Y-5.0984
X4.0157Y-5.1378
X4.0157Y-5.1772
X4.0157Y-5.2165
X4.0157Y-5.2559
X4.0512Y-3.0
X4.0512Y-3.063
X4.0512Y-3.5906
X4.0512Y-3.6535
X4.0551Y-4.0354
X4.0551Y-4.2717
X4.0551Y-4.311
X4.0551Y-4.3504
X4.0945Y-4.0354
X4.0945Y-4.2717
X4.0945Y-4.311
X4.0945Y-4.3504
X4.1043Y-4.1339
X4.1063Y-4.0827
X4.1339Y-3.0
X4.1339Y-3.063
X4.1339Y-3.5906
X4.1339Y-3.6535
X4.1339Y-3.9567
X4.1339Y-3.9961
X4.1339Y-4.0354
X4.1339Y-4.2717
X4.1339Y-4.311
X4.1339Y-4.3504
X4.1614Y-4.2205
X4.1634Y-4.1339
X4.1654Y-4.0827
X4.1732Y-2.6378
X4.1732Y-2.6772
X4.1732Y-3.0
X4.1732Y-3.063
X4.1732Y-3.5906
X4.1732Y-3.6535
X4.1732Y-3.9567
X4.1732Y-3.9961
X4.1732Y-4.0354
X4.1732Y-4.2717
X4.1732Y-4.311
X4.1732Y-4.3504
X4.1732Y-5.4134
X4.1732Y-5.4528
X4.1929Y-4.4173
X4.2126Y-2.6378
X4.2126Y-2.6772
X4.2126Y-3.0
X4.2126Y-3.063
X4.2126Y-3.5906
X4.2126Y-3.6535
X4.2126Y-3.9567
X4.2126Y-3.9961
X4.2126Y-4.0354
X4.2126Y-4.2717
X4.2126Y-4.311
X4.2126Y-4.3504
X4.2126Y-5.4134
X4.2126Y-5.4528
X4.2205Y-4.2205
X4.2224Y-4.1339
X4.2244Y-4.0827
X4.2441Y-4.9803
X4.2441Y-5.2165
X4.252Y-2.6378
X4.252Y-2.6772
X4.252Y-3.0
X4.252Y-3.063
X4.252Y-3.5906
X4.252Y-3.6535
X4.252Y-3.9567
X4.252Y-3.9961
X4.252Y-4.0354
X4.252Y-4.2717
X4.252Y-4.311
X4.252Y-4.3504
X4.252Y-5.4134
X4.252Y-5.4528
X4.2795Y-4.2205
X4.2815Y-4.1339
X4.2835Y-4.0827
X4.2913Y-2.6378
X4.2913Y-2.6772
X4.2913Y-3.0
X4.2913Y-3.063
X4.2913Y-3.5906
X4.2913Y-3.6535
X4.2913Y-3.9567
X4.2913Y-3.9961
X4.2913Y-4.0354
X4.2913Y-4.2717
X4.2913Y-4.311
X4.2913Y-4.3504
X4.2913Y-5.4134
X4.2913Y-5.4528
X4.3307Y-2.6378
X4.3307Y-2.6772
X4.3307Y-3.0
X4.3307Y-3.063
X4.3307Y-3.5906
X4.3307Y-3.6535
X4.3307Y-3.9567
X4.3307Y-3.9961
X4.3307Y-4.0354
X4.3307Y-4.2717
X4.3307Y-4.311
X4.3307Y-4.3504
X4.3307Y-5.4134
X4.3307Y-5.4528
X4.3386Y-4.2205
X4.3406Y-4.1339
X4.3425Y-4.0827
X4.3701Y-2.6378
X4.3701Y-2.6772
X4.3701Y-3.0
X4.3701Y-3.063
X4.3701Y-3.5906
X4.3701Y-3.6535
X4.3701Y-3.9567
X4.3701Y-3.9961
X4.3701Y-4.0354
X4.3701Y-4.2717
X4.3701Y-4.311
X4.3701Y-4.3504
X4.3701Y-5.4134
X4.3701Y-5.4528
X4.3976Y-4.2205
X4.3996Y-4.1339
X4.4016Y-4.0827
X4.4094Y-2.6378
X4.4094Y-2.6772
X4.4094Y-3.0
X4.4094Y-3.063
X4.4094Y-3.5906
X4.4094Y-3.6535
X4.4094Y-3.9567
X4.4094Y-3.9961
X4.4094Y-4.0354
X4.4094Y-4.2717
X4.4094Y-4.311
X4.4094Y-4.3504
X4.4094Y-5.4134
X4.4094Y-5.4528
X4.437Y-3.8898
X4.4488Y-2.6378
X4.4488Y-2.6772
X4.4488Y-3.0
X4.4488Y-3.063
X4.4488Y-3.5906
X4.4488Y-3.6535
X4.4488Y-3.9567
X4.4488Y-3.9961
X4.4488Y-4.0354
X4.4488Y-4.2717
X4.4488Y-4.311
X4.4488Y-4.3504
X4.4488Y-5.4134
X4.4488Y-5.4528
X4.4567Y-3.9094
X4.4567Y-4.2205
X4.4587Y-4.1339
X4.4606Y-4.0827
X4.4882Y-2.6378
X4.4882Y-2.6772
X4.4882Y-3.0
X4.4882Y-3.063
X4.4882Y-3.5906
X4.4882Y-3.6535
X4.4882Y-3.9567
X4.4882Y-3.9961
X4.4882Y-4.0354
X4.4882Y-4.2717
X4.4882Y-4.311
X4.4882Y-4.3504
X4.4882Y-5.4134
X4.4882Y-5.4528
X4.5157Y-4.0906
X4.5157Y-4.1378
X4.5236Y-5.2913
X4.5236Y-5.3189
X4.5236Y-5.3465
X4.5276Y-2.6378
X4.5276Y-2.6772
X4.5276Y-3.0
X4.5276Y-3.063
X4.5276Y-3.5906
X4.5276Y-3.6535
X4.5276Y-3.9567
X4.5276Y-3.9961
X4.5276Y-4.0354
X4.5276Y-4.2717
X4.5276Y-4.311
X4.5276Y-4.3504
X4.5276Y-5.4134
X4.5276Y-5.4528
X4.5433Y-4.1811
X4.5472Y-4.1024
X4.5472Y-4.2283
X4.5591Y-5.2756
X4.563Y-2.9567
X4.563Y-3.5551
X4.5669Y-2.6378
X4.5669Y-2.6772
X4.5669Y-3.0
X4.5669Y-3.063
X4.5669Y-3.5906
X4.5669Y-3.6535
X4.5669Y-3.9961
X4.5669Y-4.0354
X4.5669Y-4.2717
X4.5669Y-4.311
X4.5669Y-4.3504
X4.5669Y-5.4134
X4.5669Y-5.4528
X4.5709Y-2.9213
X4.5709Y-3.5157
X4.5787Y-2.8976
X4.5787Y-3.4921
X4.5787Y-4.1024
X4.5827Y-4.2047
X4.5866Y-4.4213
X4.5866Y-4.6929
X4.5984Y-5.2756
X4.6024Y-2.8898
X4.6024Y-3.4843
X4.6063Y-2.6378
X4.6063Y-2.6772
X4.6063Y-3.0
X4.6063Y-3.063
X4.6063Y-3.5906
X4.6063Y-3.6535
X4.6063Y-3.9961
X4.6063Y-4.0354
X4.6063Y-4.2717
X4.6063Y-4.311
X4.6063Y-4.3504
X4.6063Y-5.4134
X4.6063Y-5.4528
X4.626Y-2.8976
X4.626Y-3.4921
X4.626Y-4.2087
X4.6339Y-2.9213
X4.6339Y-3.5157
X4.6378Y-3.7677
X4.6457Y-2.6378
X4.6457Y-2.6772
X4.6457Y-3.7106
X4.6457Y-3.7402
X4.6457Y-3.9961
X4.6457Y-4.0354
X4.6457Y-4.2717
X4.6457Y-4.311
X4.6457Y-4.3504
X4.6457Y-5.4134
X4.6457Y-5.4528
X4.6575Y-3.7913
X4.6654Y-3.1299
X4.6654Y-3.1732
X4.6654Y-3.2126
X4.6654Y-3.252
X4.6654Y-3.2913
X4.6654Y-4.4213
X4.6654Y-4.6929
X4.6693Y-4.2087
X4.6752Y-3.7598
X4.6811Y-3.3268
X4.6811Y-3.622
X4.6831Y-2.9803
X4.6831Y-3.0217
X4.6831Y-3.063
X4.6831Y-3.5709
X4.685Y-2.6378
X4.685Y-2.6772
X4.685Y-3.9961
X4.685Y-4.0354
X4.685Y-4.2717
X4.685Y-4.311
X4.685Y-4.3504
X4.685Y-5.4134
X4.685Y-5.4528
X4.6929Y-3.7913
X4.7047Y-2.8858
X4.7047Y-2.9134
X4.7047Y-3.3504
X4.7047Y-3.3858
X4.7047Y-3.4252
X4.7047Y-3.4646
X4.7047Y-3.5039
X4.7087Y-3.5945
X4.7087Y-4.2087
X4.7146Y-3.7618
X4.7244Y-2.6378
X4.7244Y-2.6772
X4.7244Y-2.8622
X4.7244Y-2.9803
X4.7244Y-3.0217
X4.7244Y-3.063
X4.7244Y-3.1732
X4.7244Y-3.2126
X4.7244Y-3.252
X4.7244Y-3.2835
X4.7244Y-3.9961
X4.7244Y-4.0354
X4.7244Y-4.2717
X4.7244Y-4.311
X4.7244Y-4.3504
X4.7244Y-5.4134
X4.7244Y-5.4528
X4.7323Y-3.5709
X4.7323Y-3.6555
X4.7323Y-4.7795
X4.7323Y-4.811
X4.7402Y-3.7874
X4.7441Y-2.8425
X4.748Y-4.126
X4.748Y-4.2087
X4.752Y-3.311
X4.752Y-4.7559
X4.7559Y-4.5827
X4.7638Y-2.6378
X4.7638Y-2.6772
X4.7638Y-2.9134
X4.7638Y-3.126
X4.7638Y-3.2047
X4.7638Y-3.3465
X4.7638Y-3.3858
X4.7638Y-3.4252
X4.7638Y-3.4646
X4.7638Y-3.5039
X4.7638Y-3.811
X4.7638Y-3.9961
X4.7638Y-4.0354
X4.7638Y-4.2717
X4.7638Y-4.311
X4.7638Y-4.3504
X4.7638Y-4.6929
X4.7638Y-5.4134
X4.7638Y-5.4528
X4.7657Y-2.9803
X4.7657Y-3.0217
X4.7657Y-3.063
X4.7657Y-3.622
X4.7657Y-3.6535
X4.7677Y-4.2283
X4.7717Y-4.9213
X4.7736Y-2.8346
X4.7756Y-2.8937
X4.7756Y-3.7402
X4.7874Y-5.126
X4.7913Y-3.4449
X4.7913Y-4.6142
X4.7913Y-4.6929
X4.8031Y-2.6378
X4.8031Y-2.6772
X4.8031Y-2.8346
X4.8031Y-2.8937
X4.8031Y-3.1417
X4.8031Y-3.2047
X4.8031Y-3.7598
X4.8031Y-3.8189
X4.8031Y-3.9961
X4.8031Y-4.0354
X4.8031Y-4.2717
X4.8031Y-4.311
X4.8031Y-4.3504
X4.8031Y-5.4134
X4.8031Y-5.4528
X4.811Y-3.4921
X4.8189Y-4.6929
X4.8346Y-4.5118
X4.8349Y-2.9804
X4.8349Y-3.5709
X4.8386Y-3.4646
X4.8425Y-2.6378
X4.8425Y-2.6772
X4.8425Y-2.8346
X4.8425Y-2.8937
X4.8425Y-3.1417
X4.8425Y-3.2047
X4.8425Y-3.7598
X4.8425Y-3.8189
X4.8425Y-3.9961
X4.8425Y-4.0354
X4.8425Y-4.2717
X4.8425Y-4.311
X4.8425Y-4.3504
X4.8425Y-4.9213
X4.8425Y-4.9492
X4.8425Y-5.4528
X4.8465Y-3.7087
X4.8504Y-4.8583
X4.8516Y-3.0023
X4.8516Y-3.5928
X4.8543Y-3.5354
X4.8543Y-5.1063
X4.8638Y-3.0269
X4.8638Y-3.6175
X4.8661Y-3.437
X4.8661Y-5.1535
X4.8701Y-3.2205
X4.8701Y-4.6732
X4.8819Y-2.6378
X4.8819Y-2.6772
X4.8819Y-2.8346
X4.8819Y-2.8937
X4.8819Y-3.1457
X4.8819Y-3.5079
X4.8819Y-3.7598
X4.8819Y-3.8189
X4.8819Y-3.9961
X4.8819Y-4.0354
X4.8819Y-4.2717
X4.8819Y-4.311
X4.8819Y-4.3504
X4.8819Y-4.5866
X4.8819Y-5.4134
X4.8819Y-5.4528
X4.8858Y-3.7087
X4.8858Y-4.4646
X4.8898Y-5.1339
X4.8937Y-3.2441
X4.8937Y-3.4094
X4.8937Y-4.9921
X4.8976Y-4.7402
X4.9094Y-3.1732
X4.9094Y-3.4803
X4.9094Y-3.689
X4.9094Y-4.5709
X4.9213Y-2.6378
X4.9213Y-2.6772
X4.9213Y-2.8346
X4.9213Y-2.8937
X4.9213Y-3.2717
X4.9213Y-3.3819
X4.9213Y-3.7598
X4.9213Y-3.8189
X4.9213Y-3.9961
X4.9213Y-4.0354
X4.9213Y-4.2717
X4.9213Y-4.311
X4.9213Y-4.3504
X4.9213Y-5.4134
X4.9213Y-5.4528
X4.9331Y-4.9921
X4.937Y-3.2008
X4.937Y-3.4528
X4.9409Y-4.5157
X4.9488Y-3.2992
X4.9488Y-3.3543
X4.9606Y-2.6378
X4.9606Y-2.6772
X4.9606Y-2.8346
X4.9606Y-2.8937
X4.9606Y-3.7598
X4.9606Y-3.8189
X4.9606Y-3.9961
X4.9606Y-4.0354
X4.9606Y-4.2717
X4.9606Y-4.311
X4.9606Y-4.3504
X4.9606Y-5.4134
X4.9606Y-5.4528
X4.9646Y-3.2283
X4.9646Y-3.4252
X4.9724Y-4.685
X4.9724Y-4.7165
X4.9724Y-4.9921
X4.9764Y-3.3268
X4.9764Y-4.7638
X4.9882Y-4.7402
X4.9921Y-3.2559
X4.9921Y-3.3976
X4.9921Y-4.6614
X4.9961Y-3.2165
X5.0Y-2.6378
X5.0Y-2.6772
X5.0Y-2.8346
X5.0Y-2.8937
X5.0Y-3.7598
X5.0Y-3.8189
X5.0Y-3.9961
X5.0Y-4.0354
X5.0Y-4.2717
X5.0Y-4.311
X5.0Y-4.3504
X5.0Y-5.4134
X5.0Y-5.4528
X5.0079Y-4.4173
X5.0157Y-4.4764
X5.0197Y-3.2165
X5.0197Y-3.2835
X5.0197Y-3.3701
X5.0197Y-4.2244
X5.0197Y-4.6614
X5.0197Y-4.6969
X5.0197Y-4.748
X5.0197Y-4.7992
X5.0197Y-4.8307
X5.0315Y-5.0591
X5.0354Y-4.4173
X5.0394Y-2.6378
X5.0394Y-2.6772
X5.0394Y-2.8346
X5.0394Y-2.8937
X5.0394Y-3.7598
X5.0394Y-3.8189
X5.0394Y-3.9961
X5.0394Y-4.0354
X5.0394Y-4.2717
X5.0394Y-4.311
X5.0394Y-4.3504
X5.0394Y-5.4134
X5.0394Y-5.4528
X5.0433Y-4.6457
X5.0453Y-3.2165
X5.0472Y-3.2559
X5.0472Y-3.3976
X5.0551Y-4.4764
X5.0551Y-4.8504
X5.0591Y-4.2244
X5.063Y-3.3268
X5.063Y-4.4173
X5.0709Y-4.6457
X5.0709Y-4.6969
X5.0709Y-4.748
X5.0709Y-4.7992
X5.0709Y-4.9921
X5.0748Y-3.2283
X5.0748Y-3.4252
X5.0787Y-2.6378
X5.0787Y-2.6772
X5.0787Y-2.8346
X5.0787Y-2.8937
X5.0787Y-3.7598
X5.0787Y-3.8189
X5.0787Y-3.9961
X5.0787Y-4.0354
X5.0787Y-4.2717
X5.0787Y-4.311
X5.0787Y-4.3504
X5.0787Y-5.4134
X5.0787Y-5.4528
X5.0906Y-3.2992
X5.0906Y-3.3543
X5.0984Y-4.2244
X5.0984Y-4.5354
X5.1024Y-3.2008
X5.1024Y-3.4528
X5.1043Y-3.5177
X5.1063Y-5.0591
X5.1142Y-4.9961
X5.1181Y-2.6378
X5.1181Y-2.6772
X5.1181Y-2.8346
X5.1181Y-2.8937
X5.1181Y-3.2717
X5.1181Y-3.3819
X5.1181Y-3.7598
X5.1181Y-3.8189
X5.1181Y-3.9961
X5.1181Y-4.0354
X5.1181Y-4.2717
X5.1181Y-4.311
X5.1181Y-4.3504
X5.1181Y-5.4134
X5.1181Y-5.4528
X5.1182Y-4.5749
X5.122Y-4.6969
X5.122Y-4.748
X5.122Y-4.7992
X5.126Y-3.3287
X5.1299Y-2.9685
X5.1299Y-3.1732
X5.1378Y-3.4882
X5.1378Y-4.8465
X5.1457Y-3.2441
X5.1457Y-3.4094
X5.1457Y-4.0787
X5.1457Y-4.1142
X5.1496Y-4.5512
X5.1496Y-5.1339
X5.1535Y-2.9449
X5.1555Y-3.3287
X5.1575Y-2.6378
X5.1575Y-2.6772
X5.1575Y-2.8346
X5.1575Y-2.8937
X5.1575Y-3.7598
X5.1575Y-3.8189
X5.1575Y-3.9961
X5.1575Y-4.0354
X5.1575Y-4.2717
X5.1575Y-4.311
X5.1575Y-4.3504
X5.1575Y-5.4134
X5.1575Y-5.4528
X5.1634Y-3.5118
X5.1673Y-3.1358
X5.1693Y-4.5709
X5.1693Y-4.6732
X5.1693Y-4.7087
X5.1693Y-4.7362
X5.1693Y-4.8465
X5.1732Y-3.2165
X5.1732Y-5.1496
X5.1755Y-3.0361
X5.1755Y-3.6266
X5.185Y-3.3287
X5.1878Y-3.0607
X5.1878Y-3.6513
X5.1929Y-2.9449
X5.1929Y-5.1063
X5.1949Y-3.1083
X5.1969Y-2.6378
X5.1969Y-2.6772
X5.1969Y-2.8346
X5.1969Y-2.8937
X5.1969Y-3.4488
X5.1969Y-3.5118
X5.1969Y-3.7598
X5.1969Y-3.8189
X5.1969Y-3.9961
X5.1969Y-4.0354
X5.1969Y-4.2717
X5.1969Y-4.311
X5.1969Y-4.3504
X5.1969Y-5.4528
X5.2008Y-4.5709
X5.2045Y-3.0826
X5.2045Y-3.6732
X5.2106Y-3.1791
X5.2205Y-3.248
X5.2362Y-2.6378
X5.2362Y-2.6772
X5.2362Y-2.8346
X5.2362Y-2.8937
X5.2362Y-3.4488
X5.2362Y-3.5118
X5.2362Y-3.7598
X5.2362Y-3.8189
X5.2362Y-3.9961
X5.2362Y-4.0354
X5.2362Y-4.2717
X5.2362Y-4.311
X5.2362Y-4.3504
X5.2362Y-5.4134
X5.2362Y-5.4528
X5.2382Y-3.1516
X5.252Y-4.4409
X5.252Y-4.4764
X5.252Y-5.1063
X5.2598Y-5.252
X5.2638Y-2.9134
X5.2638Y-3.7598
X5.2657Y-3.8189
X5.2717Y-3.0315
X5.2717Y-3.5236
X5.2736Y-3.0
X5.2736Y-3.5906
X5.2736Y-3.6319
X5.2736Y-3.6732
X5.2756Y-2.6378
X5.2756Y-2.6772
X5.2756Y-2.8425
X5.2756Y-3.1496
X5.2756Y-3.189
X5.2756Y-3.2283
X5.2756Y-3.2677
X5.2756Y-3.3071
X5.2756Y-3.4488
X5.2756Y-3.7402
X5.2756Y-3.9961
X5.2756Y-4.0354
X5.2756Y-4.2717
X5.2756Y-4.311
X5.2756Y-4.3504
X5.2756Y-5.4134
X5.2756Y-5.4528
X5.2874Y-3.3425
X5.2953Y-3.811
X5.2992Y-2.8661
X5.3031Y-3.0
X5.3071Y-3.0827
X5.315Y-2.6378
X5.315Y-2.6772
X5.315Y-3.3701
X5.315Y-3.4016
X5.315Y-3.4409
X5.315Y-3.4803
X5.315Y-3.5906
X5.315Y-3.6319
X5.315Y-3.6732
X5.315Y-3.7913
X5.315Y-3.9961
X5.315Y-4.0354
X5.315Y-4.2717
X5.315Y-4.311
X5.315Y-4.3504
X5.315Y-5.4134
X5.315Y-5.4528
X5.3228Y-4.7087
X5.3228Y-4.8583
X5.3248Y-2.8917
X5.3268Y-4.0787
X5.3268Y-4.1102
X5.3346Y-3.0551
X5.3346Y-3.1496
X5.3346Y-3.189
X5.3346Y-3.2283
X5.3346Y-3.2677
X5.3346Y-3.3031
X5.3346Y-3.7402
X5.3346Y-3.7677
X5.3425Y-4.5945
X5.3425Y-4.6339
X5.3425Y-4.6732
X5.3465Y-2.8622
X5.3504Y-4.9173
X5.3543Y-2.6378
X5.3543Y-2.6772
X5.3543Y-3.9961
X5.3543Y-4.0354
X5.3543Y-4.2717
X5.3543Y-4.311
X5.3543Y-4.3504
X5.3543Y-5.4134
X5.3543Y-5.4528
X5.3563Y-3.0827
X5.3563Y-3.5906
X5.3563Y-3.6319
X5.3563Y-3.6732
X5.3583Y-3.0315
X5.3583Y-3.3268
X5.3642Y-2.8937
X5.374Y-3.3622
X5.374Y-3.4016
X5.374Y-3.4409
X5.374Y-3.4803
X5.374Y-3.5236
X5.3819Y-2.8622
X5.3819Y-4.1102
X5.3858Y-5.2126
X5.3858Y-5.252
X5.3937Y-2.6378
X5.3937Y-2.6772
X5.3937Y-2.9134
X5.3937Y-2.9429
X5.3937Y-3.9961
X5.3937Y-4.0354
X5.3937Y-4.2717
X5.3937Y-4.311
X5.3937Y-4.3504
X5.3937Y-5.4134
X5.3937Y-5.4528
X5.3976Y-4.5748
X5.4016Y-2.8858
X5.4055Y-3.1417
X5.4055Y-3.7323
X5.4055Y-4.0787
X5.4094Y-4.6772
X5.4134Y-3.1654
X5.4134Y-3.7559
X5.4331Y-2.6378
X5.4331Y-2.6772
X5.4331Y-3.0
X5.4331Y-3.063
X5.4331Y-3.5906
X5.4331Y-3.6535
X5.4331Y-3.9961
X5.4331Y-4.0354
X5.4331Y-4.2717
X5.4331Y-4.311
X5.4331Y-4.3504
X5.4331Y-4.9173
X5.4331Y-5.4134
X5.4331Y-5.4528
X5.437Y-3.1732
X5.437Y-3.7638
X5.4488Y-4.6772
X5.4606Y-3.1654
X5.4606Y-3.7559
X5.4685Y-3.1417
X5.4685Y-3.7323
X5.4685Y-4.0787
X5.4724Y-2.6378
X5.4724Y-2.6772
X5.4724Y-3.0
X5.4724Y-3.063
X5.4724Y-3.5906
X5.4724Y-3.6535
X5.4724Y-3.9961
X5.4724Y-4.0354
X5.4724Y-4.2717
X5.4724Y-4.311
X5.4724Y-4.3504
X5.4724Y-5.4134
X5.4724Y-5.4528
X5.4764Y-3.0984
X5.4764Y-3.7008
X5.4764Y-4.1457
X5.4764Y-4.2283
X5.4843Y-5.2165
X5.4956Y-4.4178
X5.5118Y-2.6378
X5.5118Y-2.6772
X5.5118Y-3.0
X5.5118Y-3.063
X5.5118Y-3.5906
X5.5118Y-3.6535
X5.5118Y-3.9567
X5.5118Y-3.9961
X5.5118Y-4.0354
X5.5118Y-4.2717
X5.5118Y-4.311
X5.5118Y-4.3504
X5.5118Y-5.4134
X5.5118Y-5.4528
X5.5276Y-4.6732
X5.5511Y-4.7046
X5.5512Y-2.6378
X5.5512Y-2.6772
X5.5512Y-3.0
X5.5512Y-3.063
X5.5512Y-3.5906
X5.5512Y-3.6535
X5.5512Y-3.9567
X5.5512Y-3.9961
X5.5512Y-4.0354
X5.5512Y-4.2717
X5.5512Y-4.311
X5.5512Y-4.3504
X5.5512Y-5.4134
X5.5512Y-5.4528
X5.5709Y-4.126
X5.5709Y-4.1811
X5.5748Y-5.0079
X5.5787Y-3.9134
X5.5787Y-4.0787
X5.5827Y-4.2205
X5.5906Y-2.6378
X5.5906Y-2.6772
X5.5906Y-3.0
X5.5906Y-3.063
X5.5906Y-3.5906
X5.5906Y-3.6535
X5.5906Y-3.9567
X5.5906Y-3.9961
X5.5906Y-4.0354
X5.5906Y-4.2717
X5.5906Y-4.311
X5.5906Y-4.3504
X5.5906Y-5.4134
X5.5906Y-5.4528
X5.6024Y-4.5039
X5.6063Y-3.8858
X5.6063Y-4.7756
X5.622Y-4.9843
X5.626Y-5.2165
X5.6299Y-2.6378
X5.6299Y-2.6772
X5.6299Y-3.0
X5.6299Y-3.063
X5.6299Y-3.5906
X5.6299Y-3.6535
X5.6299Y-3.9567
X5.6299Y-3.9961
X5.6299Y-4.0354
X5.6299Y-4.2717
X5.6299Y-4.311
X5.6299Y-4.3504
X5.6299Y-5.4134
X5.6299Y-5.4528
X5.6378Y-4.0827
X5.6398Y-4.1339
X5.6417Y-4.2205
X5.6535Y-4.7677
X5.6575Y-3.9134
X5.6575Y-4.9134
X5.6693Y-2.6378
X5.6693Y-2.6772
X5.6693Y-3.0
X5.6693Y-3.063
X5.6693Y-3.5906
X5.6693Y-3.6535
X5.6693Y-3.9567
X5.6693Y-3.9961
X5.6693Y-4.0354
X5.6693Y-4.2717
X5.6693Y-4.311
X5.6693Y-4.3504
X5.6693Y-5.4134
X5.6693Y-5.4528
X5.6969Y-4.0827
X5.6988Y-4.1339
X5.7008Y-4.2205
X5.7087Y-2.6378
X5.7087Y-2.6772
X5.7087Y-3.0
X5.7087Y-3.063
X5.7087Y-3.5906
X5.7087Y-3.6535
X5.7087Y-3.9567
X5.7087Y-3.9961
X5.7087Y-4.0354
X5.7087Y-4.2717
X5.7087Y-4.311
X5.7087Y-4.3504
X5.7087Y-5.4134
X5.7087Y-5.4528
X5.7318Y-4.4178
X5.748Y-2.6378
X5.748Y-2.6772
X5.748Y-3.0
X5.748Y-3.063
X5.748Y-3.5906
X5.748Y-3.6535
X5.748Y-3.9567
X5.748Y-3.9961
X5.748Y-4.0354
X5.748Y-4.2717
X5.748Y-4.311
X5.748Y-4.3504
X5.748Y-5.4134
X5.748Y-5.4528
X5.7559Y-4.0827
X5.7579Y-4.1339
X5.7598Y-4.2205
X5.7874Y-2.6378
X5.7874Y-2.6772
X5.7874Y-3.0
X5.7874Y-3.063
X5.7874Y-3.5906
X5.7874Y-3.6535
X5.7874Y-3.9567
X5.7874Y-3.9961
X5.7874Y-4.0354
X5.7874Y-4.2717
X5.7874Y-4.311
X5.7874Y-4.3504
X5.7874Y-5.4134
X5.7874Y-5.4528
X5.815Y-4.0827
X5.8169Y-4.1339
X5.8189Y-4.2205
X5.8268Y-2.6378
X5.8268Y-2.6772
X5.8268Y-3.0
X5.8268Y-3.063
X5.8268Y-3.5906
X5.8268Y-3.6535
X5.8268Y-3.9567
X5.8268Y-3.9961
X5.8268Y-4.0354
X5.8268Y-4.2717
X5.8268Y-4.311
X5.8268Y-4.3504
X5.8268Y-5.4134
X5.8268Y-5.4528
X5.8661Y-2.6378
X5.8661Y-2.6772
X5.8661Y-3.0
X5.8661Y-3.063
X5.8661Y-3.5906
X5.8661Y-3.6535
X5.8661Y-3.9567
X5.8661Y-3.9961
X5.8661Y-4.0354
X5.8661Y-4.2717
X5.8661Y-4.311
X5.8661Y-4.3504
X5.8661Y-5.4134
X5.8661Y-5.4528
X5.874Y-4.0827
X5.876Y-4.1339
X5.878Y-4.2205
X5.9055Y-3.0
X5.9055Y-3.063
X5.9055Y-3.5906
X5.9055Y-3.6535
X5.9055Y-3.9567
X5.9055Y-3.9961
X5.9055Y-4.0354
X5.9055Y-4.2717
X5.9055Y-4.311
X5.9055Y-4.3504
X5.937Y-4.0827
X5.937Y-4.1339
X5.9449Y-4.0354
X5.9449Y-4.2717
X5.9449Y-4.311
X5.9449Y-4.3504
X5.9843Y-4.0354
X5.9843Y-4.2717
X5.9843Y-4.311
X5.9843Y-4.3504
X5.9882Y-3.0
X5.9882Y-3.063
X5.9882Y-3.5906
X5.9882Y-3.6535
X6.0235Y-4.5828
X6.0235Y-4.6222
X6.0235Y-4.6616
X6.0235Y-4.701
X6.0235Y-4.7403
X6.0235Y-4.7797
X6.0235Y-4.8191
X6.0235Y-4.8584
X6.0235Y-4.8978
X6.0236Y-2.8543
X6.0236Y-2.8937
X6.0236Y-3.1693
X6.0236Y-3.2087
X6.0236Y-3.248
X6.0236Y-3.2874
X6.0236Y-3.3268
X6.0236Y-3.3661
X6.0236Y-3.4055
X6.0236Y-3.4449
X6.0236Y-3.4843
X6.0236Y-3.7598
X6.0236Y-3.7992
X6.0236Y-3.8386
X6.0236Y-4.0354
X6.0236Y-4.0748
X6.0236Y-4.1142
X6.0236Y-4.1535
X6.0236Y-4.1929
X6.0236Y-4.2323
X6.0236Y-4.2717
X6.0236Y-4.311
X6.0236Y-4.3504
X6.0236Y-4.3898
X6.0236Y-4.4291
X6.0236Y-4.4685
X6.0236Y-4.5079
X6.0236Y-4.5472
X6.0236Y-4.9409
X6.0236Y-4.9803
X6.0236Y-5.0197
X6.0236Y-5.0591
X6.0236Y-5.0984
X6.0236Y-5.1378
X6.0236Y-5.1772
X6.0236Y-5.2165
X6.0236Y-5.2559
X6.0629Y-4.5828
X6.0629Y-4.6222
X6.0629Y-4.6616
X6.0629Y-4.701
X6.0629Y-4.7403
X6.0629Y-4.7797
X6.0629Y-4.8191
X6.0629Y-4.8584
X6.0629Y-4.8978
X6.063Y-2.8543
X6.063Y-2.8937
X6.063Y-3.1693
X6.063Y-3.2087
X6.063Y-3.248
X6.063Y-3.2874
X6.063Y-3.3268
X6.063Y-3.3661
X6.063Y-3.4055
X6.063Y-3.4449
X6.063Y-3.4843
X6.063Y-3.7598
X6.063Y-3.7992
X6.063Y-3.8386
X6.063Y-3.878
X6.063Y-3.9173
X6.063Y-3.9567
X6.063Y-3.9961
X6.063Y-4.0354
X6.063Y-4.0748
X6.063Y-4.1142
X6.063Y-4.1535
X6.063Y-4.1929
X6.063Y-4.2323
X6.063Y-4.2717
X6.063Y-4.311
X6.063Y-4.3504
X6.063Y-4.3898
X6.063Y-4.4291
X6.063Y-4.4685
X6.063Y-4.5079
X6.063Y-4.5472
X6.063Y-4.9409
X6.063Y-4.9803
X6.063Y-5.0197
X6.063Y-5.0591
X6.063Y-5.0984
X6.063Y-5.1378
X6.063Y-5.1772
X6.063Y-5.2165
X6.063Y-5.2559
X6.0787Y-3.0
X6.0787Y-3.063
X6.0787Y-3.5906
X6.0787Y-3.6535
T3
X4.0059Y-2.9835
X4.0059Y-3.0795
X4.0059Y-3.574
X4.0059Y-3.6701
X4.0929Y-2.9835
X4.0929Y-3.0795
X4.0929Y-3.574
X4.0929Y-3.6701
X5.9465Y-2.9835
X5.9465Y-3.0795
X5.9465Y-3.574
X5.9465Y-3.6701
X6.0335Y-2.9835
X6.0335Y-3.0795
X6.0335Y-3.574
X6.0335Y-3.6701
T4
X4.0551Y-2.7165
X4.0551Y-3.937
X4.0551Y-5.374
X5.9843Y-2.7165
X5.9843Y-3.937
X5.9843Y-5.374
T2
G00X4.8496Y-5.1898
M15
G01X4.8496Y-5.2331
M16
G05
G00X4.8496Y-5.3642
M15
G01X4.8496Y-5.3878
M16
G05
G00X5.1898Y-5.1898
M15
G01X5.1898Y-5.2331
M16
G05
G00X5.1898Y-5.3642
M15
G01X5.1898Y-5.3878
M16
G05
T0
M30
