G04 #@! TF.GenerationSoftware,KiCad,Pcbnew,7.0.8-7.0.8~ubuntu22.04.1*
G04 #@! TF.CreationDate,2023-11-30T18:16:29+01:00*
G04 #@! TF.ProjectId,LibreCAL,4c696272-6543-4414-9c2e-6b696361645f,B*
G04 #@! TF.SameCoordinates,Original*
G04 #@! TF.FileFunction,Legend,Bot*
G04 #@! TF.FilePolarity,Positive*
%FSLAX46Y46*%
G04 Gerber Fmt 4.6, Leading zero omitted, Abs format (unit mm)*
G04 Created by KiCad (PCBNEW 7.0.8-7.0.8~ubuntu22.04.1) date 2023-11-30 18:16:29*
%MOMM*%
%LPD*%
G01*
G04 APERTURE LIST*
%ADD10C,0.150000*%
%ADD11C,0.120000*%
G04 APERTURE END LIST*
D10*
X141454819Y-116657143D02*
X140454819Y-116657143D01*
X140454819Y-116657143D02*
X140454819Y-117038095D01*
X140454819Y-117038095D02*
X140502438Y-117133333D01*
X140502438Y-117133333D02*
X140550057Y-117180952D01*
X140550057Y-117180952D02*
X140645295Y-117228571D01*
X140645295Y-117228571D02*
X140788152Y-117228571D01*
X140788152Y-117228571D02*
X140883390Y-117180952D01*
X140883390Y-117180952D02*
X140931009Y-117133333D01*
X140931009Y-117133333D02*
X140978628Y-117038095D01*
X140978628Y-117038095D02*
X140978628Y-116657143D01*
X140454819Y-117847619D02*
X140454819Y-118038095D01*
X140454819Y-118038095D02*
X140502438Y-118133333D01*
X140502438Y-118133333D02*
X140597676Y-118228571D01*
X140597676Y-118228571D02*
X140788152Y-118276190D01*
X140788152Y-118276190D02*
X141121485Y-118276190D01*
X141121485Y-118276190D02*
X141311961Y-118228571D01*
X141311961Y-118228571D02*
X141407200Y-118133333D01*
X141407200Y-118133333D02*
X141454819Y-118038095D01*
X141454819Y-118038095D02*
X141454819Y-117847619D01*
X141454819Y-117847619D02*
X141407200Y-117752381D01*
X141407200Y-117752381D02*
X141311961Y-117657143D01*
X141311961Y-117657143D02*
X141121485Y-117609524D01*
X141121485Y-117609524D02*
X140788152Y-117609524D01*
X140788152Y-117609524D02*
X140597676Y-117657143D01*
X140597676Y-117657143D02*
X140502438Y-117752381D01*
X140502438Y-117752381D02*
X140454819Y-117847619D01*
X141454819Y-119276190D02*
X140978628Y-118942857D01*
X141454819Y-118704762D02*
X140454819Y-118704762D01*
X140454819Y-118704762D02*
X140454819Y-119085714D01*
X140454819Y-119085714D02*
X140502438Y-119180952D01*
X140502438Y-119180952D02*
X140550057Y-119228571D01*
X140550057Y-119228571D02*
X140645295Y-119276190D01*
X140645295Y-119276190D02*
X140788152Y-119276190D01*
X140788152Y-119276190D02*
X140883390Y-119228571D01*
X140883390Y-119228571D02*
X140931009Y-119180952D01*
X140931009Y-119180952D02*
X140978628Y-119085714D01*
X140978628Y-119085714D02*
X140978628Y-118704762D01*
X140454819Y-119561905D02*
X140454819Y-120133333D01*
X141454819Y-119847619D02*
X140454819Y-119847619D01*
X141454819Y-120990476D02*
X141454819Y-120419048D01*
X141454819Y-120704762D02*
X140454819Y-120704762D01*
X140454819Y-120704762D02*
X140597676Y-120609524D01*
X140597676Y-120609524D02*
X140692914Y-120514286D01*
X140692914Y-120514286D02*
X140740533Y-120419048D01*
X146666666Y-122754819D02*
X146666666Y-121754819D01*
X146666666Y-121754819D02*
X146285714Y-121754819D01*
X146285714Y-121754819D02*
X146190476Y-121802438D01*
X146190476Y-121802438D02*
X146142857Y-121850057D01*
X146142857Y-121850057D02*
X146095238Y-121945295D01*
X146095238Y-121945295D02*
X146095238Y-122088152D01*
X146095238Y-122088152D02*
X146142857Y-122183390D01*
X146142857Y-122183390D02*
X146190476Y-122231009D01*
X146190476Y-122231009D02*
X146285714Y-122278628D01*
X146285714Y-122278628D02*
X146666666Y-122278628D01*
X145476190Y-121754819D02*
X145285714Y-121754819D01*
X145285714Y-121754819D02*
X145190476Y-121802438D01*
X145190476Y-121802438D02*
X145095238Y-121897676D01*
X145095238Y-121897676D02*
X145047619Y-122088152D01*
X145047619Y-122088152D02*
X145047619Y-122421485D01*
X145047619Y-122421485D02*
X145095238Y-122611961D01*
X145095238Y-122611961D02*
X145190476Y-122707200D01*
X145190476Y-122707200D02*
X145285714Y-122754819D01*
X145285714Y-122754819D02*
X145476190Y-122754819D01*
X145476190Y-122754819D02*
X145571428Y-122707200D01*
X145571428Y-122707200D02*
X145666666Y-122611961D01*
X145666666Y-122611961D02*
X145714285Y-122421485D01*
X145714285Y-122421485D02*
X145714285Y-122088152D01*
X145714285Y-122088152D02*
X145666666Y-121897676D01*
X145666666Y-121897676D02*
X145571428Y-121802438D01*
X145571428Y-121802438D02*
X145476190Y-121754819D01*
X144047619Y-122754819D02*
X144380952Y-122278628D01*
X144619047Y-122754819D02*
X144619047Y-121754819D01*
X144619047Y-121754819D02*
X144238095Y-121754819D01*
X144238095Y-121754819D02*
X144142857Y-121802438D01*
X144142857Y-121802438D02*
X144095238Y-121850057D01*
X144095238Y-121850057D02*
X144047619Y-121945295D01*
X144047619Y-121945295D02*
X144047619Y-122088152D01*
X144047619Y-122088152D02*
X144095238Y-122183390D01*
X144095238Y-122183390D02*
X144142857Y-122231009D01*
X144142857Y-122231009D02*
X144238095Y-122278628D01*
X144238095Y-122278628D02*
X144619047Y-122278628D01*
X143761904Y-121754819D02*
X143190476Y-121754819D01*
X143476190Y-122754819D02*
X143476190Y-121754819D01*
X132554819Y-116757143D02*
X131554819Y-116757143D01*
X131554819Y-116757143D02*
X131554819Y-117138095D01*
X131554819Y-117138095D02*
X131602438Y-117233333D01*
X131602438Y-117233333D02*
X131650057Y-117280952D01*
X131650057Y-117280952D02*
X131745295Y-117328571D01*
X131745295Y-117328571D02*
X131888152Y-117328571D01*
X131888152Y-117328571D02*
X131983390Y-117280952D01*
X131983390Y-117280952D02*
X132031009Y-117233333D01*
X132031009Y-117233333D02*
X132078628Y-117138095D01*
X132078628Y-117138095D02*
X132078628Y-116757143D01*
X131554819Y-117947619D02*
X131554819Y-118138095D01*
X131554819Y-118138095D02*
X131602438Y-118233333D01*
X131602438Y-118233333D02*
X131697676Y-118328571D01*
X131697676Y-118328571D02*
X131888152Y-118376190D01*
X131888152Y-118376190D02*
X132221485Y-118376190D01*
X132221485Y-118376190D02*
X132411961Y-118328571D01*
X132411961Y-118328571D02*
X132507200Y-118233333D01*
X132507200Y-118233333D02*
X132554819Y-118138095D01*
X132554819Y-118138095D02*
X132554819Y-117947619D01*
X132554819Y-117947619D02*
X132507200Y-117852381D01*
X132507200Y-117852381D02*
X132411961Y-117757143D01*
X132411961Y-117757143D02*
X132221485Y-117709524D01*
X132221485Y-117709524D02*
X131888152Y-117709524D01*
X131888152Y-117709524D02*
X131697676Y-117757143D01*
X131697676Y-117757143D02*
X131602438Y-117852381D01*
X131602438Y-117852381D02*
X131554819Y-117947619D01*
X132554819Y-119376190D02*
X132078628Y-119042857D01*
X132554819Y-118804762D02*
X131554819Y-118804762D01*
X131554819Y-118804762D02*
X131554819Y-119185714D01*
X131554819Y-119185714D02*
X131602438Y-119280952D01*
X131602438Y-119280952D02*
X131650057Y-119328571D01*
X131650057Y-119328571D02*
X131745295Y-119376190D01*
X131745295Y-119376190D02*
X131888152Y-119376190D01*
X131888152Y-119376190D02*
X131983390Y-119328571D01*
X131983390Y-119328571D02*
X132031009Y-119280952D01*
X132031009Y-119280952D02*
X132078628Y-119185714D01*
X132078628Y-119185714D02*
X132078628Y-118804762D01*
X131554819Y-119661905D02*
X131554819Y-120233333D01*
X132554819Y-119947619D02*
X131554819Y-119947619D01*
X131888152Y-120995238D02*
X132554819Y-120995238D01*
X131507200Y-120757143D02*
X132221485Y-120519048D01*
X132221485Y-120519048D02*
X132221485Y-121138095D01*
X104454819Y-116619048D02*
X104454819Y-117190476D01*
X105454819Y-116904762D02*
X104454819Y-116904762D01*
X105454819Y-117523810D02*
X104454819Y-117523810D01*
X104931009Y-117523810D02*
X104931009Y-118095238D01*
X105454819Y-118095238D02*
X104454819Y-118095238D01*
X105454819Y-119142857D02*
X104978628Y-118809524D01*
X105454819Y-118571429D02*
X104454819Y-118571429D01*
X104454819Y-118571429D02*
X104454819Y-118952381D01*
X104454819Y-118952381D02*
X104502438Y-119047619D01*
X104502438Y-119047619D02*
X104550057Y-119095238D01*
X104550057Y-119095238D02*
X104645295Y-119142857D01*
X104645295Y-119142857D02*
X104788152Y-119142857D01*
X104788152Y-119142857D02*
X104883390Y-119095238D01*
X104883390Y-119095238D02*
X104931009Y-119047619D01*
X104931009Y-119047619D02*
X104978628Y-118952381D01*
X104978628Y-118952381D02*
X104978628Y-118571429D01*
X104454819Y-119761905D02*
X104454819Y-119952381D01*
X104454819Y-119952381D02*
X104502438Y-120047619D01*
X104502438Y-120047619D02*
X104597676Y-120142857D01*
X104597676Y-120142857D02*
X104788152Y-120190476D01*
X104788152Y-120190476D02*
X105121485Y-120190476D01*
X105121485Y-120190476D02*
X105311961Y-120142857D01*
X105311961Y-120142857D02*
X105407200Y-120047619D01*
X105407200Y-120047619D02*
X105454819Y-119952381D01*
X105454819Y-119952381D02*
X105454819Y-119761905D01*
X105454819Y-119761905D02*
X105407200Y-119666667D01*
X105407200Y-119666667D02*
X105311961Y-119571429D01*
X105311961Y-119571429D02*
X105121485Y-119523810D01*
X105121485Y-119523810D02*
X104788152Y-119523810D01*
X104788152Y-119523810D02*
X104597676Y-119571429D01*
X104597676Y-119571429D02*
X104502438Y-119666667D01*
X104502438Y-119666667D02*
X104454819Y-119761905D01*
X104454819Y-120619048D02*
X105264342Y-120619048D01*
X105264342Y-120619048D02*
X105359580Y-120666667D01*
X105359580Y-120666667D02*
X105407200Y-120714286D01*
X105407200Y-120714286D02*
X105454819Y-120809524D01*
X105454819Y-120809524D02*
X105454819Y-121000000D01*
X105454819Y-121000000D02*
X105407200Y-121095238D01*
X105407200Y-121095238D02*
X105359580Y-121142857D01*
X105359580Y-121142857D02*
X105264342Y-121190476D01*
X105264342Y-121190476D02*
X104454819Y-121190476D01*
X104502438Y-122190476D02*
X104454819Y-122095238D01*
X104454819Y-122095238D02*
X104454819Y-121952381D01*
X104454819Y-121952381D02*
X104502438Y-121809524D01*
X104502438Y-121809524D02*
X104597676Y-121714286D01*
X104597676Y-121714286D02*
X104692914Y-121666667D01*
X104692914Y-121666667D02*
X104883390Y-121619048D01*
X104883390Y-121619048D02*
X105026247Y-121619048D01*
X105026247Y-121619048D02*
X105216723Y-121666667D01*
X105216723Y-121666667D02*
X105311961Y-121714286D01*
X105311961Y-121714286D02*
X105407200Y-121809524D01*
X105407200Y-121809524D02*
X105454819Y-121952381D01*
X105454819Y-121952381D02*
X105454819Y-122047619D01*
X105454819Y-122047619D02*
X105407200Y-122190476D01*
X105407200Y-122190476D02*
X105359580Y-122238095D01*
X105359580Y-122238095D02*
X105026247Y-122238095D01*
X105026247Y-122238095D02*
X105026247Y-122047619D01*
X105454819Y-122666667D02*
X104454819Y-122666667D01*
X104931009Y-122666667D02*
X104931009Y-123238095D01*
X105454819Y-123238095D02*
X104454819Y-123238095D01*
X143454819Y-116723810D02*
X144454819Y-116961905D01*
X144454819Y-116961905D02*
X143740533Y-117152381D01*
X143740533Y-117152381D02*
X144454819Y-117342857D01*
X144454819Y-117342857D02*
X143454819Y-117580953D01*
X144169104Y-117914286D02*
X144169104Y-118390476D01*
X144454819Y-117819048D02*
X143454819Y-118152381D01*
X143454819Y-118152381D02*
X144454819Y-118485714D01*
X144454819Y-118819048D02*
X143454819Y-118819048D01*
X143454819Y-119152381D02*
X143454819Y-119723809D01*
X144454819Y-119438095D02*
X143454819Y-119438095D01*
X111407200Y-116685714D02*
X111454819Y-116828571D01*
X111454819Y-116828571D02*
X111454819Y-117066666D01*
X111454819Y-117066666D02*
X111407200Y-117161904D01*
X111407200Y-117161904D02*
X111359580Y-117209523D01*
X111359580Y-117209523D02*
X111264342Y-117257142D01*
X111264342Y-117257142D02*
X111169104Y-117257142D01*
X111169104Y-117257142D02*
X111073866Y-117209523D01*
X111073866Y-117209523D02*
X111026247Y-117161904D01*
X111026247Y-117161904D02*
X110978628Y-117066666D01*
X110978628Y-117066666D02*
X110931009Y-116876190D01*
X110931009Y-116876190D02*
X110883390Y-116780952D01*
X110883390Y-116780952D02*
X110835771Y-116733333D01*
X110835771Y-116733333D02*
X110740533Y-116685714D01*
X110740533Y-116685714D02*
X110645295Y-116685714D01*
X110645295Y-116685714D02*
X110550057Y-116733333D01*
X110550057Y-116733333D02*
X110502438Y-116780952D01*
X110502438Y-116780952D02*
X110454819Y-116876190D01*
X110454819Y-116876190D02*
X110454819Y-117114285D01*
X110454819Y-117114285D02*
X110502438Y-117257142D01*
X111454819Y-117685714D02*
X110454819Y-117685714D01*
X110931009Y-117685714D02*
X110931009Y-118257142D01*
X111454819Y-118257142D02*
X110454819Y-118257142D01*
X110454819Y-118923809D02*
X110454819Y-119114285D01*
X110454819Y-119114285D02*
X110502438Y-119209523D01*
X110502438Y-119209523D02*
X110597676Y-119304761D01*
X110597676Y-119304761D02*
X110788152Y-119352380D01*
X110788152Y-119352380D02*
X111121485Y-119352380D01*
X111121485Y-119352380D02*
X111311961Y-119304761D01*
X111311961Y-119304761D02*
X111407200Y-119209523D01*
X111407200Y-119209523D02*
X111454819Y-119114285D01*
X111454819Y-119114285D02*
X111454819Y-118923809D01*
X111454819Y-118923809D02*
X111407200Y-118828571D01*
X111407200Y-118828571D02*
X111311961Y-118733333D01*
X111311961Y-118733333D02*
X111121485Y-118685714D01*
X111121485Y-118685714D02*
X110788152Y-118685714D01*
X110788152Y-118685714D02*
X110597676Y-118733333D01*
X110597676Y-118733333D02*
X110502438Y-118828571D01*
X110502438Y-118828571D02*
X110454819Y-118923809D01*
X111454819Y-120352380D02*
X110978628Y-120019047D01*
X111454819Y-119780952D02*
X110454819Y-119780952D01*
X110454819Y-119780952D02*
X110454819Y-120161904D01*
X110454819Y-120161904D02*
X110502438Y-120257142D01*
X110502438Y-120257142D02*
X110550057Y-120304761D01*
X110550057Y-120304761D02*
X110645295Y-120352380D01*
X110645295Y-120352380D02*
X110788152Y-120352380D01*
X110788152Y-120352380D02*
X110883390Y-120304761D01*
X110883390Y-120304761D02*
X110931009Y-120257142D01*
X110931009Y-120257142D02*
X110978628Y-120161904D01*
X110978628Y-120161904D02*
X110978628Y-119780952D01*
X110454819Y-120638095D02*
X110454819Y-121209523D01*
X111454819Y-120923809D02*
X110454819Y-120923809D01*
X138454819Y-116657143D02*
X137454819Y-116657143D01*
X137454819Y-116657143D02*
X137454819Y-117038095D01*
X137454819Y-117038095D02*
X137502438Y-117133333D01*
X137502438Y-117133333D02*
X137550057Y-117180952D01*
X137550057Y-117180952D02*
X137645295Y-117228571D01*
X137645295Y-117228571D02*
X137788152Y-117228571D01*
X137788152Y-117228571D02*
X137883390Y-117180952D01*
X137883390Y-117180952D02*
X137931009Y-117133333D01*
X137931009Y-117133333D02*
X137978628Y-117038095D01*
X137978628Y-117038095D02*
X137978628Y-116657143D01*
X137454819Y-117847619D02*
X137454819Y-118038095D01*
X137454819Y-118038095D02*
X137502438Y-118133333D01*
X137502438Y-118133333D02*
X137597676Y-118228571D01*
X137597676Y-118228571D02*
X137788152Y-118276190D01*
X137788152Y-118276190D02*
X138121485Y-118276190D01*
X138121485Y-118276190D02*
X138311961Y-118228571D01*
X138311961Y-118228571D02*
X138407200Y-118133333D01*
X138407200Y-118133333D02*
X138454819Y-118038095D01*
X138454819Y-118038095D02*
X138454819Y-117847619D01*
X138454819Y-117847619D02*
X138407200Y-117752381D01*
X138407200Y-117752381D02*
X138311961Y-117657143D01*
X138311961Y-117657143D02*
X138121485Y-117609524D01*
X138121485Y-117609524D02*
X137788152Y-117609524D01*
X137788152Y-117609524D02*
X137597676Y-117657143D01*
X137597676Y-117657143D02*
X137502438Y-117752381D01*
X137502438Y-117752381D02*
X137454819Y-117847619D01*
X138454819Y-119276190D02*
X137978628Y-118942857D01*
X138454819Y-118704762D02*
X137454819Y-118704762D01*
X137454819Y-118704762D02*
X137454819Y-119085714D01*
X137454819Y-119085714D02*
X137502438Y-119180952D01*
X137502438Y-119180952D02*
X137550057Y-119228571D01*
X137550057Y-119228571D02*
X137645295Y-119276190D01*
X137645295Y-119276190D02*
X137788152Y-119276190D01*
X137788152Y-119276190D02*
X137883390Y-119228571D01*
X137883390Y-119228571D02*
X137931009Y-119180952D01*
X137931009Y-119180952D02*
X137978628Y-119085714D01*
X137978628Y-119085714D02*
X137978628Y-118704762D01*
X137454819Y-119561905D02*
X137454819Y-120133333D01*
X138454819Y-119847619D02*
X137454819Y-119847619D01*
X137550057Y-120419048D02*
X137502438Y-120466667D01*
X137502438Y-120466667D02*
X137454819Y-120561905D01*
X137454819Y-120561905D02*
X137454819Y-120800000D01*
X137454819Y-120800000D02*
X137502438Y-120895238D01*
X137502438Y-120895238D02*
X137550057Y-120942857D01*
X137550057Y-120942857D02*
X137645295Y-120990476D01*
X137645295Y-120990476D02*
X137740533Y-120990476D01*
X137740533Y-120990476D02*
X137883390Y-120942857D01*
X137883390Y-120942857D02*
X138454819Y-120371429D01*
X138454819Y-120371429D02*
X138454819Y-120990476D01*
X108454819Y-117257142D02*
X108454819Y-116780952D01*
X108454819Y-116780952D02*
X107454819Y-116780952D01*
X107454819Y-117780952D02*
X107454819Y-117971428D01*
X107454819Y-117971428D02*
X107502438Y-118066666D01*
X107502438Y-118066666D02*
X107597676Y-118161904D01*
X107597676Y-118161904D02*
X107788152Y-118209523D01*
X107788152Y-118209523D02*
X108121485Y-118209523D01*
X108121485Y-118209523D02*
X108311961Y-118161904D01*
X108311961Y-118161904D02*
X108407200Y-118066666D01*
X108407200Y-118066666D02*
X108454819Y-117971428D01*
X108454819Y-117971428D02*
X108454819Y-117780952D01*
X108454819Y-117780952D02*
X108407200Y-117685714D01*
X108407200Y-117685714D02*
X108311961Y-117590476D01*
X108311961Y-117590476D02*
X108121485Y-117542857D01*
X108121485Y-117542857D02*
X107788152Y-117542857D01*
X107788152Y-117542857D02*
X107597676Y-117590476D01*
X107597676Y-117590476D02*
X107502438Y-117685714D01*
X107502438Y-117685714D02*
X107454819Y-117780952D01*
X108169104Y-118590476D02*
X108169104Y-119066666D01*
X108454819Y-118495238D02*
X107454819Y-118828571D01*
X107454819Y-118828571D02*
X108454819Y-119161904D01*
X108454819Y-119495238D02*
X107454819Y-119495238D01*
X107454819Y-119495238D02*
X107454819Y-119733333D01*
X107454819Y-119733333D02*
X107502438Y-119876190D01*
X107502438Y-119876190D02*
X107597676Y-119971428D01*
X107597676Y-119971428D02*
X107692914Y-120019047D01*
X107692914Y-120019047D02*
X107883390Y-120066666D01*
X107883390Y-120066666D02*
X108026247Y-120066666D01*
X108026247Y-120066666D02*
X108216723Y-120019047D01*
X108216723Y-120019047D02*
X108311961Y-119971428D01*
X108311961Y-119971428D02*
X108407200Y-119876190D01*
X108407200Y-119876190D02*
X108454819Y-119733333D01*
X108454819Y-119733333D02*
X108454819Y-119495238D01*
X113454819Y-116928571D02*
X113454819Y-117119047D01*
X113454819Y-117119047D02*
X113502438Y-117214285D01*
X113502438Y-117214285D02*
X113597676Y-117309523D01*
X113597676Y-117309523D02*
X113788152Y-117357142D01*
X113788152Y-117357142D02*
X114121485Y-117357142D01*
X114121485Y-117357142D02*
X114311961Y-117309523D01*
X114311961Y-117309523D02*
X114407200Y-117214285D01*
X114407200Y-117214285D02*
X114454819Y-117119047D01*
X114454819Y-117119047D02*
X114454819Y-116928571D01*
X114454819Y-116928571D02*
X114407200Y-116833333D01*
X114407200Y-116833333D02*
X114311961Y-116738095D01*
X114311961Y-116738095D02*
X114121485Y-116690476D01*
X114121485Y-116690476D02*
X113788152Y-116690476D01*
X113788152Y-116690476D02*
X113597676Y-116738095D01*
X113597676Y-116738095D02*
X113502438Y-116833333D01*
X113502438Y-116833333D02*
X113454819Y-116928571D01*
X114454819Y-117785714D02*
X113454819Y-117785714D01*
X113454819Y-117785714D02*
X113454819Y-118166666D01*
X113454819Y-118166666D02*
X113502438Y-118261904D01*
X113502438Y-118261904D02*
X113550057Y-118309523D01*
X113550057Y-118309523D02*
X113645295Y-118357142D01*
X113645295Y-118357142D02*
X113788152Y-118357142D01*
X113788152Y-118357142D02*
X113883390Y-118309523D01*
X113883390Y-118309523D02*
X113931009Y-118261904D01*
X113931009Y-118261904D02*
X113978628Y-118166666D01*
X113978628Y-118166666D02*
X113978628Y-117785714D01*
X113931009Y-118785714D02*
X113931009Y-119119047D01*
X114454819Y-119261904D02*
X114454819Y-118785714D01*
X114454819Y-118785714D02*
X113454819Y-118785714D01*
X113454819Y-118785714D02*
X113454819Y-119261904D01*
X114454819Y-119690476D02*
X113454819Y-119690476D01*
X113454819Y-119690476D02*
X114454819Y-120261904D01*
X114454819Y-120261904D02*
X113454819Y-120261904D01*
X148342856Y-75454819D02*
X148342856Y-74454819D01*
X148342856Y-74454819D02*
X147961904Y-74454819D01*
X147961904Y-74454819D02*
X147866666Y-74502438D01*
X147866666Y-74502438D02*
X147819047Y-74550057D01*
X147819047Y-74550057D02*
X147771428Y-74645295D01*
X147771428Y-74645295D02*
X147771428Y-74788152D01*
X147771428Y-74788152D02*
X147819047Y-74883390D01*
X147819047Y-74883390D02*
X147866666Y-74931009D01*
X147866666Y-74931009D02*
X147961904Y-74978628D01*
X147961904Y-74978628D02*
X148342856Y-74978628D01*
X147152380Y-74454819D02*
X146961904Y-74454819D01*
X146961904Y-74454819D02*
X146866666Y-74502438D01*
X146866666Y-74502438D02*
X146771428Y-74597676D01*
X146771428Y-74597676D02*
X146723809Y-74788152D01*
X146723809Y-74788152D02*
X146723809Y-75121485D01*
X146723809Y-75121485D02*
X146771428Y-75311961D01*
X146771428Y-75311961D02*
X146866666Y-75407200D01*
X146866666Y-75407200D02*
X146961904Y-75454819D01*
X146961904Y-75454819D02*
X147152380Y-75454819D01*
X147152380Y-75454819D02*
X147247618Y-75407200D01*
X147247618Y-75407200D02*
X147342856Y-75311961D01*
X147342856Y-75311961D02*
X147390475Y-75121485D01*
X147390475Y-75121485D02*
X147390475Y-74788152D01*
X147390475Y-74788152D02*
X147342856Y-74597676D01*
X147342856Y-74597676D02*
X147247618Y-74502438D01*
X147247618Y-74502438D02*
X147152380Y-74454819D01*
X145723809Y-75454819D02*
X146057142Y-74978628D01*
X146295237Y-75454819D02*
X146295237Y-74454819D01*
X146295237Y-74454819D02*
X145914285Y-74454819D01*
X145914285Y-74454819D02*
X145819047Y-74502438D01*
X145819047Y-74502438D02*
X145771428Y-74550057D01*
X145771428Y-74550057D02*
X145723809Y-74645295D01*
X145723809Y-74645295D02*
X145723809Y-74788152D01*
X145723809Y-74788152D02*
X145771428Y-74883390D01*
X145771428Y-74883390D02*
X145819047Y-74931009D01*
X145819047Y-74931009D02*
X145914285Y-74978628D01*
X145914285Y-74978628D02*
X146295237Y-74978628D01*
X145438094Y-74454819D02*
X144866666Y-74454819D01*
X145152380Y-75454819D02*
X145152380Y-74454819D01*
X144009523Y-75454819D02*
X144580951Y-75454819D01*
X144295237Y-75454819D02*
X144295237Y-74454819D01*
X144295237Y-74454819D02*
X144390475Y-74597676D01*
X144390475Y-74597676D02*
X144485713Y-74692914D01*
X144485713Y-74692914D02*
X144580951Y-74740533D01*
X150554819Y-116790476D02*
X149554819Y-116790476D01*
X149554819Y-116790476D02*
X149554819Y-117171428D01*
X149554819Y-117171428D02*
X149602438Y-117266666D01*
X149602438Y-117266666D02*
X149650057Y-117314285D01*
X149650057Y-117314285D02*
X149745295Y-117361904D01*
X149745295Y-117361904D02*
X149888152Y-117361904D01*
X149888152Y-117361904D02*
X149983390Y-117314285D01*
X149983390Y-117314285D02*
X150031009Y-117266666D01*
X150031009Y-117266666D02*
X150078628Y-117171428D01*
X150078628Y-117171428D02*
X150078628Y-116790476D01*
X149554819Y-117980952D02*
X149554819Y-118171428D01*
X149554819Y-118171428D02*
X149602438Y-118266666D01*
X149602438Y-118266666D02*
X149697676Y-118361904D01*
X149697676Y-118361904D02*
X149888152Y-118409523D01*
X149888152Y-118409523D02*
X150221485Y-118409523D01*
X150221485Y-118409523D02*
X150411961Y-118361904D01*
X150411961Y-118361904D02*
X150507200Y-118266666D01*
X150507200Y-118266666D02*
X150554819Y-118171428D01*
X150554819Y-118171428D02*
X150554819Y-117980952D01*
X150554819Y-117980952D02*
X150507200Y-117885714D01*
X150507200Y-117885714D02*
X150411961Y-117790476D01*
X150411961Y-117790476D02*
X150221485Y-117742857D01*
X150221485Y-117742857D02*
X149888152Y-117742857D01*
X149888152Y-117742857D02*
X149697676Y-117790476D01*
X149697676Y-117790476D02*
X149602438Y-117885714D01*
X149602438Y-117885714D02*
X149554819Y-117980952D01*
X149554819Y-118742857D02*
X150554819Y-118980952D01*
X150554819Y-118980952D02*
X149840533Y-119171428D01*
X149840533Y-119171428D02*
X150554819Y-119361904D01*
X150554819Y-119361904D02*
X149554819Y-119600000D01*
X150031009Y-119980952D02*
X150031009Y-120314285D01*
X150554819Y-120457142D02*
X150554819Y-119980952D01*
X150554819Y-119980952D02*
X149554819Y-119980952D01*
X149554819Y-119980952D02*
X149554819Y-120457142D01*
X150554819Y-121457142D02*
X150078628Y-121123809D01*
X150554819Y-120885714D02*
X149554819Y-120885714D01*
X149554819Y-120885714D02*
X149554819Y-121266666D01*
X149554819Y-121266666D02*
X149602438Y-121361904D01*
X149602438Y-121361904D02*
X149650057Y-121409523D01*
X149650057Y-121409523D02*
X149745295Y-121457142D01*
X149745295Y-121457142D02*
X149888152Y-121457142D01*
X149888152Y-121457142D02*
X149983390Y-121409523D01*
X149983390Y-121409523D02*
X150031009Y-121361904D01*
X150031009Y-121361904D02*
X150078628Y-121266666D01*
X150078628Y-121266666D02*
X150078628Y-120885714D01*
X111142856Y-90454819D02*
X111142856Y-89454819D01*
X111142856Y-89454819D02*
X110761904Y-89454819D01*
X110761904Y-89454819D02*
X110666666Y-89502438D01*
X110666666Y-89502438D02*
X110619047Y-89550057D01*
X110619047Y-89550057D02*
X110571428Y-89645295D01*
X110571428Y-89645295D02*
X110571428Y-89788152D01*
X110571428Y-89788152D02*
X110619047Y-89883390D01*
X110619047Y-89883390D02*
X110666666Y-89931009D01*
X110666666Y-89931009D02*
X110761904Y-89978628D01*
X110761904Y-89978628D02*
X111142856Y-89978628D01*
X109952380Y-89454819D02*
X109761904Y-89454819D01*
X109761904Y-89454819D02*
X109666666Y-89502438D01*
X109666666Y-89502438D02*
X109571428Y-89597676D01*
X109571428Y-89597676D02*
X109523809Y-89788152D01*
X109523809Y-89788152D02*
X109523809Y-90121485D01*
X109523809Y-90121485D02*
X109571428Y-90311961D01*
X109571428Y-90311961D02*
X109666666Y-90407200D01*
X109666666Y-90407200D02*
X109761904Y-90454819D01*
X109761904Y-90454819D02*
X109952380Y-90454819D01*
X109952380Y-90454819D02*
X110047618Y-90407200D01*
X110047618Y-90407200D02*
X110142856Y-90311961D01*
X110142856Y-90311961D02*
X110190475Y-90121485D01*
X110190475Y-90121485D02*
X110190475Y-89788152D01*
X110190475Y-89788152D02*
X110142856Y-89597676D01*
X110142856Y-89597676D02*
X110047618Y-89502438D01*
X110047618Y-89502438D02*
X109952380Y-89454819D01*
X108523809Y-90454819D02*
X108857142Y-89978628D01*
X109095237Y-90454819D02*
X109095237Y-89454819D01*
X109095237Y-89454819D02*
X108714285Y-89454819D01*
X108714285Y-89454819D02*
X108619047Y-89502438D01*
X108619047Y-89502438D02*
X108571428Y-89550057D01*
X108571428Y-89550057D02*
X108523809Y-89645295D01*
X108523809Y-89645295D02*
X108523809Y-89788152D01*
X108523809Y-89788152D02*
X108571428Y-89883390D01*
X108571428Y-89883390D02*
X108619047Y-89931009D01*
X108619047Y-89931009D02*
X108714285Y-89978628D01*
X108714285Y-89978628D02*
X109095237Y-89978628D01*
X108238094Y-89454819D02*
X107666666Y-89454819D01*
X107952380Y-90454819D02*
X107952380Y-89454819D01*
X106904761Y-89788152D02*
X106904761Y-90454819D01*
X107142856Y-89407200D02*
X107380951Y-90121485D01*
X107380951Y-90121485D02*
X106761904Y-90121485D01*
X147454819Y-117299999D02*
X146978628Y-116966666D01*
X147454819Y-116728571D02*
X146454819Y-116728571D01*
X146454819Y-116728571D02*
X146454819Y-117109523D01*
X146454819Y-117109523D02*
X146502438Y-117204761D01*
X146502438Y-117204761D02*
X146550057Y-117252380D01*
X146550057Y-117252380D02*
X146645295Y-117299999D01*
X146645295Y-117299999D02*
X146788152Y-117299999D01*
X146788152Y-117299999D02*
X146883390Y-117252380D01*
X146883390Y-117252380D02*
X146931009Y-117204761D01*
X146931009Y-117204761D02*
X146978628Y-117109523D01*
X146978628Y-117109523D02*
X146978628Y-116728571D01*
X146931009Y-117728571D02*
X146931009Y-118061904D01*
X147454819Y-118204761D02*
X147454819Y-117728571D01*
X147454819Y-117728571D02*
X146454819Y-117728571D01*
X146454819Y-117728571D02*
X146454819Y-118204761D01*
X147169104Y-118585714D02*
X147169104Y-119061904D01*
X147454819Y-118490476D02*
X146454819Y-118823809D01*
X146454819Y-118823809D02*
X147454819Y-119157142D01*
X147454819Y-119490476D02*
X146454819Y-119490476D01*
X146454819Y-119490476D02*
X146454819Y-119728571D01*
X146454819Y-119728571D02*
X146502438Y-119871428D01*
X146502438Y-119871428D02*
X146597676Y-119966666D01*
X146597676Y-119966666D02*
X146692914Y-120014285D01*
X146692914Y-120014285D02*
X146883390Y-120061904D01*
X146883390Y-120061904D02*
X147026247Y-120061904D01*
X147026247Y-120061904D02*
X147216723Y-120014285D01*
X147216723Y-120014285D02*
X147311961Y-119966666D01*
X147311961Y-119966666D02*
X147407200Y-119871428D01*
X147407200Y-119871428D02*
X147454819Y-119728571D01*
X147454819Y-119728571D02*
X147454819Y-119490476D01*
X146978628Y-120680952D02*
X147454819Y-120680952D01*
X146454819Y-120347619D02*
X146978628Y-120680952D01*
X146978628Y-120680952D02*
X146454819Y-121014285D01*
X139690476Y-122231009D02*
X139547619Y-122278628D01*
X139547619Y-122278628D02*
X139500000Y-122326247D01*
X139500000Y-122326247D02*
X139452381Y-122421485D01*
X139452381Y-122421485D02*
X139452381Y-122564342D01*
X139452381Y-122564342D02*
X139500000Y-122659580D01*
X139500000Y-122659580D02*
X139547619Y-122707200D01*
X139547619Y-122707200D02*
X139642857Y-122754819D01*
X139642857Y-122754819D02*
X140023809Y-122754819D01*
X140023809Y-122754819D02*
X140023809Y-121754819D01*
X140023809Y-121754819D02*
X139690476Y-121754819D01*
X139690476Y-121754819D02*
X139595238Y-121802438D01*
X139595238Y-121802438D02*
X139547619Y-121850057D01*
X139547619Y-121850057D02*
X139500000Y-121945295D01*
X139500000Y-121945295D02*
X139500000Y-122040533D01*
X139500000Y-122040533D02*
X139547619Y-122135771D01*
X139547619Y-122135771D02*
X139595238Y-122183390D01*
X139595238Y-122183390D02*
X139690476Y-122231009D01*
X139690476Y-122231009D02*
X140023809Y-122231009D01*
X138833333Y-121754819D02*
X138642857Y-121754819D01*
X138642857Y-121754819D02*
X138547619Y-121802438D01*
X138547619Y-121802438D02*
X138452381Y-121897676D01*
X138452381Y-121897676D02*
X138404762Y-122088152D01*
X138404762Y-122088152D02*
X138404762Y-122421485D01*
X138404762Y-122421485D02*
X138452381Y-122611961D01*
X138452381Y-122611961D02*
X138547619Y-122707200D01*
X138547619Y-122707200D02*
X138642857Y-122754819D01*
X138642857Y-122754819D02*
X138833333Y-122754819D01*
X138833333Y-122754819D02*
X138928571Y-122707200D01*
X138928571Y-122707200D02*
X139023809Y-122611961D01*
X139023809Y-122611961D02*
X139071428Y-122421485D01*
X139071428Y-122421485D02*
X139071428Y-122088152D01*
X139071428Y-122088152D02*
X139023809Y-121897676D01*
X139023809Y-121897676D02*
X138928571Y-121802438D01*
X138928571Y-121802438D02*
X138833333Y-121754819D01*
X137785714Y-121754819D02*
X137595238Y-121754819D01*
X137595238Y-121754819D02*
X137500000Y-121802438D01*
X137500000Y-121802438D02*
X137404762Y-121897676D01*
X137404762Y-121897676D02*
X137357143Y-122088152D01*
X137357143Y-122088152D02*
X137357143Y-122421485D01*
X137357143Y-122421485D02*
X137404762Y-122611961D01*
X137404762Y-122611961D02*
X137500000Y-122707200D01*
X137500000Y-122707200D02*
X137595238Y-122754819D01*
X137595238Y-122754819D02*
X137785714Y-122754819D01*
X137785714Y-122754819D02*
X137880952Y-122707200D01*
X137880952Y-122707200D02*
X137976190Y-122611961D01*
X137976190Y-122611961D02*
X138023809Y-122421485D01*
X138023809Y-122421485D02*
X138023809Y-122088152D01*
X138023809Y-122088152D02*
X137976190Y-121897676D01*
X137976190Y-121897676D02*
X137880952Y-121802438D01*
X137880952Y-121802438D02*
X137785714Y-121754819D01*
X137071428Y-121754819D02*
X136500000Y-121754819D01*
X136785714Y-122754819D02*
X136785714Y-121754819D01*
X136214285Y-122707200D02*
X136071428Y-122754819D01*
X136071428Y-122754819D02*
X135833333Y-122754819D01*
X135833333Y-122754819D02*
X135738095Y-122707200D01*
X135738095Y-122707200D02*
X135690476Y-122659580D01*
X135690476Y-122659580D02*
X135642857Y-122564342D01*
X135642857Y-122564342D02*
X135642857Y-122469104D01*
X135642857Y-122469104D02*
X135690476Y-122373866D01*
X135690476Y-122373866D02*
X135738095Y-122326247D01*
X135738095Y-122326247D02*
X135833333Y-122278628D01*
X135833333Y-122278628D02*
X136023809Y-122231009D01*
X136023809Y-122231009D02*
X136119047Y-122183390D01*
X136119047Y-122183390D02*
X136166666Y-122135771D01*
X136166666Y-122135771D02*
X136214285Y-122040533D01*
X136214285Y-122040533D02*
X136214285Y-121945295D01*
X136214285Y-121945295D02*
X136166666Y-121850057D01*
X136166666Y-121850057D02*
X136119047Y-121802438D01*
X136119047Y-121802438D02*
X136023809Y-121754819D01*
X136023809Y-121754819D02*
X135785714Y-121754819D01*
X135785714Y-121754819D02*
X135642857Y-121802438D01*
X135214285Y-122231009D02*
X134880952Y-122231009D01*
X134738095Y-122754819D02*
X135214285Y-122754819D01*
X135214285Y-122754819D02*
X135214285Y-121754819D01*
X135214285Y-121754819D02*
X134738095Y-121754819D01*
X133833333Y-122754819D02*
X134309523Y-122754819D01*
X134309523Y-122754819D02*
X134309523Y-121754819D01*
X113071428Y-122131009D02*
X113404761Y-122131009D01*
X113404761Y-122654819D02*
X113404761Y-121654819D01*
X113404761Y-121654819D02*
X112928571Y-121654819D01*
X112547618Y-121654819D02*
X112547618Y-122464342D01*
X112547618Y-122464342D02*
X112499999Y-122559580D01*
X112499999Y-122559580D02*
X112452380Y-122607200D01*
X112452380Y-122607200D02*
X112357142Y-122654819D01*
X112357142Y-122654819D02*
X112166666Y-122654819D01*
X112166666Y-122654819D02*
X112071428Y-122607200D01*
X112071428Y-122607200D02*
X112023809Y-122559580D01*
X112023809Y-122559580D02*
X111976190Y-122464342D01*
X111976190Y-122464342D02*
X111976190Y-121654819D01*
X111499999Y-122654819D02*
X111499999Y-121654819D01*
X111499999Y-121654819D02*
X110928571Y-122654819D01*
X110928571Y-122654819D02*
X110928571Y-121654819D01*
X109880952Y-122559580D02*
X109928571Y-122607200D01*
X109928571Y-122607200D02*
X110071428Y-122654819D01*
X110071428Y-122654819D02*
X110166666Y-122654819D01*
X110166666Y-122654819D02*
X110309523Y-122607200D01*
X110309523Y-122607200D02*
X110404761Y-122511961D01*
X110404761Y-122511961D02*
X110452380Y-122416723D01*
X110452380Y-122416723D02*
X110499999Y-122226247D01*
X110499999Y-122226247D02*
X110499999Y-122083390D01*
X110499999Y-122083390D02*
X110452380Y-121892914D01*
X110452380Y-121892914D02*
X110404761Y-121797676D01*
X110404761Y-121797676D02*
X110309523Y-121702438D01*
X110309523Y-121702438D02*
X110166666Y-121654819D01*
X110166666Y-121654819D02*
X110071428Y-121654819D01*
X110071428Y-121654819D02*
X109928571Y-121702438D01*
X109928571Y-121702438D02*
X109880952Y-121750057D01*
X109595237Y-121654819D02*
X109023809Y-121654819D01*
X109309523Y-122654819D02*
X109309523Y-121654819D01*
X108690475Y-122654819D02*
X108690475Y-121654819D01*
X108023809Y-121654819D02*
X107833333Y-121654819D01*
X107833333Y-121654819D02*
X107738095Y-121702438D01*
X107738095Y-121702438D02*
X107642857Y-121797676D01*
X107642857Y-121797676D02*
X107595238Y-121988152D01*
X107595238Y-121988152D02*
X107595238Y-122321485D01*
X107595238Y-122321485D02*
X107642857Y-122511961D01*
X107642857Y-122511961D02*
X107738095Y-122607200D01*
X107738095Y-122607200D02*
X107833333Y-122654819D01*
X107833333Y-122654819D02*
X108023809Y-122654819D01*
X108023809Y-122654819D02*
X108119047Y-122607200D01*
X108119047Y-122607200D02*
X108214285Y-122511961D01*
X108214285Y-122511961D02*
X108261904Y-122321485D01*
X108261904Y-122321485D02*
X108261904Y-121988152D01*
X108261904Y-121988152D02*
X108214285Y-121797676D01*
X108214285Y-121797676D02*
X108119047Y-121702438D01*
X108119047Y-121702438D02*
X108023809Y-121654819D01*
X107166666Y-122654819D02*
X107166666Y-121654819D01*
X107166666Y-121654819D02*
X106595238Y-122654819D01*
X106595238Y-122654819D02*
X106595238Y-121654819D01*
X135254819Y-116657143D02*
X134254819Y-116657143D01*
X134254819Y-116657143D02*
X134254819Y-117038095D01*
X134254819Y-117038095D02*
X134302438Y-117133333D01*
X134302438Y-117133333D02*
X134350057Y-117180952D01*
X134350057Y-117180952D02*
X134445295Y-117228571D01*
X134445295Y-117228571D02*
X134588152Y-117228571D01*
X134588152Y-117228571D02*
X134683390Y-117180952D01*
X134683390Y-117180952D02*
X134731009Y-117133333D01*
X134731009Y-117133333D02*
X134778628Y-117038095D01*
X134778628Y-117038095D02*
X134778628Y-116657143D01*
X134254819Y-117847619D02*
X134254819Y-118038095D01*
X134254819Y-118038095D02*
X134302438Y-118133333D01*
X134302438Y-118133333D02*
X134397676Y-118228571D01*
X134397676Y-118228571D02*
X134588152Y-118276190D01*
X134588152Y-118276190D02*
X134921485Y-118276190D01*
X134921485Y-118276190D02*
X135111961Y-118228571D01*
X135111961Y-118228571D02*
X135207200Y-118133333D01*
X135207200Y-118133333D02*
X135254819Y-118038095D01*
X135254819Y-118038095D02*
X135254819Y-117847619D01*
X135254819Y-117847619D02*
X135207200Y-117752381D01*
X135207200Y-117752381D02*
X135111961Y-117657143D01*
X135111961Y-117657143D02*
X134921485Y-117609524D01*
X134921485Y-117609524D02*
X134588152Y-117609524D01*
X134588152Y-117609524D02*
X134397676Y-117657143D01*
X134397676Y-117657143D02*
X134302438Y-117752381D01*
X134302438Y-117752381D02*
X134254819Y-117847619D01*
X135254819Y-119276190D02*
X134778628Y-118942857D01*
X135254819Y-118704762D02*
X134254819Y-118704762D01*
X134254819Y-118704762D02*
X134254819Y-119085714D01*
X134254819Y-119085714D02*
X134302438Y-119180952D01*
X134302438Y-119180952D02*
X134350057Y-119228571D01*
X134350057Y-119228571D02*
X134445295Y-119276190D01*
X134445295Y-119276190D02*
X134588152Y-119276190D01*
X134588152Y-119276190D02*
X134683390Y-119228571D01*
X134683390Y-119228571D02*
X134731009Y-119180952D01*
X134731009Y-119180952D02*
X134778628Y-119085714D01*
X134778628Y-119085714D02*
X134778628Y-118704762D01*
X134254819Y-119561905D02*
X134254819Y-120133333D01*
X135254819Y-119847619D02*
X134254819Y-119847619D01*
X134254819Y-120371429D02*
X134254819Y-120990476D01*
X134254819Y-120990476D02*
X134635771Y-120657143D01*
X134635771Y-120657143D02*
X134635771Y-120800000D01*
X134635771Y-120800000D02*
X134683390Y-120895238D01*
X134683390Y-120895238D02*
X134731009Y-120942857D01*
X134731009Y-120942857D02*
X134826247Y-120990476D01*
X134826247Y-120990476D02*
X135064342Y-120990476D01*
X135064342Y-120990476D02*
X135159580Y-120942857D01*
X135159580Y-120942857D02*
X135207200Y-120895238D01*
X135207200Y-120895238D02*
X135254819Y-120800000D01*
X135254819Y-120800000D02*
X135254819Y-120514286D01*
X135254819Y-120514286D02*
X135207200Y-120419048D01*
X135207200Y-120419048D02*
X135159580Y-120371429D01*
X148292856Y-90454819D02*
X148292856Y-89454819D01*
X148292856Y-89454819D02*
X147911904Y-89454819D01*
X147911904Y-89454819D02*
X147816666Y-89502438D01*
X147816666Y-89502438D02*
X147769047Y-89550057D01*
X147769047Y-89550057D02*
X147721428Y-89645295D01*
X147721428Y-89645295D02*
X147721428Y-89788152D01*
X147721428Y-89788152D02*
X147769047Y-89883390D01*
X147769047Y-89883390D02*
X147816666Y-89931009D01*
X147816666Y-89931009D02*
X147911904Y-89978628D01*
X147911904Y-89978628D02*
X148292856Y-89978628D01*
X147102380Y-89454819D02*
X146911904Y-89454819D01*
X146911904Y-89454819D02*
X146816666Y-89502438D01*
X146816666Y-89502438D02*
X146721428Y-89597676D01*
X146721428Y-89597676D02*
X146673809Y-89788152D01*
X146673809Y-89788152D02*
X146673809Y-90121485D01*
X146673809Y-90121485D02*
X146721428Y-90311961D01*
X146721428Y-90311961D02*
X146816666Y-90407200D01*
X146816666Y-90407200D02*
X146911904Y-90454819D01*
X146911904Y-90454819D02*
X147102380Y-90454819D01*
X147102380Y-90454819D02*
X147197618Y-90407200D01*
X147197618Y-90407200D02*
X147292856Y-90311961D01*
X147292856Y-90311961D02*
X147340475Y-90121485D01*
X147340475Y-90121485D02*
X147340475Y-89788152D01*
X147340475Y-89788152D02*
X147292856Y-89597676D01*
X147292856Y-89597676D02*
X147197618Y-89502438D01*
X147197618Y-89502438D02*
X147102380Y-89454819D01*
X145673809Y-90454819D02*
X146007142Y-89978628D01*
X146245237Y-90454819D02*
X146245237Y-89454819D01*
X146245237Y-89454819D02*
X145864285Y-89454819D01*
X145864285Y-89454819D02*
X145769047Y-89502438D01*
X145769047Y-89502438D02*
X145721428Y-89550057D01*
X145721428Y-89550057D02*
X145673809Y-89645295D01*
X145673809Y-89645295D02*
X145673809Y-89788152D01*
X145673809Y-89788152D02*
X145721428Y-89883390D01*
X145721428Y-89883390D02*
X145769047Y-89931009D01*
X145769047Y-89931009D02*
X145864285Y-89978628D01*
X145864285Y-89978628D02*
X146245237Y-89978628D01*
X145388094Y-89454819D02*
X144816666Y-89454819D01*
X145102380Y-90454819D02*
X145102380Y-89454819D01*
X144578570Y-89454819D02*
X143959523Y-89454819D01*
X143959523Y-89454819D02*
X144292856Y-89835771D01*
X144292856Y-89835771D02*
X144149999Y-89835771D01*
X144149999Y-89835771D02*
X144054761Y-89883390D01*
X144054761Y-89883390D02*
X144007142Y-89931009D01*
X144007142Y-89931009D02*
X143959523Y-90026247D01*
X143959523Y-90026247D02*
X143959523Y-90264342D01*
X143959523Y-90264342D02*
X144007142Y-90359580D01*
X144007142Y-90359580D02*
X144054761Y-90407200D01*
X144054761Y-90407200D02*
X144149999Y-90454819D01*
X144149999Y-90454819D02*
X144435713Y-90454819D01*
X144435713Y-90454819D02*
X144530951Y-90407200D01*
X144530951Y-90407200D02*
X144578570Y-90359580D01*
X111142856Y-75454819D02*
X111142856Y-74454819D01*
X111142856Y-74454819D02*
X110761904Y-74454819D01*
X110761904Y-74454819D02*
X110666666Y-74502438D01*
X110666666Y-74502438D02*
X110619047Y-74550057D01*
X110619047Y-74550057D02*
X110571428Y-74645295D01*
X110571428Y-74645295D02*
X110571428Y-74788152D01*
X110571428Y-74788152D02*
X110619047Y-74883390D01*
X110619047Y-74883390D02*
X110666666Y-74931009D01*
X110666666Y-74931009D02*
X110761904Y-74978628D01*
X110761904Y-74978628D02*
X111142856Y-74978628D01*
X109952380Y-74454819D02*
X109761904Y-74454819D01*
X109761904Y-74454819D02*
X109666666Y-74502438D01*
X109666666Y-74502438D02*
X109571428Y-74597676D01*
X109571428Y-74597676D02*
X109523809Y-74788152D01*
X109523809Y-74788152D02*
X109523809Y-75121485D01*
X109523809Y-75121485D02*
X109571428Y-75311961D01*
X109571428Y-75311961D02*
X109666666Y-75407200D01*
X109666666Y-75407200D02*
X109761904Y-75454819D01*
X109761904Y-75454819D02*
X109952380Y-75454819D01*
X109952380Y-75454819D02*
X110047618Y-75407200D01*
X110047618Y-75407200D02*
X110142856Y-75311961D01*
X110142856Y-75311961D02*
X110190475Y-75121485D01*
X110190475Y-75121485D02*
X110190475Y-74788152D01*
X110190475Y-74788152D02*
X110142856Y-74597676D01*
X110142856Y-74597676D02*
X110047618Y-74502438D01*
X110047618Y-74502438D02*
X109952380Y-74454819D01*
X108523809Y-75454819D02*
X108857142Y-74978628D01*
X109095237Y-75454819D02*
X109095237Y-74454819D01*
X109095237Y-74454819D02*
X108714285Y-74454819D01*
X108714285Y-74454819D02*
X108619047Y-74502438D01*
X108619047Y-74502438D02*
X108571428Y-74550057D01*
X108571428Y-74550057D02*
X108523809Y-74645295D01*
X108523809Y-74645295D02*
X108523809Y-74788152D01*
X108523809Y-74788152D02*
X108571428Y-74883390D01*
X108571428Y-74883390D02*
X108619047Y-74931009D01*
X108619047Y-74931009D02*
X108714285Y-74978628D01*
X108714285Y-74978628D02*
X109095237Y-74978628D01*
X108238094Y-74454819D02*
X107666666Y-74454819D01*
X107952380Y-75454819D02*
X107952380Y-74454819D01*
X107380951Y-74550057D02*
X107333332Y-74502438D01*
X107333332Y-74502438D02*
X107238094Y-74454819D01*
X107238094Y-74454819D02*
X106999999Y-74454819D01*
X106999999Y-74454819D02*
X106904761Y-74502438D01*
X106904761Y-74502438D02*
X106857142Y-74550057D01*
X106857142Y-74550057D02*
X106809523Y-74645295D01*
X106809523Y-74645295D02*
X106809523Y-74740533D01*
X106809523Y-74740533D02*
X106857142Y-74883390D01*
X106857142Y-74883390D02*
X107428570Y-75454819D01*
X107428570Y-75454819D02*
X106809523Y-75454819D01*
D11*
G04 #@! TO.C,R9*
X125790000Y-79777064D02*
X125790000Y-75422936D01*
X129210000Y-79777064D02*
X129210000Y-75422936D01*
G04 #@! TO.C,R22*
X141380000Y-115346359D02*
X141380000Y-115653641D01*
X140620000Y-115346359D02*
X140620000Y-115653641D01*
G04 #@! TO.C,D1*
X149265000Y-114485000D02*
X149265000Y-112200000D01*
X150735000Y-114485000D02*
X149265000Y-114485000D01*
X150735000Y-112200000D02*
X150735000Y-114485000D01*
G04 #@! TO.C,D8*
X137265000Y-114485000D02*
X137265000Y-112200000D01*
X138735000Y-114485000D02*
X137265000Y-114485000D01*
X138735000Y-112200000D02*
X138735000Y-114485000D01*
G04 #@! TO.C,R18*
X111380000Y-115346359D02*
X111380000Y-115653641D01*
X110620000Y-115346359D02*
X110620000Y-115653641D01*
G04 #@! TO.C,R24*
X135380000Y-115346359D02*
X135380000Y-115653641D01*
X134620000Y-115346359D02*
X134620000Y-115653641D01*
G04 #@! TO.C,SW1*
X134000000Y-126500000D02*
X140000000Y-126500000D01*
X134000000Y-126500000D02*
X134000000Y-132500000D01*
X140000000Y-132500000D02*
X140000000Y-126500000D01*
X134000000Y-132500000D02*
X140000000Y-132500000D01*
X138802776Y-129500000D02*
G75*
G03*
X138802776Y-129500000I-1802776J0D01*
G01*
G04 #@! TO.C,D10*
X131265000Y-114485000D02*
X131265000Y-112200000D01*
X132735000Y-114485000D02*
X131265000Y-114485000D01*
X132735000Y-112200000D02*
X132735000Y-114485000D01*
G04 #@! TO.C,D11*
X134265000Y-114485000D02*
X134265000Y-112200000D01*
X135735000Y-114485000D02*
X134265000Y-114485000D01*
X135735000Y-112200000D02*
X135735000Y-114485000D01*
G04 #@! TO.C,R23*
X130353641Y-112380000D02*
X130046359Y-112380000D01*
X130353641Y-111620000D02*
X130046359Y-111620000D01*
G04 #@! TO.C,D9*
X140265000Y-114485000D02*
X140265000Y-112200000D01*
X141735000Y-114485000D02*
X140265000Y-114485000D01*
X141735000Y-112200000D02*
X141735000Y-114485000D01*
G04 #@! TO.C,D5*
X110265000Y-114485000D02*
X110265000Y-112200000D01*
X111735000Y-114485000D02*
X110265000Y-114485000D01*
X111735000Y-112200000D02*
X111735000Y-114485000D01*
G04 #@! TO.C,R15*
X147380000Y-115346359D02*
X147380000Y-115653641D01*
X146620000Y-115346359D02*
X146620000Y-115653641D01*
G04 #@! TO.C,R19*
X108380000Y-115346359D02*
X108380000Y-115653641D01*
X107620000Y-115346359D02*
X107620000Y-115653641D01*
G04 #@! TO.C,R16*
X144380000Y-115346359D02*
X144380000Y-115653641D01*
X143620000Y-115346359D02*
X143620000Y-115653641D01*
G04 #@! TO.C,R21*
X138380000Y-115346359D02*
X138380000Y-115653641D01*
X137620000Y-115346359D02*
X137620000Y-115653641D01*
G04 #@! TO.C,J6*
X125405000Y-114670000D02*
X125405000Y-114035000D01*
X124770000Y-114670000D02*
X125405000Y-114670000D01*
G04 #@! TO.C,R20*
X105380000Y-115346359D02*
X105380000Y-115653641D01*
X104620000Y-115346359D02*
X104620000Y-115653641D01*
G04 #@! TO.C,SW3*
X113000000Y-132500000D02*
X107000000Y-132500000D01*
X113000000Y-132500000D02*
X113000000Y-126500000D01*
X107000000Y-126500000D02*
X107000000Y-132500000D01*
X113000000Y-126500000D02*
X107000000Y-126500000D01*
X111802776Y-129500000D02*
G75*
G03*
X111802776Y-129500000I-1802776J0D01*
G01*
G04 #@! TO.C,R17*
X114380000Y-115346359D02*
X114380000Y-115653641D01*
X113620000Y-115346359D02*
X113620000Y-115653641D01*
G04 #@! TO.C,R14*
X150380000Y-115346359D02*
X150380000Y-115653641D01*
X149620000Y-115346359D02*
X149620000Y-115653641D01*
G04 #@! TO.C,D6*
X107265000Y-114485000D02*
X107265000Y-112200000D01*
X108735000Y-114485000D02*
X107265000Y-114485000D01*
X108735000Y-112200000D02*
X108735000Y-114485000D01*
G04 #@! TO.C,R8*
X125790000Y-93577064D02*
X125790000Y-89222936D01*
X129210000Y-93577064D02*
X129210000Y-89222936D01*
G04 #@! TO.C,D3*
X143265000Y-114485000D02*
X143265000Y-112200000D01*
X144735000Y-114485000D02*
X143265000Y-114485000D01*
X144735000Y-112200000D02*
X144735000Y-114485000D01*
G04 #@! TO.C,D2*
X146265000Y-114485000D02*
X146265000Y-112200000D01*
X147735000Y-114485000D02*
X146265000Y-114485000D01*
X147735000Y-112200000D02*
X147735000Y-114485000D01*
G04 #@! TO.C,TH1*
X122120000Y-84653641D02*
X122120000Y-84346359D01*
X122880000Y-84653641D02*
X122880000Y-84346359D01*
G04 #@! TO.C,SW2*
X148000000Y-132500000D02*
X142000000Y-132500000D01*
X148000000Y-132500000D02*
X148000000Y-126500000D01*
X142000000Y-126500000D02*
X142000000Y-132500000D01*
X148000000Y-126500000D02*
X142000000Y-126500000D01*
X146802776Y-129500000D02*
G75*
G03*
X146802776Y-129500000I-1802776J0D01*
G01*
G04 #@! TO.C,D7*
X104265000Y-114485000D02*
X104265000Y-112200000D01*
X105735000Y-114485000D02*
X104265000Y-114485000D01*
X105735000Y-112200000D02*
X105735000Y-114485000D01*
G04 #@! TO.C,D4*
X113265000Y-114485000D02*
X113265000Y-112200000D01*
X114735000Y-114485000D02*
X113265000Y-114485000D01*
X114735000Y-112200000D02*
X114735000Y-114485000D01*
G04 #@! TD*
M02*
