G04 #@! TF.GenerationSoftware,KiCad,Pcbnew,7.0.8-7.0.8~ubuntu22.04.1*
G04 #@! TF.CreationDate,2023-11-30T18:16:29+01:00*
G04 #@! TF.ProjectId,LibreCAL,4c696272-6543-4414-9c2e-6b696361645f,B*
G04 #@! TF.SameCoordinates,Original*
G04 #@! TF.FileFunction,Paste,Bot*
G04 #@! TF.FilePolarity,Positive*
%FSLAX46Y46*%
G04 Gerber Fmt 4.6, Leading zero omitted, Abs format (unit mm)*
G04 Created by KiCad (PCBNEW 7.0.8-7.0.8~ubuntu22.04.1) date 2023-11-30 18:16:29*
%MOMM*%
%LPD*%
G01*
G04 APERTURE LIST*
G04 Aperture macros list*
%AMRoundRect*
0 Rectangle with rounded corners*
0 $1 Rounding radius*
0 $2 $3 $4 $5 $6 $7 $8 $9 X,Y pos of 4 corners*
0 Add a 4 corners polygon primitive as box body*
4,1,4,$2,$3,$4,$5,$6,$7,$8,$9,$2,$3,0*
0 Add four circle primitives for the rounded corners*
1,1,$1+$1,$2,$3*
1,1,$1+$1,$4,$5*
1,1,$1+$1,$6,$7*
1,1,$1+$1,$8,$9*
0 Add four rect primitives between the rounded corners*
20,1,$1+$1,$2,$3,$4,$5,0*
20,1,$1+$1,$4,$5,$6,$7,0*
20,1,$1+$1,$6,$7,$8,$9,0*
20,1,$1+$1,$8,$9,$2,$3,0*%
G04 Aperture macros list end*
%ADD10RoundRect,0.250000X1.425000X-0.362500X1.425000X0.362500X-1.425000X0.362500X-1.425000X-0.362500X0*%
%ADD11RoundRect,0.135000X-0.185000X0.135000X-0.185000X-0.135000X0.185000X-0.135000X0.185000X0.135000X0*%
%ADD12RoundRect,0.218750X0.256250X-0.218750X0.256250X0.218750X-0.256250X0.218750X-0.256250X-0.218750X0*%
%ADD13RoundRect,0.140000X-0.560000X0.910000X-0.560000X-0.910000X0.560000X-0.910000X0.560000X0.910000X0*%
%ADD14RoundRect,0.135000X0.135000X0.185000X-0.135000X0.185000X-0.135000X-0.185000X0.135000X-0.185000X0*%
%ADD15RoundRect,0.140000X0.560000X-0.910000X0.560000X0.910000X-0.560000X0.910000X-0.560000X-0.910000X0*%
%ADD16RoundRect,0.135000X0.185000X-0.135000X0.185000X0.135000X-0.185000X0.135000X-0.185000X-0.135000X0*%
G04 APERTURE END LIST*
D10*
G04 #@! TO.C,R9*
X127500000Y-80562500D03*
X127500000Y-74637500D03*
G04 #@! TD*
D11*
G04 #@! TO.C,R22*
X141000000Y-114990000D03*
X141000000Y-116010000D03*
G04 #@! TD*
D12*
G04 #@! TO.C,D1*
X150000000Y-113787500D03*
X150000000Y-112212500D03*
G04 #@! TD*
G04 #@! TO.C,D8*
X138000000Y-113787500D03*
X138000000Y-112212500D03*
G04 #@! TD*
D11*
G04 #@! TO.C,R18*
X111000000Y-114990000D03*
X111000000Y-116010000D03*
G04 #@! TD*
G04 #@! TO.C,R24*
X135000000Y-114990000D03*
X135000000Y-116010000D03*
G04 #@! TD*
D13*
G04 #@! TO.C,SW1*
X139250000Y-124950000D03*
X139250000Y-134050000D03*
X134750000Y-124950000D03*
X134750000Y-134050000D03*
G04 #@! TD*
D12*
G04 #@! TO.C,D10*
X132000000Y-113787500D03*
X132000000Y-112212500D03*
G04 #@! TD*
G04 #@! TO.C,D11*
X135000000Y-113787500D03*
X135000000Y-112212500D03*
G04 #@! TD*
D14*
G04 #@! TO.C,R23*
X130710000Y-112000000D03*
X129690000Y-112000000D03*
G04 #@! TD*
D12*
G04 #@! TO.C,D9*
X141000000Y-113787500D03*
X141000000Y-112212500D03*
G04 #@! TD*
G04 #@! TO.C,D5*
X111000000Y-113787500D03*
X111000000Y-112212500D03*
G04 #@! TD*
D11*
G04 #@! TO.C,R15*
X147000000Y-114990000D03*
X147000000Y-116010000D03*
G04 #@! TD*
G04 #@! TO.C,R19*
X108000000Y-114990000D03*
X108000000Y-116010000D03*
G04 #@! TD*
G04 #@! TO.C,R16*
X144000000Y-114990000D03*
X144000000Y-116010000D03*
G04 #@! TD*
G04 #@! TO.C,R21*
X138000000Y-114990000D03*
X138000000Y-116010000D03*
G04 #@! TD*
G04 #@! TO.C,R20*
X105000000Y-114990000D03*
X105000000Y-116010000D03*
G04 #@! TD*
D15*
G04 #@! TO.C,SW3*
X107750000Y-134050000D03*
X107750000Y-124950000D03*
X112250000Y-134050000D03*
X112250000Y-124950000D03*
G04 #@! TD*
D11*
G04 #@! TO.C,R17*
X114000000Y-114990000D03*
X114000000Y-116010000D03*
G04 #@! TD*
G04 #@! TO.C,R14*
X150000000Y-114990000D03*
X150000000Y-116010000D03*
G04 #@! TD*
D12*
G04 #@! TO.C,D6*
X108000000Y-113787500D03*
X108000000Y-112212500D03*
G04 #@! TD*
D10*
G04 #@! TO.C,R8*
X127500000Y-94362500D03*
X127500000Y-88437500D03*
G04 #@! TD*
D12*
G04 #@! TO.C,D3*
X144000000Y-113787500D03*
X144000000Y-112212500D03*
G04 #@! TD*
G04 #@! TO.C,D2*
X147000000Y-113787500D03*
X147000000Y-112212500D03*
G04 #@! TD*
D16*
G04 #@! TO.C,TH1*
X122500000Y-85010000D03*
X122500000Y-83990000D03*
G04 #@! TD*
D15*
G04 #@! TO.C,SW2*
X142750000Y-134050000D03*
X142750000Y-124950000D03*
X147250000Y-134050000D03*
X147250000Y-124950000D03*
G04 #@! TD*
D12*
G04 #@! TO.C,D7*
X105000000Y-113787500D03*
X105000000Y-112212500D03*
G04 #@! TD*
G04 #@! TO.C,D4*
X114000000Y-113787500D03*
X114000000Y-112212500D03*
G04 #@! TD*
M02*
