%TF.GenerationSoftware,KiCad,Pcbnew,(6.0.7)*%
%TF.CreationDate,2022-08-30T14:04:15+02:00*%
%TF.ProjectId,LibreCAL,4c696272-6543-4414-9c2e-6b696361645f,rev?*%
%TF.SameCoordinates,Original*%
%TF.FileFunction,Legend,Top*%
%TF.FilePolarity,Positive*%
%FSLAX46Y46*%
G04 Gerber Fmt 4.6, Leading zero omitted, Abs format (unit mm)*
G04 Created by KiCad (PCBNEW (6.0.7)) date 2022-08-30 14:04:15*
%MOMM*%
%LPD*%
G01*
G04 APERTURE LIST*
%ADD10C,0.150000*%
%ADD11C,0.120000*%
G04 APERTURE END LIST*
D10*
X104309523Y-128552380D02*
X103833333Y-128552380D01*
X103833333Y-127552380D01*
X104642857Y-128552380D02*
X104642857Y-127885714D01*
X104642857Y-127552380D02*
X104595238Y-127600000D01*
X104642857Y-127647619D01*
X104690476Y-127600000D01*
X104642857Y-127552380D01*
X104642857Y-127647619D01*
X105119047Y-128552380D02*
X105119047Y-127552380D01*
X105119047Y-127933333D02*
X105214285Y-127885714D01*
X105404761Y-127885714D01*
X105500000Y-127933333D01*
X105547619Y-127980952D01*
X105595238Y-128076190D01*
X105595238Y-128361904D01*
X105547619Y-128457142D01*
X105500000Y-128504761D01*
X105404761Y-128552380D01*
X105214285Y-128552380D01*
X105119047Y-128504761D01*
X106023809Y-128552380D02*
X106023809Y-127885714D01*
X106023809Y-128076190D02*
X106071428Y-127980952D01*
X106119047Y-127933333D01*
X106214285Y-127885714D01*
X106309523Y-127885714D01*
X107023809Y-128504761D02*
X106928571Y-128552380D01*
X106738095Y-128552380D01*
X106642857Y-128504761D01*
X106595238Y-128409523D01*
X106595238Y-128028571D01*
X106642857Y-127933333D01*
X106738095Y-127885714D01*
X106928571Y-127885714D01*
X107023809Y-127933333D01*
X107071428Y-128028571D01*
X107071428Y-128123809D01*
X106595238Y-128219047D01*
X108071428Y-128457142D02*
X108023809Y-128504761D01*
X107880952Y-128552380D01*
X107785714Y-128552380D01*
X107642857Y-128504761D01*
X107547619Y-128409523D01*
X107500000Y-128314285D01*
X107452380Y-128123809D01*
X107452380Y-127980952D01*
X107500000Y-127790476D01*
X107547619Y-127695238D01*
X107642857Y-127600000D01*
X107785714Y-127552380D01*
X107880952Y-127552380D01*
X108023809Y-127600000D01*
X108071428Y-127647619D01*
X108452380Y-128266666D02*
X108928571Y-128266666D01*
X108357142Y-128552380D02*
X108690476Y-127552380D01*
X109023809Y-128552380D01*
X109833333Y-128552380D02*
X109357142Y-128552380D01*
X109357142Y-127552380D01*
X111500000Y-128552380D02*
X111166666Y-128076190D01*
X110928571Y-128552380D02*
X110928571Y-127552380D01*
X111309523Y-127552380D01*
X111404761Y-127600000D01*
X111452380Y-127647619D01*
X111500000Y-127742857D01*
X111500000Y-127885714D01*
X111452380Y-127980952D01*
X111404761Y-128028571D01*
X111309523Y-128076190D01*
X110928571Y-128076190D01*
X112309523Y-128504761D02*
X112214285Y-128552380D01*
X112023809Y-128552380D01*
X111928571Y-128504761D01*
X111880952Y-128409523D01*
X111880952Y-128028571D01*
X111928571Y-127933333D01*
X112023809Y-127885714D01*
X112214285Y-127885714D01*
X112309523Y-127933333D01*
X112357142Y-128028571D01*
X112357142Y-128123809D01*
X111880952Y-128219047D01*
X112690476Y-127885714D02*
X112928571Y-128552380D01*
X113166666Y-127885714D01*
X113547619Y-128457142D02*
X113595238Y-128504761D01*
X113547619Y-128552380D01*
X113500000Y-128504761D01*
X113547619Y-128457142D01*
X113547619Y-128552380D01*
X114738095Y-128266666D02*
X115214285Y-128266666D01*
X114642857Y-128552380D02*
X114976190Y-127552380D01*
X115309523Y-128552380D01*
X104033333Y-129450000D02*
X104033333Y-130016666D01*
X104000000Y-130083333D01*
X103966666Y-130116666D01*
X103900000Y-130150000D01*
X103800000Y-130150000D01*
X103733333Y-130116666D01*
X104033333Y-129883333D02*
X103966666Y-129916666D01*
X103833333Y-129916666D01*
X103766666Y-129883333D01*
X103733333Y-129850000D01*
X103700000Y-129783333D01*
X103700000Y-129583333D01*
X103733333Y-129516666D01*
X103766666Y-129483333D01*
X103833333Y-129450000D01*
X103966666Y-129450000D01*
X104033333Y-129483333D01*
X104366666Y-129916666D02*
X104366666Y-129450000D01*
X104366666Y-129216666D02*
X104333333Y-129250000D01*
X104366666Y-129283333D01*
X104400000Y-129250000D01*
X104366666Y-129216666D01*
X104366666Y-129283333D01*
X104600000Y-129450000D02*
X104866666Y-129450000D01*
X104700000Y-129216666D02*
X104700000Y-129816666D01*
X104733333Y-129883333D01*
X104800000Y-129916666D01*
X104866666Y-129916666D01*
X105100000Y-129916666D02*
X105100000Y-129216666D01*
X105400000Y-129916666D02*
X105400000Y-129550000D01*
X105366666Y-129483333D01*
X105300000Y-129450000D01*
X105200000Y-129450000D01*
X105133333Y-129483333D01*
X105100000Y-129516666D01*
X106033333Y-129450000D02*
X106033333Y-129916666D01*
X105733333Y-129450000D02*
X105733333Y-129816666D01*
X105766666Y-129883333D01*
X105833333Y-129916666D01*
X105933333Y-129916666D01*
X106000000Y-129883333D01*
X106033333Y-129850000D01*
X106366666Y-129916666D02*
X106366666Y-129216666D01*
X106366666Y-129483333D02*
X106433333Y-129450000D01*
X106566666Y-129450000D01*
X106633333Y-129483333D01*
X106666666Y-129516666D01*
X106700000Y-129583333D01*
X106700000Y-129783333D01*
X106666666Y-129850000D01*
X106633333Y-129883333D01*
X106566666Y-129916666D01*
X106433333Y-129916666D01*
X106366666Y-129883333D01*
X107000000Y-129850000D02*
X107033333Y-129883333D01*
X107000000Y-129916666D01*
X106966666Y-129883333D01*
X107000000Y-129850000D01*
X107000000Y-129916666D01*
X107633333Y-129883333D02*
X107566666Y-129916666D01*
X107433333Y-129916666D01*
X107366666Y-129883333D01*
X107333333Y-129850000D01*
X107300000Y-129783333D01*
X107300000Y-129583333D01*
X107333333Y-129516666D01*
X107366666Y-129483333D01*
X107433333Y-129450000D01*
X107566666Y-129450000D01*
X107633333Y-129483333D01*
X108033333Y-129916666D02*
X107966666Y-129883333D01*
X107933333Y-129850000D01*
X107900000Y-129783333D01*
X107900000Y-129583333D01*
X107933333Y-129516666D01*
X107966666Y-129483333D01*
X108033333Y-129450000D01*
X108133333Y-129450000D01*
X108200000Y-129483333D01*
X108233333Y-129516666D01*
X108266666Y-129583333D01*
X108266666Y-129783333D01*
X108233333Y-129850000D01*
X108200000Y-129883333D01*
X108133333Y-129916666D01*
X108033333Y-129916666D01*
X108566666Y-129916666D02*
X108566666Y-129450000D01*
X108566666Y-129516666D02*
X108600000Y-129483333D01*
X108666666Y-129450000D01*
X108766666Y-129450000D01*
X108833333Y-129483333D01*
X108866666Y-129550000D01*
X108866666Y-129916666D01*
X108866666Y-129550000D02*
X108900000Y-129483333D01*
X108966666Y-129450000D01*
X109066666Y-129450000D01*
X109133333Y-129483333D01*
X109166666Y-129550000D01*
X109166666Y-129916666D01*
X110000000Y-129183333D02*
X109400000Y-130083333D01*
X110233333Y-129450000D02*
X110233333Y-130050000D01*
X110200000Y-130116666D01*
X110133333Y-130150000D01*
X110100000Y-130150000D01*
X110233333Y-129216666D02*
X110200000Y-129250000D01*
X110233333Y-129283333D01*
X110266666Y-129250000D01*
X110233333Y-129216666D01*
X110233333Y-129283333D01*
X110866666Y-129916666D02*
X110866666Y-129550000D01*
X110833333Y-129483333D01*
X110766666Y-129450000D01*
X110633333Y-129450000D01*
X110566666Y-129483333D01*
X110866666Y-129883333D02*
X110800000Y-129916666D01*
X110633333Y-129916666D01*
X110566666Y-129883333D01*
X110533333Y-129816666D01*
X110533333Y-129750000D01*
X110566666Y-129683333D01*
X110633333Y-129650000D01*
X110800000Y-129650000D01*
X110866666Y-129616666D01*
X111200000Y-129450000D02*
X111200000Y-129916666D01*
X111200000Y-129516666D02*
X111233333Y-129483333D01*
X111300000Y-129450000D01*
X111400000Y-129450000D01*
X111466666Y-129483333D01*
X111500000Y-129550000D01*
X111500000Y-129916666D01*
X111833333Y-129916666D02*
X111833333Y-129216666D01*
X111900000Y-129650000D02*
X112100000Y-129916666D01*
X112100000Y-129450000D02*
X111833333Y-129716666D01*
X112700000Y-129916666D02*
X112700000Y-129550000D01*
X112666666Y-129483333D01*
X112600000Y-129450000D01*
X112466666Y-129450000D01*
X112400000Y-129483333D01*
X112700000Y-129883333D02*
X112633333Y-129916666D01*
X112466666Y-129916666D01*
X112400000Y-129883333D01*
X112366666Y-129816666D01*
X112366666Y-129750000D01*
X112400000Y-129683333D01*
X112466666Y-129650000D01*
X112633333Y-129650000D01*
X112700000Y-129616666D01*
X113300000Y-129883333D02*
X113233333Y-129916666D01*
X113100000Y-129916666D01*
X113033333Y-129883333D01*
X113000000Y-129816666D01*
X113000000Y-129550000D01*
X113033333Y-129483333D01*
X113100000Y-129450000D01*
X113233333Y-129450000D01*
X113300000Y-129483333D01*
X113333333Y-129550000D01*
X113333333Y-129616666D01*
X113000000Y-129683333D01*
X114133333Y-129183333D02*
X113533333Y-130083333D01*
X114700000Y-129916666D02*
X114366666Y-129916666D01*
X114366666Y-129216666D01*
X114933333Y-129916666D02*
X114933333Y-129450000D01*
X114933333Y-129216666D02*
X114900000Y-129250000D01*
X114933333Y-129283333D01*
X114966666Y-129250000D01*
X114933333Y-129216666D01*
X114933333Y-129283333D01*
X115266666Y-129916666D02*
X115266666Y-129216666D01*
X115266666Y-129483333D02*
X115333333Y-129450000D01*
X115466666Y-129450000D01*
X115533333Y-129483333D01*
X115566666Y-129516666D01*
X115600000Y-129583333D01*
X115600000Y-129783333D01*
X115566666Y-129850000D01*
X115533333Y-129883333D01*
X115466666Y-129916666D01*
X115333333Y-129916666D01*
X115266666Y-129883333D01*
X115900000Y-129916666D02*
X115900000Y-129450000D01*
X115900000Y-129583333D02*
X115933333Y-129516666D01*
X115966666Y-129483333D01*
X116033333Y-129450000D01*
X116100000Y-129450000D01*
X116600000Y-129883333D02*
X116533333Y-129916666D01*
X116400000Y-129916666D01*
X116333333Y-129883333D01*
X116300000Y-129816666D01*
X116300000Y-129550000D01*
X116333333Y-129483333D01*
X116400000Y-129450000D01*
X116533333Y-129450000D01*
X116600000Y-129483333D01*
X116633333Y-129550000D01*
X116633333Y-129616666D01*
X116300000Y-129683333D01*
X117333333Y-129850000D02*
X117300000Y-129883333D01*
X117200000Y-129916666D01*
X117133333Y-129916666D01*
X117033333Y-129883333D01*
X116966666Y-129816666D01*
X116933333Y-129750000D01*
X116900000Y-129616666D01*
X116900000Y-129516666D01*
X116933333Y-129383333D01*
X116966666Y-129316666D01*
X117033333Y-129250000D01*
X117133333Y-129216666D01*
X117200000Y-129216666D01*
X117300000Y-129250000D01*
X117333333Y-129283333D01*
X117600000Y-129716666D02*
X117933333Y-129716666D01*
X117533333Y-129916666D02*
X117766666Y-129216666D01*
X118000000Y-129916666D01*
X118566666Y-129916666D02*
X118233333Y-129916666D01*
X118233333Y-129216666D01*
D11*
%TO.C,R10*%
X108380000Y-106853641D02*
X108380000Y-106546359D01*
X107620000Y-106853641D02*
X107620000Y-106546359D01*
%TO.C,C19*%
X129040000Y-125692164D02*
X129040000Y-125907836D01*
X129760000Y-125692164D02*
X129760000Y-125907836D01*
%TO.C,C11*%
X121960000Y-131607836D02*
X121960000Y-131392164D01*
X121240000Y-131607836D02*
X121240000Y-131392164D01*
%TO.C,C27*%
X121560000Y-123592164D02*
X121560000Y-123807836D01*
X120840000Y-123592164D02*
X120840000Y-123807836D01*
%TO.C,R30*%
X110620000Y-106853641D02*
X110620000Y-106546359D01*
X111380000Y-106853641D02*
X111380000Y-106546359D01*
%TO.C,C14*%
X128760000Y-115107836D02*
X128760000Y-114892164D01*
X128040000Y-115107836D02*
X128040000Y-114892164D01*
%TO.C,C16*%
X133792164Y-119960000D02*
X134007836Y-119960000D01*
X133792164Y-119240000D02*
X134007836Y-119240000D01*
%TO.C,C10*%
X135392164Y-133760000D02*
X135607836Y-133760000D01*
X135392164Y-133040000D02*
X135607836Y-133040000D01*
%TO.C,C3*%
X123740000Y-78017164D02*
X123740000Y-78232836D01*
X124460000Y-78017164D02*
X124460000Y-78232836D01*
%TO.C,C17*%
X127760000Y-115107836D02*
X127760000Y-114892164D01*
X127040000Y-115107836D02*
X127040000Y-114892164D01*
%TO.C,J5*%
X132200000Y-133600000D02*
X132200000Y-135600000D01*
X122800000Y-133600000D02*
X122800000Y-135600000D01*
X132200000Y-137500000D02*
X132200000Y-139400000D01*
X122800000Y-137500000D02*
X122800000Y-139400000D01*
X122800000Y-139400000D02*
X132200000Y-139400000D01*
%TO.C,C26*%
X138760000Y-117392164D02*
X138760000Y-117607836D01*
X138040000Y-117392164D02*
X138040000Y-117607836D01*
%TO.C,U5*%
X137500000Y-131660000D02*
X140950000Y-131660000D01*
X137500000Y-126540000D02*
X135550000Y-126540000D01*
X137500000Y-131660000D02*
X135550000Y-131660000D01*
X137500000Y-126540000D02*
X139450000Y-126540000D01*
%TO.C,C7*%
X132260000Y-75982836D02*
X132260000Y-75767164D01*
X131540000Y-75982836D02*
X131540000Y-75767164D01*
%TO.C,C13*%
X132960000Y-112192164D02*
X132960000Y-112407836D01*
X132240000Y-112192164D02*
X132240000Y-112407836D01*
%TO.C,R1*%
X116520000Y-74853641D02*
X116520000Y-74546359D01*
X117280000Y-74853641D02*
X117280000Y-74546359D01*
%TO.C,R3*%
X137720000Y-79146359D02*
X137720000Y-79453641D01*
X138480000Y-79146359D02*
X138480000Y-79453641D01*
%TO.C,C30*%
X119960000Y-135192164D02*
X119960000Y-135407836D01*
X119240000Y-135192164D02*
X119240000Y-135407836D01*
%TO.C,U4*%
X132890000Y-90615000D02*
X132890000Y-90140000D01*
X137110000Y-93885000D02*
X137110000Y-94360000D01*
X132890000Y-94360000D02*
X133365000Y-94360000D01*
X137110000Y-94360000D02*
X136635000Y-94360000D01*
X132890000Y-90140000D02*
X133365000Y-90140000D01*
X137110000Y-90615000D02*
X137110000Y-90140000D01*
X132890000Y-93885000D02*
X132890000Y-94360000D01*
%TO.C,C20*%
X123807836Y-123840000D02*
X123592164Y-123840000D01*
X123807836Y-124560000D02*
X123592164Y-124560000D01*
%TO.C,C9*%
X135392164Y-132760000D02*
X135607836Y-132760000D01*
X135392164Y-132040000D02*
X135607836Y-132040000D01*
%TO.C,R11*%
X106120000Y-106853641D02*
X106120000Y-106546359D01*
X106880000Y-106853641D02*
X106880000Y-106546359D01*
%TO.C,C25*%
X137760000Y-117392164D02*
X137760000Y-117607836D01*
X137040000Y-117392164D02*
X137040000Y-117607836D01*
%TO.C,R25*%
X104620000Y-106853641D02*
X104620000Y-106546359D01*
X105380000Y-106853641D02*
X105380000Y-106546359D01*
%TO.C,R12*%
X121820000Y-125853641D02*
X121820000Y-125546359D01*
X122580000Y-125853641D02*
X122580000Y-125546359D01*
%TO.C,C28*%
X121240000Y-135192164D02*
X121240000Y-135407836D01*
X121960000Y-135192164D02*
X121960000Y-135407836D01*
%TO.C,R7*%
X133746359Y-124880000D02*
X134053641Y-124880000D01*
X133746359Y-124120000D02*
X134053641Y-124120000D01*
%TO.C,R13*%
X122580000Y-123853641D02*
X122580000Y-123546359D01*
X121820000Y-123853641D02*
X121820000Y-123546359D01*
%TO.C,U8*%
X144260000Y-119500000D02*
X144260000Y-117550000D01*
X144260000Y-119500000D02*
X144260000Y-121450000D01*
X139140000Y-119500000D02*
X139140000Y-122950000D01*
X139140000Y-119500000D02*
X139140000Y-117550000D01*
%TO.C,R26*%
X147380000Y-106853641D02*
X147380000Y-106546359D01*
X146620000Y-106853641D02*
X146620000Y-106546359D01*
%TO.C,C22*%
X128040000Y-125592164D02*
X128040000Y-125807836D01*
X128760000Y-125592164D02*
X128760000Y-125807836D01*
%TO.C,R27*%
X148880000Y-106853641D02*
X148880000Y-106546359D01*
X148120000Y-106853641D02*
X148120000Y-106546359D01*
%TO.C,C6*%
X130540000Y-90957836D02*
X130540000Y-90742164D01*
X131260000Y-90957836D02*
X131260000Y-90742164D01*
%TO.C,U1*%
X117890000Y-74640000D02*
X118365000Y-74640000D01*
X122110000Y-78860000D02*
X121635000Y-78860000D01*
X122110000Y-75115000D02*
X122110000Y-74640000D01*
X117890000Y-78385000D02*
X117890000Y-78860000D01*
X122110000Y-74640000D02*
X121635000Y-74640000D01*
X117890000Y-75115000D02*
X117890000Y-74640000D01*
X122110000Y-78385000D02*
X122110000Y-78860000D01*
%TO.C,C12*%
X132240000Y-114307836D02*
X132240000Y-114092164D01*
X132960000Y-114307836D02*
X132960000Y-114092164D01*
%TO.C,C29*%
X120240000Y-135192164D02*
X120240000Y-135407836D01*
X120960000Y-135192164D02*
X120960000Y-135407836D01*
%TO.C,U9*%
X117490000Y-135300000D02*
X117490000Y-134700000D01*
X118910000Y-135900000D02*
X118910000Y-134700000D01*
%TO.C,R6*%
X124753641Y-129320000D02*
X124446359Y-129320000D01*
X124753641Y-130080000D02*
X124446359Y-130080000D01*
%TO.C,R29*%
X109120000Y-106853641D02*
X109120000Y-106546359D01*
X109880000Y-106853641D02*
X109880000Y-106546359D01*
%TO.C,C21*%
X127160000Y-125592164D02*
X127160000Y-125807836D01*
X126440000Y-125592164D02*
X126440000Y-125807836D01*
%TO.C,Q1*%
X116800000Y-103440000D02*
X117450000Y-103440000D01*
X116800000Y-106560000D02*
X118475000Y-106560000D01*
X116800000Y-103440000D02*
X116150000Y-103440000D01*
X116800000Y-106560000D02*
X116150000Y-106560000D01*
%TO.C,R31*%
X112880000Y-106853641D02*
X112880000Y-106546359D01*
X112120000Y-106853641D02*
X112120000Y-106546359D01*
%TO.C,R34*%
X142120000Y-106853641D02*
X142120000Y-106546359D01*
X142880000Y-106853641D02*
X142880000Y-106546359D01*
%TO.C,C46*%
X132735000Y-105161252D02*
X132735000Y-104638748D01*
X131265000Y-105161252D02*
X131265000Y-104638748D01*
%TO.C,R5*%
X130446359Y-129320000D02*
X130753641Y-129320000D01*
X130446359Y-130080000D02*
X130753641Y-130080000D01*
%TO.C,R35*%
X122280000Y-106853641D02*
X122280000Y-106546359D01*
X121520000Y-106853641D02*
X121520000Y-106546359D01*
%TO.C,Y1*%
X131900000Y-114950000D02*
X131900000Y-111650000D01*
X129100000Y-114950000D02*
X131900000Y-114950000D01*
%TO.C,R28*%
X149620000Y-106853641D02*
X149620000Y-106546359D01*
X150380000Y-106853641D02*
X150380000Y-106546359D01*
%TO.C,U3*%
X132890000Y-79360000D02*
X133365000Y-79360000D01*
X137110000Y-79360000D02*
X136635000Y-79360000D01*
X132890000Y-78885000D02*
X132890000Y-79360000D01*
X132890000Y-75615000D02*
X132890000Y-75140000D01*
X137110000Y-78885000D02*
X137110000Y-79360000D01*
X132890000Y-75140000D02*
X133365000Y-75140000D01*
X137110000Y-75615000D02*
X137110000Y-75140000D01*
%TO.C,C1*%
X122740000Y-78017164D02*
X122740000Y-78232836D01*
X123460000Y-78017164D02*
X123460000Y-78232836D01*
%TO.C,C15*%
X133792164Y-123760000D02*
X134007836Y-123760000D01*
X133792164Y-123040000D02*
X134007836Y-123040000D01*
%TO.C,R32*%
X145120000Y-106853641D02*
X145120000Y-106546359D01*
X145880000Y-106853641D02*
X145880000Y-106546359D01*
%TO.C,C47*%
X134735000Y-105161252D02*
X134735000Y-104638748D01*
X133265000Y-105161252D02*
X133265000Y-104638748D01*
%TO.C,C23*%
X125440000Y-125592164D02*
X125440000Y-125807836D01*
X126160000Y-125592164D02*
X126160000Y-125807836D01*
%TO.C,C31*%
X116440000Y-135407836D02*
X116440000Y-135192164D01*
X117160000Y-135407836D02*
X117160000Y-135192164D01*
%TO.C,C24*%
X125160000Y-125592164D02*
X125160000Y-125807836D01*
X124440000Y-125592164D02*
X124440000Y-125807836D01*
%TO.C,R36*%
X113620000Y-106546359D02*
X113620000Y-106853641D01*
X114380000Y-106546359D02*
X114380000Y-106853641D01*
%TO.C,R33*%
X143620000Y-106853641D02*
X143620000Y-106546359D01*
X144380000Y-106853641D02*
X144380000Y-106546359D01*
%TO.C,C2*%
X122740000Y-93042164D02*
X122740000Y-93257836D01*
X123460000Y-93042164D02*
X123460000Y-93257836D01*
%TO.C,C4*%
X124460000Y-93042164D02*
X124460000Y-93257836D01*
X123740000Y-93042164D02*
X123740000Y-93257836D01*
%TO.C,C32*%
X115440000Y-135407836D02*
X115440000Y-135192164D01*
X116160000Y-135407836D02*
X116160000Y-135192164D01*
%TO.C,R2*%
X117280000Y-89953641D02*
X117280000Y-89646359D01*
X116520000Y-89953641D02*
X116520000Y-89646359D01*
%TO.C,U2*%
X122110000Y-89640000D02*
X121635000Y-89640000D01*
X122110000Y-93385000D02*
X122110000Y-93860000D01*
X122110000Y-90115000D02*
X122110000Y-89640000D01*
X117890000Y-90115000D02*
X117890000Y-89640000D01*
X117890000Y-93385000D02*
X117890000Y-93860000D01*
X117890000Y-89640000D02*
X118365000Y-89640000D01*
X122110000Y-93860000D02*
X121635000Y-93860000D01*
%TO.C,C8*%
X132260000Y-90957836D02*
X132260000Y-90742164D01*
X131540000Y-90957836D02*
X131540000Y-90742164D01*
%TO.C,C5*%
X131260000Y-75982836D02*
X131260000Y-75767164D01*
X130540000Y-75982836D02*
X130540000Y-75767164D01*
%TO.C,U7*%
X131760000Y-124210000D02*
X132410000Y-124210000D01*
X125840000Y-124210000D02*
X125190000Y-124210000D01*
X132410000Y-116990000D02*
X132410000Y-117640000D01*
X125190000Y-116990000D02*
X125190000Y-117640000D01*
X131760000Y-116990000D02*
X132410000Y-116990000D01*
X125190000Y-124210000D02*
X125190000Y-123560000D01*
X125840000Y-116990000D02*
X125190000Y-116990000D01*
%TO.C,U6*%
X127600000Y-130060000D02*
X129400000Y-130060000D01*
X127600000Y-126940000D02*
X128400000Y-126940000D01*
X127600000Y-126940000D02*
X126800000Y-126940000D01*
X127600000Y-130060000D02*
X126800000Y-130060000D01*
%TO.C,R4*%
X137720000Y-94146359D02*
X137720000Y-94453641D01*
X138480000Y-94146359D02*
X138480000Y-94453641D01*
%TO.C,C18*%
X123807836Y-119960000D02*
X123592164Y-119960000D01*
X123807836Y-119240000D02*
X123592164Y-119240000D01*
%TD*%
M02*
