%TF.GenerationSoftware,KiCad,Pcbnew,(6.0.7)*%
%TF.CreationDate,2022-08-30T14:04:15+02:00*%
%TF.ProjectId,LibreCAL,4c696272-6543-4414-9c2e-6b696361645f,rev?*%
%TF.SameCoordinates,Original*%
%TF.FileFunction,Soldermask,Top*%
%TF.FilePolarity,Negative*%
%FSLAX46Y46*%
G04 Gerber Fmt 4.6, Leading zero omitted, Abs format (unit mm)*
G04 Created by KiCad (PCBNEW (6.0.7)) date 2022-08-30 14:04:15*
%MOMM*%
%LPD*%
G01*
G04 APERTURE LIST*
G04 Aperture macros list*
%AMRoundRect*
0 Rectangle with rounded corners*
0 $1 Rounding radius*
0 $2 $3 $4 $5 $6 $7 $8 $9 X,Y pos of 4 corners*
0 Add a 4 corners polygon primitive as box body*
4,1,4,$2,$3,$4,$5,$6,$7,$8,$9,$2,$3,0*
0 Add four circle primitives for the rounded corners*
1,1,$1+$1,$2,$3*
1,1,$1+$1,$4,$5*
1,1,$1+$1,$6,$7*
1,1,$1+$1,$8,$9*
0 Add four rect primitives between the rounded corners*
20,1,$1+$1,$2,$3,$4,$5,0*
20,1,$1+$1,$4,$5,$6,$7,0*
20,1,$1+$1,$6,$7,$8,$9,0*
20,1,$1+$1,$8,$9,$2,$3,0*%
G04 Aperture macros list end*
%ADD10C,1.000000*%
%ADD11C,0.100000*%
%ADD12RoundRect,0.075000X0.425000X0.075000X-0.425000X0.075000X-0.425000X-0.075000X0.425000X-0.075000X0*%
%ADD13C,1.400000*%
%ADD14R,5.540000X3.555000*%
%ADD15RoundRect,0.075000X-0.425000X-0.075000X0.425000X-0.075000X0.425000X0.075000X-0.425000X0.075000X0*%
%ADD16RoundRect,0.135000X0.185000X-0.135000X0.185000X0.135000X-0.185000X0.135000X-0.185000X-0.135000X0*%
%ADD17RoundRect,0.140000X-0.170000X0.140000X-0.170000X-0.140000X0.170000X-0.140000X0.170000X0.140000X0*%
%ADD18RoundRect,0.140000X0.170000X-0.140000X0.170000X0.140000X-0.170000X0.140000X-0.170000X-0.140000X0*%
%ADD19RoundRect,0.090000X-0.210000X0.210000X-0.210000X-0.210000X0.210000X-0.210000X0.210000X0.210000X0*%
%ADD20RoundRect,0.100000X-0.100000X0.100000X-0.100000X-0.100000X0.100000X-0.100000X0.100000X0.100000X0*%
%ADD21RoundRect,0.140000X-0.140000X-0.170000X0.140000X-0.170000X0.140000X0.170000X-0.140000X0.170000X0*%
%ADD22C,3.600000*%
%ADD23C,5.500000*%
%ADD24RoundRect,0.090000X0.310000X-0.210000X0.310000X0.210000X-0.310000X0.210000X-0.310000X-0.210000X0*%
%ADD25RoundRect,0.150000X0.150000X-0.150000X0.150000X0.150000X-0.150000X0.150000X-0.150000X-0.150000X0*%
%ADD26C,0.650000*%
%ADD27R,0.600000X1.450000*%
%ADD28R,0.300000X1.450000*%
%ADD29O,1.000000X2.100000*%
%ADD30O,1.000000X1.600000*%
%ADD31RoundRect,0.150000X0.825000X0.150000X-0.825000X0.150000X-0.825000X-0.150000X0.825000X-0.150000X0*%
%ADD32RoundRect,0.135000X-0.185000X0.135000X-0.185000X-0.135000X0.185000X-0.135000X0.185000X0.135000X0*%
%ADD33RoundRect,0.062500X-0.062500X0.350000X-0.062500X-0.350000X0.062500X-0.350000X0.062500X0.350000X0*%
%ADD34RoundRect,0.062500X-0.350000X0.062500X-0.350000X-0.062500X0.350000X-0.062500X0.350000X0.062500X0*%
%ADD35R,2.700000X2.700000*%
%ADD36RoundRect,0.140000X0.140000X0.170000X-0.140000X0.170000X-0.140000X-0.170000X0.140000X-0.170000X0*%
%ADD37RoundRect,0.135000X-0.135000X-0.185000X0.135000X-0.185000X0.135000X0.185000X-0.135000X0.185000X0*%
%ADD38RoundRect,0.150000X0.150000X-0.825000X0.150000X0.825000X-0.150000X0.825000X-0.150000X-0.825000X0*%
%ADD39RoundRect,0.147500X-0.172500X0.147500X-0.172500X-0.147500X0.172500X-0.147500X0.172500X0.147500X0*%
%ADD40RoundRect,0.147500X-0.147500X-0.172500X0.147500X-0.172500X0.147500X0.172500X-0.147500X0.172500X0*%
%ADD41RoundRect,0.062500X0.062500X-0.350000X0.062500X0.350000X-0.062500X0.350000X-0.062500X-0.350000X0*%
%ADD42RoundRect,0.062500X0.350000X-0.062500X0.350000X0.062500X-0.350000X0.062500X-0.350000X-0.062500X0*%
%ADD43RoundRect,0.090000X0.210000X-0.210000X0.210000X0.210000X-0.210000X0.210000X-0.210000X-0.210000X0*%
%ADD44RoundRect,0.100000X0.100000X-0.100000X0.100000X0.100000X-0.100000X0.100000X-0.100000X-0.100000X0*%
%ADD45RoundRect,0.045000X0.045000X-0.130000X0.045000X0.130000X-0.045000X0.130000X-0.045000X-0.130000X0*%
%ADD46R,0.940000X0.300000*%
%ADD47RoundRect,0.135000X0.135000X0.185000X-0.135000X0.185000X-0.135000X-0.185000X0.135000X-0.185000X0*%
%ADD48RoundRect,0.150000X0.587500X0.150000X-0.587500X0.150000X-0.587500X-0.150000X0.587500X-0.150000X0*%
%ADD49RoundRect,0.250000X0.475000X-0.250000X0.475000X0.250000X-0.475000X0.250000X-0.475000X-0.250000X0*%
%ADD50R,1.000000X1.150000*%
%ADD51RoundRect,0.090000X-0.210000X-0.210000X0.210000X-0.210000X0.210000X0.210000X-0.210000X0.210000X0*%
%ADD52RoundRect,0.100000X-0.100000X-0.100000X0.100000X-0.100000X0.100000X0.100000X-0.100000X0.100000X0*%
%ADD53RoundRect,0.147500X0.172500X-0.147500X0.172500X0.147500X-0.172500X0.147500X-0.172500X-0.147500X0*%
%ADD54RoundRect,0.050000X0.387500X0.050000X-0.387500X0.050000X-0.387500X-0.050000X0.387500X-0.050000X0*%
%ADD55RoundRect,0.050000X0.050000X0.387500X-0.050000X0.387500X-0.050000X-0.387500X0.050000X-0.387500X0*%
%ADD56R,3.200000X3.200000*%
%ADD57RoundRect,0.150000X0.512500X0.150000X-0.512500X0.150000X-0.512500X-0.150000X0.512500X-0.150000X0*%
%ADD58C,0.990600*%
G04 APERTURE END LIST*
D10*
X120250000Y-84750000D02*
X120250000Y-88700000D01*
X135750000Y-74000000D02*
X135750000Y-74200000D01*
D11*
X153800000Y-77400000D02*
X137700000Y-77400000D01*
X137700000Y-77400000D02*
X137700000Y-76600000D01*
X137700000Y-76600000D02*
X153800000Y-76600000D01*
X153800000Y-76600000D02*
X153800000Y-77400000D01*
G36*
X153800000Y-77400000D02*
G01*
X137700000Y-77400000D01*
X137700000Y-76600000D01*
X153800000Y-76600000D01*
X153800000Y-77400000D01*
G37*
D10*
X123600000Y-80600000D02*
X131400000Y-88400000D01*
X120350000Y-79850000D02*
X121100000Y-80600000D01*
X120250000Y-73500000D02*
X120250000Y-73750000D01*
X131400000Y-88400000D02*
X133900000Y-88400000D01*
X134750000Y-84250000D02*
X135750000Y-85250000D01*
X121000000Y-72750000D02*
X120250000Y-73500000D01*
X119250000Y-83750000D02*
X120250000Y-84750000D01*
X134750000Y-95500000D02*
X134750000Y-95250000D01*
X135750000Y-85250000D02*
X135750000Y-89200000D01*
D11*
X101200000Y-91600000D02*
X117300000Y-91600000D01*
X117300000Y-91600000D02*
X117300000Y-92400000D01*
X117300000Y-92400000D02*
X101200000Y-92400000D01*
X101200000Y-92400000D02*
X101200000Y-91600000D01*
G36*
X101200000Y-91600000D02*
G01*
X117300000Y-91600000D01*
X117300000Y-92400000D01*
X101200000Y-92400000D01*
X101200000Y-91600000D01*
G37*
X100000000Y-66000000D02*
X103000000Y-66000000D01*
X103000000Y-66000000D02*
X103000000Y-73500000D01*
X103000000Y-73500000D02*
X100000000Y-73500000D01*
X100000000Y-73500000D02*
X100000000Y-66000000D01*
G36*
X100000000Y-66000000D02*
G01*
X103000000Y-66000000D01*
X103000000Y-73500000D01*
X100000000Y-73500000D01*
X100000000Y-66000000D01*
G37*
D10*
X133500000Y-72750000D02*
X121000000Y-72750000D01*
X119250000Y-95000000D02*
X119250000Y-94800000D01*
X121100000Y-80600000D02*
X123600000Y-80600000D01*
X118750000Y-95500000D02*
X119250000Y-95000000D01*
D11*
X100000000Y-111000000D02*
X155000000Y-111000000D01*
X155000000Y-111000000D02*
X155000000Y-108000000D01*
X155000000Y-108000000D02*
X100000000Y-108000000D01*
X100000000Y-108000000D02*
X100000000Y-111000000D01*
G36*
X100000000Y-111000000D02*
G01*
X155000000Y-111000000D01*
X155000000Y-108000000D01*
X100000000Y-108000000D01*
X100000000Y-111000000D01*
G37*
X101200000Y-76600000D02*
X117300000Y-76600000D01*
X117300000Y-76600000D02*
X117300000Y-77400000D01*
X117300000Y-77400000D02*
X101200000Y-77400000D01*
X101200000Y-77400000D02*
X101200000Y-76600000D01*
G36*
X101200000Y-76600000D02*
G01*
X117300000Y-76600000D01*
X117300000Y-77400000D01*
X101200000Y-77400000D01*
X101200000Y-76600000D01*
G37*
D10*
X134750000Y-80300000D02*
X134750000Y-84250000D01*
D11*
X152000000Y-66000000D02*
X155000000Y-66000000D01*
X155000000Y-66000000D02*
X155000000Y-73500000D01*
X155000000Y-73500000D02*
X152000000Y-73500000D01*
X152000000Y-73500000D02*
X152000000Y-66000000D01*
G36*
X152000000Y-66000000D02*
G01*
X155000000Y-66000000D01*
X155000000Y-73500000D01*
X152000000Y-73500000D01*
X152000000Y-66000000D01*
G37*
D10*
X134750000Y-74000000D02*
X133500000Y-72750000D01*
X136250000Y-73500000D02*
X135750000Y-74000000D01*
X120250000Y-95000000D02*
X121500000Y-96250000D01*
X134750000Y-74000000D02*
X134750000Y-74250000D01*
X134000000Y-96250000D02*
X134750000Y-95500000D01*
D11*
X100000000Y-69000000D02*
X155000000Y-69000000D01*
X155000000Y-69000000D02*
X155000000Y-66000000D01*
X155000000Y-66000000D02*
X100000000Y-66000000D01*
X100000000Y-66000000D02*
X100000000Y-69000000D01*
G36*
X100000000Y-69000000D02*
G01*
X155000000Y-69000000D01*
X155000000Y-66000000D01*
X100000000Y-66000000D01*
X100000000Y-69000000D01*
G37*
D10*
X121500000Y-96250000D02*
X134000000Y-96250000D01*
X120250000Y-95000000D02*
X120250000Y-94750000D01*
D11*
X103000000Y-139500000D02*
X100000000Y-139500000D01*
X100000000Y-139500000D02*
X100000000Y-95900000D01*
X100000000Y-95900000D02*
X103000000Y-95900000D01*
X103000000Y-95900000D02*
X103000000Y-139500000D01*
G36*
X103000000Y-139500000D02*
G01*
X100000000Y-139500000D01*
X100000000Y-95900000D01*
X103000000Y-95900000D01*
X103000000Y-139500000D01*
G37*
X100000000Y-103000000D02*
X155000000Y-103000000D01*
X155000000Y-103000000D02*
X155000000Y-100000000D01*
X155000000Y-100000000D02*
X100000000Y-100000000D01*
X100000000Y-100000000D02*
X100000000Y-103000000D01*
G36*
X100000000Y-103000000D02*
G01*
X155000000Y-103000000D01*
X155000000Y-100000000D01*
X100000000Y-100000000D01*
X100000000Y-103000000D01*
G37*
X153800000Y-92400000D02*
X137700000Y-92400000D01*
X137700000Y-92400000D02*
X137700000Y-91600000D01*
X137700000Y-91600000D02*
X153800000Y-91600000D01*
X153800000Y-91600000D02*
X153800000Y-92400000D01*
G36*
X153800000Y-92400000D02*
G01*
X137700000Y-92400000D01*
X137700000Y-91600000D01*
X153800000Y-91600000D01*
X153800000Y-92400000D01*
G37*
D10*
X119250000Y-79800000D02*
X119250000Y-83750000D01*
D11*
X100000000Y-139500000D02*
X155000000Y-139500000D01*
X155000000Y-139500000D02*
X155000000Y-136500000D01*
X155000000Y-136500000D02*
X100000000Y-136500000D01*
X100000000Y-136500000D02*
X100000000Y-139500000D01*
G36*
X100000000Y-139500000D02*
G01*
X155000000Y-139500000D01*
X155000000Y-136500000D01*
X100000000Y-136500000D01*
X100000000Y-139500000D01*
G37*
X103000000Y-88500000D02*
X100000000Y-88500000D01*
X100000000Y-88500000D02*
X100000000Y-80500000D01*
X100000000Y-80500000D02*
X103000000Y-80500000D01*
X103000000Y-80500000D02*
X103000000Y-88500000D01*
G36*
X103000000Y-88500000D02*
G01*
X100000000Y-88500000D01*
X100000000Y-80500000D01*
X103000000Y-80500000D01*
X103000000Y-88500000D01*
G37*
D10*
X133900000Y-88400000D02*
X134650000Y-89150000D01*
D11*
X155000000Y-88500000D02*
X152000000Y-88500000D01*
X152000000Y-88500000D02*
X152000000Y-80500000D01*
X152000000Y-80500000D02*
X155000000Y-80500000D01*
X155000000Y-80500000D02*
X155000000Y-88500000D01*
G36*
X155000000Y-88500000D02*
G01*
X152000000Y-88500000D01*
X152000000Y-80500000D01*
X155000000Y-80500000D01*
X155000000Y-88500000D01*
G37*
X155000000Y-139500000D02*
X152000000Y-139500000D01*
X152000000Y-139500000D02*
X152000000Y-95900000D01*
X152000000Y-95900000D02*
X155000000Y-95900000D01*
X155000000Y-95900000D02*
X155000000Y-139500000D01*
G36*
X155000000Y-139500000D02*
G01*
X152000000Y-139500000D01*
X152000000Y-95900000D01*
X155000000Y-95900000D01*
X155000000Y-139500000D01*
G37*
D12*
%TO.C,J1*%
X100500000Y-77000000D03*
D13*
X101750000Y-75780000D03*
X103960000Y-75780000D03*
X101750000Y-78220000D03*
X103960000Y-78220000D03*
D14*
X102770000Y-79287500D03*
X102770000Y-74712500D03*
%TD*%
D15*
%TO.C,J3*%
X154500000Y-77000000D03*
D13*
X153250000Y-78220000D03*
X151040000Y-78220000D03*
X153250000Y-75780000D03*
X151040000Y-75780000D03*
D14*
X152230000Y-74712500D03*
X152230000Y-79287500D03*
%TD*%
D15*
%TO.C,J4*%
X154500000Y-92000000D03*
D13*
X153250000Y-93220000D03*
X151040000Y-93220000D03*
X153250000Y-90780000D03*
X151040000Y-90780000D03*
D14*
X152230000Y-89712500D03*
X152230000Y-94287500D03*
%TD*%
D12*
%TO.C,J2*%
X100500000Y-92000000D03*
D13*
X101750000Y-90780000D03*
X103960000Y-90780000D03*
X101750000Y-93220000D03*
X103960000Y-93220000D03*
D14*
X102770000Y-94287500D03*
X102770000Y-89712500D03*
%TD*%
D16*
%TO.C,R10*%
X108000000Y-107210000D03*
X108000000Y-106190000D03*
%TD*%
D17*
%TO.C,C19*%
X129400000Y-125320000D03*
X129400000Y-126280000D03*
%TD*%
D18*
%TO.C,C11*%
X121600000Y-131980000D03*
X121600000Y-131020000D03*
%TD*%
D19*
%TO.C,C45*%
X142500000Y-103700000D03*
D20*
X142100000Y-104500000D03*
X142900000Y-104500000D03*
D19*
X142500000Y-105300000D03*
%TD*%
D17*
%TO.C,C27*%
X121200000Y-123220000D03*
X121200000Y-124180000D03*
%TD*%
D16*
%TO.C,R30*%
X111000000Y-107210000D03*
X111000000Y-106190000D03*
%TD*%
D18*
%TO.C,C14*%
X128400000Y-115480000D03*
X128400000Y-114520000D03*
%TD*%
D21*
%TO.C,C16*%
X133420000Y-119600000D03*
X134380000Y-119600000D03*
%TD*%
%TO.C,C10*%
X135020000Y-133400000D03*
X135980000Y-133400000D03*
%TD*%
D22*
%TO.C,H2*%
X152000000Y-69000000D03*
D23*
X152000000Y-69000000D03*
%TD*%
D17*
%TO.C,C3*%
X124100000Y-77645000D03*
X124100000Y-78605000D03*
%TD*%
D24*
%TO.C,C33*%
X140500000Y-106500000D03*
D25*
X139900000Y-105500000D03*
X141100000Y-105500000D03*
D24*
X140500000Y-104500000D03*
%TD*%
D19*
%TO.C,C44*%
X144000000Y-103700000D03*
D20*
X144400000Y-104500000D03*
X143600000Y-104500000D03*
D19*
X144000000Y-105300000D03*
%TD*%
D18*
%TO.C,C17*%
X127400000Y-115480000D03*
X127400000Y-114520000D03*
%TD*%
D19*
%TO.C,C39*%
X150000000Y-103700000D03*
D20*
X149600000Y-104500000D03*
X150400000Y-104500000D03*
D19*
X150000000Y-105300000D03*
%TD*%
D26*
%TO.C,J5*%
X130390000Y-132900000D03*
X124610000Y-132900000D03*
D27*
X124250000Y-131455000D03*
X125050000Y-131455000D03*
D28*
X126250000Y-131455000D03*
X127250000Y-131455000D03*
X127750000Y-131455000D03*
X128750000Y-131455000D03*
D27*
X129950000Y-131455000D03*
X130750000Y-131455000D03*
X130750000Y-131455000D03*
X129950000Y-131455000D03*
D28*
X129250000Y-131455000D03*
X128250000Y-131455000D03*
X126750000Y-131455000D03*
X125750000Y-131455000D03*
D27*
X125050000Y-131455000D03*
X124250000Y-131455000D03*
D29*
X123180000Y-132370000D03*
D30*
X123180000Y-136550000D03*
X131820000Y-136550000D03*
D29*
X131820000Y-132370000D03*
%TD*%
D19*
%TO.C,C38*%
X148500000Y-103700000D03*
D20*
X148100000Y-104500000D03*
X148900000Y-104500000D03*
D19*
X148500000Y-105300000D03*
%TD*%
%TO.C,C41*%
X111000000Y-103700000D03*
D20*
X110600000Y-104500000D03*
X111400000Y-104500000D03*
D19*
X111000000Y-105300000D03*
%TD*%
D17*
%TO.C,C26*%
X138400000Y-117020000D03*
X138400000Y-117980000D03*
%TD*%
D31*
%TO.C,U5*%
X139975000Y-131005000D03*
X139975000Y-129735000D03*
X139975000Y-128465000D03*
X139975000Y-127195000D03*
X135025000Y-127195000D03*
X135025000Y-128465000D03*
X135025000Y-129735000D03*
X135025000Y-131005000D03*
%TD*%
D18*
%TO.C,C7*%
X131900000Y-76355000D03*
X131900000Y-75395000D03*
%TD*%
D17*
%TO.C,C13*%
X132600000Y-111820000D03*
X132600000Y-112780000D03*
%TD*%
D16*
%TO.C,R1*%
X116900000Y-75210000D03*
X116900000Y-74190000D03*
%TD*%
D23*
%TO.C,H5*%
X152000000Y-100000000D03*
D22*
X152000000Y-100000000D03*
%TD*%
D32*
%TO.C,R3*%
X138100000Y-78790000D03*
X138100000Y-79810000D03*
%TD*%
D19*
%TO.C,C43*%
X145500000Y-103700000D03*
D20*
X145100000Y-104500000D03*
X145900000Y-104500000D03*
D19*
X145500000Y-105300000D03*
%TD*%
D17*
%TO.C,C30*%
X119600000Y-134820000D03*
X119600000Y-135780000D03*
%TD*%
D33*
%TO.C,U4*%
X136250000Y-90287500D03*
X135750000Y-90287500D03*
X135250000Y-90287500D03*
X134750000Y-90287500D03*
X134250000Y-90287500D03*
X133750000Y-90287500D03*
D34*
X133037500Y-91000000D03*
X133037500Y-91500000D03*
X133037500Y-92000000D03*
X133037500Y-92500000D03*
X133037500Y-93000000D03*
X133037500Y-93500000D03*
D33*
X133750000Y-94212500D03*
X134250000Y-94212500D03*
X134750000Y-94212500D03*
X135250000Y-94212500D03*
X135750000Y-94212500D03*
X136250000Y-94212500D03*
D34*
X136962500Y-93500000D03*
X136962500Y-93000000D03*
X136962500Y-92500000D03*
X136962500Y-92000000D03*
X136962500Y-91500000D03*
X136962500Y-91000000D03*
D35*
X135000000Y-92250000D03*
%TD*%
D19*
%TO.C,C34*%
X108000000Y-103700000D03*
D20*
X107600000Y-104500000D03*
X108400000Y-104500000D03*
D19*
X108000000Y-105300000D03*
%TD*%
D36*
%TO.C,C20*%
X124180000Y-124200000D03*
X123220000Y-124200000D03*
%TD*%
D21*
%TO.C,C9*%
X135020000Y-132400000D03*
X135980000Y-132400000D03*
%TD*%
D19*
%TO.C,C36*%
X105000000Y-103700000D03*
D20*
X104600000Y-104500000D03*
X105400000Y-104500000D03*
D19*
X105000000Y-105300000D03*
%TD*%
D16*
%TO.C,R11*%
X106500000Y-107210000D03*
X106500000Y-106190000D03*
%TD*%
D17*
%TO.C,C25*%
X137400000Y-117020000D03*
X137400000Y-117980000D03*
%TD*%
D23*
%TO.C,H3*%
X103000000Y-69000000D03*
D22*
X103000000Y-69000000D03*
%TD*%
D16*
%TO.C,R25*%
X105000000Y-107210000D03*
X105000000Y-106190000D03*
%TD*%
%TO.C,R12*%
X122200000Y-126210000D03*
X122200000Y-125190000D03*
%TD*%
D19*
%TO.C,C40*%
X109500000Y-103700000D03*
D20*
X109900000Y-104500000D03*
X109100000Y-104500000D03*
D19*
X109500000Y-105300000D03*
%TD*%
D17*
%TO.C,C28*%
X121600000Y-134820000D03*
X121600000Y-135780000D03*
%TD*%
D37*
%TO.C,R7*%
X133390000Y-124500000D03*
X134410000Y-124500000D03*
%TD*%
D16*
%TO.C,R13*%
X122200000Y-124210000D03*
X122200000Y-123190000D03*
%TD*%
D38*
%TO.C,U8*%
X139795000Y-121975000D03*
X141065000Y-121975000D03*
X142335000Y-121975000D03*
X143605000Y-121975000D03*
X143605000Y-117025000D03*
X142335000Y-117025000D03*
X141065000Y-117025000D03*
X139795000Y-117025000D03*
%TD*%
D16*
%TO.C,R26*%
X147000000Y-107210000D03*
X147000000Y-106190000D03*
%TD*%
D39*
%TO.C,FB1*%
X123800000Y-125215000D03*
X123800000Y-126185000D03*
%TD*%
%TO.C,FB2*%
X121600000Y-132915000D03*
X121600000Y-133885000D03*
%TD*%
D17*
%TO.C,C22*%
X128400000Y-125220000D03*
X128400000Y-126180000D03*
%TD*%
D16*
%TO.C,R27*%
X148500000Y-107210000D03*
X148500000Y-106190000D03*
%TD*%
D23*
%TO.C,H4*%
X103000000Y-136500000D03*
D22*
X103000000Y-136500000D03*
%TD*%
D19*
%TO.C,C37*%
X147000000Y-103700000D03*
D20*
X146600000Y-104500000D03*
X147400000Y-104500000D03*
D19*
X147000000Y-105300000D03*
%TD*%
D40*
%TO.C,FB3*%
X140015000Y-107400000D03*
X140985000Y-107400000D03*
%TD*%
D18*
%TO.C,C6*%
X130900000Y-91330000D03*
X130900000Y-90370000D03*
%TD*%
D41*
%TO.C,U1*%
X118750000Y-78712500D03*
X119250000Y-78712500D03*
X119750000Y-78712500D03*
X120250000Y-78712500D03*
X120750000Y-78712500D03*
X121250000Y-78712500D03*
D42*
X121962500Y-78000000D03*
X121962500Y-77500000D03*
X121962500Y-77000000D03*
X121962500Y-76500000D03*
X121962500Y-76000000D03*
X121962500Y-75500000D03*
D41*
X121250000Y-74787500D03*
X120750000Y-74787500D03*
X120250000Y-74787500D03*
X119750000Y-74787500D03*
X119250000Y-74787500D03*
X118750000Y-74787500D03*
D42*
X118037500Y-75500000D03*
X118037500Y-76000000D03*
X118037500Y-76500000D03*
X118037500Y-77000000D03*
X118037500Y-77500000D03*
X118037500Y-78000000D03*
D35*
X120000000Y-76750000D03*
%TD*%
D18*
%TO.C,C12*%
X132600000Y-114680000D03*
X132600000Y-113720000D03*
%TD*%
D43*
%TO.C,C50*%
X114000000Y-105300000D03*
D44*
X114400000Y-104500000D03*
X113600000Y-104500000D03*
D43*
X114000000Y-103700000D03*
%TD*%
D17*
%TO.C,C29*%
X120600000Y-134820000D03*
X120600000Y-135780000D03*
%TD*%
D45*
%TO.C,U9*%
X117800000Y-135825000D03*
X118200000Y-135825000D03*
X118600000Y-135825000D03*
X118600000Y-134775000D03*
X118200000Y-134775000D03*
X117800000Y-134775000D03*
D46*
X118200000Y-135300000D03*
%TD*%
D47*
%TO.C,R6*%
X125110000Y-129700000D03*
X124090000Y-129700000D03*
%TD*%
D16*
%TO.C,R29*%
X109500000Y-107210000D03*
X109500000Y-106190000D03*
%TD*%
D17*
%TO.C,C21*%
X126800000Y-125220000D03*
X126800000Y-126180000D03*
%TD*%
D19*
%TO.C,C35*%
X106500000Y-103700000D03*
D20*
X106100000Y-104500000D03*
X106900000Y-104500000D03*
D19*
X106500000Y-105300000D03*
%TD*%
D48*
%TO.C,Q1*%
X117737500Y-105950000D03*
X117737500Y-104050000D03*
X115862500Y-105000000D03*
%TD*%
D24*
%TO.C,C49*%
X138100000Y-105600000D03*
D25*
X137500000Y-104600000D03*
X138700000Y-104600000D03*
D24*
X138100000Y-103600000D03*
%TD*%
D16*
%TO.C,R31*%
X112500000Y-107210000D03*
X112500000Y-106190000D03*
%TD*%
D40*
%TO.C,FB4*%
X140015000Y-103600000D03*
X140985000Y-103600000D03*
%TD*%
D16*
%TO.C,R34*%
X142500000Y-107210000D03*
X142500000Y-106190000D03*
%TD*%
D49*
%TO.C,C46*%
X132000000Y-105850000D03*
X132000000Y-103950000D03*
%TD*%
D22*
%TO.C,H6*%
X103000000Y-100000000D03*
D23*
X103000000Y-100000000D03*
%TD*%
D37*
%TO.C,R5*%
X130090000Y-129700000D03*
X131110000Y-129700000D03*
%TD*%
D16*
%TO.C,R35*%
X121900000Y-107210000D03*
X121900000Y-106190000D03*
%TD*%
D50*
%TO.C,Y1*%
X131200000Y-114175000D03*
X131200000Y-112425000D03*
X129800000Y-112425000D03*
X129800000Y-114175000D03*
%TD*%
D16*
%TO.C,R28*%
X150000000Y-107210000D03*
X150000000Y-106190000D03*
%TD*%
D33*
%TO.C,U3*%
X136250000Y-75287500D03*
X135750000Y-75287500D03*
X135250000Y-75287500D03*
X134750000Y-75287500D03*
X134250000Y-75287500D03*
X133750000Y-75287500D03*
D34*
X133037500Y-76000000D03*
X133037500Y-76500000D03*
X133037500Y-77000000D03*
X133037500Y-77500000D03*
X133037500Y-78000000D03*
X133037500Y-78500000D03*
D33*
X133750000Y-79212500D03*
X134250000Y-79212500D03*
X134750000Y-79212500D03*
X135250000Y-79212500D03*
X135750000Y-79212500D03*
X136250000Y-79212500D03*
D34*
X136962500Y-78500000D03*
X136962500Y-78000000D03*
X136962500Y-77500000D03*
X136962500Y-77000000D03*
X136962500Y-76500000D03*
X136962500Y-76000000D03*
D35*
X135000000Y-77250000D03*
%TD*%
D17*
%TO.C,C1*%
X123100000Y-77645000D03*
X123100000Y-78605000D03*
%TD*%
D51*
%TO.C,C48*%
X119300000Y-105900000D03*
D52*
X120100000Y-105500000D03*
X120100000Y-106300000D03*
D51*
X120900000Y-105900000D03*
%TD*%
D21*
%TO.C,C15*%
X133420000Y-123400000D03*
X134380000Y-123400000D03*
%TD*%
D16*
%TO.C,R32*%
X145500000Y-107210000D03*
X145500000Y-106190000D03*
%TD*%
D49*
%TO.C,C47*%
X134000000Y-105850000D03*
X134000000Y-103950000D03*
%TD*%
D17*
%TO.C,C23*%
X125800000Y-125220000D03*
X125800000Y-126180000D03*
%TD*%
D18*
%TO.C,C31*%
X116800000Y-135780000D03*
X116800000Y-134820000D03*
%TD*%
D22*
%TO.C,H1*%
X152000000Y-136500000D03*
D23*
X152000000Y-136500000D03*
%TD*%
D17*
%TO.C,C24*%
X124800000Y-125220000D03*
X124800000Y-126180000D03*
%TD*%
D32*
%TO.C,R36*%
X114000000Y-106190000D03*
X114000000Y-107210000D03*
%TD*%
D53*
%TO.C,FB5*%
X130400000Y-107285000D03*
X130400000Y-106315000D03*
%TD*%
D16*
%TO.C,R33*%
X144000000Y-107210000D03*
X144000000Y-106190000D03*
%TD*%
D17*
%TO.C,C2*%
X123100000Y-92670000D03*
X123100000Y-93630000D03*
%TD*%
D19*
%TO.C,C42*%
X112500000Y-103700000D03*
D20*
X112100000Y-104500000D03*
X112900000Y-104500000D03*
D19*
X112500000Y-105300000D03*
%TD*%
D17*
%TO.C,C4*%
X124100000Y-92670000D03*
X124100000Y-93630000D03*
%TD*%
D18*
%TO.C,C32*%
X115800000Y-135780000D03*
X115800000Y-134820000D03*
%TD*%
D16*
%TO.C,R2*%
X116900000Y-90310000D03*
X116900000Y-89290000D03*
%TD*%
D40*
%TO.C,FB6*%
X135515000Y-105600000D03*
X136485000Y-105600000D03*
%TD*%
D41*
%TO.C,U2*%
X118750000Y-93712500D03*
X119250000Y-93712500D03*
X119750000Y-93712500D03*
X120250000Y-93712500D03*
X120750000Y-93712500D03*
X121250000Y-93712500D03*
D42*
X121962500Y-93000000D03*
X121962500Y-92500000D03*
X121962500Y-92000000D03*
X121962500Y-91500000D03*
X121962500Y-91000000D03*
X121962500Y-90500000D03*
D41*
X121250000Y-89787500D03*
X120750000Y-89787500D03*
X120250000Y-89787500D03*
X119750000Y-89787500D03*
X119250000Y-89787500D03*
X118750000Y-89787500D03*
D42*
X118037500Y-90500000D03*
X118037500Y-91000000D03*
X118037500Y-91500000D03*
X118037500Y-92000000D03*
X118037500Y-92500000D03*
X118037500Y-93000000D03*
D35*
X120000000Y-91750000D03*
%TD*%
D18*
%TO.C,C8*%
X131900000Y-91330000D03*
X131900000Y-90370000D03*
%TD*%
%TO.C,C5*%
X130900000Y-76355000D03*
X130900000Y-75395000D03*
%TD*%
D54*
%TO.C,U7*%
X132237500Y-123200000D03*
X132237500Y-122800000D03*
X132237500Y-122400000D03*
X132237500Y-122000000D03*
X132237500Y-121600000D03*
X132237500Y-121200000D03*
X132237500Y-120800000D03*
X132237500Y-120400000D03*
X132237500Y-120000000D03*
X132237500Y-119600000D03*
X132237500Y-119200000D03*
X132237500Y-118800000D03*
X132237500Y-118400000D03*
X132237500Y-118000000D03*
D55*
X131400000Y-117162500D03*
X131000000Y-117162500D03*
X130600000Y-117162500D03*
X130200000Y-117162500D03*
X129800000Y-117162500D03*
X129400000Y-117162500D03*
X129000000Y-117162500D03*
X128600000Y-117162500D03*
X128200000Y-117162500D03*
X127800000Y-117162500D03*
X127400000Y-117162500D03*
X127000000Y-117162500D03*
X126600000Y-117162500D03*
X126200000Y-117162500D03*
D54*
X125362500Y-118000000D03*
X125362500Y-118400000D03*
X125362500Y-118800000D03*
X125362500Y-119200000D03*
X125362500Y-119600000D03*
X125362500Y-120000000D03*
X125362500Y-120400000D03*
X125362500Y-120800000D03*
X125362500Y-121200000D03*
X125362500Y-121600000D03*
X125362500Y-122000000D03*
X125362500Y-122400000D03*
X125362500Y-122800000D03*
X125362500Y-123200000D03*
D55*
X126200000Y-124037500D03*
X126600000Y-124037500D03*
X127000000Y-124037500D03*
X127400000Y-124037500D03*
X127800000Y-124037500D03*
X128200000Y-124037500D03*
X128600000Y-124037500D03*
X129000000Y-124037500D03*
X129400000Y-124037500D03*
X129800000Y-124037500D03*
X130200000Y-124037500D03*
X130600000Y-124037500D03*
X131000000Y-124037500D03*
X131400000Y-124037500D03*
D56*
X128800000Y-120600000D03*
%TD*%
D57*
%TO.C,U6*%
X128737500Y-129450000D03*
X128737500Y-128500000D03*
X128737500Y-127550000D03*
X126462500Y-127550000D03*
X126462500Y-128500000D03*
X126462500Y-129450000D03*
%TD*%
D32*
%TO.C,R4*%
X138100000Y-93790000D03*
X138100000Y-94810000D03*
%TD*%
D36*
%TO.C,C18*%
X124180000Y-119600000D03*
X123220000Y-119600000D03*
%TD*%
D58*
%TO.C,J6*%
X120960000Y-114416000D03*
X126040000Y-113400000D03*
X120960000Y-112384000D03*
%TD*%
M02*
