%TF.GenerationSoftware,KiCad,Pcbnew,(6.0.7)*%
%TF.CreationDate,2022-08-30T14:04:15+02:00*%
%TF.ProjectId,LibreCAL,4c696272-6543-4414-9c2e-6b696361645f,rev?*%
%TF.SameCoordinates,Original*%
%TF.FileFunction,Profile,NP*%
%FSLAX46Y46*%
G04 Gerber Fmt 4.6, Leading zero omitted, Abs format (unit mm)*
G04 Created by KiCad (PCBNEW (6.0.7)) date 2022-08-30 14:04:15*
%MOMM*%
%LPD*%
G01*
G04 APERTURE LIST*
%TA.AperFunction,Profile*%
%ADD10C,0.100000*%
%TD*%
G04 APERTURE END LIST*
D10*
X142000000Y-97000000D02*
X142000000Y-94700000D01*
X139999993Y-72000007D02*
G75*
G03*
X138999993Y-71000007I-999993J7D01*
G01*
X115000007Y-96999993D02*
G75*
G03*
X116000007Y-97999993I999993J-7D01*
G01*
X116000000Y-71000000D02*
G75*
G03*
X115000000Y-72000000I0J-1000000D01*
G01*
X138999993Y-69000007D02*
X116000001Y-69000000D01*
X155000000Y-139500000D02*
X100000000Y-139500000D01*
X115000000Y-79700000D02*
X115000000Y-89300000D01*
X113000007Y-96999992D02*
X113000000Y-94700000D01*
X100000000Y-139500000D02*
X100000000Y-66000000D01*
X115000000Y-72000000D02*
X115000000Y-74300000D01*
X140000000Y-89300000D02*
G75*
G03*
X142000000Y-89300000I1000000J0D01*
G01*
X140000000Y-74300000D02*
X139999993Y-72000007D01*
X115000000Y-79700000D02*
G75*
G03*
X113000000Y-79700000I-1000000J0D01*
G01*
X138999999Y-100000000D02*
G75*
G03*
X142000000Y-97000000I1J3000000D01*
G01*
X140000000Y-89300000D02*
X140000000Y-79700000D01*
X113000000Y-72000000D02*
X113000000Y-74300000D01*
X139000000Y-98000000D02*
G75*
G03*
X140000000Y-97000000I0J1000000D01*
G01*
X116000000Y-71000000D02*
X139000000Y-71000000D01*
X113000007Y-96999992D02*
G75*
G03*
X116000007Y-99999993I2999993J-8D01*
G01*
X113000000Y-89300000D02*
G75*
G03*
X115000000Y-89300000I1000000J0D01*
G01*
X155000000Y-66000000D02*
X155000000Y-139500000D01*
X142000000Y-79700000D02*
X142000000Y-89300000D01*
X140000000Y-74300000D02*
G75*
G03*
X142000000Y-74300000I1000000J0D01*
G01*
X115000000Y-94700000D02*
X115000007Y-96999993D01*
X116000001Y-69000000D02*
G75*
G03*
X113000000Y-72000000I-1J-3000000D01*
G01*
X141999993Y-72000008D02*
X142000000Y-74300000D01*
X142000000Y-94700000D02*
G75*
G03*
X140000000Y-94700000I-1000000J0D01*
G01*
X142000000Y-79700000D02*
G75*
G03*
X140000000Y-79700000I-1000000J0D01*
G01*
X139000000Y-98000000D02*
X116000000Y-98000000D01*
X116000007Y-99999993D02*
X138999999Y-100000000D01*
X113000000Y-79700000D02*
X113000000Y-89300000D01*
X113000000Y-74300000D02*
G75*
G03*
X115000000Y-74300000I1000000J0D01*
G01*
X141999993Y-72000008D02*
G75*
G03*
X138999993Y-69000007I-2999993J8D01*
G01*
X140000000Y-97000000D02*
X140000000Y-94700000D01*
X100000000Y-66000000D02*
X155000000Y-66000000D01*
X115000000Y-94700000D02*
G75*
G03*
X113000000Y-94700000I-1000000J0D01*
G01*
M02*
