G04 #@! TF.GenerationSoftware,KiCad,Pcbnew,7.0.8-7.0.8~ubuntu22.04.1*
G04 #@! TF.CreationDate,2023-11-30T18:16:29+01:00*
G04 #@! TF.ProjectId,LibreCAL,4c696272-6543-4414-9c2e-6b696361645f,B*
G04 #@! TF.SameCoordinates,Original*
G04 #@! TF.FileFunction,Legend,Top*
G04 #@! TF.FilePolarity,Positive*
%FSLAX46Y46*%
G04 Gerber Fmt 4.6, Leading zero omitted, Abs format (unit mm)*
G04 Created by KiCad (PCBNEW 7.0.8-7.0.8~ubuntu22.04.1) date 2023-11-30 18:16:29*
%MOMM*%
%LPD*%
G01*
G04 APERTURE LIST*
%ADD10C,0.150000*%
%ADD11C,0.120000*%
G04 APERTURE END LIST*
D10*
X104312969Y-125649819D02*
X103836779Y-125649819D01*
X103836779Y-125649819D02*
X103836779Y-124649819D01*
X104646303Y-125649819D02*
X104646303Y-124983152D01*
X104646303Y-124649819D02*
X104598684Y-124697438D01*
X104598684Y-124697438D02*
X104646303Y-124745057D01*
X104646303Y-124745057D02*
X104693922Y-124697438D01*
X104693922Y-124697438D02*
X104646303Y-124649819D01*
X104646303Y-124649819D02*
X104646303Y-124745057D01*
X105122493Y-125649819D02*
X105122493Y-124649819D01*
X105122493Y-125030771D02*
X105217731Y-124983152D01*
X105217731Y-124983152D02*
X105408207Y-124983152D01*
X105408207Y-124983152D02*
X105503445Y-125030771D01*
X105503445Y-125030771D02*
X105551064Y-125078390D01*
X105551064Y-125078390D02*
X105598683Y-125173628D01*
X105598683Y-125173628D02*
X105598683Y-125459342D01*
X105598683Y-125459342D02*
X105551064Y-125554580D01*
X105551064Y-125554580D02*
X105503445Y-125602200D01*
X105503445Y-125602200D02*
X105408207Y-125649819D01*
X105408207Y-125649819D02*
X105217731Y-125649819D01*
X105217731Y-125649819D02*
X105122493Y-125602200D01*
X106027255Y-125649819D02*
X106027255Y-124983152D01*
X106027255Y-125173628D02*
X106074874Y-125078390D01*
X106074874Y-125078390D02*
X106122493Y-125030771D01*
X106122493Y-125030771D02*
X106217731Y-124983152D01*
X106217731Y-124983152D02*
X106312969Y-124983152D01*
X107027255Y-125602200D02*
X106932017Y-125649819D01*
X106932017Y-125649819D02*
X106741541Y-125649819D01*
X106741541Y-125649819D02*
X106646303Y-125602200D01*
X106646303Y-125602200D02*
X106598684Y-125506961D01*
X106598684Y-125506961D02*
X106598684Y-125126009D01*
X106598684Y-125126009D02*
X106646303Y-125030771D01*
X106646303Y-125030771D02*
X106741541Y-124983152D01*
X106741541Y-124983152D02*
X106932017Y-124983152D01*
X106932017Y-124983152D02*
X107027255Y-125030771D01*
X107027255Y-125030771D02*
X107074874Y-125126009D01*
X107074874Y-125126009D02*
X107074874Y-125221247D01*
X107074874Y-125221247D02*
X106598684Y-125316485D01*
X108074874Y-125554580D02*
X108027255Y-125602200D01*
X108027255Y-125602200D02*
X107884398Y-125649819D01*
X107884398Y-125649819D02*
X107789160Y-125649819D01*
X107789160Y-125649819D02*
X107646303Y-125602200D01*
X107646303Y-125602200D02*
X107551065Y-125506961D01*
X107551065Y-125506961D02*
X107503446Y-125411723D01*
X107503446Y-125411723D02*
X107455827Y-125221247D01*
X107455827Y-125221247D02*
X107455827Y-125078390D01*
X107455827Y-125078390D02*
X107503446Y-124887914D01*
X107503446Y-124887914D02*
X107551065Y-124792676D01*
X107551065Y-124792676D02*
X107646303Y-124697438D01*
X107646303Y-124697438D02*
X107789160Y-124649819D01*
X107789160Y-124649819D02*
X107884398Y-124649819D01*
X107884398Y-124649819D02*
X108027255Y-124697438D01*
X108027255Y-124697438D02*
X108074874Y-124745057D01*
X108455827Y-125364104D02*
X108932017Y-125364104D01*
X108360589Y-125649819D02*
X108693922Y-124649819D01*
X108693922Y-124649819D02*
X109027255Y-125649819D01*
X109836779Y-125649819D02*
X109360589Y-125649819D01*
X109360589Y-125649819D02*
X109360589Y-124649819D01*
X111503446Y-125649819D02*
X111170113Y-125173628D01*
X110932018Y-125649819D02*
X110932018Y-124649819D01*
X110932018Y-124649819D02*
X111312970Y-124649819D01*
X111312970Y-124649819D02*
X111408208Y-124697438D01*
X111408208Y-124697438D02*
X111455827Y-124745057D01*
X111455827Y-124745057D02*
X111503446Y-124840295D01*
X111503446Y-124840295D02*
X111503446Y-124983152D01*
X111503446Y-124983152D02*
X111455827Y-125078390D01*
X111455827Y-125078390D02*
X111408208Y-125126009D01*
X111408208Y-125126009D02*
X111312970Y-125173628D01*
X111312970Y-125173628D02*
X110932018Y-125173628D01*
X112312970Y-125602200D02*
X112217732Y-125649819D01*
X112217732Y-125649819D02*
X112027256Y-125649819D01*
X112027256Y-125649819D02*
X111932018Y-125602200D01*
X111932018Y-125602200D02*
X111884399Y-125506961D01*
X111884399Y-125506961D02*
X111884399Y-125126009D01*
X111884399Y-125126009D02*
X111932018Y-125030771D01*
X111932018Y-125030771D02*
X112027256Y-124983152D01*
X112027256Y-124983152D02*
X112217732Y-124983152D01*
X112217732Y-124983152D02*
X112312970Y-125030771D01*
X112312970Y-125030771D02*
X112360589Y-125126009D01*
X112360589Y-125126009D02*
X112360589Y-125221247D01*
X112360589Y-125221247D02*
X111884399Y-125316485D01*
X112693923Y-124983152D02*
X112932018Y-125649819D01*
X112932018Y-125649819D02*
X113170113Y-124983152D01*
X113551066Y-125554580D02*
X113598685Y-125602200D01*
X113598685Y-125602200D02*
X113551066Y-125649819D01*
X113551066Y-125649819D02*
X113503447Y-125602200D01*
X113503447Y-125602200D02*
X113551066Y-125554580D01*
X113551066Y-125554580D02*
X113551066Y-125649819D01*
X115122494Y-125126009D02*
X115265351Y-125173628D01*
X115265351Y-125173628D02*
X115312970Y-125221247D01*
X115312970Y-125221247D02*
X115360589Y-125316485D01*
X115360589Y-125316485D02*
X115360589Y-125459342D01*
X115360589Y-125459342D02*
X115312970Y-125554580D01*
X115312970Y-125554580D02*
X115265351Y-125602200D01*
X115265351Y-125602200D02*
X115170113Y-125649819D01*
X115170113Y-125649819D02*
X114789161Y-125649819D01*
X114789161Y-125649819D02*
X114789161Y-124649819D01*
X114789161Y-124649819D02*
X115122494Y-124649819D01*
X115122494Y-124649819D02*
X115217732Y-124697438D01*
X115217732Y-124697438D02*
X115265351Y-124745057D01*
X115265351Y-124745057D02*
X115312970Y-124840295D01*
X115312970Y-124840295D02*
X115312970Y-124935533D01*
X115312970Y-124935533D02*
X115265351Y-125030771D01*
X115265351Y-125030771D02*
X115217732Y-125078390D01*
X115217732Y-125078390D02*
X115122494Y-125126009D01*
X115122494Y-125126009D02*
X114789161Y-125126009D01*
X103789160Y-126355057D02*
X103836779Y-126307438D01*
X103836779Y-126307438D02*
X103932017Y-126259819D01*
X103932017Y-126259819D02*
X104170112Y-126259819D01*
X104170112Y-126259819D02*
X104265350Y-126307438D01*
X104265350Y-126307438D02*
X104312969Y-126355057D01*
X104312969Y-126355057D02*
X104360588Y-126450295D01*
X104360588Y-126450295D02*
X104360588Y-126545533D01*
X104360588Y-126545533D02*
X104312969Y-126688390D01*
X104312969Y-126688390D02*
X103741541Y-127259819D01*
X103741541Y-127259819D02*
X104360588Y-127259819D01*
X104979636Y-126259819D02*
X105074874Y-126259819D01*
X105074874Y-126259819D02*
X105170112Y-126307438D01*
X105170112Y-126307438D02*
X105217731Y-126355057D01*
X105217731Y-126355057D02*
X105265350Y-126450295D01*
X105265350Y-126450295D02*
X105312969Y-126640771D01*
X105312969Y-126640771D02*
X105312969Y-126878866D01*
X105312969Y-126878866D02*
X105265350Y-127069342D01*
X105265350Y-127069342D02*
X105217731Y-127164580D01*
X105217731Y-127164580D02*
X105170112Y-127212200D01*
X105170112Y-127212200D02*
X105074874Y-127259819D01*
X105074874Y-127259819D02*
X104979636Y-127259819D01*
X104979636Y-127259819D02*
X104884398Y-127212200D01*
X104884398Y-127212200D02*
X104836779Y-127164580D01*
X104836779Y-127164580D02*
X104789160Y-127069342D01*
X104789160Y-127069342D02*
X104741541Y-126878866D01*
X104741541Y-126878866D02*
X104741541Y-126640771D01*
X104741541Y-126640771D02*
X104789160Y-126450295D01*
X104789160Y-126450295D02*
X104836779Y-126355057D01*
X104836779Y-126355057D02*
X104884398Y-126307438D01*
X104884398Y-126307438D02*
X104979636Y-126259819D01*
X105693922Y-126355057D02*
X105741541Y-126307438D01*
X105741541Y-126307438D02*
X105836779Y-126259819D01*
X105836779Y-126259819D02*
X106074874Y-126259819D01*
X106074874Y-126259819D02*
X106170112Y-126307438D01*
X106170112Y-126307438D02*
X106217731Y-126355057D01*
X106217731Y-126355057D02*
X106265350Y-126450295D01*
X106265350Y-126450295D02*
X106265350Y-126545533D01*
X106265350Y-126545533D02*
X106217731Y-126688390D01*
X106217731Y-126688390D02*
X105646303Y-127259819D01*
X105646303Y-127259819D02*
X106265350Y-127259819D01*
X106598684Y-126259819D02*
X107217731Y-126259819D01*
X107217731Y-126259819D02*
X106884398Y-126640771D01*
X106884398Y-126640771D02*
X107027255Y-126640771D01*
X107027255Y-126640771D02*
X107122493Y-126688390D01*
X107122493Y-126688390D02*
X107170112Y-126736009D01*
X107170112Y-126736009D02*
X107217731Y-126831247D01*
X107217731Y-126831247D02*
X107217731Y-127069342D01*
X107217731Y-127069342D02*
X107170112Y-127164580D01*
X107170112Y-127164580D02*
X107122493Y-127212200D01*
X107122493Y-127212200D02*
X107027255Y-127259819D01*
X107027255Y-127259819D02*
X106741541Y-127259819D01*
X106741541Y-127259819D02*
X106646303Y-127212200D01*
X106646303Y-127212200D02*
X106598684Y-127164580D01*
X107646303Y-126878866D02*
X108408208Y-126878866D01*
X109408207Y-127259819D02*
X108836779Y-127259819D01*
X109122493Y-127259819D02*
X109122493Y-126259819D01*
X109122493Y-126259819D02*
X109027255Y-126402676D01*
X109027255Y-126402676D02*
X108932017Y-126497914D01*
X108932017Y-126497914D02*
X108836779Y-126545533D01*
X110360588Y-127259819D02*
X109789160Y-127259819D01*
X110074874Y-127259819D02*
X110074874Y-126259819D01*
X110074874Y-126259819D02*
X109979636Y-126402676D01*
X109979636Y-126402676D02*
X109884398Y-126497914D01*
X109884398Y-126497914D02*
X109789160Y-126545533D01*
X110789160Y-126878866D02*
X111551065Y-126878866D01*
X111932017Y-126259819D02*
X112551064Y-126259819D01*
X112551064Y-126259819D02*
X112217731Y-126640771D01*
X112217731Y-126640771D02*
X112360588Y-126640771D01*
X112360588Y-126640771D02*
X112455826Y-126688390D01*
X112455826Y-126688390D02*
X112503445Y-126736009D01*
X112503445Y-126736009D02*
X112551064Y-126831247D01*
X112551064Y-126831247D02*
X112551064Y-127069342D01*
X112551064Y-127069342D02*
X112503445Y-127164580D01*
X112503445Y-127164580D02*
X112455826Y-127212200D01*
X112455826Y-127212200D02*
X112360588Y-127259819D01*
X112360588Y-127259819D02*
X112074874Y-127259819D01*
X112074874Y-127259819D02*
X111979636Y-127212200D01*
X111979636Y-127212200D02*
X111932017Y-127164580D01*
X113170112Y-126259819D02*
X113265350Y-126259819D01*
X113265350Y-126259819D02*
X113360588Y-126307438D01*
X113360588Y-126307438D02*
X113408207Y-126355057D01*
X113408207Y-126355057D02*
X113455826Y-126450295D01*
X113455826Y-126450295D02*
X113503445Y-126640771D01*
X113503445Y-126640771D02*
X113503445Y-126878866D01*
X113503445Y-126878866D02*
X113455826Y-127069342D01*
X113455826Y-127069342D02*
X113408207Y-127164580D01*
X113408207Y-127164580D02*
X113360588Y-127212200D01*
X113360588Y-127212200D02*
X113265350Y-127259819D01*
X113265350Y-127259819D02*
X113170112Y-127259819D01*
X113170112Y-127259819D02*
X113074874Y-127212200D01*
X113074874Y-127212200D02*
X113027255Y-127164580D01*
X113027255Y-127164580D02*
X112979636Y-127069342D01*
X112979636Y-127069342D02*
X112932017Y-126878866D01*
X112932017Y-126878866D02*
X112932017Y-126640771D01*
X112932017Y-126640771D02*
X112979636Y-126450295D01*
X112979636Y-126450295D02*
X113027255Y-126355057D01*
X113027255Y-126355057D02*
X113074874Y-126307438D01*
X113074874Y-126307438D02*
X113170112Y-126259819D01*
X104132017Y-128828961D02*
X104132017Y-129476580D01*
X104132017Y-129476580D02*
X104093922Y-129552771D01*
X104093922Y-129552771D02*
X104055826Y-129590866D01*
X104055826Y-129590866D02*
X103979636Y-129628961D01*
X103979636Y-129628961D02*
X103865350Y-129628961D01*
X103865350Y-129628961D02*
X103789160Y-129590866D01*
X104132017Y-129324200D02*
X104055826Y-129362295D01*
X104055826Y-129362295D02*
X103903445Y-129362295D01*
X103903445Y-129362295D02*
X103827255Y-129324200D01*
X103827255Y-129324200D02*
X103789160Y-129286104D01*
X103789160Y-129286104D02*
X103751064Y-129209914D01*
X103751064Y-129209914D02*
X103751064Y-128981342D01*
X103751064Y-128981342D02*
X103789160Y-128905152D01*
X103789160Y-128905152D02*
X103827255Y-128867057D01*
X103827255Y-128867057D02*
X103903445Y-128828961D01*
X103903445Y-128828961D02*
X104055826Y-128828961D01*
X104055826Y-128828961D02*
X104132017Y-128867057D01*
X104512970Y-129362295D02*
X104512970Y-128828961D01*
X104512970Y-128562295D02*
X104474874Y-128600390D01*
X104474874Y-128600390D02*
X104512970Y-128638485D01*
X104512970Y-128638485D02*
X104551065Y-128600390D01*
X104551065Y-128600390D02*
X104512970Y-128562295D01*
X104512970Y-128562295D02*
X104512970Y-128638485D01*
X104779636Y-128828961D02*
X105084398Y-128828961D01*
X104893922Y-128562295D02*
X104893922Y-129248009D01*
X104893922Y-129248009D02*
X104932017Y-129324200D01*
X104932017Y-129324200D02*
X105008207Y-129362295D01*
X105008207Y-129362295D02*
X105084398Y-129362295D01*
X105351065Y-129362295D02*
X105351065Y-128562295D01*
X105693922Y-129362295D02*
X105693922Y-128943247D01*
X105693922Y-128943247D02*
X105655827Y-128867057D01*
X105655827Y-128867057D02*
X105579636Y-128828961D01*
X105579636Y-128828961D02*
X105465350Y-128828961D01*
X105465350Y-128828961D02*
X105389160Y-128867057D01*
X105389160Y-128867057D02*
X105351065Y-128905152D01*
X106417732Y-128828961D02*
X106417732Y-129362295D01*
X106074875Y-128828961D02*
X106074875Y-129248009D01*
X106074875Y-129248009D02*
X106112970Y-129324200D01*
X106112970Y-129324200D02*
X106189160Y-129362295D01*
X106189160Y-129362295D02*
X106303446Y-129362295D01*
X106303446Y-129362295D02*
X106379637Y-129324200D01*
X106379637Y-129324200D02*
X106417732Y-129286104D01*
X106798685Y-129362295D02*
X106798685Y-128562295D01*
X106798685Y-128867057D02*
X106874875Y-128828961D01*
X106874875Y-128828961D02*
X107027256Y-128828961D01*
X107027256Y-128828961D02*
X107103447Y-128867057D01*
X107103447Y-128867057D02*
X107141542Y-128905152D01*
X107141542Y-128905152D02*
X107179637Y-128981342D01*
X107179637Y-128981342D02*
X107179637Y-129209914D01*
X107179637Y-129209914D02*
X107141542Y-129286104D01*
X107141542Y-129286104D02*
X107103447Y-129324200D01*
X107103447Y-129324200D02*
X107027256Y-129362295D01*
X107027256Y-129362295D02*
X106874875Y-129362295D01*
X106874875Y-129362295D02*
X106798685Y-129324200D01*
X107522495Y-129286104D02*
X107560590Y-129324200D01*
X107560590Y-129324200D02*
X107522495Y-129362295D01*
X107522495Y-129362295D02*
X107484399Y-129324200D01*
X107484399Y-129324200D02*
X107522495Y-129286104D01*
X107522495Y-129286104D02*
X107522495Y-129362295D01*
X108246304Y-129324200D02*
X108170113Y-129362295D01*
X108170113Y-129362295D02*
X108017732Y-129362295D01*
X108017732Y-129362295D02*
X107941542Y-129324200D01*
X107941542Y-129324200D02*
X107903447Y-129286104D01*
X107903447Y-129286104D02*
X107865351Y-129209914D01*
X107865351Y-129209914D02*
X107865351Y-128981342D01*
X107865351Y-128981342D02*
X107903447Y-128905152D01*
X107903447Y-128905152D02*
X107941542Y-128867057D01*
X107941542Y-128867057D02*
X108017732Y-128828961D01*
X108017732Y-128828961D02*
X108170113Y-128828961D01*
X108170113Y-128828961D02*
X108246304Y-128867057D01*
X108703446Y-129362295D02*
X108627256Y-129324200D01*
X108627256Y-129324200D02*
X108589161Y-129286104D01*
X108589161Y-129286104D02*
X108551065Y-129209914D01*
X108551065Y-129209914D02*
X108551065Y-128981342D01*
X108551065Y-128981342D02*
X108589161Y-128905152D01*
X108589161Y-128905152D02*
X108627256Y-128867057D01*
X108627256Y-128867057D02*
X108703446Y-128828961D01*
X108703446Y-128828961D02*
X108817732Y-128828961D01*
X108817732Y-128828961D02*
X108893923Y-128867057D01*
X108893923Y-128867057D02*
X108932018Y-128905152D01*
X108932018Y-128905152D02*
X108970113Y-128981342D01*
X108970113Y-128981342D02*
X108970113Y-129209914D01*
X108970113Y-129209914D02*
X108932018Y-129286104D01*
X108932018Y-129286104D02*
X108893923Y-129324200D01*
X108893923Y-129324200D02*
X108817732Y-129362295D01*
X108817732Y-129362295D02*
X108703446Y-129362295D01*
X109312971Y-129362295D02*
X109312971Y-128828961D01*
X109312971Y-128905152D02*
X109351066Y-128867057D01*
X109351066Y-128867057D02*
X109427256Y-128828961D01*
X109427256Y-128828961D02*
X109541542Y-128828961D01*
X109541542Y-128828961D02*
X109617733Y-128867057D01*
X109617733Y-128867057D02*
X109655828Y-128943247D01*
X109655828Y-128943247D02*
X109655828Y-129362295D01*
X109655828Y-128943247D02*
X109693923Y-128867057D01*
X109693923Y-128867057D02*
X109770114Y-128828961D01*
X109770114Y-128828961D02*
X109884399Y-128828961D01*
X109884399Y-128828961D02*
X109960590Y-128867057D01*
X109960590Y-128867057D02*
X109998685Y-128943247D01*
X109998685Y-128943247D02*
X109998685Y-129362295D01*
X110951066Y-128524200D02*
X110265352Y-129552771D01*
X111217733Y-128828961D02*
X111217733Y-129514676D01*
X111217733Y-129514676D02*
X111179637Y-129590866D01*
X111179637Y-129590866D02*
X111103447Y-129628961D01*
X111103447Y-129628961D02*
X111065352Y-129628961D01*
X111217733Y-128562295D02*
X111179637Y-128600390D01*
X111179637Y-128600390D02*
X111217733Y-128638485D01*
X111217733Y-128638485D02*
X111255828Y-128600390D01*
X111255828Y-128600390D02*
X111217733Y-128562295D01*
X111217733Y-128562295D02*
X111217733Y-128638485D01*
X111941542Y-129362295D02*
X111941542Y-128943247D01*
X111941542Y-128943247D02*
X111903447Y-128867057D01*
X111903447Y-128867057D02*
X111827256Y-128828961D01*
X111827256Y-128828961D02*
X111674875Y-128828961D01*
X111674875Y-128828961D02*
X111598685Y-128867057D01*
X111941542Y-129324200D02*
X111865351Y-129362295D01*
X111865351Y-129362295D02*
X111674875Y-129362295D01*
X111674875Y-129362295D02*
X111598685Y-129324200D01*
X111598685Y-129324200D02*
X111560589Y-129248009D01*
X111560589Y-129248009D02*
X111560589Y-129171819D01*
X111560589Y-129171819D02*
X111598685Y-129095628D01*
X111598685Y-129095628D02*
X111674875Y-129057533D01*
X111674875Y-129057533D02*
X111865351Y-129057533D01*
X111865351Y-129057533D02*
X111941542Y-129019438D01*
X112322495Y-128828961D02*
X112322495Y-129362295D01*
X112322495Y-128905152D02*
X112360590Y-128867057D01*
X112360590Y-128867057D02*
X112436780Y-128828961D01*
X112436780Y-128828961D02*
X112551066Y-128828961D01*
X112551066Y-128828961D02*
X112627257Y-128867057D01*
X112627257Y-128867057D02*
X112665352Y-128943247D01*
X112665352Y-128943247D02*
X112665352Y-129362295D01*
X113046305Y-129362295D02*
X113046305Y-128562295D01*
X113122495Y-129057533D02*
X113351067Y-129362295D01*
X113351067Y-128828961D02*
X113046305Y-129133723D01*
X114036781Y-129362295D02*
X114036781Y-128943247D01*
X114036781Y-128943247D02*
X113998686Y-128867057D01*
X113998686Y-128867057D02*
X113922495Y-128828961D01*
X113922495Y-128828961D02*
X113770114Y-128828961D01*
X113770114Y-128828961D02*
X113693924Y-128867057D01*
X114036781Y-129324200D02*
X113960590Y-129362295D01*
X113960590Y-129362295D02*
X113770114Y-129362295D01*
X113770114Y-129362295D02*
X113693924Y-129324200D01*
X113693924Y-129324200D02*
X113655828Y-129248009D01*
X113655828Y-129248009D02*
X113655828Y-129171819D01*
X113655828Y-129171819D02*
X113693924Y-129095628D01*
X113693924Y-129095628D02*
X113770114Y-129057533D01*
X113770114Y-129057533D02*
X113960590Y-129057533D01*
X113960590Y-129057533D02*
X114036781Y-129019438D01*
X114722496Y-129324200D02*
X114646305Y-129362295D01*
X114646305Y-129362295D02*
X114493924Y-129362295D01*
X114493924Y-129362295D02*
X114417734Y-129324200D01*
X114417734Y-129324200D02*
X114379638Y-129248009D01*
X114379638Y-129248009D02*
X114379638Y-128943247D01*
X114379638Y-128943247D02*
X114417734Y-128867057D01*
X114417734Y-128867057D02*
X114493924Y-128828961D01*
X114493924Y-128828961D02*
X114646305Y-128828961D01*
X114646305Y-128828961D02*
X114722496Y-128867057D01*
X114722496Y-128867057D02*
X114760591Y-128943247D01*
X114760591Y-128943247D02*
X114760591Y-129019438D01*
X114760591Y-129019438D02*
X114379638Y-129095628D01*
X115674876Y-128524200D02*
X114989162Y-129552771D01*
X116322495Y-129362295D02*
X115941543Y-129362295D01*
X115941543Y-129362295D02*
X115941543Y-128562295D01*
X116589162Y-129362295D02*
X116589162Y-128828961D01*
X116589162Y-128562295D02*
X116551066Y-128600390D01*
X116551066Y-128600390D02*
X116589162Y-128638485D01*
X116589162Y-128638485D02*
X116627257Y-128600390D01*
X116627257Y-128600390D02*
X116589162Y-128562295D01*
X116589162Y-128562295D02*
X116589162Y-128638485D01*
X116970114Y-129362295D02*
X116970114Y-128562295D01*
X116970114Y-128867057D02*
X117046304Y-128828961D01*
X117046304Y-128828961D02*
X117198685Y-128828961D01*
X117198685Y-128828961D02*
X117274876Y-128867057D01*
X117274876Y-128867057D02*
X117312971Y-128905152D01*
X117312971Y-128905152D02*
X117351066Y-128981342D01*
X117351066Y-128981342D02*
X117351066Y-129209914D01*
X117351066Y-129209914D02*
X117312971Y-129286104D01*
X117312971Y-129286104D02*
X117274876Y-129324200D01*
X117274876Y-129324200D02*
X117198685Y-129362295D01*
X117198685Y-129362295D02*
X117046304Y-129362295D01*
X117046304Y-129362295D02*
X116970114Y-129324200D01*
X117693924Y-129362295D02*
X117693924Y-128828961D01*
X117693924Y-128981342D02*
X117732019Y-128905152D01*
X117732019Y-128905152D02*
X117770114Y-128867057D01*
X117770114Y-128867057D02*
X117846305Y-128828961D01*
X117846305Y-128828961D02*
X117922495Y-128828961D01*
X118493924Y-129324200D02*
X118417733Y-129362295D01*
X118417733Y-129362295D02*
X118265352Y-129362295D01*
X118265352Y-129362295D02*
X118189162Y-129324200D01*
X118189162Y-129324200D02*
X118151066Y-129248009D01*
X118151066Y-129248009D02*
X118151066Y-128943247D01*
X118151066Y-128943247D02*
X118189162Y-128867057D01*
X118189162Y-128867057D02*
X118265352Y-128828961D01*
X118265352Y-128828961D02*
X118417733Y-128828961D01*
X118417733Y-128828961D02*
X118493924Y-128867057D01*
X118493924Y-128867057D02*
X118532019Y-128943247D01*
X118532019Y-128943247D02*
X118532019Y-129019438D01*
X118532019Y-129019438D02*
X118151066Y-129095628D01*
X119332019Y-129286104D02*
X119293923Y-129324200D01*
X119293923Y-129324200D02*
X119179638Y-129362295D01*
X119179638Y-129362295D02*
X119103447Y-129362295D01*
X119103447Y-129362295D02*
X118989161Y-129324200D01*
X118989161Y-129324200D02*
X118912971Y-129248009D01*
X118912971Y-129248009D02*
X118874876Y-129171819D01*
X118874876Y-129171819D02*
X118836780Y-129019438D01*
X118836780Y-129019438D02*
X118836780Y-128905152D01*
X118836780Y-128905152D02*
X118874876Y-128752771D01*
X118874876Y-128752771D02*
X118912971Y-128676580D01*
X118912971Y-128676580D02*
X118989161Y-128600390D01*
X118989161Y-128600390D02*
X119103447Y-128562295D01*
X119103447Y-128562295D02*
X119179638Y-128562295D01*
X119179638Y-128562295D02*
X119293923Y-128600390D01*
X119293923Y-128600390D02*
X119332019Y-128638485D01*
X119636780Y-129133723D02*
X120017733Y-129133723D01*
X119560590Y-129362295D02*
X119827257Y-128562295D01*
X119827257Y-128562295D02*
X120093923Y-129362295D01*
X120741542Y-129362295D02*
X120360590Y-129362295D01*
X120360590Y-129362295D02*
X120360590Y-128562295D01*
D11*
G04 #@! TO.C,R10*
X107620000Y-106853641D02*
X107620000Y-106546359D01*
X108380000Y-106853641D02*
X108380000Y-106546359D01*
G04 #@! TO.C,C19*
X129760000Y-125692164D02*
X129760000Y-125907836D01*
X129040000Y-125692164D02*
X129040000Y-125907836D01*
G04 #@! TO.C,C11*
X121240000Y-131607836D02*
X121240000Y-131392164D01*
X121960000Y-131607836D02*
X121960000Y-131392164D01*
G04 #@! TO.C,C27*
X121560000Y-123592164D02*
X121560000Y-123807836D01*
X120840000Y-123592164D02*
X120840000Y-123807836D01*
G04 #@! TO.C,R30*
X110620000Y-106853641D02*
X110620000Y-106546359D01*
X111380000Y-106853641D02*
X111380000Y-106546359D01*
G04 #@! TO.C,C14*
X128040000Y-115107836D02*
X128040000Y-114892164D01*
X128760000Y-115107836D02*
X128760000Y-114892164D01*
G04 #@! TO.C,C16*
X133792164Y-119240000D02*
X134007836Y-119240000D01*
X133792164Y-119960000D02*
X134007836Y-119960000D01*
G04 #@! TO.C,C10*
X135392164Y-133040000D02*
X135607836Y-133040000D01*
X135392164Y-133760000D02*
X135607836Y-133760000D01*
G04 #@! TO.C,C3*
X124460000Y-78017164D02*
X124460000Y-78232836D01*
X123740000Y-78017164D02*
X123740000Y-78232836D01*
G04 #@! TO.C,C17*
X127040000Y-115107836D02*
X127040000Y-114892164D01*
X127760000Y-115107836D02*
X127760000Y-114892164D01*
G04 #@! TO.C,J5*
X122800000Y-133600000D02*
X122800000Y-135600000D01*
X122800000Y-137500000D02*
X122800000Y-139400000D01*
X122800000Y-139400000D02*
X132200000Y-139400000D01*
X132200000Y-133600000D02*
X132200000Y-135600000D01*
X132200000Y-137500000D02*
X132200000Y-139400000D01*
G04 #@! TO.C,C26*
X138760000Y-117392164D02*
X138760000Y-117607836D01*
X138040000Y-117392164D02*
X138040000Y-117607836D01*
G04 #@! TO.C,U5*
X137500000Y-131660000D02*
X140950000Y-131660000D01*
X137500000Y-131660000D02*
X135550000Y-131660000D01*
X137500000Y-126540000D02*
X139450000Y-126540000D01*
X137500000Y-126540000D02*
X135550000Y-126540000D01*
G04 #@! TO.C,C7*
X131540000Y-75982836D02*
X131540000Y-75767164D01*
X132260000Y-75982836D02*
X132260000Y-75767164D01*
G04 #@! TO.C,C13*
X132960000Y-112192164D02*
X132960000Y-112407836D01*
X132240000Y-112192164D02*
X132240000Y-112407836D01*
G04 #@! TO.C,R1*
X116520000Y-74853641D02*
X116520000Y-74546359D01*
X117280000Y-74853641D02*
X117280000Y-74546359D01*
G04 #@! TO.C,R3*
X138480000Y-79146359D02*
X138480000Y-79453641D01*
X137720000Y-79146359D02*
X137720000Y-79453641D01*
G04 #@! TO.C,C30*
X119960000Y-135192164D02*
X119960000Y-135407836D01*
X119240000Y-135192164D02*
X119240000Y-135407836D01*
G04 #@! TO.C,U4*
X132890000Y-90140000D02*
X133365000Y-90140000D01*
X137110000Y-90615000D02*
X137110000Y-90140000D01*
X132890000Y-90615000D02*
X132890000Y-90140000D01*
X137110000Y-93885000D02*
X137110000Y-94360000D01*
X132890000Y-93885000D02*
X132890000Y-94360000D01*
X137110000Y-94360000D02*
X136635000Y-94360000D01*
X132890000Y-94360000D02*
X133365000Y-94360000D01*
G04 #@! TO.C,C20*
X123807836Y-124560000D02*
X123592164Y-124560000D01*
X123807836Y-123840000D02*
X123592164Y-123840000D01*
G04 #@! TO.C,C9*
X135392164Y-132040000D02*
X135607836Y-132040000D01*
X135392164Y-132760000D02*
X135607836Y-132760000D01*
G04 #@! TO.C,R11*
X106120000Y-106853641D02*
X106120000Y-106546359D01*
X106880000Y-106853641D02*
X106880000Y-106546359D01*
G04 #@! TO.C,C25*
X137760000Y-117392164D02*
X137760000Y-117607836D01*
X137040000Y-117392164D02*
X137040000Y-117607836D01*
G04 #@! TO.C,R25*
X104620000Y-106853641D02*
X104620000Y-106546359D01*
X105380000Y-106853641D02*
X105380000Y-106546359D01*
G04 #@! TO.C,R12*
X121820000Y-125853641D02*
X121820000Y-125546359D01*
X122580000Y-125853641D02*
X122580000Y-125546359D01*
G04 #@! TO.C,C28*
X121960000Y-135192164D02*
X121960000Y-135407836D01*
X121240000Y-135192164D02*
X121240000Y-135407836D01*
G04 #@! TO.C,R7*
X133746359Y-124120000D02*
X134053641Y-124120000D01*
X133746359Y-124880000D02*
X134053641Y-124880000D01*
G04 #@! TO.C,R13*
X121820000Y-123853641D02*
X121820000Y-123546359D01*
X122580000Y-123853641D02*
X122580000Y-123546359D01*
G04 #@! TO.C,U8*
X139075000Y-122225000D02*
X139335000Y-122225000D01*
X139335000Y-122225000D02*
X139335000Y-123900000D01*
X144525000Y-122225000D02*
X144265000Y-122225000D01*
X139075000Y-119500000D02*
X139075000Y-122225000D01*
X139075000Y-119500000D02*
X139075000Y-116775000D01*
X144525000Y-119500000D02*
X144525000Y-122225000D01*
X144525000Y-119500000D02*
X144525000Y-116775000D01*
X139075000Y-116775000D02*
X139335000Y-116775000D01*
X144525000Y-116775000D02*
X144265000Y-116775000D01*
G04 #@! TO.C,R26*
X146620000Y-106853641D02*
X146620000Y-106546359D01*
X147380000Y-106853641D02*
X147380000Y-106546359D01*
G04 #@! TO.C,C22*
X128760000Y-125592164D02*
X128760000Y-125807836D01*
X128040000Y-125592164D02*
X128040000Y-125807836D01*
G04 #@! TO.C,R27*
X148120000Y-106853641D02*
X148120000Y-106546359D01*
X148880000Y-106853641D02*
X148880000Y-106546359D01*
G04 #@! TO.C,C6*
X130540000Y-90957836D02*
X130540000Y-90742164D01*
X131260000Y-90957836D02*
X131260000Y-90742164D01*
G04 #@! TO.C,U1*
X122110000Y-78860000D02*
X121635000Y-78860000D01*
X117890000Y-78385000D02*
X117890000Y-78860000D01*
X122110000Y-78385000D02*
X122110000Y-78860000D01*
X117890000Y-75115000D02*
X117890000Y-74640000D01*
X122110000Y-75115000D02*
X122110000Y-74640000D01*
X117890000Y-74640000D02*
X118365000Y-74640000D01*
X122110000Y-74640000D02*
X121635000Y-74640000D01*
G04 #@! TO.C,C12*
X132240000Y-114307836D02*
X132240000Y-114092164D01*
X132960000Y-114307836D02*
X132960000Y-114092164D01*
G04 #@! TO.C,C29*
X120960000Y-135192164D02*
X120960000Y-135407836D01*
X120240000Y-135192164D02*
X120240000Y-135407836D01*
G04 #@! TO.C,U9*
X118910000Y-135900000D02*
X118910000Y-134700000D01*
X117490000Y-135300000D02*
X117490000Y-134700000D01*
G04 #@! TO.C,R6*
X124753641Y-130080000D02*
X124446359Y-130080000D01*
X124753641Y-129320000D02*
X124446359Y-129320000D01*
G04 #@! TO.C,R29*
X109120000Y-106853641D02*
X109120000Y-106546359D01*
X109880000Y-106853641D02*
X109880000Y-106546359D01*
G04 #@! TO.C,C21*
X127160000Y-125592164D02*
X127160000Y-125807836D01*
X126440000Y-125592164D02*
X126440000Y-125807836D01*
G04 #@! TO.C,Q1*
X116800000Y-106560000D02*
X118475000Y-106560000D01*
X116800000Y-106560000D02*
X116150000Y-106560000D01*
X116800000Y-103440000D02*
X117450000Y-103440000D01*
X116800000Y-103440000D02*
X116150000Y-103440000D01*
G04 #@! TO.C,R31*
X112120000Y-106853641D02*
X112120000Y-106546359D01*
X112880000Y-106853641D02*
X112880000Y-106546359D01*
G04 #@! TO.C,R34*
X142120000Y-106853641D02*
X142120000Y-106546359D01*
X142880000Y-106853641D02*
X142880000Y-106546359D01*
G04 #@! TO.C,C46*
X131265000Y-105161252D02*
X131265000Y-104638748D01*
X132735000Y-105161252D02*
X132735000Y-104638748D01*
G04 #@! TO.C,R5*
X130446359Y-129320000D02*
X130753641Y-129320000D01*
X130446359Y-130080000D02*
X130753641Y-130080000D01*
G04 #@! TO.C,R35*
X121520000Y-106853641D02*
X121520000Y-106546359D01*
X122280000Y-106853641D02*
X122280000Y-106546359D01*
G04 #@! TO.C,Y1*
X129100000Y-114950000D02*
X131900000Y-114950000D01*
X131900000Y-114950000D02*
X131900000Y-111650000D01*
G04 #@! TO.C,R28*
X149620000Y-106853641D02*
X149620000Y-106546359D01*
X150380000Y-106853641D02*
X150380000Y-106546359D01*
G04 #@! TO.C,U3*
X132890000Y-75140000D02*
X133365000Y-75140000D01*
X137110000Y-75615000D02*
X137110000Y-75140000D01*
X132890000Y-75615000D02*
X132890000Y-75140000D01*
X137110000Y-78885000D02*
X137110000Y-79360000D01*
X132890000Y-78885000D02*
X132890000Y-79360000D01*
X137110000Y-79360000D02*
X136635000Y-79360000D01*
X132890000Y-79360000D02*
X133365000Y-79360000D01*
G04 #@! TO.C,C1*
X123460000Y-78017164D02*
X123460000Y-78232836D01*
X122740000Y-78017164D02*
X122740000Y-78232836D01*
G04 #@! TO.C,C15*
X133792164Y-123040000D02*
X134007836Y-123040000D01*
X133792164Y-123760000D02*
X134007836Y-123760000D01*
G04 #@! TO.C,R32*
X145120000Y-106853641D02*
X145120000Y-106546359D01*
X145880000Y-106853641D02*
X145880000Y-106546359D01*
G04 #@! TO.C,C47*
X133265000Y-105161252D02*
X133265000Y-104638748D01*
X134735000Y-105161252D02*
X134735000Y-104638748D01*
G04 #@! TO.C,C23*
X126160000Y-125592164D02*
X126160000Y-125807836D01*
X125440000Y-125592164D02*
X125440000Y-125807836D01*
G04 #@! TO.C,C31*
X116440000Y-135407836D02*
X116440000Y-135192164D01*
X117160000Y-135407836D02*
X117160000Y-135192164D01*
G04 #@! TO.C,C24*
X125160000Y-125592164D02*
X125160000Y-125807836D01*
X124440000Y-125592164D02*
X124440000Y-125807836D01*
G04 #@! TO.C,R36*
X114380000Y-106546359D02*
X114380000Y-106853641D01*
X113620000Y-106546359D02*
X113620000Y-106853641D01*
G04 #@! TO.C,R33*
X143620000Y-106853641D02*
X143620000Y-106546359D01*
X144380000Y-106853641D02*
X144380000Y-106546359D01*
G04 #@! TO.C,C2*
X123460000Y-93042164D02*
X123460000Y-93257836D01*
X122740000Y-93042164D02*
X122740000Y-93257836D01*
G04 #@! TO.C,C4*
X124460000Y-93042164D02*
X124460000Y-93257836D01*
X123740000Y-93042164D02*
X123740000Y-93257836D01*
G04 #@! TO.C,C32*
X115440000Y-135407836D02*
X115440000Y-135192164D01*
X116160000Y-135407836D02*
X116160000Y-135192164D01*
G04 #@! TO.C,R2*
X116520000Y-89953641D02*
X116520000Y-89646359D01*
X117280000Y-89953641D02*
X117280000Y-89646359D01*
G04 #@! TO.C,U2*
X122110000Y-93860000D02*
X121635000Y-93860000D01*
X117890000Y-93385000D02*
X117890000Y-93860000D01*
X122110000Y-93385000D02*
X122110000Y-93860000D01*
X117890000Y-90115000D02*
X117890000Y-89640000D01*
X122110000Y-90115000D02*
X122110000Y-89640000D01*
X117890000Y-89640000D02*
X118365000Y-89640000D01*
X122110000Y-89640000D02*
X121635000Y-89640000D01*
G04 #@! TO.C,C8*
X131540000Y-90957836D02*
X131540000Y-90742164D01*
X132260000Y-90957836D02*
X132260000Y-90742164D01*
G04 #@! TO.C,C5*
X130540000Y-75982836D02*
X130540000Y-75767164D01*
X131260000Y-75982836D02*
X131260000Y-75767164D01*
G04 #@! TO.C,U7*
X132410000Y-116990000D02*
X132410000Y-117640000D01*
X131760000Y-124210000D02*
X132410000Y-124210000D01*
X131760000Y-116990000D02*
X132410000Y-116990000D01*
X125840000Y-124210000D02*
X125190000Y-124210000D01*
X125840000Y-116990000D02*
X125190000Y-116990000D01*
X125190000Y-124210000D02*
X125190000Y-123560000D01*
X125190000Y-116990000D02*
X125190000Y-117640000D01*
G04 #@! TO.C,U6*
X127600000Y-130060000D02*
X129400000Y-130060000D01*
X127600000Y-130060000D02*
X126800000Y-130060000D01*
X127600000Y-126940000D02*
X128400000Y-126940000D01*
X127600000Y-126940000D02*
X126800000Y-126940000D01*
G04 #@! TO.C,R4*
X138480000Y-94146359D02*
X138480000Y-94453641D01*
X137720000Y-94146359D02*
X137720000Y-94453641D01*
G04 #@! TO.C,C18*
X123807836Y-119960000D02*
X123592164Y-119960000D01*
X123807836Y-119240000D02*
X123592164Y-119240000D01*
G04 #@! TD*
M02*
