%TF.GenerationSoftware,KiCad,Pcbnew,(6.0.7)*%
%TF.CreationDate,2022-08-30T14:04:15+02:00*%
%TF.ProjectId,LibreCAL,4c696272-6543-4414-9c2e-6b696361645f,rev?*%
%TF.SameCoordinates,Original*%
%TF.FileFunction,Soldermask,Bot*%
%TF.FilePolarity,Negative*%
%FSLAX46Y46*%
G04 Gerber Fmt 4.6, Leading zero omitted, Abs format (unit mm)*
G04 Created by KiCad (PCBNEW (6.0.7)) date 2022-08-30 14:04:15*
%MOMM*%
%LPD*%
G01*
G04 APERTURE LIST*
G04 Aperture macros list*
%AMRoundRect*
0 Rectangle with rounded corners*
0 $1 Rounding radius*
0 $2 $3 $4 $5 $6 $7 $8 $9 X,Y pos of 4 corners*
0 Add a 4 corners polygon primitive as box body*
4,1,4,$2,$3,$4,$5,$6,$7,$8,$9,$2,$3,0*
0 Add four circle primitives for the rounded corners*
1,1,$1+$1,$2,$3*
1,1,$1+$1,$4,$5*
1,1,$1+$1,$6,$7*
1,1,$1+$1,$8,$9*
0 Add four rect primitives between the rounded corners*
20,1,$1+$1,$2,$3,$4,$5,0*
20,1,$1+$1,$4,$5,$6,$7,0*
20,1,$1+$1,$6,$7,$8,$9,0*
20,1,$1+$1,$8,$9,$2,$3,0*%
G04 Aperture macros list end*
%ADD10C,0.100000*%
%ADD11C,1.000000*%
%ADD12C,1.400000*%
%ADD13C,5.500000*%
%ADD14C,3.600000*%
%ADD15C,0.650000*%
%ADD16O,1.000000X2.100000*%
%ADD17O,1.000000X1.600000*%
%ADD18RoundRect,0.250000X1.425000X-0.362500X1.425000X0.362500X-1.425000X0.362500X-1.425000X-0.362500X0*%
%ADD19RoundRect,0.135000X-0.185000X0.135000X-0.185000X-0.135000X0.185000X-0.135000X0.185000X0.135000X0*%
%ADD20RoundRect,0.218750X0.256250X-0.218750X0.256250X0.218750X-0.256250X0.218750X-0.256250X-0.218750X0*%
%ADD21RoundRect,0.140000X-0.560000X0.910000X-0.560000X-0.910000X0.560000X-0.910000X0.560000X0.910000X0*%
%ADD22RoundRect,0.135000X0.135000X0.185000X-0.135000X0.185000X-0.135000X-0.185000X0.135000X-0.185000X0*%
%ADD23C,0.990600*%
%ADD24C,0.787400*%
%ADD25RoundRect,0.140000X0.560000X-0.910000X0.560000X0.910000X-0.560000X0.910000X-0.560000X-0.910000X0*%
%ADD26RoundRect,0.135000X0.185000X-0.135000X0.185000X0.135000X-0.185000X0.135000X-0.185000X-0.135000X0*%
G04 APERTURE END LIST*
D10*
X155000000Y-139500000D02*
X152000000Y-139500000D01*
X152000000Y-139500000D02*
X152000000Y-68900000D01*
X152000000Y-68900000D02*
X155000000Y-68900000D01*
X155000000Y-68900000D02*
X155000000Y-139500000D01*
G36*
X155000000Y-139500000D02*
G01*
X152000000Y-139500000D01*
X152000000Y-68900000D01*
X155000000Y-68900000D01*
X155000000Y-139500000D01*
G37*
X100000000Y-103000000D02*
X155000000Y-103000000D01*
X155000000Y-103000000D02*
X155000000Y-100000000D01*
X155000000Y-100000000D02*
X100000000Y-100000000D01*
X100000000Y-100000000D02*
X100000000Y-103000000D01*
G36*
X100000000Y-103000000D02*
G01*
X155000000Y-103000000D01*
X155000000Y-100000000D01*
X100000000Y-100000000D01*
X100000000Y-103000000D01*
G37*
X103000000Y-139500000D02*
X100000000Y-139500000D01*
X100000000Y-139500000D02*
X100000000Y-68900000D01*
X100000000Y-68900000D02*
X103000000Y-68900000D01*
X103000000Y-68900000D02*
X103000000Y-139500000D01*
G36*
X103000000Y-139500000D02*
G01*
X100000000Y-139500000D01*
X100000000Y-68900000D01*
X103000000Y-68900000D01*
X103000000Y-139500000D01*
G37*
D11*
X118750000Y-95500000D02*
X118750000Y-93250000D01*
X136250000Y-75750000D02*
X136250000Y-73500000D01*
D10*
X100000000Y-111000000D02*
X155000000Y-111000000D01*
X155000000Y-111000000D02*
X155000000Y-108000000D01*
X155000000Y-108000000D02*
X100000000Y-108000000D01*
X100000000Y-108000000D02*
X100000000Y-111000000D01*
G36*
X100000000Y-111000000D02*
G01*
X155000000Y-111000000D01*
X155000000Y-108000000D01*
X100000000Y-108000000D01*
X100000000Y-111000000D01*
G37*
X100000000Y-69000000D02*
X155000000Y-69000000D01*
X155000000Y-69000000D02*
X155000000Y-66000000D01*
X155000000Y-66000000D02*
X100000000Y-66000000D01*
X100000000Y-66000000D02*
X100000000Y-69000000D01*
G36*
X100000000Y-69000000D02*
G01*
X155000000Y-69000000D01*
X155000000Y-66000000D01*
X100000000Y-66000000D01*
X100000000Y-69000000D01*
G37*
D11*
X118750000Y-93250000D02*
X136250000Y-75750000D01*
D10*
X100000000Y-139500000D02*
X155000000Y-139500000D01*
X155000000Y-139500000D02*
X155000000Y-136500000D01*
X155000000Y-136500000D02*
X100000000Y-136500000D01*
X100000000Y-136500000D02*
X100000000Y-139500000D01*
G36*
X100000000Y-139500000D02*
G01*
X155000000Y-139500000D01*
X155000000Y-136500000D01*
X100000000Y-136500000D01*
X100000000Y-139500000D01*
G37*
D12*
%TO.C,J1*%
X101750000Y-75780000D03*
X103960000Y-75780000D03*
X101750000Y-78220000D03*
X103960000Y-78220000D03*
%TD*%
%TO.C,J3*%
X153250000Y-78220000D03*
X151040000Y-78220000D03*
X153250000Y-75780000D03*
X151040000Y-75780000D03*
%TD*%
%TO.C,J4*%
X153250000Y-93220000D03*
X151040000Y-93220000D03*
X153250000Y-90780000D03*
X151040000Y-90780000D03*
%TD*%
%TO.C,J2*%
X101750000Y-90780000D03*
X103960000Y-90780000D03*
X101750000Y-93220000D03*
X103960000Y-93220000D03*
%TD*%
D13*
%TO.C,H2*%
X152000000Y-69000000D03*
D14*
X152000000Y-69000000D03*
%TD*%
D15*
%TO.C,J5*%
X130390000Y-132900000D03*
X124610000Y-132900000D03*
D16*
X123180000Y-132370000D03*
D17*
X123180000Y-136550000D03*
X131820000Y-136550000D03*
D16*
X131820000Y-132370000D03*
%TD*%
D13*
%TO.C,H5*%
X152000000Y-100000000D03*
D14*
X152000000Y-100000000D03*
%TD*%
D13*
%TO.C,H3*%
X103000000Y-69000000D03*
D14*
X103000000Y-69000000D03*
%TD*%
%TO.C,H4*%
X103000000Y-136500000D03*
D13*
X103000000Y-136500000D03*
%TD*%
%TO.C,H6*%
X103000000Y-100000000D03*
D14*
X103000000Y-100000000D03*
%TD*%
%TO.C,H1*%
X152000000Y-136500000D03*
D13*
X152000000Y-136500000D03*
%TD*%
D18*
%TO.C,R9*%
X127500000Y-80562500D03*
X127500000Y-74637500D03*
%TD*%
D19*
%TO.C,R22*%
X141000000Y-114990000D03*
X141000000Y-116010000D03*
%TD*%
D20*
%TO.C,D1*%
X150000000Y-113787500D03*
X150000000Y-112212500D03*
%TD*%
%TO.C,D8*%
X138000000Y-113787500D03*
X138000000Y-112212500D03*
%TD*%
D19*
%TO.C,R18*%
X111000000Y-114990000D03*
X111000000Y-116010000D03*
%TD*%
%TO.C,R24*%
X135000000Y-114990000D03*
X135000000Y-116010000D03*
%TD*%
D21*
%TO.C,SW1*%
X139250000Y-124950000D03*
X139250000Y-134050000D03*
X134750000Y-124950000D03*
X134750000Y-134050000D03*
%TD*%
D20*
%TO.C,D10*%
X132000000Y-113787500D03*
X132000000Y-112212500D03*
%TD*%
%TO.C,D11*%
X135000000Y-113787500D03*
X135000000Y-112212500D03*
%TD*%
D22*
%TO.C,R23*%
X130710000Y-112000000D03*
X129690000Y-112000000D03*
%TD*%
D20*
%TO.C,D9*%
X141000000Y-113787500D03*
X141000000Y-112212500D03*
%TD*%
%TO.C,D5*%
X111000000Y-113787500D03*
X111000000Y-112212500D03*
%TD*%
D19*
%TO.C,R15*%
X147000000Y-114990000D03*
X147000000Y-116010000D03*
%TD*%
%TO.C,R19*%
X108000000Y-114990000D03*
X108000000Y-116010000D03*
%TD*%
%TO.C,R16*%
X144000000Y-114990000D03*
X144000000Y-116010000D03*
%TD*%
%TO.C,R21*%
X138000000Y-114990000D03*
X138000000Y-116010000D03*
%TD*%
D23*
%TO.C,J6*%
X120960000Y-114416000D03*
X126040000Y-113400000D03*
X120960000Y-112384000D03*
D24*
X124770000Y-114035000D03*
X124770000Y-112765000D03*
X123500000Y-114035000D03*
X123500000Y-112765000D03*
X122230000Y-114035000D03*
X122230000Y-112765000D03*
%TD*%
D19*
%TO.C,R20*%
X105000000Y-114990000D03*
X105000000Y-116010000D03*
%TD*%
D25*
%TO.C,SW3*%
X107750000Y-134050000D03*
X107750000Y-124950000D03*
X112250000Y-134050000D03*
X112250000Y-124950000D03*
%TD*%
D19*
%TO.C,R17*%
X114000000Y-114990000D03*
X114000000Y-116010000D03*
%TD*%
%TO.C,R14*%
X150000000Y-114990000D03*
X150000000Y-116010000D03*
%TD*%
D20*
%TO.C,D6*%
X108000000Y-113787500D03*
X108000000Y-112212500D03*
%TD*%
D18*
%TO.C,R8*%
X127500000Y-94362500D03*
X127500000Y-88437500D03*
%TD*%
D20*
%TO.C,D3*%
X144000000Y-113787500D03*
X144000000Y-112212500D03*
%TD*%
%TO.C,D2*%
X147000000Y-113787500D03*
X147000000Y-112212500D03*
%TD*%
D26*
%TO.C,TH1*%
X122500000Y-85010000D03*
X122500000Y-83990000D03*
%TD*%
D25*
%TO.C,SW2*%
X142750000Y-134050000D03*
X142750000Y-124950000D03*
X147250000Y-134050000D03*
X147250000Y-124950000D03*
%TD*%
D20*
%TO.C,D7*%
X105000000Y-113787500D03*
X105000000Y-112212500D03*
%TD*%
%TO.C,D4*%
X114000000Y-113787500D03*
X114000000Y-112212500D03*
%TD*%
M02*
